[
	{
		"deltaTime": 0,
		"type": "meta",
		"subtype": "timeSignature",
		"numerator": 4,
		"denominator": 4,
		"metronome": 96,
		"thirtyseconds": 8,
		"time": 0,
		"track": 0
	},
	{
		"deltaTime": 0,
		"type": "meta",
		"subtype": "setTempo",
		"microsecondsPerBeat": 571428,
		"time": 0,
		"track": 0
	},
	{
		"deltaTime": 0,
		"type": "meta",
		"subtype": "endOfTrack",
		"time": 0,
		"track": 0
	},
	{
		"deltaTime": 0,
		"type": "meta",
		"subtype": "trackName",
		"text": "Sequenced by P.J. Barnes",
		"time": 0,
		"track": 1
	},
	{
		"deltaTime": 0,
		"channel": 0,
		"type": "channel",
		"subtype": "controller",
		"controllerType": 0,
		"value": 0,
		"time": 0,
		"track": 1
	},
	{
		"deltaTime": 0,
		"channel": 0,
		"type": "channel",
		"subtype": "programChange",
		"programNumber": 26,
		"time": 0,
		"track": 1
	},
	{
		"deltaTime": 0,
		"type": "meta",
		"subtype": "timeSignature",
		"numerator": 4,
		"denominator": 4,
		"metronome": 96,
		"thirtyseconds": 8,
		"time": 0,
		"track": 1
	},
	{
		"deltaTime": 0,
		"type": "meta",
		"subtype": "setTempo",
		"microsecondsPerBeat": 571428,
		"time": 0,
		"track": 1
	},
	{
		"deltaTime": 0,
		"channel": 0,
		"type": "channel",
		"noteNumber": 76,
		"velocity": 85.33333333333333,
		"subtype": "noteOn",
		"time": 0,
		"track": 1
	},
	{
		"deltaTime": 0,
		"type": "meta",
		"subtype": "trackName",
		"text": "Countermelody",
		"time": 0,
		"track": 2
	},
	{
		"deltaTime": 0,
		"channel": 1,
		"type": "channel",
		"subtype": "controller",
		"controllerType": 0,
		"value": 0,
		"time": 0,
		"track": 2
	},
	{
		"deltaTime": 0,
		"channel": 1,
		"type": "channel",
		"subtype": "programChange",
		"programNumber": 26,
		"time": 0,
		"track": 2
	},
	{
		"deltaTime": 0,
		"type": "meta",
		"subtype": "timeSignature",
		"numerator": 4,
		"denominator": 4,
		"metronome": 96,
		"thirtyseconds": 8,
		"time": 0,
		"track": 2
	},
	{
		"deltaTime": 0,
		"type": "meta",
		"subtype": "setTempo",
		"microsecondsPerBeat": 571428,
		"time": 0,
		"track": 2
	},
	{
		"deltaTime": 0,
		"channel": 1,
		"type": "channel",
		"noteNumber": 66,
		"velocity": 85.33333333333333,
		"subtype": "noteOn",
		"time": 0,
		"track": 2
	},
	{
		"deltaTime": 0,
		"type": "meta",
		"subtype": "trackName",
		"text": "Bass Line",
		"time": 0,
		"track": 3
	},
	{
		"deltaTime": 0,
		"channel": 2,
		"type": "channel",
		"subtype": "controller",
		"controllerType": 0,
		"value": 0,
		"time": 0,
		"track": 3
	},
	{
		"deltaTime": 0,
		"channel": 2,
		"type": "channel",
		"subtype": "programChange",
		"programNumber": 26,
		"time": 0,
		"track": 3
	},
	{
		"deltaTime": 0,
		"type": "meta",
		"subtype": "timeSignature",
		"numerator": 4,
		"denominator": 4,
		"metronome": 96,
		"thirtyseconds": 8,
		"time": 0,
		"track": 3
	},
	{
		"deltaTime": 0,
		"type": "meta",
		"subtype": "setTempo",
		"microsecondsPerBeat": 571428,
		"time": 0,
		"track": 3
	},
	{
		"deltaTime": 0,
		"channel": 2,
		"type": "channel",
		"noteNumber": 50,
		"velocity": 85.33333333333333,
		"subtype": "noteOn",
		"time": 0,
		"track": 3
	},
	{
		"deltaTime": 0,
		"type": "meta",
		"subtype": "trackName",
		"text": "Percussion",
		"time": 0,
		"track": 4
	},
	{
		"deltaTime": 0,
		"channel": 9,
		"type": "channel",
		"subtype": "controller",
		"controllerType": 0,
		"value": 0,
		"time": 0,
		"track": 4
	},
	{
		"deltaTime": 0,
		"channel": 9,
		"type": "channel",
		"subtype": "programChange",
		"programNumber": 0,
		"time": 0,
		"track": 4
	},
	{
		"deltaTime": 0,
		"type": "meta",
		"subtype": "timeSignature",
		"numerator": 4,
		"denominator": 4,
		"metronome": 96,
		"thirtyseconds": 8,
		"time": 0,
		"track": 4
	},
	{
		"deltaTime": 0,
		"type": "meta",
		"subtype": "setTempo",
		"microsecondsPerBeat": 571428,
		"time": 0,
		"track": 4
	},
	{
		"deltaTime": 16,
		"channel": 9,
		"type": "channel",
		"noteNumber": 42,
		"velocity": 127,
		"subtype": "noteOn",
		"time": 0,
		"track": 4
	},
	{
		"deltaTime": 0,
		"channel": 0,
		"type": "channel",
		"subtype": "noteOff",
		"noteNumber": 76,
		"velocity": 0,
		"time": 16,
		"track": 1
	},
	{
		"deltaTime": 0,
		"channel": 1,
		"type": "channel",
		"subtype": "noteOff",
		"noteNumber": 66,
		"velocity": 0,
		"time": 16,
		"track": 2
	},
	{
		"deltaTime": 8,
		"channel": 2,
		"type": "channel",
		"subtype": "noteOff",
		"noteNumber": 50,
		"velocity": 0,
		"time": 16,
		"track": 3
	},
	{
		"deltaTime": 0,
		"channel": 0,
		"type": "channel",
		"noteNumber": 76,
		"velocity": 85.33333333333333,
		"subtype": "noteOn",
		"time": 24,
		"track": 1
	},
	{
		"deltaTime": 0,
		"channel": 1,
		"type": "channel",
		"noteNumber": 66,
		"velocity": 85.33333333333333,
		"subtype": "noteOn",
		"time": 24,
		"track": 2
	},
	{
		"deltaTime": 8,
		"channel": 2,
		"type": "channel",
		"noteNumber": 50,
		"velocity": 85.33333333333333,
		"subtype": "noteOn",
		"time": 24,
		"track": 3
	},
	{
		"deltaTime": 8,
		"channel": 9,
		"type": "channel",
		"subtype": "noteOff",
		"noteNumber": 42,
		"velocity": 0,
		"time": 32,
		"track": 4
	},
	{
		"deltaTime": 0,
		"channel": 0,
		"type": "channel",
		"subtype": "noteOff",
		"noteNumber": 76,
		"velocity": 0,
		"time": 40,
		"track": 1
	},
	{
		"deltaTime": 0,
		"channel": 1,
		"type": "channel",
		"subtype": "noteOff",
		"noteNumber": 66,
		"velocity": 0,
		"time": 40,
		"track": 2
	},
	{
		"deltaTime": 8,
		"channel": 2,
		"type": "channel",
		"subtype": "noteOff",
		"noteNumber": 50,
		"velocity": 0,
		"time": 40,
		"track": 3
	},
	{
		"deltaTime": 16,
		"channel": 9,
		"type": "channel",
		"noteNumber": 42,
		"velocity": 127,
		"subtype": "noteOn",
		"time": 48,
		"track": 4
	},
	{
		"deltaTime": 8,
		"channel": 9,
		"type": "channel",
		"subtype": "noteOff",
		"noteNumber": 42,
		"velocity": 0,
		"time": 64,
		"track": 4
	},
	{
		"deltaTime": 0,
		"channel": 0,
		"type": "channel",
		"noteNumber": 76,
		"velocity": 85.33333333333333,
		"subtype": "noteOn",
		"time": 72,
		"track": 1
	},
	{
		"deltaTime": 0,
		"channel": 1,
		"type": "channel",
		"noteNumber": 66,
		"velocity": 85.33333333333333,
		"subtype": "noteOn",
		"time": 72,
		"track": 2
	},
	{
		"deltaTime": 0,
		"channel": 2,
		"type": "channel",
		"noteNumber": 50,
		"velocity": 85.33333333333333,
		"subtype": "noteOn",
		"time": 72,
		"track": 3
	},
	{
		"deltaTime": 16,
		"channel": 9,
		"type": "channel",
		"noteNumber": 42,
		"velocity": 127,
		"subtype": "noteOn",
		"time": 72,
		"track": 4
	},
	{
		"deltaTime": 0,
		"channel": 0,
		"type": "channel",
		"subtype": "noteOff",
		"noteNumber": 76,
		"velocity": 0,
		"time": 88,
		"track": 1
	},
	{
		"deltaTime": 0,
		"channel": 1,
		"type": "channel",
		"subtype": "noteOff",
		"noteNumber": 66,
		"velocity": 0,
		"time": 88,
		"track": 2
	},
	{
		"deltaTime": 16,
		"channel": 2,
		"type": "channel",
		"subtype": "noteOff",
		"noteNumber": 50,
		"velocity": 0,
		"time": 88,
		"track": 3
	},
	{
		"deltaTime": 16,
		"channel": 9,
		"type": "channel",
		"subtype": "noteOff",
		"noteNumber": 42,
		"velocity": 0,
		"time": 104,
		"track": 4
	},
	{
		"deltaTime": 0,
		"channel": 0,
		"type": "channel",
		"noteNumber": 72,
		"velocity": 85.33333333333333,
		"subtype": "noteOn",
		"time": 120,
		"track": 1
	},
	{
		"deltaTime": 0,
		"channel": 1,
		"type": "channel",
		"noteNumber": 66,
		"velocity": 85.33333333333333,
		"subtype": "noteOn",
		"time": 120,
		"track": 2
	},
	{
		"deltaTime": 0,
		"channel": 2,
		"type": "channel",
		"noteNumber": 50,
		"velocity": 85.33333333333333,
		"subtype": "noteOn",
		"time": 120,
		"track": 3
	},
	{
		"deltaTime": 16,
		"channel": 9,
		"type": "channel",
		"noteNumber": 42,
		"velocity": 127,
		"subtype": "noteOn",
		"time": 120,
		"track": 4
	},
	{
		"deltaTime": 0,
		"channel": 0,
		"type": "channel",
		"subtype": "noteOff",
		"noteNumber": 72,
		"velocity": 0,
		"time": 136,
		"track": 1
	},
	{
		"deltaTime": 0,
		"channel": 1,
		"type": "channel",
		"subtype": "noteOff",
		"noteNumber": 66,
		"velocity": 0,
		"time": 136,
		"track": 2
	},
	{
		"deltaTime": 0,
		"channel": 2,
		"type": "channel",
		"subtype": "noteOff",
		"noteNumber": 50,
		"velocity": 0,
		"time": 136,
		"track": 3
	},
	{
		"deltaTime": 8,
		"channel": 9,
		"type": "channel",
		"subtype": "noteOff",
		"noteNumber": 42,
		"velocity": 0,
		"time": 136,
		"track": 4
	},
	{
		"deltaTime": 0,
		"channel": 0,
		"type": "channel",
		"noteNumber": 76,
		"velocity": 85.33333333333333,
		"subtype": "noteOn",
		"time": 144,
		"track": 1
	},
	{
		"deltaTime": 0,
		"channel": 1,
		"type": "channel",
		"noteNumber": 66,
		"velocity": 85.33333333333333,
		"subtype": "noteOn",
		"time": 144,
		"track": 2
	},
	{
		"deltaTime": 0,
		"channel": 2,
		"type": "channel",
		"noteNumber": 50,
		"velocity": 85.33333333333333,
		"subtype": "noteOn",
		"time": 144,
		"track": 3
	},
	{
		"deltaTime": 16,
		"channel": 9,
		"type": "channel",
		"noteNumber": 42,
		"velocity": 127,
		"subtype": "noteOn",
		"time": 144,
		"track": 4
	},
	{
		"deltaTime": 0,
		"channel": 0,
		"type": "channel",
		"subtype": "noteOff",
		"noteNumber": 76,
		"velocity": 0,
		"time": 160,
		"track": 1
	},
	{
		"deltaTime": 0,
		"channel": 1,
		"type": "channel",
		"subtype": "noteOff",
		"noteNumber": 66,
		"velocity": 0,
		"time": 160,
		"track": 2
	},
	{
		"deltaTime": 16,
		"channel": 2,
		"type": "channel",
		"subtype": "noteOff",
		"noteNumber": 50,
		"velocity": 0,
		"time": 160,
		"track": 3
	},
	{
		"deltaTime": 16,
		"channel": 9,
		"type": "channel",
		"subtype": "noteOff",
		"noteNumber": 42,
		"velocity": 0,
		"time": 176,
		"track": 4
	},
	{
		"deltaTime": 0,
		"channel": 0,
		"type": "channel",
		"noteNumber": 79,
		"velocity": 85.33333333333333,
		"subtype": "noteOn",
		"time": 192,
		"track": 1
	},
	{
		"deltaTime": 0,
		"channel": 1,
		"type": "channel",
		"noteNumber": 71,
		"velocity": 85.33333333333333,
		"subtype": "noteOn",
		"time": 192,
		"track": 2
	},
	{
		"deltaTime": 0,
		"channel": 2,
		"type": "channel",
		"noteNumber": 67,
		"velocity": 85.33333333333333,
		"subtype": "noteOn",
		"time": 192,
		"track": 3
	},
	{
		"deltaTime": 16,
		"channel": 9,
		"type": "channel",
		"noteNumber": 42,
		"velocity": 127,
		"subtype": "noteOn",
		"time": 192,
		"track": 4
	},
	{
		"deltaTime": 0,
		"channel": 0,
		"type": "channel",
		"subtype": "noteOff",
		"noteNumber": 79,
		"velocity": 0,
		"time": 208,
		"track": 1
	},
	{
		"deltaTime": 0,
		"channel": 1,
		"type": "channel",
		"subtype": "noteOff",
		"noteNumber": 71,
		"velocity": 0,
		"time": 208,
		"track": 2
	},
	{
		"deltaTime": 16,
		"channel": 2,
		"type": "channel",
		"subtype": "noteOff",
		"noteNumber": 67,
		"velocity": 0,
		"time": 208,
		"track": 3
	},
	{
		"deltaTime": 40,
		"channel": 9,
		"type": "channel",
		"subtype": "noteOff",
		"noteNumber": 42,
		"velocity": 0,
		"time": 224,
		"track": 4
	},
	{
		"deltaTime": 24,
		"channel": 9,
		"type": "channel",
		"noteNumber": 42,
		"velocity": 127,
		"subtype": "noteOn",
		"time": 264,
		"track": 4
	},
	{
		"deltaTime": 0,
		"channel": 1,
		"type": "channel",
		"noteNumber": 67,
		"velocity": 85.33333333333333,
		"subtype": "noteOn",
		"time": 288,
		"track": 2
	},
	{
		"deltaTime": 8,
		"channel": 2,
		"type": "channel",
		"noteNumber": 55,
		"velocity": 85.33333333333333,
		"subtype": "noteOn",
		"time": 288,
		"track": 3
	},
	{
		"deltaTime": 8,
		"channel": 9,
		"type": "channel",
		"subtype": "noteOff",
		"noteNumber": 42,
		"velocity": 0,
		"time": 296,
		"track": 4
	},
	{
		"deltaTime": 0,
		"channel": 1,
		"type": "channel",
		"subtype": "noteOff",
		"noteNumber": 67,
		"velocity": 0,
		"time": 304,
		"track": 2
	},
	{
		"deltaTime": 8,
		"channel": 2,
		"type": "channel",
		"subtype": "noteOff",
		"noteNumber": 55,
		"velocity": 0,
		"time": 304,
		"track": 3
	},
	{
		"deltaTime": 16,
		"channel": 9,
		"type": "channel",
		"noteNumber": 42,
		"velocity": 127,
		"subtype": "noteOn",
		"time": 312,
		"track": 4
	},
	{
		"deltaTime": 8,
		"channel": 9,
		"type": "channel",
		"subtype": "noteOff",
		"noteNumber": 42,
		"velocity": 0,
		"time": 328,
		"track": 4
	},
	{
		"deltaTime": 16,
		"channel": 9,
		"type": "channel",
		"noteNumber": 42,
		"velocity": 127,
		"subtype": "noteOn",
		"time": 336,
		"track": 4
	},
	{
		"deltaTime": 8,
		"channel": 9,
		"type": "channel",
		"subtype": "noteOff",
		"noteNumber": 42,
		"velocity": 0,
		"time": 352,
		"track": 4
	},
	{
		"deltaTime": 16,
		"channel": 9,
		"type": "channel",
		"noteNumber": 42,
		"velocity": 127,
		"subtype": "noteOn",
		"time": 360,
		"track": 4
	},
	{
		"deltaTime": 8,
		"channel": 9,
		"type": "channel",
		"subtype": "noteOff",
		"noteNumber": 42,
		"velocity": 0,
		"time": 376,
		"track": 4
	},
	{
		"deltaTime": 0,
		"channel": 0,
		"type": "channel",
		"noteNumber": 72,
		"velocity": 85.33333333333333,
		"subtype": "noteOn",
		"time": 384,
		"track": 1
	},
	{
		"deltaTime": 0,
		"channel": 1,
		"type": "channel",
		"noteNumber": 64,
		"velocity": 85.33333333333333,
		"subtype": "noteOn",
		"time": 384,
		"track": 2
	},
	{
		"deltaTime": 0,
		"channel": 2,
		"type": "channel",
		"noteNumber": 55,
		"velocity": 85.33333333333333,
		"subtype": "noteOn",
		"time": 384,
		"track": 3
	},
	{
		"deltaTime": 16,
		"channel": 9,
		"type": "channel",
		"noteNumber": 42,
		"velocity": 127,
		"subtype": "noteOn",
		"time": 384,
		"track": 4
	},
	{
		"deltaTime": 0,
		"channel": 0,
		"type": "channel",
		"subtype": "noteOff",
		"noteNumber": 72,
		"velocity": 0,
		"time": 400,
		"track": 1
	},
	{
		"deltaTime": 0,
		"channel": 1,
		"type": "channel",
		"subtype": "noteOff",
		"noteNumber": 64,
		"velocity": 0,
		"time": 400,
		"track": 2
	},
	{
		"deltaTime": 0,
		"channel": 2,
		"type": "channel",
		"subtype": "noteOff",
		"noteNumber": 55,
		"velocity": 0,
		"time": 400,
		"track": 3
	},
	{
		"deltaTime": 32,
		"channel": 9,
		"type": "channel",
		"subtype": "noteOff",
		"noteNumber": 42,
		"velocity": 0,
		"time": 400,
		"track": 4
	},
	{
		"deltaTime": 16,
		"channel": 9,
		"type": "channel",
		"noteNumber": 42,
		"velocity": 127,
		"subtype": "noteOn",
		"time": 432,
		"track": 4
	},
	{
		"deltaTime": 8,
		"channel": 9,
		"type": "channel",
		"subtype": "noteOff",
		"noteNumber": 42,
		"velocity": 0,
		"time": 448,
		"track": 4
	},
	{
		"deltaTime": 0,
		"channel": 0,
		"type": "channel",
		"noteNumber": 67,
		"velocity": 85.33333333333333,
		"subtype": "noteOn",
		"time": 456,
		"track": 1
	},
	{
		"deltaTime": 0,
		"channel": 1,
		"type": "channel",
		"noteNumber": 60,
		"velocity": 85.33333333333333,
		"subtype": "noteOn",
		"time": 456,
		"track": 2
	},
	{
		"deltaTime": 8,
		"channel": 2,
		"type": "channel",
		"noteNumber": 52,
		"velocity": 85.33333333333333,
		"subtype": "noteOn",
		"time": 456,
		"track": 3
	},
	{
		"deltaTime": 8,
		"channel": 9,
		"type": "channel",
		"noteNumber": 42,
		"velocity": 127,
		"subtype": "noteOn",
		"time": 464,
		"track": 4
	},
	{
		"deltaTime": 0,
		"channel": 0,
		"type": "channel",
		"subtype": "noteOff",
		"noteNumber": 67,
		"velocity": 0,
		"time": 472,
		"track": 1
	},
	{
		"deltaTime": 0,
		"channel": 1,
		"type": "channel",
		"subtype": "noteOff",
		"noteNumber": 60,
		"velocity": 0,
		"time": 472,
		"track": 2
	},
	{
		"deltaTime": 8,
		"channel": 2,
		"type": "channel",
		"subtype": "noteOff",
		"noteNumber": 52,
		"velocity": 0,
		"time": 472,
		"track": 3
	},
	{
		"deltaTime": 0,
		"channel": 9,
		"type": "channel",
		"subtype": "noteOff",
		"noteNumber": 42,
		"velocity": 0,
		"time": 480,
		"track": 4
	},
	{
		"deltaTime": 32,
		"channel": 9,
		"type": "channel",
		"noteNumber": 42,
		"velocity": 127,
		"subtype": "noteOn",
		"time": 480,
		"track": 4
	},
	{
		"deltaTime": 16,
		"channel": 9,
		"type": "channel",
		"subtype": "noteOff",
		"noteNumber": 42,
		"velocity": 0,
		"time": 512,
		"track": 4
	},
	{
		"deltaTime": 0,
		"channel": 0,
		"type": "channel",
		"noteNumber": 64,
		"velocity": 85.33333333333333,
		"subtype": "noteOn",
		"time": 528,
		"track": 1
	},
	{
		"deltaTime": 0,
		"channel": 1,
		"type": "channel",
		"noteNumber": 55,
		"velocity": 85.33333333333333,
		"subtype": "noteOn",
		"time": 528,
		"track": 2
	},
	{
		"deltaTime": 0,
		"channel": 2,
		"type": "channel",
		"noteNumber": 48,
		"velocity": 85.33333333333333,
		"subtype": "noteOn",
		"time": 528,
		"track": 3
	},
	{
		"deltaTime": 16,
		"channel": 9,
		"type": "channel",
		"noteNumber": 42,
		"velocity": 127,
		"subtype": "noteOn",
		"time": 528,
		"track": 4
	},
	{
		"deltaTime": 0,
		"channel": 0,
		"type": "channel",
		"subtype": "noteOff",
		"noteNumber": 64,
		"velocity": 0,
		"time": 544,
		"track": 1
	},
	{
		"deltaTime": 0,
		"channel": 1,
		"type": "channel",
		"subtype": "noteOff",
		"noteNumber": 55,
		"velocity": 0,
		"time": 544,
		"track": 2
	},
	{
		"deltaTime": 0,
		"channel": 2,
		"type": "channel",
		"subtype": "noteOff",
		"noteNumber": 48,
		"velocity": 0,
		"time": 544,
		"track": 3
	},
	{
		"deltaTime": 16,
		"channel": 9,
		"type": "channel",
		"subtype": "noteOff",
		"noteNumber": 42,
		"velocity": 0,
		"time": 544,
		"track": 4
	},
	{
		"deltaTime": 16,
		"channel": 9,
		"type": "channel",
		"noteNumber": 42,
		"velocity": 127,
		"subtype": "noteOn",
		"time": 560,
		"track": 4
	},
	{
		"deltaTime": 0,
		"channel": 9,
		"type": "channel",
		"subtype": "noteOff",
		"noteNumber": 42,
		"velocity": 0,
		"time": 576,
		"track": 4
	},
	{
		"deltaTime": 16,
		"channel": 9,
		"type": "channel",
		"noteNumber": 42,
		"velocity": 127,
		"subtype": "noteOn",
		"time": 576,
		"track": 4
	},
	{
		"deltaTime": 8,
		"channel": 9,
		"type": "channel",
		"subtype": "noteOff",
		"noteNumber": 42,
		"velocity": 0,
		"time": 592,
		"track": 4
	},
	{
		"deltaTime": 0,
		"channel": 0,
		"type": "channel",
		"noteNumber": 69,
		"velocity": 85.33333333333333,
		"subtype": "noteOn",
		"time": 600,
		"track": 1
	},
	{
		"deltaTime": 0,
		"channel": 1,
		"type": "channel",
		"noteNumber": 60,
		"velocity": 85.33333333333333,
		"subtype": "noteOn",
		"time": 600,
		"track": 2
	},
	{
		"deltaTime": 16,
		"channel": 2,
		"type": "channel",
		"noteNumber": 53,
		"velocity": 85.33333333333333,
		"subtype": "noteOn",
		"time": 600,
		"track": 3
	},
	{
		"deltaTime": 0,
		"channel": 0,
		"type": "channel",
		"subtype": "noteOff",
		"noteNumber": 69,
		"velocity": 0,
		"time": 616,
		"track": 1
	},
	{
		"deltaTime": 0,
		"channel": 1,
		"type": "channel",
		"subtype": "noteOff",
		"noteNumber": 60,
		"velocity": 0,
		"time": 616,
		"track": 2
	},
	{
		"deltaTime": 8,
		"channel": 2,
		"type": "channel",
		"subtype": "noteOff",
		"noteNumber": 53,
		"velocity": 0,
		"time": 616,
		"track": 3
	},
	{
		"deltaTime": 16,
		"channel": 9,
		"type": "channel",
		"noteNumber": 42,
		"velocity": 127,
		"subtype": "noteOn",
		"time": 624,
		"track": 4
	},
	{
		"deltaTime": 8,
		"channel": 9,
		"type": "channel",
		"subtype": "noteOff",
		"noteNumber": 42,
		"velocity": 0,
		"time": 640,
		"track": 4
	},
	{
		"deltaTime": 0,
		"channel": 0,
		"type": "channel",
		"noteNumber": 71,
		"velocity": 85.33333333333333,
		"subtype": "noteOn",
		"time": 648,
		"track": 1
	},
	{
		"deltaTime": 0,
		"channel": 1,
		"type": "channel",
		"noteNumber": 62,
		"velocity": 85.33333333333333,
		"subtype": "noteOn",
		"time": 648,
		"track": 2
	},
	{
		"deltaTime": 8,
		"channel": 2,
		"type": "channel",
		"noteNumber": 55,
		"velocity": 85.33333333333333,
		"subtype": "noteOn",
		"time": 648,
		"track": 3
	},
	{
		"deltaTime": 8,
		"channel": 9,
		"type": "channel",
		"noteNumber": 42,
		"velocity": 127,
		"subtype": "noteOn",
		"time": 656,
		"track": 4
	},
	{
		"deltaTime": 0,
		"channel": 0,
		"type": "channel",
		"subtype": "noteOff",
		"noteNumber": 71,
		"velocity": 0,
		"time": 664,
		"track": 1
	},
	{
		"deltaTime": 0,
		"channel": 1,
		"type": "channel",
		"subtype": "noteOff",
		"noteNumber": 62,
		"velocity": 0,
		"time": 664,
		"track": 2
	},
	{
		"deltaTime": 8,
		"channel": 2,
		"type": "channel",
		"subtype": "noteOff",
		"noteNumber": 55,
		"velocity": 0,
		"time": 664,
		"track": 3
	},
	{
		"deltaTime": 0,
		"channel": 9,
		"type": "channel",
		"subtype": "noteOff",
		"noteNumber": 42,
		"velocity": 0,
		"time": 672,
		"track": 4
	},
	{
		"deltaTime": 24,
		"channel": 9,
		"type": "channel",
		"noteNumber": 42,
		"velocity": 127,
		"subtype": "noteOn",
		"time": 672,
		"track": 4
	},
	{
		"deltaTime": 0,
		"channel": 0,
		"type": "channel",
		"noteNumber": 70,
		"velocity": 85.33333333333333,
		"subtype": "noteOn",
		"time": 696,
		"track": 1
	},
	{
		"deltaTime": 0,
		"channel": 1,
		"type": "channel",
		"noteNumber": 61,
		"velocity": 85.33333333333333,
		"subtype": "noteOn",
		"time": 696,
		"track": 2
	},
	{
		"deltaTime": 8,
		"channel": 2,
		"type": "channel",
		"noteNumber": 54,
		"velocity": 85.33333333333333,
		"subtype": "noteOn",
		"time": 696,
		"track": 3
	},
	{
		"deltaTime": 8,
		"channel": 9,
		"type": "channel",
		"subtype": "noteOff",
		"noteNumber": 42,
		"velocity": 0,
		"time": 704,
		"track": 4
	},
	{
		"deltaTime": 0,
		"channel": 0,
		"type": "channel",
		"subtype": "noteOff",
		"noteNumber": 70,
		"velocity": 0,
		"time": 712,
		"track": 1
	},
	{
		"deltaTime": 0,
		"channel": 1,
		"type": "channel",
		"subtype": "noteOff",
		"noteNumber": 61,
		"velocity": 0,
		"time": 712,
		"track": 2
	},
	{
		"deltaTime": 8,
		"channel": 2,
		"type": "channel",
		"subtype": "noteOff",
		"noteNumber": 54,
		"velocity": 0,
		"time": 712,
		"track": 3
	},
	{
		"deltaTime": 0,
		"channel": 0,
		"type": "channel",
		"noteNumber": 69,
		"velocity": 85.33333333333333,
		"subtype": "noteOn",
		"time": 720,
		"track": 1
	},
	{
		"deltaTime": 0,
		"channel": 1,
		"type": "channel",
		"noteNumber": 60,
		"velocity": 85.33333333333333,
		"subtype": "noteOn",
		"time": 720,
		"track": 2
	},
	{
		"deltaTime": 0,
		"channel": 2,
		"type": "channel",
		"noteNumber": 53,
		"velocity": 85.33333333333333,
		"subtype": "noteOn",
		"time": 720,
		"track": 3
	},
	{
		"deltaTime": 16,
		"channel": 9,
		"type": "channel",
		"noteNumber": 42,
		"velocity": 127,
		"subtype": "noteOn",
		"time": 720,
		"track": 4
	},
	{
		"deltaTime": 0,
		"channel": 0,
		"type": "channel",
		"subtype": "noteOff",
		"noteNumber": 69,
		"velocity": 0,
		"time": 736,
		"track": 1
	},
	{
		"deltaTime": 0,
		"channel": 1,
		"type": "channel",
		"subtype": "noteOff",
		"noteNumber": 60,
		"velocity": 0,
		"time": 736,
		"track": 2
	},
	{
		"deltaTime": 0,
		"channel": 2,
		"type": "channel",
		"subtype": "noteOff",
		"noteNumber": 53,
		"velocity": 0,
		"time": 736,
		"track": 3
	},
	{
		"deltaTime": 16,
		"channel": 9,
		"type": "channel",
		"subtype": "noteOff",
		"noteNumber": 42,
		"velocity": 0,
		"time": 736,
		"track": 4
	},
	{
		"deltaTime": 16,
		"channel": 9,
		"type": "channel",
		"noteNumber": 42,
		"velocity": 127,
		"subtype": "noteOn",
		"time": 752,
		"track": 4
	},
	{
		"deltaTime": 0,
		"channel": 0,
		"type": "channel",
		"noteNumber": 67,
		"velocity": 85.33333333333333,
		"subtype": "noteOn",
		"time": 768,
		"track": 1
	},
	{
		"deltaTime": 0,
		"channel": 1,
		"type": "channel",
		"noteNumber": 60,
		"velocity": 85.33333333333333,
		"subtype": "noteOn",
		"time": 768,
		"track": 2
	},
	{
		"deltaTime": 0,
		"channel": 2,
		"type": "channel",
		"noteNumber": 52,
		"velocity": 85.33333333333333,
		"subtype": "noteOn",
		"time": 768,
		"track": 3
	},
	{
		"deltaTime": 0,
		"channel": 9,
		"type": "channel",
		"subtype": "noteOff",
		"noteNumber": 42,
		"velocity": 0,
		"time": 768,
		"track": 4
	},
	{
		"deltaTime": 16,
		"channel": 9,
		"type": "channel",
		"noteNumber": 42,
		"velocity": 127,
		"subtype": "noteOn",
		"time": 768,
		"track": 4
	},
	{
		"deltaTime": 0,
		"channel": 0,
		"type": "channel",
		"subtype": "noteOff",
		"noteNumber": 67,
		"velocity": 0,
		"time": 784,
		"track": 1
	},
	{
		"deltaTime": 0,
		"channel": 1,
		"type": "channel",
		"subtype": "noteOff",
		"noteNumber": 60,
		"velocity": 0,
		"time": 784,
		"track": 2
	},
	{
		"deltaTime": 0,
		"channel": 2,
		"type": "channel",
		"subtype": "noteOff",
		"noteNumber": 52,
		"velocity": 0,
		"time": 784,
		"track": 3
	},
	{
		"deltaTime": 16,
		"channel": 9,
		"type": "channel",
		"subtype": "noteOff",
		"noteNumber": 42,
		"velocity": 0,
		"time": 784,
		"track": 4
	},
	{
		"deltaTime": 0,
		"channel": 0,
		"type": "channel",
		"noteNumber": 76,
		"velocity": 85.33333333333333,
		"subtype": "noteOn",
		"time": 800,
		"track": 1
	},
	{
		"deltaTime": 0,
		"channel": 1,
		"type": "channel",
		"noteNumber": 67,
		"velocity": 85.33333333333333,
		"subtype": "noteOn",
		"time": 800,
		"track": 2
	},
	{
		"deltaTime": 16,
		"channel": 2,
		"type": "channel",
		"noteNumber": 60,
		"velocity": 85.33333333333333,
		"subtype": "noteOn",
		"time": 800,
		"track": 3
	},
	{
		"deltaTime": 0,
		"channel": 0,
		"type": "channel",
		"subtype": "noteOff",
		"noteNumber": 76,
		"velocity": 0,
		"time": 816,
		"track": 1
	},
	{
		"deltaTime": 0,
		"channel": 1,
		"type": "channel",
		"subtype": "noteOff",
		"noteNumber": 67,
		"velocity": 0,
		"time": 816,
		"track": 2
	},
	{
		"deltaTime": 0,
		"channel": 2,
		"type": "channel",
		"subtype": "noteOff",
		"noteNumber": 60,
		"velocity": 0,
		"time": 816,
		"track": 3
	},
	{
		"deltaTime": 16,
		"channel": 9,
		"type": "channel",
		"noteNumber": 42,
		"velocity": 127,
		"subtype": "noteOn",
		"time": 816,
		"track": 4
	},
	{
		"deltaTime": 0,
		"channel": 0,
		"type": "channel",
		"noteNumber": 79,
		"velocity": 85.33333333333333,
		"subtype": "noteOn",
		"time": 832,
		"track": 1
	},
	{
		"deltaTime": 0,
		"channel": 1,
		"type": "channel",
		"noteNumber": 71,
		"velocity": 85.33333333333333,
		"subtype": "noteOn",
		"time": 832,
		"track": 2
	},
	{
		"deltaTime": 0,
		"channel": 2,
		"type": "channel",
		"noteNumber": 64,
		"velocity": 85.33333333333333,
		"subtype": "noteOn",
		"time": 832,
		"track": 3
	},
	{
		"deltaTime": 16,
		"channel": 9,
		"type": "channel",
		"subtype": "noteOff",
		"noteNumber": 42,
		"velocity": 0,
		"time": 832,
		"track": 4
	},
	{
		"deltaTime": 0,
		"channel": 0,
		"type": "channel",
		"subtype": "noteOff",
		"noteNumber": 79,
		"velocity": 0,
		"time": 848,
		"track": 1
	},
	{
		"deltaTime": 0,
		"channel": 1,
		"type": "channel",
		"subtype": "noteOff",
		"noteNumber": 71,
		"velocity": 0,
		"time": 848,
		"track": 2
	},
	{
		"deltaTime": 0,
		"channel": 2,
		"type": "channel",
		"subtype": "noteOff",
		"noteNumber": 64,
		"velocity": 0,
		"time": 848,
		"track": 3
	},
	{
		"deltaTime": 16,
		"channel": 9,
		"type": "channel",
		"noteNumber": 42,
		"velocity": 127,
		"subtype": "noteOn",
		"time": 848,
		"track": 4
	},
	{
		"deltaTime": 0,
		"channel": 0,
		"type": "channel",
		"noteNumber": 81,
		"velocity": 85.33333333333333,
		"subtype": "noteOn",
		"time": 864,
		"track": 1
	},
	{
		"deltaTime": 0,
		"channel": 1,
		"type": "channel",
		"noteNumber": 72,
		"velocity": 85.33333333333333,
		"subtype": "noteOn",
		"time": 864,
		"track": 2
	},
	{
		"deltaTime": 0,
		"channel": 2,
		"type": "channel",
		"noteNumber": 65,
		"velocity": 85.33333333333333,
		"subtype": "noteOn",
		"time": 864,
		"track": 3
	},
	{
		"deltaTime": 0,
		"channel": 9,
		"type": "channel",
		"subtype": "noteOff",
		"noteNumber": 42,
		"velocity": 0,
		"time": 864,
		"track": 4
	},
	{
		"deltaTime": 16,
		"channel": 9,
		"type": "channel",
		"noteNumber": 42,
		"velocity": 127,
		"subtype": "noteOn",
		"time": 864,
		"track": 4
	},
	{
		"deltaTime": 0,
		"channel": 0,
		"type": "channel",
		"subtype": "noteOff",
		"noteNumber": 81,
		"velocity": 0,
		"time": 880,
		"track": 1
	},
	{
		"deltaTime": 0,
		"channel": 1,
		"type": "channel",
		"subtype": "noteOff",
		"noteNumber": 72,
		"velocity": 0,
		"time": 880,
		"track": 2
	},
	{
		"deltaTime": 16,
		"channel": 2,
		"type": "channel",
		"subtype": "noteOff",
		"noteNumber": 65,
		"velocity": 0,
		"time": 880,
		"track": 3
	},
	{
		"deltaTime": 16,
		"channel": 9,
		"type": "channel",
		"subtype": "noteOff",
		"noteNumber": 42,
		"velocity": 0,
		"time": 896,
		"track": 4
	},
	{
		"deltaTime": 0,
		"channel": 0,
		"type": "channel",
		"noteNumber": 77,
		"velocity": 85.33333333333333,
		"subtype": "noteOn",
		"time": 912,
		"track": 1
	},
	{
		"deltaTime": 0,
		"channel": 1,
		"type": "channel",
		"noteNumber": 69,
		"velocity": 85.33333333333333,
		"subtype": "noteOn",
		"time": 912,
		"track": 2
	},
	{
		"deltaTime": 0,
		"channel": 2,
		"type": "channel",
		"noteNumber": 62,
		"velocity": 85.33333333333333,
		"subtype": "noteOn",
		"time": 912,
		"track": 3
	},
	{
		"deltaTime": 16,
		"channel": 9,
		"type": "channel",
		"noteNumber": 42,
		"velocity": 127,
		"subtype": "noteOn",
		"time": 912,
		"track": 4
	},
	{
		"deltaTime": 0,
		"channel": 0,
		"type": "channel",
		"subtype": "noteOff",
		"noteNumber": 77,
		"velocity": 0,
		"time": 928,
		"track": 1
	},
	{
		"deltaTime": 0,
		"channel": 1,
		"type": "channel",
		"subtype": "noteOff",
		"noteNumber": 69,
		"velocity": 0,
		"time": 928,
		"track": 2
	},
	{
		"deltaTime": 0,
		"channel": 2,
		"type": "channel",
		"subtype": "noteOff",
		"noteNumber": 62,
		"velocity": 0,
		"time": 928,
		"track": 3
	},
	{
		"deltaTime": 8,
		"channel": 9,
		"type": "channel",
		"subtype": "noteOff",
		"noteNumber": 42,
		"velocity": 0,
		"time": 928,
		"track": 4
	},
	{
		"deltaTime": 0,
		"channel": 0,
		"type": "channel",
		"noteNumber": 79,
		"velocity": 85.33333333333333,
		"subtype": "noteOn",
		"time": 936,
		"track": 1
	},
	{
		"deltaTime": 0,
		"channel": 1,
		"type": "channel",
		"noteNumber": 71,
		"velocity": 85.33333333333333,
		"subtype": "noteOn",
		"time": 936,
		"track": 2
	},
	{
		"deltaTime": 8,
		"channel": 2,
		"type": "channel",
		"noteNumber": 64,
		"velocity": 85.33333333333333,
		"subtype": "noteOn",
		"time": 936,
		"track": 3
	},
	{
		"deltaTime": 8,
		"channel": 9,
		"type": "channel",
		"noteNumber": 42,
		"velocity": 127,
		"subtype": "noteOn",
		"time": 944,
		"track": 4
	},
	{
		"deltaTime": 0,
		"channel": 0,
		"type": "channel",
		"subtype": "noteOff",
		"noteNumber": 79,
		"velocity": 0,
		"time": 952,
		"track": 1
	},
	{
		"deltaTime": 0,
		"channel": 1,
		"type": "channel",
		"subtype": "noteOff",
		"noteNumber": 71,
		"velocity": 0,
		"time": 952,
		"track": 2
	},
	{
		"deltaTime": 8,
		"channel": 2,
		"type": "channel",
		"subtype": "noteOff",
		"noteNumber": 64,
		"velocity": 0,
		"time": 952,
		"track": 3
	},
	{
		"deltaTime": 0,
		"channel": 9,
		"type": "channel",
		"subtype": "noteOff",
		"noteNumber": 42,
		"velocity": 0,
		"time": 960,
		"track": 4
	},
	{
		"deltaTime": 16,
		"channel": 9,
		"type": "channel",
		"noteNumber": 42,
		"velocity": 127,
		"subtype": "noteOn",
		"time": 960,
		"track": 4
	},
	{
		"deltaTime": 8,
		"channel": 9,
		"type": "channel",
		"subtype": "noteOff",
		"noteNumber": 42,
		"velocity": 0,
		"time": 976,
		"track": 4
	},
	{
		"deltaTime": 0,
		"channel": 0,
		"type": "channel",
		"noteNumber": 76,
		"velocity": 85.33333333333333,
		"subtype": "noteOn",
		"time": 984,
		"track": 1
	},
	{
		"deltaTime": 0,
		"channel": 1,
		"type": "channel",
		"noteNumber": 69,
		"velocity": 85.33333333333333,
		"subtype": "noteOn",
		"time": 984,
		"track": 2
	},
	{
		"deltaTime": 16,
		"channel": 2,
		"type": "channel",
		"noteNumber": 60,
		"velocity": 85.33333333333333,
		"subtype": "noteOn",
		"time": 984,
		"track": 3
	},
	{
		"deltaTime": 0,
		"channel": 0,
		"type": "channel",
		"subtype": "noteOff",
		"noteNumber": 76,
		"velocity": 0,
		"time": 1000,
		"track": 1
	},
	{
		"deltaTime": 0,
		"channel": 1,
		"type": "channel",
		"subtype": "noteOff",
		"noteNumber": 69,
		"velocity": 0,
		"time": 1000,
		"track": 2
	},
	{
		"deltaTime": 8,
		"channel": 2,
		"type": "channel",
		"subtype": "noteOff",
		"noteNumber": 60,
		"velocity": 0,
		"time": 1000,
		"track": 3
	},
	{
		"deltaTime": 16,
		"channel": 9,
		"type": "channel",
		"noteNumber": 42,
		"velocity": 127,
		"subtype": "noteOn",
		"time": 1008,
		"track": 4
	},
	{
		"deltaTime": 8,
		"channel": 9,
		"type": "channel",
		"subtype": "noteOff",
		"noteNumber": 42,
		"velocity": 0,
		"time": 1024,
		"track": 4
	},
	{
		"deltaTime": 0,
		"channel": 0,
		"type": "channel",
		"noteNumber": 72,
		"velocity": 85.33333333333333,
		"subtype": "noteOn",
		"time": 1032,
		"track": 1
	},
	{
		"deltaTime": 0,
		"channel": 1,
		"type": "channel",
		"noteNumber": 64,
		"velocity": 85.33333333333333,
		"subtype": "noteOn",
		"time": 1032,
		"track": 2
	},
	{
		"deltaTime": 8,
		"channel": 2,
		"type": "channel",
		"noteNumber": 57,
		"velocity": 85.33333333333333,
		"subtype": "noteOn",
		"time": 1032,
		"track": 3
	},
	{
		"deltaTime": 8,
		"channel": 9,
		"type": "channel",
		"noteNumber": 42,
		"velocity": 127,
		"subtype": "noteOn",
		"time": 1040,
		"track": 4
	},
	{
		"deltaTime": 0,
		"channel": 0,
		"type": "channel",
		"subtype": "noteOff",
		"noteNumber": 72,
		"velocity": 0,
		"time": 1048,
		"track": 1
	},
	{
		"deltaTime": 0,
		"channel": 1,
		"type": "channel",
		"subtype": "noteOff",
		"noteNumber": 64,
		"velocity": 0,
		"time": 1048,
		"track": 2
	},
	{
		"deltaTime": 8,
		"channel": 2,
		"type": "channel",
		"subtype": "noteOff",
		"noteNumber": 57,
		"velocity": 0,
		"time": 1048,
		"track": 3
	},
	{
		"deltaTime": 0,
		"channel": 0,
		"type": "channel",
		"noteNumber": 74,
		"velocity": 85.33333333333333,
		"subtype": "noteOn",
		"time": 1056,
		"track": 1
	},
	{
		"deltaTime": 0,
		"channel": 1,
		"type": "channel",
		"noteNumber": 65,
		"velocity": 85.33333333333333,
		"subtype": "noteOn",
		"time": 1056,
		"track": 2
	},
	{
		"deltaTime": 0,
		"channel": 2,
		"type": "channel",
		"noteNumber": 59,
		"velocity": 85.33333333333333,
		"subtype": "noteOn",
		"time": 1056,
		"track": 3
	},
	{
		"deltaTime": 0,
		"channel": 9,
		"type": "channel",
		"subtype": "noteOff",
		"noteNumber": 42,
		"velocity": 0,
		"time": 1056,
		"track": 4
	},
	{
		"deltaTime": 16,
		"channel": 9,
		"type": "channel",
		"noteNumber": 42,
		"velocity": 127,
		"subtype": "noteOn",
		"time": 1056,
		"track": 4
	},
	{
		"deltaTime": 0,
		"channel": 0,
		"type": "channel",
		"subtype": "noteOff",
		"noteNumber": 74,
		"velocity": 0,
		"time": 1072,
		"track": 1
	},
	{
		"deltaTime": 0,
		"channel": 1,
		"type": "channel",
		"subtype": "noteOff",
		"noteNumber": 65,
		"velocity": 0,
		"time": 1072,
		"track": 2
	},
	{
		"deltaTime": 8,
		"channel": 2,
		"type": "channel",
		"subtype": "noteOff",
		"noteNumber": 59,
		"velocity": 0,
		"time": 1072,
		"track": 3
	},
	{
		"deltaTime": 0,
		"channel": 0,
		"type": "channel",
		"noteNumber": 71,
		"velocity": 85.33333333333333,
		"subtype": "noteOn",
		"time": 1080,
		"track": 1
	},
	{
		"deltaTime": 0,
		"channel": 1,
		"type": "channel",
		"noteNumber": 62,
		"velocity": 85.33333333333333,
		"subtype": "noteOn",
		"time": 1080,
		"track": 2
	},
	{
		"deltaTime": 8,
		"channel": 2,
		"type": "channel",
		"noteNumber": 55,
		"velocity": 85.33333333333333,
		"subtype": "noteOn",
		"time": 1080,
		"track": 3
	},
	{
		"deltaTime": 8,
		"channel": 9,
		"type": "channel",
		"subtype": "noteOff",
		"noteNumber": 42,
		"velocity": 0,
		"time": 1088,
		"track": 4
	},
	{
		"deltaTime": 0,
		"channel": 0,
		"type": "channel",
		"subtype": "noteOff",
		"noteNumber": 71,
		"velocity": 0,
		"time": 1096,
		"track": 1
	},
	{
		"deltaTime": 0,
		"channel": 1,
		"type": "channel",
		"subtype": "noteOff",
		"noteNumber": 62,
		"velocity": 0,
		"time": 1096,
		"track": 2
	},
	{
		"deltaTime": 8,
		"channel": 2,
		"type": "channel",
		"subtype": "noteOff",
		"noteNumber": 55,
		"velocity": 0,
		"time": 1096,
		"track": 3
	},
	{
		"deltaTime": 16,
		"channel": 9,
		"type": "channel",
		"noteNumber": 42,
		"velocity": 127,
		"subtype": "noteOn",
		"time": 1104,
		"track": 4
	},
	{
		"deltaTime": 16,
		"channel": 9,
		"type": "channel",
		"subtype": "noteOff",
		"noteNumber": 42,
		"velocity": 0,
		"time": 1120,
		"track": 4
	},
	{
		"deltaTime": 16,
		"channel": 9,
		"type": "channel",
		"noteNumber": 42,
		"velocity": 127,
		"subtype": "noteOn",
		"time": 1136,
		"track": 4
	},
	{
		"deltaTime": 0,
		"channel": 0,
		"type": "channel",
		"noteNumber": 72,
		"velocity": 85.33333333333333,
		"subtype": "noteOn",
		"time": 1152,
		"track": 1
	},
	{
		"deltaTime": 0,
		"channel": 1,
		"type": "channel",
		"noteNumber": 64,
		"velocity": 85.33333333333333,
		"subtype": "noteOn",
		"time": 1152,
		"track": 2
	},
	{
		"deltaTime": 0,
		"channel": 2,
		"type": "channel",
		"noteNumber": 55,
		"velocity": 85.33333333333333,
		"subtype": "noteOn",
		"time": 1152,
		"track": 3
	},
	{
		"deltaTime": 0,
		"channel": 9,
		"type": "channel",
		"subtype": "noteOff",
		"noteNumber": 42,
		"velocity": 0,
		"time": 1152,
		"track": 4
	},
	{
		"deltaTime": 16,
		"channel": 9,
		"type": "channel",
		"noteNumber": 42,
		"velocity": 127,
		"subtype": "noteOn",
		"time": 1152,
		"track": 4
	},
	{
		"deltaTime": 0,
		"channel": 0,
		"type": "channel",
		"subtype": "noteOff",
		"noteNumber": 72,
		"velocity": 0,
		"time": 1168,
		"track": 1
	},
	{
		"deltaTime": 0,
		"channel": 1,
		"type": "channel",
		"subtype": "noteOff",
		"noteNumber": 64,
		"velocity": 0,
		"time": 1168,
		"track": 2
	},
	{
		"deltaTime": 0,
		"channel": 2,
		"type": "channel",
		"subtype": "noteOff",
		"noteNumber": 55,
		"velocity": 0,
		"time": 1168,
		"track": 3
	},
	{
		"deltaTime": 32,
		"channel": 9,
		"type": "channel",
		"subtype": "noteOff",
		"noteNumber": 42,
		"velocity": 0,
		"time": 1168,
		"track": 4
	},
	{
		"deltaTime": 16,
		"channel": 9,
		"type": "channel",
		"noteNumber": 42,
		"velocity": 127,
		"subtype": "noteOn",
		"time": 1200,
		"track": 4
	},
	{
		"deltaTime": 8,
		"channel": 9,
		"type": "channel",
		"subtype": "noteOff",
		"noteNumber": 42,
		"velocity": 0,
		"time": 1216,
		"track": 4
	},
	{
		"deltaTime": 0,
		"channel": 0,
		"type": "channel",
		"noteNumber": 67,
		"velocity": 85.33333333333333,
		"subtype": "noteOn",
		"time": 1224,
		"track": 1
	},
	{
		"deltaTime": 0,
		"channel": 1,
		"type": "channel",
		"noteNumber": 60,
		"velocity": 85.33333333333333,
		"subtype": "noteOn",
		"time": 1224,
		"track": 2
	},
	{
		"deltaTime": 8,
		"channel": 2,
		"type": "channel",
		"noteNumber": 52,
		"velocity": 85.33333333333333,
		"subtype": "noteOn",
		"time": 1224,
		"track": 3
	},
	{
		"deltaTime": 8,
		"channel": 9,
		"type": "channel",
		"noteNumber": 42,
		"velocity": 127,
		"subtype": "noteOn",
		"time": 1232,
		"track": 4
	},
	{
		"deltaTime": 0,
		"channel": 0,
		"type": "channel",
		"subtype": "noteOff",
		"noteNumber": 67,
		"velocity": 0,
		"time": 1240,
		"track": 1
	},
	{
		"deltaTime": 0,
		"channel": 1,
		"type": "channel",
		"subtype": "noteOff",
		"noteNumber": 60,
		"velocity": 0,
		"time": 1240,
		"track": 2
	},
	{
		"deltaTime": 8,
		"channel": 2,
		"type": "channel",
		"subtype": "noteOff",
		"noteNumber": 52,
		"velocity": 0,
		"time": 1240,
		"track": 3
	},
	{
		"deltaTime": 0,
		"channel": 9,
		"type": "channel",
		"subtype": "noteOff",
		"noteNumber": 42,
		"velocity": 0,
		"time": 1248,
		"track": 4
	},
	{
		"deltaTime": 32,
		"channel": 9,
		"type": "channel",
		"noteNumber": 42,
		"velocity": 127,
		"subtype": "noteOn",
		"time": 1248,
		"track": 4
	},
	{
		"deltaTime": 16,
		"channel": 9,
		"type": "channel",
		"subtype": "noteOff",
		"noteNumber": 42,
		"velocity": 0,
		"time": 1280,
		"track": 4
	},
	{
		"deltaTime": 0,
		"channel": 0,
		"type": "channel",
		"noteNumber": 64,
		"velocity": 85.33333333333333,
		"subtype": "noteOn",
		"time": 1296,
		"track": 1
	},
	{
		"deltaTime": 0,
		"channel": 1,
		"type": "channel",
		"noteNumber": 55,
		"velocity": 85.33333333333333,
		"subtype": "noteOn",
		"time": 1296,
		"track": 2
	},
	{
		"deltaTime": 0,
		"channel": 2,
		"type": "channel",
		"noteNumber": 48,
		"velocity": 85.33333333333333,
		"subtype": "noteOn",
		"time": 1296,
		"track": 3
	},
	{
		"deltaTime": 16,
		"channel": 9,
		"type": "channel",
		"noteNumber": 42,
		"velocity": 127,
		"subtype": "noteOn",
		"time": 1296,
		"track": 4
	},
	{
		"deltaTime": 0,
		"channel": 0,
		"type": "channel",
		"subtype": "noteOff",
		"noteNumber": 64,
		"velocity": 0,
		"time": 1312,
		"track": 1
	},
	{
		"deltaTime": 0,
		"channel": 1,
		"type": "channel",
		"subtype": "noteOff",
		"noteNumber": 55,
		"velocity": 0,
		"time": 1312,
		"track": 2
	},
	{
		"deltaTime": 0,
		"channel": 2,
		"type": "channel",
		"subtype": "noteOff",
		"noteNumber": 48,
		"velocity": 0,
		"time": 1312,
		"track": 3
	},
	{
		"deltaTime": 16,
		"channel": 9,
		"type": "channel",
		"subtype": "noteOff",
		"noteNumber": 42,
		"velocity": 0,
		"time": 1312,
		"track": 4
	},
	{
		"deltaTime": 16,
		"channel": 9,
		"type": "channel",
		"noteNumber": 42,
		"velocity": 127,
		"subtype": "noteOn",
		"time": 1328,
		"track": 4
	},
	{
		"deltaTime": 0,
		"channel": 9,
		"type": "channel",
		"subtype": "noteOff",
		"noteNumber": 42,
		"velocity": 0,
		"time": 1344,
		"track": 4
	},
	{
		"deltaTime": 16,
		"channel": 9,
		"type": "channel",
		"noteNumber": 42,
		"velocity": 127,
		"subtype": "noteOn",
		"time": 1344,
		"track": 4
	},
	{
		"deltaTime": 8,
		"channel": 9,
		"type": "channel",
		"subtype": "noteOff",
		"noteNumber": 42,
		"velocity": 0,
		"time": 1360,
		"track": 4
	},
	{
		"deltaTime": 0,
		"channel": 0,
		"type": "channel",
		"noteNumber": 69,
		"velocity": 85.33333333333333,
		"subtype": "noteOn",
		"time": 1368,
		"track": 1
	},
	{
		"deltaTime": 0,
		"channel": 1,
		"type": "channel",
		"noteNumber": 60,
		"velocity": 85.33333333333333,
		"subtype": "noteOn",
		"time": 1368,
		"track": 2
	},
	{
		"deltaTime": 16,
		"channel": 2,
		"type": "channel",
		"noteNumber": 53,
		"velocity": 85.33333333333333,
		"subtype": "noteOn",
		"time": 1368,
		"track": 3
	},
	{
		"deltaTime": 0,
		"channel": 0,
		"type": "channel",
		"subtype": "noteOff",
		"noteNumber": 69,
		"velocity": 0,
		"time": 1384,
		"track": 1
	},
	{
		"deltaTime": 0,
		"channel": 1,
		"type": "channel",
		"subtype": "noteOff",
		"noteNumber": 60,
		"velocity": 0,
		"time": 1384,
		"track": 2
	},
	{
		"deltaTime": 8,
		"channel": 2,
		"type": "channel",
		"subtype": "noteOff",
		"noteNumber": 53,
		"velocity": 0,
		"time": 1384,
		"track": 3
	},
	{
		"deltaTime": 16,
		"channel": 9,
		"type": "channel",
		"noteNumber": 42,
		"velocity": 127,
		"subtype": "noteOn",
		"time": 1392,
		"track": 4
	},
	{
		"deltaTime": 8,
		"channel": 9,
		"type": "channel",
		"subtype": "noteOff",
		"noteNumber": 42,
		"velocity": 0,
		"time": 1408,
		"track": 4
	},
	{
		"deltaTime": 0,
		"channel": 0,
		"type": "channel",
		"noteNumber": 71,
		"velocity": 85.33333333333333,
		"subtype": "noteOn",
		"time": 1416,
		"track": 1
	},
	{
		"deltaTime": 0,
		"channel": 1,
		"type": "channel",
		"noteNumber": 62,
		"velocity": 85.33333333333333,
		"subtype": "noteOn",
		"time": 1416,
		"track": 2
	},
	{
		"deltaTime": 8,
		"channel": 2,
		"type": "channel",
		"noteNumber": 55,
		"velocity": 85.33333333333333,
		"subtype": "noteOn",
		"time": 1416,
		"track": 3
	},
	{
		"deltaTime": 8,
		"channel": 9,
		"type": "channel",
		"noteNumber": 42,
		"velocity": 127,
		"subtype": "noteOn",
		"time": 1424,
		"track": 4
	},
	{
		"deltaTime": 0,
		"channel": 0,
		"type": "channel",
		"subtype": "noteOff",
		"noteNumber": 71,
		"velocity": 0,
		"time": 1432,
		"track": 1
	},
	{
		"deltaTime": 0,
		"channel": 1,
		"type": "channel",
		"subtype": "noteOff",
		"noteNumber": 62,
		"velocity": 0,
		"time": 1432,
		"track": 2
	},
	{
		"deltaTime": 8,
		"channel": 2,
		"type": "channel",
		"subtype": "noteOff",
		"noteNumber": 55,
		"velocity": 0,
		"time": 1432,
		"track": 3
	},
	{
		"deltaTime": 0,
		"channel": 9,
		"type": "channel",
		"subtype": "noteOff",
		"noteNumber": 42,
		"velocity": 0,
		"time": 1440,
		"track": 4
	},
	{
		"deltaTime": 24,
		"channel": 9,
		"type": "channel",
		"noteNumber": 42,
		"velocity": 127,
		"subtype": "noteOn",
		"time": 1440,
		"track": 4
	},
	{
		"deltaTime": 0,
		"channel": 0,
		"type": "channel",
		"noteNumber": 70,
		"velocity": 85.33333333333333,
		"subtype": "noteOn",
		"time": 1464,
		"track": 1
	},
	{
		"deltaTime": 0,
		"channel": 1,
		"type": "channel",
		"noteNumber": 61,
		"velocity": 85.33333333333333,
		"subtype": "noteOn",
		"time": 1464,
		"track": 2
	},
	{
		"deltaTime": 8,
		"channel": 2,
		"type": "channel",
		"noteNumber": 54,
		"velocity": 85.33333333333333,
		"subtype": "noteOn",
		"time": 1464,
		"track": 3
	},
	{
		"deltaTime": 8,
		"channel": 9,
		"type": "channel",
		"subtype": "noteOff",
		"noteNumber": 42,
		"velocity": 0,
		"time": 1472,
		"track": 4
	},
	{
		"deltaTime": 0,
		"channel": 0,
		"type": "channel",
		"subtype": "noteOff",
		"noteNumber": 70,
		"velocity": 0,
		"time": 1480,
		"track": 1
	},
	{
		"deltaTime": 0,
		"channel": 1,
		"type": "channel",
		"subtype": "noteOff",
		"noteNumber": 61,
		"velocity": 0,
		"time": 1480,
		"track": 2
	},
	{
		"deltaTime": 8,
		"channel": 2,
		"type": "channel",
		"subtype": "noteOff",
		"noteNumber": 54,
		"velocity": 0,
		"time": 1480,
		"track": 3
	},
	{
		"deltaTime": 0,
		"channel": 0,
		"type": "channel",
		"noteNumber": 69,
		"velocity": 85.33333333333333,
		"subtype": "noteOn",
		"time": 1488,
		"track": 1
	},
	{
		"deltaTime": 0,
		"channel": 1,
		"type": "channel",
		"noteNumber": 60,
		"velocity": 85.33333333333333,
		"subtype": "noteOn",
		"time": 1488,
		"track": 2
	},
	{
		"deltaTime": 0,
		"channel": 2,
		"type": "channel",
		"noteNumber": 53,
		"velocity": 85.33333333333333,
		"subtype": "noteOn",
		"time": 1488,
		"track": 3
	},
	{
		"deltaTime": 16,
		"channel": 9,
		"type": "channel",
		"noteNumber": 42,
		"velocity": 127,
		"subtype": "noteOn",
		"time": 1488,
		"track": 4
	},
	{
		"deltaTime": 0,
		"channel": 0,
		"type": "channel",
		"subtype": "noteOff",
		"noteNumber": 69,
		"velocity": 0,
		"time": 1504,
		"track": 1
	},
	{
		"deltaTime": 0,
		"channel": 1,
		"type": "channel",
		"subtype": "noteOff",
		"noteNumber": 60,
		"velocity": 0,
		"time": 1504,
		"track": 2
	},
	{
		"deltaTime": 0,
		"channel": 2,
		"type": "channel",
		"subtype": "noteOff",
		"noteNumber": 53,
		"velocity": 0,
		"time": 1504,
		"track": 3
	},
	{
		"deltaTime": 16,
		"channel": 9,
		"type": "channel",
		"subtype": "noteOff",
		"noteNumber": 42,
		"velocity": 0,
		"time": 1504,
		"track": 4
	},
	{
		"deltaTime": 16,
		"channel": 9,
		"type": "channel",
		"noteNumber": 42,
		"velocity": 127,
		"subtype": "noteOn",
		"time": 1520,
		"track": 4
	},
	{
		"deltaTime": 0,
		"channel": 0,
		"type": "channel",
		"noteNumber": 67,
		"velocity": 85.33333333333333,
		"subtype": "noteOn",
		"time": 1536,
		"track": 1
	},
	{
		"deltaTime": 0,
		"channel": 1,
		"type": "channel",
		"noteNumber": 60,
		"velocity": 85.33333333333333,
		"subtype": "noteOn",
		"time": 1536,
		"track": 2
	},
	{
		"deltaTime": 0,
		"channel": 2,
		"type": "channel",
		"noteNumber": 52,
		"velocity": 85.33333333333333,
		"subtype": "noteOn",
		"time": 1536,
		"track": 3
	},
	{
		"deltaTime": 0,
		"channel": 9,
		"type": "channel",
		"subtype": "noteOff",
		"noteNumber": 42,
		"velocity": 0,
		"time": 1536,
		"track": 4
	},
	{
		"deltaTime": 16,
		"channel": 9,
		"type": "channel",
		"noteNumber": 42,
		"velocity": 127,
		"subtype": "noteOn",
		"time": 1536,
		"track": 4
	},
	{
		"deltaTime": 0,
		"channel": 0,
		"type": "channel",
		"subtype": "noteOff",
		"noteNumber": 67,
		"velocity": 0,
		"time": 1552,
		"track": 1
	},
	{
		"deltaTime": 0,
		"channel": 1,
		"type": "channel",
		"subtype": "noteOff",
		"noteNumber": 60,
		"velocity": 0,
		"time": 1552,
		"track": 2
	},
	{
		"deltaTime": 0,
		"channel": 2,
		"type": "channel",
		"subtype": "noteOff",
		"noteNumber": 52,
		"velocity": 0,
		"time": 1552,
		"track": 3
	},
	{
		"deltaTime": 16,
		"channel": 9,
		"type": "channel",
		"subtype": "noteOff",
		"noteNumber": 42,
		"velocity": 0,
		"time": 1552,
		"track": 4
	},
	{
		"deltaTime": 0,
		"channel": 0,
		"type": "channel",
		"noteNumber": 76,
		"velocity": 85.33333333333333,
		"subtype": "noteOn",
		"time": 1568,
		"track": 1
	},
	{
		"deltaTime": 0,
		"channel": 1,
		"type": "channel",
		"noteNumber": 67,
		"velocity": 85.33333333333333,
		"subtype": "noteOn",
		"time": 1568,
		"track": 2
	},
	{
		"deltaTime": 16,
		"channel": 2,
		"type": "channel",
		"noteNumber": 60,
		"velocity": 85.33333333333333,
		"subtype": "noteOn",
		"time": 1568,
		"track": 3
	},
	{
		"deltaTime": 0,
		"channel": 0,
		"type": "channel",
		"subtype": "noteOff",
		"noteNumber": 76,
		"velocity": 0,
		"time": 1584,
		"track": 1
	},
	{
		"deltaTime": 0,
		"channel": 1,
		"type": "channel",
		"subtype": "noteOff",
		"noteNumber": 67,
		"velocity": 0,
		"time": 1584,
		"track": 2
	},
	{
		"deltaTime": 0,
		"channel": 2,
		"type": "channel",
		"subtype": "noteOff",
		"noteNumber": 60,
		"velocity": 0,
		"time": 1584,
		"track": 3
	},
	{
		"deltaTime": 16,
		"channel": 9,
		"type": "channel",
		"noteNumber": 42,
		"velocity": 127,
		"subtype": "noteOn",
		"time": 1584,
		"track": 4
	},
	{
		"deltaTime": 0,
		"channel": 0,
		"type": "channel",
		"noteNumber": 79,
		"velocity": 85.33333333333333,
		"subtype": "noteOn",
		"time": 1600,
		"track": 1
	},
	{
		"deltaTime": 0,
		"channel": 1,
		"type": "channel",
		"noteNumber": 71,
		"velocity": 85.33333333333333,
		"subtype": "noteOn",
		"time": 1600,
		"track": 2
	},
	{
		"deltaTime": 0,
		"channel": 2,
		"type": "channel",
		"noteNumber": 64,
		"velocity": 85.33333333333333,
		"subtype": "noteOn",
		"time": 1600,
		"track": 3
	},
	{
		"deltaTime": 16,
		"channel": 9,
		"type": "channel",
		"subtype": "noteOff",
		"noteNumber": 42,
		"velocity": 0,
		"time": 1600,
		"track": 4
	},
	{
		"deltaTime": 0,
		"channel": 0,
		"type": "channel",
		"subtype": "noteOff",
		"noteNumber": 79,
		"velocity": 0,
		"time": 1616,
		"track": 1
	},
	{
		"deltaTime": 0,
		"channel": 1,
		"type": "channel",
		"subtype": "noteOff",
		"noteNumber": 71,
		"velocity": 0,
		"time": 1616,
		"track": 2
	},
	{
		"deltaTime": 0,
		"channel": 2,
		"type": "channel",
		"subtype": "noteOff",
		"noteNumber": 64,
		"velocity": 0,
		"time": 1616,
		"track": 3
	},
	{
		"deltaTime": 16,
		"channel": 9,
		"type": "channel",
		"noteNumber": 42,
		"velocity": 127,
		"subtype": "noteOn",
		"time": 1616,
		"track": 4
	},
	{
		"deltaTime": 0,
		"channel": 0,
		"type": "channel",
		"noteNumber": 81,
		"velocity": 85.33333333333333,
		"subtype": "noteOn",
		"time": 1632,
		"track": 1
	},
	{
		"deltaTime": 0,
		"channel": 1,
		"type": "channel",
		"noteNumber": 72,
		"velocity": 85.33333333333333,
		"subtype": "noteOn",
		"time": 1632,
		"track": 2
	},
	{
		"deltaTime": 0,
		"channel": 2,
		"type": "channel",
		"noteNumber": 65,
		"velocity": 85.33333333333333,
		"subtype": "noteOn",
		"time": 1632,
		"track": 3
	},
	{
		"deltaTime": 0,
		"channel": 9,
		"type": "channel",
		"subtype": "noteOff",
		"noteNumber": 42,
		"velocity": 0,
		"time": 1632,
		"track": 4
	},
	{
		"deltaTime": 16,
		"channel": 9,
		"type": "channel",
		"noteNumber": 42,
		"velocity": 127,
		"subtype": "noteOn",
		"time": 1632,
		"track": 4
	},
	{
		"deltaTime": 0,
		"channel": 0,
		"type": "channel",
		"subtype": "noteOff",
		"noteNumber": 81,
		"velocity": 0,
		"time": 1648,
		"track": 1
	},
	{
		"deltaTime": 0,
		"channel": 1,
		"type": "channel",
		"subtype": "noteOff",
		"noteNumber": 72,
		"velocity": 0,
		"time": 1648,
		"track": 2
	},
	{
		"deltaTime": 16,
		"channel": 2,
		"type": "channel",
		"subtype": "noteOff",
		"noteNumber": 65,
		"velocity": 0,
		"time": 1648,
		"track": 3
	},
	{
		"deltaTime": 16,
		"channel": 9,
		"type": "channel",
		"subtype": "noteOff",
		"noteNumber": 42,
		"velocity": 0,
		"time": 1664,
		"track": 4
	},
	{
		"deltaTime": 0,
		"channel": 0,
		"type": "channel",
		"noteNumber": 77,
		"velocity": 85.33333333333333,
		"subtype": "noteOn",
		"time": 1680,
		"track": 1
	},
	{
		"deltaTime": 0,
		"channel": 1,
		"type": "channel",
		"noteNumber": 69,
		"velocity": 85.33333333333333,
		"subtype": "noteOn",
		"time": 1680,
		"track": 2
	},
	{
		"deltaTime": 0,
		"channel": 2,
		"type": "channel",
		"noteNumber": 62,
		"velocity": 85.33333333333333,
		"subtype": "noteOn",
		"time": 1680,
		"track": 3
	},
	{
		"deltaTime": 16,
		"channel": 9,
		"type": "channel",
		"noteNumber": 42,
		"velocity": 127,
		"subtype": "noteOn",
		"time": 1680,
		"track": 4
	},
	{
		"deltaTime": 0,
		"channel": 0,
		"type": "channel",
		"subtype": "noteOff",
		"noteNumber": 77,
		"velocity": 0,
		"time": 1696,
		"track": 1
	},
	{
		"deltaTime": 0,
		"channel": 1,
		"type": "channel",
		"subtype": "noteOff",
		"noteNumber": 69,
		"velocity": 0,
		"time": 1696,
		"track": 2
	},
	{
		"deltaTime": 0,
		"channel": 2,
		"type": "channel",
		"subtype": "noteOff",
		"noteNumber": 62,
		"velocity": 0,
		"time": 1696,
		"track": 3
	},
	{
		"deltaTime": 8,
		"channel": 9,
		"type": "channel",
		"subtype": "noteOff",
		"noteNumber": 42,
		"velocity": 0,
		"time": 1696,
		"track": 4
	},
	{
		"deltaTime": 0,
		"channel": 0,
		"type": "channel",
		"noteNumber": 79,
		"velocity": 85.33333333333333,
		"subtype": "noteOn",
		"time": 1704,
		"track": 1
	},
	{
		"deltaTime": 0,
		"channel": 1,
		"type": "channel",
		"noteNumber": 71,
		"velocity": 85.33333333333333,
		"subtype": "noteOn",
		"time": 1704,
		"track": 2
	},
	{
		"deltaTime": 8,
		"channel": 2,
		"type": "channel",
		"noteNumber": 64,
		"velocity": 85.33333333333333,
		"subtype": "noteOn",
		"time": 1704,
		"track": 3
	},
	{
		"deltaTime": 8,
		"channel": 9,
		"type": "channel",
		"noteNumber": 42,
		"velocity": 127,
		"subtype": "noteOn",
		"time": 1712,
		"track": 4
	},
	{
		"deltaTime": 0,
		"channel": 0,
		"type": "channel",
		"subtype": "noteOff",
		"noteNumber": 79,
		"velocity": 0,
		"time": 1720,
		"track": 1
	},
	{
		"deltaTime": 0,
		"channel": 1,
		"type": "channel",
		"subtype": "noteOff",
		"noteNumber": 71,
		"velocity": 0,
		"time": 1720,
		"track": 2
	},
	{
		"deltaTime": 8,
		"channel": 2,
		"type": "channel",
		"subtype": "noteOff",
		"noteNumber": 64,
		"velocity": 0,
		"time": 1720,
		"track": 3
	},
	{
		"deltaTime": 0,
		"channel": 9,
		"type": "channel",
		"subtype": "noteOff",
		"noteNumber": 42,
		"velocity": 0,
		"time": 1728,
		"track": 4
	},
	{
		"deltaTime": 16,
		"channel": 9,
		"type": "channel",
		"noteNumber": 42,
		"velocity": 127,
		"subtype": "noteOn",
		"time": 1728,
		"track": 4
	},
	{
		"deltaTime": 8,
		"channel": 9,
		"type": "channel",
		"subtype": "noteOff",
		"noteNumber": 42,
		"velocity": 0,
		"time": 1744,
		"track": 4
	},
	{
		"deltaTime": 0,
		"channel": 0,
		"type": "channel",
		"noteNumber": 76,
		"velocity": 85.33333333333333,
		"subtype": "noteOn",
		"time": 1752,
		"track": 1
	},
	{
		"deltaTime": 0,
		"channel": 1,
		"type": "channel",
		"noteNumber": 69,
		"velocity": 85.33333333333333,
		"subtype": "noteOn",
		"time": 1752,
		"track": 2
	},
	{
		"deltaTime": 16,
		"channel": 2,
		"type": "channel",
		"noteNumber": 60,
		"velocity": 85.33333333333333,
		"subtype": "noteOn",
		"time": 1752,
		"track": 3
	},
	{
		"deltaTime": 0,
		"channel": 0,
		"type": "channel",
		"subtype": "noteOff",
		"noteNumber": 76,
		"velocity": 0,
		"time": 1768,
		"track": 1
	},
	{
		"deltaTime": 0,
		"channel": 1,
		"type": "channel",
		"subtype": "noteOff",
		"noteNumber": 69,
		"velocity": 0,
		"time": 1768,
		"track": 2
	},
	{
		"deltaTime": 8,
		"channel": 2,
		"type": "channel",
		"subtype": "noteOff",
		"noteNumber": 60,
		"velocity": 0,
		"time": 1768,
		"track": 3
	},
	{
		"deltaTime": 16,
		"channel": 9,
		"type": "channel",
		"noteNumber": 42,
		"velocity": 127,
		"subtype": "noteOn",
		"time": 1776,
		"track": 4
	},
	{
		"deltaTime": 8,
		"channel": 9,
		"type": "channel",
		"subtype": "noteOff",
		"noteNumber": 42,
		"velocity": 0,
		"time": 1792,
		"track": 4
	},
	{
		"deltaTime": 0,
		"channel": 0,
		"type": "channel",
		"noteNumber": 72,
		"velocity": 85.33333333333333,
		"subtype": "noteOn",
		"time": 1800,
		"track": 1
	},
	{
		"deltaTime": 0,
		"channel": 1,
		"type": "channel",
		"noteNumber": 64,
		"velocity": 85.33333333333333,
		"subtype": "noteOn",
		"time": 1800,
		"track": 2
	},
	{
		"deltaTime": 8,
		"channel": 2,
		"type": "channel",
		"noteNumber": 57,
		"velocity": 85.33333333333333,
		"subtype": "noteOn",
		"time": 1800,
		"track": 3
	},
	{
		"deltaTime": 8,
		"channel": 9,
		"type": "channel",
		"noteNumber": 42,
		"velocity": 127,
		"subtype": "noteOn",
		"time": 1808,
		"track": 4
	},
	{
		"deltaTime": 0,
		"channel": 0,
		"type": "channel",
		"subtype": "noteOff",
		"noteNumber": 72,
		"velocity": 0,
		"time": 1816,
		"track": 1
	},
	{
		"deltaTime": 0,
		"channel": 1,
		"type": "channel",
		"subtype": "noteOff",
		"noteNumber": 64,
		"velocity": 0,
		"time": 1816,
		"track": 2
	},
	{
		"deltaTime": 8,
		"channel": 2,
		"type": "channel",
		"subtype": "noteOff",
		"noteNumber": 57,
		"velocity": 0,
		"time": 1816,
		"track": 3
	},
	{
		"deltaTime": 0,
		"channel": 0,
		"type": "channel",
		"noteNumber": 74,
		"velocity": 85.33333333333333,
		"subtype": "noteOn",
		"time": 1824,
		"track": 1
	},
	{
		"deltaTime": 0,
		"channel": 1,
		"type": "channel",
		"noteNumber": 65,
		"velocity": 85.33333333333333,
		"subtype": "noteOn",
		"time": 1824,
		"track": 2
	},
	{
		"deltaTime": 0,
		"channel": 2,
		"type": "channel",
		"noteNumber": 59,
		"velocity": 85.33333333333333,
		"subtype": "noteOn",
		"time": 1824,
		"track": 3
	},
	{
		"deltaTime": 0,
		"channel": 9,
		"type": "channel",
		"subtype": "noteOff",
		"noteNumber": 42,
		"velocity": 0,
		"time": 1824,
		"track": 4
	},
	{
		"deltaTime": 16,
		"channel": 9,
		"type": "channel",
		"noteNumber": 42,
		"velocity": 127,
		"subtype": "noteOn",
		"time": 1824,
		"track": 4
	},
	{
		"deltaTime": 0,
		"channel": 0,
		"type": "channel",
		"subtype": "noteOff",
		"noteNumber": 74,
		"velocity": 0,
		"time": 1840,
		"track": 1
	},
	{
		"deltaTime": 0,
		"channel": 1,
		"type": "channel",
		"subtype": "noteOff",
		"noteNumber": 65,
		"velocity": 0,
		"time": 1840,
		"track": 2
	},
	{
		"deltaTime": 8,
		"channel": 2,
		"type": "channel",
		"subtype": "noteOff",
		"noteNumber": 59,
		"velocity": 0,
		"time": 1840,
		"track": 3
	},
	{
		"deltaTime": 0,
		"channel": 0,
		"type": "channel",
		"noteNumber": 71,
		"velocity": 85.33333333333333,
		"subtype": "noteOn",
		"time": 1848,
		"track": 1
	},
	{
		"deltaTime": 0,
		"channel": 1,
		"type": "channel",
		"noteNumber": 62,
		"velocity": 85.33333333333333,
		"subtype": "noteOn",
		"time": 1848,
		"track": 2
	},
	{
		"deltaTime": 8,
		"channel": 2,
		"type": "channel",
		"noteNumber": 55,
		"velocity": 85.33333333333333,
		"subtype": "noteOn",
		"time": 1848,
		"track": 3
	},
	{
		"deltaTime": 8,
		"channel": 9,
		"type": "channel",
		"subtype": "noteOff",
		"noteNumber": 42,
		"velocity": 0,
		"time": 1856,
		"track": 4
	},
	{
		"deltaTime": 0,
		"channel": 0,
		"type": "channel",
		"subtype": "noteOff",
		"noteNumber": 71,
		"velocity": 0,
		"time": 1864,
		"track": 1
	},
	{
		"deltaTime": 0,
		"channel": 1,
		"type": "channel",
		"subtype": "noteOff",
		"noteNumber": 62,
		"velocity": 0,
		"time": 1864,
		"track": 2
	},
	{
		"deltaTime": 8,
		"channel": 2,
		"type": "channel",
		"subtype": "noteOff",
		"noteNumber": 55,
		"velocity": 0,
		"time": 1864,
		"track": 3
	},
	{
		"deltaTime": 16,
		"channel": 9,
		"type": "channel",
		"noteNumber": 42,
		"velocity": 127,
		"subtype": "noteOn",
		"time": 1872,
		"track": 4
	},
	{
		"deltaTime": 16,
		"channel": 9,
		"type": "channel",
		"subtype": "noteOff",
		"noteNumber": 42,
		"velocity": 0,
		"time": 1888,
		"track": 4
	},
	{
		"deltaTime": 16,
		"channel": 9,
		"type": "channel",
		"noteNumber": 42,
		"velocity": 127,
		"subtype": "noteOn",
		"time": 1904,
		"track": 4
	},
	{
		"deltaTime": 0,
		"channel": 2,
		"type": "channel",
		"noteNumber": 48,
		"velocity": 85.33333333333333,
		"subtype": "noteOn",
		"time": 1920,
		"track": 3
	},
	{
		"deltaTime": 0,
		"channel": 9,
		"type": "channel",
		"subtype": "noteOff",
		"noteNumber": 42,
		"velocity": 0,
		"time": 1920,
		"track": 4
	},
	{
		"deltaTime": 16,
		"channel": 9,
		"type": "channel",
		"noteNumber": 42,
		"velocity": 127,
		"subtype": "noteOn",
		"time": 1920,
		"track": 4
	},
	{
		"deltaTime": 0,
		"channel": 2,
		"type": "channel",
		"subtype": "noteOff",
		"noteNumber": 48,
		"velocity": 0,
		"time": 1936,
		"track": 3
	},
	{
		"deltaTime": 32,
		"channel": 9,
		"type": "channel",
		"subtype": "noteOff",
		"noteNumber": 42,
		"velocity": 0,
		"time": 1936,
		"track": 4
	},
	{
		"deltaTime": 0,
		"channel": 0,
		"type": "channel",
		"noteNumber": 79,
		"velocity": 85.33333333333333,
		"subtype": "noteOn",
		"time": 1968,
		"track": 1
	},
	{
		"deltaTime": 0,
		"channel": 1,
		"type": "channel",
		"noteNumber": 76,
		"velocity": 85.33333333333333,
		"subtype": "noteOn",
		"time": 1968,
		"track": 2
	},
	{
		"deltaTime": 16,
		"channel": 9,
		"type": "channel",
		"noteNumber": 42,
		"velocity": 127,
		"subtype": "noteOn",
		"time": 1968,
		"track": 4
	},
	{
		"deltaTime": 0,
		"channel": 0,
		"type": "channel",
		"subtype": "noteOff",
		"noteNumber": 79,
		"velocity": 0,
		"time": 1984,
		"track": 1
	},
	{
		"deltaTime": 0,
		"channel": 1,
		"type": "channel",
		"subtype": "noteOff",
		"noteNumber": 76,
		"velocity": 0,
		"time": 1984,
		"track": 2
	},
	{
		"deltaTime": 8,
		"channel": 9,
		"type": "channel",
		"subtype": "noteOff",
		"noteNumber": 42,
		"velocity": 0,
		"time": 1984,
		"track": 4
	},
	{
		"deltaTime": 0,
		"channel": 0,
		"type": "channel",
		"noteNumber": 78,
		"velocity": 85.33333333333333,
		"subtype": "noteOn",
		"time": 1992,
		"track": 1
	},
	{
		"deltaTime": 0,
		"channel": 1,
		"type": "channel",
		"noteNumber": 75,
		"velocity": 85.33333333333333,
		"subtype": "noteOn",
		"time": 1992,
		"track": 2
	},
	{
		"deltaTime": 8,
		"channel": 2,
		"type": "channel",
		"noteNumber": 55,
		"velocity": 85.33333333333333,
		"subtype": "noteOn",
		"time": 1992,
		"track": 3
	},
	{
		"deltaTime": 8,
		"channel": 9,
		"type": "channel",
		"noteNumber": 42,
		"velocity": 127,
		"subtype": "noteOn",
		"time": 2000,
		"track": 4
	},
	{
		"deltaTime": 0,
		"channel": 0,
		"type": "channel",
		"subtype": "noteOff",
		"noteNumber": 78,
		"velocity": 0,
		"time": 2008,
		"track": 1
	},
	{
		"deltaTime": 0,
		"channel": 1,
		"type": "channel",
		"subtype": "noteOff",
		"noteNumber": 75,
		"velocity": 0,
		"time": 2008,
		"track": 2
	},
	{
		"deltaTime": 8,
		"channel": 2,
		"type": "channel",
		"subtype": "noteOff",
		"noteNumber": 55,
		"velocity": 0,
		"time": 2008,
		"track": 3
	},
	{
		"deltaTime": 0,
		"channel": 0,
		"type": "channel",
		"noteNumber": 77,
		"velocity": 85.33333333333333,
		"subtype": "noteOn",
		"time": 2016,
		"track": 1
	},
	{
		"deltaTime": 0,
		"channel": 1,
		"type": "channel",
		"noteNumber": 74,
		"velocity": 85.33333333333333,
		"subtype": "noteOn",
		"time": 2016,
		"track": 2
	},
	{
		"deltaTime": 0,
		"channel": 9,
		"type": "channel",
		"subtype": "noteOff",
		"noteNumber": 42,
		"velocity": 0,
		"time": 2016,
		"track": 4
	},
	{
		"deltaTime": 16,
		"channel": 9,
		"type": "channel",
		"noteNumber": 42,
		"velocity": 127,
		"subtype": "noteOn",
		"time": 2016,
		"track": 4
	},
	{
		"deltaTime": 0,
		"channel": 0,
		"type": "channel",
		"subtype": "noteOff",
		"noteNumber": 77,
		"velocity": 0,
		"time": 2032,
		"track": 1
	},
	{
		"deltaTime": 8,
		"channel": 1,
		"type": "channel",
		"subtype": "noteOff",
		"noteNumber": 74,
		"velocity": 0,
		"time": 2032,
		"track": 2
	},
	{
		"deltaTime": 0,
		"channel": 0,
		"type": "channel",
		"noteNumber": 75,
		"velocity": 85.33333333333333,
		"subtype": "noteOn",
		"time": 2040,
		"track": 1
	},
	{
		"deltaTime": 8,
		"channel": 1,
		"type": "channel",
		"noteNumber": 71,
		"velocity": 85.33333333333333,
		"subtype": "noteOn",
		"time": 2040,
		"track": 2
	},
	{
		"deltaTime": 8,
		"channel": 9,
		"type": "channel",
		"subtype": "noteOff",
		"noteNumber": 42,
		"velocity": 0,
		"time": 2048,
		"track": 4
	},
	{
		"deltaTime": 0,
		"channel": 0,
		"type": "channel",
		"subtype": "noteOff",
		"noteNumber": 75,
		"velocity": 0,
		"time": 2056,
		"track": 1
	},
	{
		"deltaTime": 8,
		"channel": 1,
		"type": "channel",
		"subtype": "noteOff",
		"noteNumber": 71,
		"velocity": 0,
		"time": 2056,
		"track": 2
	},
	{
		"deltaTime": 0,
		"channel": 2,
		"type": "channel",
		"noteNumber": 60,
		"velocity": 85.33333333333333,
		"subtype": "noteOn",
		"time": 2064,
		"track": 3
	},
	{
		"deltaTime": 16,
		"channel": 9,
		"type": "channel",
		"noteNumber": 42,
		"velocity": 127,
		"subtype": "noteOn",
		"time": 2064,
		"track": 4
	},
	{
		"deltaTime": 0,
		"channel": 2,
		"type": "channel",
		"subtype": "noteOff",
		"noteNumber": 60,
		"velocity": 0,
		"time": 2080,
		"track": 3
	},
	{
		"deltaTime": 8,
		"channel": 9,
		"type": "channel",
		"subtype": "noteOff",
		"noteNumber": 42,
		"velocity": 0,
		"time": 2080,
		"track": 4
	},
	{
		"deltaTime": 0,
		"channel": 0,
		"type": "channel",
		"noteNumber": 76,
		"velocity": 85.33333333333333,
		"subtype": "noteOn",
		"time": 2088,
		"track": 1
	},
	{
		"deltaTime": 8,
		"channel": 1,
		"type": "channel",
		"noteNumber": 72,
		"velocity": 85.33333333333333,
		"subtype": "noteOn",
		"time": 2088,
		"track": 2
	},
	{
		"deltaTime": 8,
		"channel": 9,
		"type": "channel",
		"noteNumber": 42,
		"velocity": 127,
		"subtype": "noteOn",
		"time": 2096,
		"track": 4
	},
	{
		"deltaTime": 0,
		"channel": 0,
		"type": "channel",
		"subtype": "noteOff",
		"noteNumber": 76,
		"velocity": 0,
		"time": 2104,
		"track": 1
	},
	{
		"deltaTime": 8,
		"channel": 1,
		"type": "channel",
		"subtype": "noteOff",
		"noteNumber": 72,
		"velocity": 0,
		"time": 2104,
		"track": 2
	},
	{
		"deltaTime": 0,
		"channel": 2,
		"type": "channel",
		"noteNumber": 53,
		"velocity": 85.33333333333333,
		"subtype": "noteOn",
		"time": 2112,
		"track": 3
	},
	{
		"deltaTime": 0,
		"channel": 9,
		"type": "channel",
		"subtype": "noteOff",
		"noteNumber": 42,
		"velocity": 0,
		"time": 2112,
		"track": 4
	},
	{
		"deltaTime": 16,
		"channel": 9,
		"type": "channel",
		"noteNumber": 42,
		"velocity": 127,
		"subtype": "noteOn",
		"time": 2112,
		"track": 4
	},
	{
		"deltaTime": 0,
		"channel": 2,
		"type": "channel",
		"subtype": "noteOff",
		"noteNumber": 53,
		"velocity": 0,
		"time": 2128,
		"track": 3
	},
	{
		"deltaTime": 8,
		"channel": 9,
		"type": "channel",
		"subtype": "noteOff",
		"noteNumber": 42,
		"velocity": 0,
		"time": 2128,
		"track": 4
	},
	{
		"deltaTime": 0,
		"channel": 0,
		"type": "channel",
		"noteNumber": 68,
		"velocity": 85.33333333333333,
		"subtype": "noteOn",
		"time": 2136,
		"track": 1
	},
	{
		"deltaTime": 16,
		"channel": 1,
		"type": "channel",
		"noteNumber": 64,
		"velocity": 85.33333333333333,
		"subtype": "noteOn",
		"time": 2136,
		"track": 2
	},
	{
		"deltaTime": 0,
		"channel": 0,
		"type": "channel",
		"subtype": "noteOff",
		"noteNumber": 68,
		"velocity": 0,
		"time": 2152,
		"track": 1
	},
	{
		"deltaTime": 8,
		"channel": 1,
		"type": "channel",
		"subtype": "noteOff",
		"noteNumber": 64,
		"velocity": 0,
		"time": 2152,
		"track": 2
	},
	{
		"deltaTime": 0,
		"channel": 0,
		"type": "channel",
		"noteNumber": 69,
		"velocity": 85.33333333333333,
		"subtype": "noteOn",
		"time": 2160,
		"track": 1
	},
	{
		"deltaTime": 0,
		"channel": 1,
		"type": "channel",
		"noteNumber": 65,
		"velocity": 85.33333333333333,
		"subtype": "noteOn",
		"time": 2160,
		"track": 2
	},
	{
		"deltaTime": 16,
		"channel": 9,
		"type": "channel",
		"noteNumber": 42,
		"velocity": 127,
		"subtype": "noteOn",
		"time": 2160,
		"track": 4
	},
	{
		"deltaTime": 0,
		"channel": 0,
		"type": "channel",
		"subtype": "noteOff",
		"noteNumber": 69,
		"velocity": 0,
		"time": 2176,
		"track": 1
	},
	{
		"deltaTime": 0,
		"channel": 1,
		"type": "channel",
		"subtype": "noteOff",
		"noteNumber": 65,
		"velocity": 0,
		"time": 2176,
		"track": 2
	},
	{
		"deltaTime": 8,
		"channel": 9,
		"type": "channel",
		"subtype": "noteOff",
		"noteNumber": 42,
		"velocity": 0,
		"time": 2176,
		"track": 4
	},
	{
		"deltaTime": 0,
		"channel": 0,
		"type": "channel",
		"noteNumber": 72,
		"velocity": 85.33333333333333,
		"subtype": "noteOn",
		"time": 2184,
		"track": 1
	},
	{
		"deltaTime": 0,
		"channel": 1,
		"type": "channel",
		"noteNumber": 67,
		"velocity": 85.33333333333333,
		"subtype": "noteOn",
		"time": 2184,
		"track": 2
	},
	{
		"deltaTime": 8,
		"channel": 2,
		"type": "channel",
		"noteNumber": 60,
		"velocity": 85.33333333333333,
		"subtype": "noteOn",
		"time": 2184,
		"track": 3
	},
	{
		"deltaTime": 8,
		"channel": 9,
		"type": "channel",
		"noteNumber": 42,
		"velocity": 127,
		"subtype": "noteOn",
		"time": 2192,
		"track": 4
	},
	{
		"deltaTime": 0,
		"channel": 0,
		"type": "channel",
		"subtype": "noteOff",
		"noteNumber": 72,
		"velocity": 0,
		"time": 2200,
		"track": 1
	},
	{
		"deltaTime": 0,
		"channel": 1,
		"type": "channel",
		"subtype": "noteOff",
		"noteNumber": 67,
		"velocity": 0,
		"time": 2200,
		"track": 2
	},
	{
		"deltaTime": 8,
		"channel": 2,
		"type": "channel",
		"subtype": "noteOff",
		"noteNumber": 60,
		"velocity": 0,
		"time": 2200,
		"track": 3
	},
	{
		"deltaTime": 0,
		"channel": 2,
		"type": "channel",
		"noteNumber": 60,
		"velocity": 85.33333333333333,
		"subtype": "noteOn",
		"time": 2208,
		"track": 3
	},
	{
		"deltaTime": 0,
		"channel": 9,
		"type": "channel",
		"subtype": "noteOff",
		"noteNumber": 42,
		"velocity": 0,
		"time": 2208,
		"track": 4
	},
	{
		"deltaTime": 16,
		"channel": 9,
		"type": "channel",
		"noteNumber": 42,
		"velocity": 127,
		"subtype": "noteOn",
		"time": 2208,
		"track": 4
	},
	{
		"deltaTime": 8,
		"channel": 2,
		"type": "channel",
		"subtype": "noteOff",
		"noteNumber": 60,
		"velocity": 0,
		"time": 2224,
		"track": 3
	},
	{
		"deltaTime": 0,
		"channel": 0,
		"type": "channel",
		"noteNumber": 69,
		"velocity": 85.33333333333333,
		"subtype": "noteOn",
		"time": 2232,
		"track": 1
	},
	{
		"deltaTime": 8,
		"channel": 1,
		"type": "channel",
		"noteNumber": 60,
		"velocity": 85.33333333333333,
		"subtype": "noteOn",
		"time": 2232,
		"track": 2
	},
	{
		"deltaTime": 8,
		"channel": 9,
		"type": "channel",
		"subtype": "noteOff",
		"noteNumber": 42,
		"velocity": 0,
		"time": 2240,
		"track": 4
	},
	{
		"deltaTime": 0,
		"channel": 0,
		"type": "channel",
		"subtype": "noteOff",
		"noteNumber": 69,
		"velocity": 0,
		"time": 2248,
		"track": 1
	},
	{
		"deltaTime": 8,
		"channel": 1,
		"type": "channel",
		"subtype": "noteOff",
		"noteNumber": 60,
		"velocity": 0,
		"time": 2248,
		"track": 2
	},
	{
		"deltaTime": 0,
		"channel": 0,
		"type": "channel",
		"noteNumber": 72,
		"velocity": 85.33333333333333,
		"subtype": "noteOn",
		"time": 2256,
		"track": 1
	},
	{
		"deltaTime": 0,
		"channel": 1,
		"type": "channel",
		"noteNumber": 64,
		"velocity": 85.33333333333333,
		"subtype": "noteOn",
		"time": 2256,
		"track": 2
	},
	{
		"deltaTime": 0,
		"channel": 2,
		"type": "channel",
		"noteNumber": 53,
		"velocity": 85.33333333333333,
		"subtype": "noteOn",
		"time": 2256,
		"track": 3
	},
	{
		"deltaTime": 16,
		"channel": 9,
		"type": "channel",
		"noteNumber": 42,
		"velocity": 127,
		"subtype": "noteOn",
		"time": 2256,
		"track": 4
	},
	{
		"deltaTime": 0,
		"channel": 0,
		"type": "channel",
		"subtype": "noteOff",
		"noteNumber": 72,
		"velocity": 0,
		"time": 2272,
		"track": 1
	},
	{
		"deltaTime": 0,
		"channel": 1,
		"type": "channel",
		"subtype": "noteOff",
		"noteNumber": 64,
		"velocity": 0,
		"time": 2272,
		"track": 2
	},
	{
		"deltaTime": 0,
		"channel": 2,
		"type": "channel",
		"subtype": "noteOff",
		"noteNumber": 53,
		"velocity": 0,
		"time": 2272,
		"track": 3
	},
	{
		"deltaTime": 8,
		"channel": 9,
		"type": "channel",
		"subtype": "noteOff",
		"noteNumber": 42,
		"velocity": 0,
		"time": 2272,
		"track": 4
	},
	{
		"deltaTime": 0,
		"channel": 0,
		"type": "channel",
		"noteNumber": 74,
		"velocity": 85.33333333333333,
		"subtype": "noteOn",
		"time": 2280,
		"track": 1
	},
	{
		"deltaTime": 8,
		"channel": 1,
		"type": "channel",
		"noteNumber": 65,
		"velocity": 85.33333333333333,
		"subtype": "noteOn",
		"time": 2280,
		"track": 2
	},
	{
		"deltaTime": 8,
		"channel": 9,
		"type": "channel",
		"noteNumber": 42,
		"velocity": 127,
		"subtype": "noteOn",
		"time": 2288,
		"track": 4
	},
	{
		"deltaTime": 0,
		"channel": 0,
		"type": "channel",
		"subtype": "noteOff",
		"noteNumber": 74,
		"velocity": 0,
		"time": 2296,
		"track": 1
	},
	{
		"deltaTime": 8,
		"channel": 1,
		"type": "channel",
		"subtype": "noteOff",
		"noteNumber": 65,
		"velocity": 0,
		"time": 2296,
		"track": 2
	},
	{
		"deltaTime": 0,
		"channel": 2,
		"type": "channel",
		"noteNumber": 48,
		"velocity": 85.33333333333333,
		"subtype": "noteOn",
		"time": 2304,
		"track": 3
	},
	{
		"deltaTime": 0,
		"channel": 9,
		"type": "channel",
		"subtype": "noteOff",
		"noteNumber": 42,
		"velocity": 0,
		"time": 2304,
		"track": 4
	},
	{
		"deltaTime": 16,
		"channel": 9,
		"type": "channel",
		"noteNumber": 42,
		"velocity": 127,
		"subtype": "noteOn",
		"time": 2304,
		"track": 4
	},
	{
		"deltaTime": 0,
		"channel": 2,
		"type": "channel",
		"subtype": "noteOff",
		"noteNumber": 48,
		"velocity": 0,
		"time": 2320,
		"track": 3
	},
	{
		"deltaTime": 32,
		"channel": 9,
		"type": "channel",
		"subtype": "noteOff",
		"noteNumber": 42,
		"velocity": 0,
		"time": 2320,
		"track": 4
	},
	{
		"deltaTime": 0,
		"channel": 0,
		"type": "channel",
		"noteNumber": 79,
		"velocity": 85.33333333333333,
		"subtype": "noteOn",
		"time": 2352,
		"track": 1
	},
	{
		"deltaTime": 0,
		"channel": 1,
		"type": "channel",
		"noteNumber": 76,
		"velocity": 85.33333333333333,
		"subtype": "noteOn",
		"time": 2352,
		"track": 2
	},
	{
		"deltaTime": 16,
		"channel": 9,
		"type": "channel",
		"noteNumber": 42,
		"velocity": 127,
		"subtype": "noteOn",
		"time": 2352,
		"track": 4
	},
	{
		"deltaTime": 0,
		"channel": 0,
		"type": "channel",
		"subtype": "noteOff",
		"noteNumber": 79,
		"velocity": 0,
		"time": 2368,
		"track": 1
	},
	{
		"deltaTime": 0,
		"channel": 1,
		"type": "channel",
		"subtype": "noteOff",
		"noteNumber": 76,
		"velocity": 0,
		"time": 2368,
		"track": 2
	},
	{
		"deltaTime": 8,
		"channel": 9,
		"type": "channel",
		"subtype": "noteOff",
		"noteNumber": 42,
		"velocity": 0,
		"time": 2368,
		"track": 4
	},
	{
		"deltaTime": 0,
		"channel": 0,
		"type": "channel",
		"noteNumber": 78,
		"velocity": 85.33333333333333,
		"subtype": "noteOn",
		"time": 2376,
		"track": 1
	},
	{
		"deltaTime": 0,
		"channel": 1,
		"type": "channel",
		"noteNumber": 75,
		"velocity": 85.33333333333333,
		"subtype": "noteOn",
		"time": 2376,
		"track": 2
	},
	{
		"deltaTime": 8,
		"channel": 2,
		"type": "channel",
		"noteNumber": 52,
		"velocity": 85.33333333333333,
		"subtype": "noteOn",
		"time": 2376,
		"track": 3
	},
	{
		"deltaTime": 8,
		"channel": 9,
		"type": "channel",
		"noteNumber": 42,
		"velocity": 127,
		"subtype": "noteOn",
		"time": 2384,
		"track": 4
	},
	{
		"deltaTime": 0,
		"channel": 0,
		"type": "channel",
		"subtype": "noteOff",
		"noteNumber": 78,
		"velocity": 0,
		"time": 2392,
		"track": 1
	},
	{
		"deltaTime": 0,
		"channel": 1,
		"type": "channel",
		"subtype": "noteOff",
		"noteNumber": 75,
		"velocity": 0,
		"time": 2392,
		"track": 2
	},
	{
		"deltaTime": 8,
		"channel": 2,
		"type": "channel",
		"subtype": "noteOff",
		"noteNumber": 52,
		"velocity": 0,
		"time": 2392,
		"track": 3
	},
	{
		"deltaTime": 0,
		"channel": 0,
		"type": "channel",
		"noteNumber": 77,
		"velocity": 85.33333333333333,
		"subtype": "noteOn",
		"time": 2400,
		"track": 1
	},
	{
		"deltaTime": 0,
		"channel": 1,
		"type": "channel",
		"noteNumber": 74,
		"velocity": 85.33333333333333,
		"subtype": "noteOn",
		"time": 2400,
		"track": 2
	},
	{
		"deltaTime": 0,
		"channel": 9,
		"type": "channel",
		"subtype": "noteOff",
		"noteNumber": 42,
		"velocity": 0,
		"time": 2400,
		"track": 4
	},
	{
		"deltaTime": 16,
		"channel": 9,
		"type": "channel",
		"noteNumber": 42,
		"velocity": 127,
		"subtype": "noteOn",
		"time": 2400,
		"track": 4
	},
	{
		"deltaTime": 0,
		"channel": 0,
		"type": "channel",
		"subtype": "noteOff",
		"noteNumber": 77,
		"velocity": 0,
		"time": 2416,
		"track": 1
	},
	{
		"deltaTime": 8,
		"channel": 1,
		"type": "channel",
		"subtype": "noteOff",
		"noteNumber": 74,
		"velocity": 0,
		"time": 2416,
		"track": 2
	},
	{
		"deltaTime": 0,
		"channel": 0,
		"type": "channel",
		"noteNumber": 75,
		"velocity": 85.33333333333333,
		"subtype": "noteOn",
		"time": 2424,
		"track": 1
	},
	{
		"deltaTime": 8,
		"channel": 1,
		"type": "channel",
		"noteNumber": 71,
		"velocity": 85.33333333333333,
		"subtype": "noteOn",
		"time": 2424,
		"track": 2
	},
	{
		"deltaTime": 8,
		"channel": 9,
		"type": "channel",
		"subtype": "noteOff",
		"noteNumber": 42,
		"velocity": 0,
		"time": 2432,
		"track": 4
	},
	{
		"deltaTime": 0,
		"channel": 0,
		"type": "channel",
		"subtype": "noteOff",
		"noteNumber": 75,
		"velocity": 0,
		"time": 2440,
		"track": 1
	},
	{
		"deltaTime": 8,
		"channel": 1,
		"type": "channel",
		"subtype": "noteOff",
		"noteNumber": 71,
		"velocity": 0,
		"time": 2440,
		"track": 2
	},
	{
		"deltaTime": 0,
		"channel": 2,
		"type": "channel",
		"noteNumber": 55,
		"velocity": 85.33333333333333,
		"subtype": "noteOn",
		"time": 2448,
		"track": 3
	},
	{
		"deltaTime": 16,
		"channel": 9,
		"type": "channel",
		"noteNumber": 42,
		"velocity": 127,
		"subtype": "noteOn",
		"time": 2448,
		"track": 4
	},
	{
		"deltaTime": 0,
		"channel": 2,
		"type": "channel",
		"subtype": "noteOff",
		"noteNumber": 55,
		"velocity": 0,
		"time": 2464,
		"track": 3
	},
	{
		"deltaTime": 8,
		"channel": 9,
		"type": "channel",
		"subtype": "noteOff",
		"noteNumber": 42,
		"velocity": 0,
		"time": 2464,
		"track": 4
	},
	{
		"deltaTime": 0,
		"channel": 0,
		"type": "channel",
		"noteNumber": 76,
		"velocity": 85.33333333333333,
		"subtype": "noteOn",
		"time": 2472,
		"track": 1
	},
	{
		"deltaTime": 0,
		"channel": 1,
		"type": "channel",
		"noteNumber": 72,
		"velocity": 85.33333333333333,
		"subtype": "noteOn",
		"time": 2472,
		"track": 2
	},
	{
		"deltaTime": 8,
		"channel": 2,
		"type": "channel",
		"noteNumber": 60,
		"velocity": 85.33333333333333,
		"subtype": "noteOn",
		"time": 2472,
		"track": 3
	},
	{
		"deltaTime": 8,
		"channel": 9,
		"type": "channel",
		"noteNumber": 42,
		"velocity": 127,
		"subtype": "noteOn",
		"time": 2480,
		"track": 4
	},
	{
		"deltaTime": 0,
		"channel": 0,
		"type": "channel",
		"subtype": "noteOff",
		"noteNumber": 76,
		"velocity": 0,
		"time": 2488,
		"track": 1
	},
	{
		"deltaTime": 0,
		"channel": 1,
		"type": "channel",
		"subtype": "noteOff",
		"noteNumber": 72,
		"velocity": 0,
		"time": 2488,
		"track": 2
	},
	{
		"deltaTime": 8,
		"channel": 2,
		"type": "channel",
		"subtype": "noteOff",
		"noteNumber": 60,
		"velocity": 0,
		"time": 2488,
		"track": 3
	},
	{
		"deltaTime": 0,
		"channel": 9,
		"type": "channel",
		"subtype": "noteOff",
		"noteNumber": 42,
		"velocity": 0,
		"time": 2496,
		"track": 4
	},
	{
		"deltaTime": 16,
		"channel": 9,
		"type": "channel",
		"noteNumber": 42,
		"velocity": 127,
		"subtype": "noteOn",
		"time": 2496,
		"track": 4
	},
	{
		"deltaTime": 8,
		"channel": 9,
		"type": "channel",
		"subtype": "noteOff",
		"noteNumber": 42,
		"velocity": 0,
		"time": 2512,
		"track": 4
	},
	{
		"deltaTime": 0,
		"channel": 0,
		"type": "channel",
		"noteNumber": 84,
		"velocity": 85.33333333333333,
		"subtype": "noteOn",
		"time": 2520,
		"track": 1
	},
	{
		"deltaTime": 0,
		"channel": 1,
		"type": "channel",
		"noteNumber": 77,
		"velocity": 85.33333333333333,
		"subtype": "noteOn",
		"time": 2520,
		"track": 2
	},
	{
		"deltaTime": 16,
		"channel": 2,
		"type": "channel",
		"noteNumber": 79,
		"velocity": 85.33333333333333,
		"subtype": "noteOn",
		"time": 2520,
		"track": 3
	},
	{
		"deltaTime": 0,
		"channel": 0,
		"type": "channel",
		"subtype": "noteOff",
		"noteNumber": 84,
		"velocity": 0,
		"time": 2536,
		"track": 1
	},
	{
		"deltaTime": 0,
		"channel": 1,
		"type": "channel",
		"subtype": "noteOff",
		"noteNumber": 77,
		"velocity": 0,
		"time": 2536,
		"track": 2
	},
	{
		"deltaTime": 8,
		"channel": 2,
		"type": "channel",
		"subtype": "noteOff",
		"noteNumber": 79,
		"velocity": 0,
		"time": 2536,
		"track": 3
	},
	{
		"deltaTime": 16,
		"channel": 9,
		"type": "channel",
		"noteNumber": 42,
		"velocity": 127,
		"subtype": "noteOn",
		"time": 2544,
		"track": 4
	},
	{
		"deltaTime": 8,
		"channel": 9,
		"type": "channel",
		"subtype": "noteOff",
		"noteNumber": 42,
		"velocity": 0,
		"time": 2560,
		"track": 4
	},
	{
		"deltaTime": 0,
		"channel": 0,
		"type": "channel",
		"noteNumber": 84,
		"velocity": 85.33333333333333,
		"subtype": "noteOn",
		"time": 2568,
		"track": 1
	},
	{
		"deltaTime": 0,
		"channel": 1,
		"type": "channel",
		"noteNumber": 77,
		"velocity": 85.33333333333333,
		"subtype": "noteOn",
		"time": 2568,
		"track": 2
	},
	{
		"deltaTime": 8,
		"channel": 2,
		"type": "channel",
		"noteNumber": 79,
		"velocity": 85.33333333333333,
		"subtype": "noteOn",
		"time": 2568,
		"track": 3
	},
	{
		"deltaTime": 8,
		"channel": 9,
		"type": "channel",
		"noteNumber": 42,
		"velocity": 127,
		"subtype": "noteOn",
		"time": 2576,
		"track": 4
	},
	{
		"deltaTime": 0,
		"channel": 0,
		"type": "channel",
		"subtype": "noteOff",
		"noteNumber": 84,
		"velocity": 0,
		"time": 2584,
		"track": 1
	},
	{
		"deltaTime": 0,
		"channel": 1,
		"type": "channel",
		"subtype": "noteOff",
		"noteNumber": 77,
		"velocity": 0,
		"time": 2584,
		"track": 2
	},
	{
		"deltaTime": 8,
		"channel": 2,
		"type": "channel",
		"subtype": "noteOff",
		"noteNumber": 79,
		"velocity": 0,
		"time": 2584,
		"track": 3
	},
	{
		"deltaTime": 0,
		"channel": 0,
		"type": "channel",
		"noteNumber": 84,
		"velocity": 85.33333333333333,
		"subtype": "noteOn",
		"time": 2592,
		"track": 1
	},
	{
		"deltaTime": 0,
		"channel": 1,
		"type": "channel",
		"noteNumber": 77,
		"velocity": 85.33333333333333,
		"subtype": "noteOn",
		"time": 2592,
		"track": 2
	},
	{
		"deltaTime": 0,
		"channel": 2,
		"type": "channel",
		"noteNumber": 79,
		"velocity": 85.33333333333333,
		"subtype": "noteOn",
		"time": 2592,
		"track": 3
	},
	{
		"deltaTime": 0,
		"channel": 9,
		"type": "channel",
		"subtype": "noteOff",
		"noteNumber": 42,
		"velocity": 0,
		"time": 2592,
		"track": 4
	},
	{
		"deltaTime": 16,
		"channel": 9,
		"type": "channel",
		"noteNumber": 42,
		"velocity": 127,
		"subtype": "noteOn",
		"time": 2592,
		"track": 4
	},
	{
		"deltaTime": 0,
		"channel": 0,
		"type": "channel",
		"subtype": "noteOff",
		"noteNumber": 84,
		"velocity": 0,
		"time": 2608,
		"track": 1
	},
	{
		"deltaTime": 0,
		"channel": 1,
		"type": "channel",
		"subtype": "noteOff",
		"noteNumber": 77,
		"velocity": 0,
		"time": 2608,
		"track": 2
	},
	{
		"deltaTime": 16,
		"channel": 2,
		"type": "channel",
		"subtype": "noteOff",
		"noteNumber": 79,
		"velocity": 0,
		"time": 2608,
		"track": 3
	},
	{
		"deltaTime": 16,
		"channel": 9,
		"type": "channel",
		"subtype": "noteOff",
		"noteNumber": 42,
		"velocity": 0,
		"time": 2624,
		"track": 4
	},
	{
		"deltaTime": 0,
		"channel": 2,
		"type": "channel",
		"noteNumber": 55,
		"velocity": 85.33333333333333,
		"subtype": "noteOn",
		"time": 2640,
		"track": 3
	},
	{
		"deltaTime": 16,
		"channel": 9,
		"type": "channel",
		"noteNumber": 42,
		"velocity": 127,
		"subtype": "noteOn",
		"time": 2640,
		"track": 4
	},
	{
		"deltaTime": 0,
		"channel": 2,
		"type": "channel",
		"subtype": "noteOff",
		"noteNumber": 55,
		"velocity": 0,
		"time": 2656,
		"track": 3
	},
	{
		"deltaTime": 16,
		"channel": 9,
		"type": "channel",
		"subtype": "noteOff",
		"noteNumber": 42,
		"velocity": 0,
		"time": 2656,
		"track": 4
	},
	{
		"deltaTime": 16,
		"channel": 9,
		"type": "channel",
		"noteNumber": 42,
		"velocity": 127,
		"subtype": "noteOn",
		"time": 2672,
		"track": 4
	},
	{
		"deltaTime": 0,
		"channel": 2,
		"type": "channel",
		"noteNumber": 48,
		"velocity": 85.33333333333333,
		"subtype": "noteOn",
		"time": 2688,
		"track": 3
	},
	{
		"deltaTime": 0,
		"channel": 9,
		"type": "channel",
		"subtype": "noteOff",
		"noteNumber": 42,
		"velocity": 0,
		"time": 2688,
		"track": 4
	},
	{
		"deltaTime": 16,
		"channel": 9,
		"type": "channel",
		"noteNumber": 42,
		"velocity": 127,
		"subtype": "noteOn",
		"time": 2688,
		"track": 4
	},
	{
		"deltaTime": 0,
		"channel": 2,
		"type": "channel",
		"subtype": "noteOff",
		"noteNumber": 48,
		"velocity": 0,
		"time": 2704,
		"track": 3
	},
	{
		"deltaTime": 32,
		"channel": 9,
		"type": "channel",
		"subtype": "noteOff",
		"noteNumber": 42,
		"velocity": 0,
		"time": 2704,
		"track": 4
	},
	{
		"deltaTime": 0,
		"channel": 0,
		"type": "channel",
		"noteNumber": 79,
		"velocity": 85.33333333333333,
		"subtype": "noteOn",
		"time": 2736,
		"track": 1
	},
	{
		"deltaTime": 0,
		"channel": 1,
		"type": "channel",
		"noteNumber": 76,
		"velocity": 85.33333333333333,
		"subtype": "noteOn",
		"time": 2736,
		"track": 2
	},
	{
		"deltaTime": 16,
		"channel": 9,
		"type": "channel",
		"noteNumber": 42,
		"velocity": 127,
		"subtype": "noteOn",
		"time": 2736,
		"track": 4
	},
	{
		"deltaTime": 0,
		"channel": 0,
		"type": "channel",
		"subtype": "noteOff",
		"noteNumber": 79,
		"velocity": 0,
		"time": 2752,
		"track": 1
	},
	{
		"deltaTime": 0,
		"channel": 1,
		"type": "channel",
		"subtype": "noteOff",
		"noteNumber": 76,
		"velocity": 0,
		"time": 2752,
		"track": 2
	},
	{
		"deltaTime": 8,
		"channel": 9,
		"type": "channel",
		"subtype": "noteOff",
		"noteNumber": 42,
		"velocity": 0,
		"time": 2752,
		"track": 4
	},
	{
		"deltaTime": 0,
		"channel": 0,
		"type": "channel",
		"noteNumber": 78,
		"velocity": 85.33333333333333,
		"subtype": "noteOn",
		"time": 2760,
		"track": 1
	},
	{
		"deltaTime": 0,
		"channel": 1,
		"type": "channel",
		"noteNumber": 75,
		"velocity": 85.33333333333333,
		"subtype": "noteOn",
		"time": 2760,
		"track": 2
	},
	{
		"deltaTime": 8,
		"channel": 2,
		"type": "channel",
		"noteNumber": 55,
		"velocity": 85.33333333333333,
		"subtype": "noteOn",
		"time": 2760,
		"track": 3
	},
	{
		"deltaTime": 8,
		"channel": 9,
		"type": "channel",
		"noteNumber": 42,
		"velocity": 127,
		"subtype": "noteOn",
		"time": 2768,
		"track": 4
	},
	{
		"deltaTime": 0,
		"channel": 0,
		"type": "channel",
		"subtype": "noteOff",
		"noteNumber": 78,
		"velocity": 0,
		"time": 2776,
		"track": 1
	},
	{
		"deltaTime": 0,
		"channel": 1,
		"type": "channel",
		"subtype": "noteOff",
		"noteNumber": 75,
		"velocity": 0,
		"time": 2776,
		"track": 2
	},
	{
		"deltaTime": 8,
		"channel": 2,
		"type": "channel",
		"subtype": "noteOff",
		"noteNumber": 55,
		"velocity": 0,
		"time": 2776,
		"track": 3
	},
	{
		"deltaTime": 0,
		"channel": 0,
		"type": "channel",
		"noteNumber": 77,
		"velocity": 85.33333333333333,
		"subtype": "noteOn",
		"time": 2784,
		"track": 1
	},
	{
		"deltaTime": 0,
		"channel": 1,
		"type": "channel",
		"noteNumber": 74,
		"velocity": 85.33333333333333,
		"subtype": "noteOn",
		"time": 2784,
		"track": 2
	},
	{
		"deltaTime": 0,
		"channel": 9,
		"type": "channel",
		"subtype": "noteOff",
		"noteNumber": 42,
		"velocity": 0,
		"time": 2784,
		"track": 4
	},
	{
		"deltaTime": 16,
		"channel": 9,
		"type": "channel",
		"noteNumber": 42,
		"velocity": 127,
		"subtype": "noteOn",
		"time": 2784,
		"track": 4
	},
	{
		"deltaTime": 0,
		"channel": 0,
		"type": "channel",
		"subtype": "noteOff",
		"noteNumber": 77,
		"velocity": 0,
		"time": 2800,
		"track": 1
	},
	{
		"deltaTime": 8,
		"channel": 1,
		"type": "channel",
		"subtype": "noteOff",
		"noteNumber": 74,
		"velocity": 0,
		"time": 2800,
		"track": 2
	},
	{
		"deltaTime": 0,
		"channel": 0,
		"type": "channel",
		"noteNumber": 75,
		"velocity": 85.33333333333333,
		"subtype": "noteOn",
		"time": 2808,
		"track": 1
	},
	{
		"deltaTime": 8,
		"channel": 1,
		"type": "channel",
		"noteNumber": 71,
		"velocity": 85.33333333333333,
		"subtype": "noteOn",
		"time": 2808,
		"track": 2
	},
	{
		"deltaTime": 8,
		"channel": 9,
		"type": "channel",
		"subtype": "noteOff",
		"noteNumber": 42,
		"velocity": 0,
		"time": 2816,
		"track": 4
	},
	{
		"deltaTime": 0,
		"channel": 0,
		"type": "channel",
		"subtype": "noteOff",
		"noteNumber": 75,
		"velocity": 0,
		"time": 2824,
		"track": 1
	},
	{
		"deltaTime": 8,
		"channel": 1,
		"type": "channel",
		"subtype": "noteOff",
		"noteNumber": 71,
		"velocity": 0,
		"time": 2824,
		"track": 2
	},
	{
		"deltaTime": 0,
		"channel": 2,
		"type": "channel",
		"noteNumber": 60,
		"velocity": 85.33333333333333,
		"subtype": "noteOn",
		"time": 2832,
		"track": 3
	},
	{
		"deltaTime": 16,
		"channel": 9,
		"type": "channel",
		"noteNumber": 42,
		"velocity": 127,
		"subtype": "noteOn",
		"time": 2832,
		"track": 4
	},
	{
		"deltaTime": 0,
		"channel": 2,
		"type": "channel",
		"subtype": "noteOff",
		"noteNumber": 60,
		"velocity": 0,
		"time": 2848,
		"track": 3
	},
	{
		"deltaTime": 8,
		"channel": 9,
		"type": "channel",
		"subtype": "noteOff",
		"noteNumber": 42,
		"velocity": 0,
		"time": 2848,
		"track": 4
	},
	{
		"deltaTime": 0,
		"channel": 0,
		"type": "channel",
		"noteNumber": 76,
		"velocity": 85.33333333333333,
		"subtype": "noteOn",
		"time": 2856,
		"track": 1
	},
	{
		"deltaTime": 8,
		"channel": 1,
		"type": "channel",
		"noteNumber": 72,
		"velocity": 85.33333333333333,
		"subtype": "noteOn",
		"time": 2856,
		"track": 2
	},
	{
		"deltaTime": 8,
		"channel": 9,
		"type": "channel",
		"noteNumber": 42,
		"velocity": 127,
		"subtype": "noteOn",
		"time": 2864,
		"track": 4
	},
	{
		"deltaTime": 0,
		"channel": 0,
		"type": "channel",
		"subtype": "noteOff",
		"noteNumber": 76,
		"velocity": 0,
		"time": 2872,
		"track": 1
	},
	{
		"deltaTime": 8,
		"channel": 1,
		"type": "channel",
		"subtype": "noteOff",
		"noteNumber": 72,
		"velocity": 0,
		"time": 2872,
		"track": 2
	},
	{
		"deltaTime": 0,
		"channel": 2,
		"type": "channel",
		"noteNumber": 53,
		"velocity": 85.33333333333333,
		"subtype": "noteOn",
		"time": 2880,
		"track": 3
	},
	{
		"deltaTime": 0,
		"channel": 9,
		"type": "channel",
		"subtype": "noteOff",
		"noteNumber": 42,
		"velocity": 0,
		"time": 2880,
		"track": 4
	},
	{
		"deltaTime": 16,
		"channel": 9,
		"type": "channel",
		"noteNumber": 42,
		"velocity": 127,
		"subtype": "noteOn",
		"time": 2880,
		"track": 4
	},
	{
		"deltaTime": 0,
		"channel": 2,
		"type": "channel",
		"subtype": "noteOff",
		"noteNumber": 53,
		"velocity": 0,
		"time": 2896,
		"track": 3
	},
	{
		"deltaTime": 8,
		"channel": 9,
		"type": "channel",
		"subtype": "noteOff",
		"noteNumber": 42,
		"velocity": 0,
		"time": 2896,
		"track": 4
	},
	{
		"deltaTime": 0,
		"channel": 0,
		"type": "channel",
		"noteNumber": 68,
		"velocity": 85.33333333333333,
		"subtype": "noteOn",
		"time": 2904,
		"track": 1
	},
	{
		"deltaTime": 16,
		"channel": 1,
		"type": "channel",
		"noteNumber": 64,
		"velocity": 85.33333333333333,
		"subtype": "noteOn",
		"time": 2904,
		"track": 2
	},
	{
		"deltaTime": 0,
		"channel": 0,
		"type": "channel",
		"subtype": "noteOff",
		"noteNumber": 68,
		"velocity": 0,
		"time": 2920,
		"track": 1
	},
	{
		"deltaTime": 8,
		"channel": 1,
		"type": "channel",
		"subtype": "noteOff",
		"noteNumber": 64,
		"velocity": 0,
		"time": 2920,
		"track": 2
	},
	{
		"deltaTime": 0,
		"channel": 0,
		"type": "channel",
		"noteNumber": 69,
		"velocity": 85.33333333333333,
		"subtype": "noteOn",
		"time": 2928,
		"track": 1
	},
	{
		"deltaTime": 0,
		"channel": 1,
		"type": "channel",
		"noteNumber": 65,
		"velocity": 85.33333333333333,
		"subtype": "noteOn",
		"time": 2928,
		"track": 2
	},
	{
		"deltaTime": 16,
		"channel": 9,
		"type": "channel",
		"noteNumber": 42,
		"velocity": 127,
		"subtype": "noteOn",
		"time": 2928,
		"track": 4
	},
	{
		"deltaTime": 0,
		"channel": 0,
		"type": "channel",
		"subtype": "noteOff",
		"noteNumber": 69,
		"velocity": 0,
		"time": 2944,
		"track": 1
	},
	{
		"deltaTime": 0,
		"channel": 1,
		"type": "channel",
		"subtype": "noteOff",
		"noteNumber": 65,
		"velocity": 0,
		"time": 2944,
		"track": 2
	},
	{
		"deltaTime": 8,
		"channel": 9,
		"type": "channel",
		"subtype": "noteOff",
		"noteNumber": 42,
		"velocity": 0,
		"time": 2944,
		"track": 4
	},
	{
		"deltaTime": 0,
		"channel": 0,
		"type": "channel",
		"noteNumber": 72,
		"velocity": 85.33333333333333,
		"subtype": "noteOn",
		"time": 2952,
		"track": 1
	},
	{
		"deltaTime": 0,
		"channel": 1,
		"type": "channel",
		"noteNumber": 67,
		"velocity": 85.33333333333333,
		"subtype": "noteOn",
		"time": 2952,
		"track": 2
	},
	{
		"deltaTime": 8,
		"channel": 2,
		"type": "channel",
		"noteNumber": 60,
		"velocity": 85.33333333333333,
		"subtype": "noteOn",
		"time": 2952,
		"track": 3
	},
	{
		"deltaTime": 8,
		"channel": 9,
		"type": "channel",
		"noteNumber": 42,
		"velocity": 127,
		"subtype": "noteOn",
		"time": 2960,
		"track": 4
	},
	{
		"deltaTime": 0,
		"channel": 0,
		"type": "channel",
		"subtype": "noteOff",
		"noteNumber": 72,
		"velocity": 0,
		"time": 2968,
		"track": 1
	},
	{
		"deltaTime": 0,
		"channel": 1,
		"type": "channel",
		"subtype": "noteOff",
		"noteNumber": 67,
		"velocity": 0,
		"time": 2968,
		"track": 2
	},
	{
		"deltaTime": 8,
		"channel": 2,
		"type": "channel",
		"subtype": "noteOff",
		"noteNumber": 60,
		"velocity": 0,
		"time": 2968,
		"track": 3
	},
	{
		"deltaTime": 0,
		"channel": 2,
		"type": "channel",
		"noteNumber": 60,
		"velocity": 85.33333333333333,
		"subtype": "noteOn",
		"time": 2976,
		"track": 3
	},
	{
		"deltaTime": 0,
		"channel": 9,
		"type": "channel",
		"subtype": "noteOff",
		"noteNumber": 42,
		"velocity": 0,
		"time": 2976,
		"track": 4
	},
	{
		"deltaTime": 16,
		"channel": 9,
		"type": "channel",
		"noteNumber": 42,
		"velocity": 127,
		"subtype": "noteOn",
		"time": 2976,
		"track": 4
	},
	{
		"deltaTime": 8,
		"channel": 2,
		"type": "channel",
		"subtype": "noteOff",
		"noteNumber": 60,
		"velocity": 0,
		"time": 2992,
		"track": 3
	},
	{
		"deltaTime": 0,
		"channel": 0,
		"type": "channel",
		"noteNumber": 69,
		"velocity": 85.33333333333333,
		"subtype": "noteOn",
		"time": 3000,
		"track": 1
	},
	{
		"deltaTime": 8,
		"channel": 1,
		"type": "channel",
		"noteNumber": 60,
		"velocity": 85.33333333333333,
		"subtype": "noteOn",
		"time": 3000,
		"track": 2
	},
	{
		"deltaTime": 8,
		"channel": 9,
		"type": "channel",
		"subtype": "noteOff",
		"noteNumber": 42,
		"velocity": 0,
		"time": 3008,
		"track": 4
	},
	{
		"deltaTime": 0,
		"channel": 0,
		"type": "channel",
		"subtype": "noteOff",
		"noteNumber": 69,
		"velocity": 0,
		"time": 3016,
		"track": 1
	},
	{
		"deltaTime": 8,
		"channel": 1,
		"type": "channel",
		"subtype": "noteOff",
		"noteNumber": 60,
		"velocity": 0,
		"time": 3016,
		"track": 2
	},
	{
		"deltaTime": 0,
		"channel": 0,
		"type": "channel",
		"noteNumber": 72,
		"velocity": 85.33333333333333,
		"subtype": "noteOn",
		"time": 3024,
		"track": 1
	},
	{
		"deltaTime": 0,
		"channel": 1,
		"type": "channel",
		"noteNumber": 64,
		"velocity": 85.33333333333333,
		"subtype": "noteOn",
		"time": 3024,
		"track": 2
	},
	{
		"deltaTime": 0,
		"channel": 2,
		"type": "channel",
		"noteNumber": 53,
		"velocity": 85.33333333333333,
		"subtype": "noteOn",
		"time": 3024,
		"track": 3
	},
	{
		"deltaTime": 16,
		"channel": 9,
		"type": "channel",
		"noteNumber": 42,
		"velocity": 127,
		"subtype": "noteOn",
		"time": 3024,
		"track": 4
	},
	{
		"deltaTime": 0,
		"channel": 0,
		"type": "channel",
		"subtype": "noteOff",
		"noteNumber": 72,
		"velocity": 0,
		"time": 3040,
		"track": 1
	},
	{
		"deltaTime": 0,
		"channel": 1,
		"type": "channel",
		"subtype": "noteOff",
		"noteNumber": 64,
		"velocity": 0,
		"time": 3040,
		"track": 2
	},
	{
		"deltaTime": 0,
		"channel": 2,
		"type": "channel",
		"subtype": "noteOff",
		"noteNumber": 53,
		"velocity": 0,
		"time": 3040,
		"track": 3
	},
	{
		"deltaTime": 8,
		"channel": 9,
		"type": "channel",
		"subtype": "noteOff",
		"noteNumber": 42,
		"velocity": 0,
		"time": 3040,
		"track": 4
	},
	{
		"deltaTime": 0,
		"channel": 0,
		"type": "channel",
		"noteNumber": 74,
		"velocity": 85.33333333333333,
		"subtype": "noteOn",
		"time": 3048,
		"track": 1
	},
	{
		"deltaTime": 8,
		"channel": 1,
		"type": "channel",
		"noteNumber": 65,
		"velocity": 85.33333333333333,
		"subtype": "noteOn",
		"time": 3048,
		"track": 2
	},
	{
		"deltaTime": 8,
		"channel": 9,
		"type": "channel",
		"noteNumber": 42,
		"velocity": 127,
		"subtype": "noteOn",
		"time": 3056,
		"track": 4
	},
	{
		"deltaTime": 0,
		"channel": 0,
		"type": "channel",
		"subtype": "noteOff",
		"noteNumber": 74,
		"velocity": 0,
		"time": 3064,
		"track": 1
	},
	{
		"deltaTime": 8,
		"channel": 1,
		"type": "channel",
		"subtype": "noteOff",
		"noteNumber": 65,
		"velocity": 0,
		"time": 3064,
		"track": 2
	},
	{
		"deltaTime": 0,
		"channel": 2,
		"type": "channel",
		"noteNumber": 48,
		"velocity": 85.33333333333333,
		"subtype": "noteOn",
		"time": 3072,
		"track": 3
	},
	{
		"deltaTime": 0,
		"channel": 9,
		"type": "channel",
		"subtype": "noteOff",
		"noteNumber": 42,
		"velocity": 0,
		"time": 3072,
		"track": 4
	},
	{
		"deltaTime": 16,
		"channel": 9,
		"type": "channel",
		"noteNumber": 42,
		"velocity": 127,
		"subtype": "noteOn",
		"time": 3072,
		"track": 4
	},
	{
		"deltaTime": 0,
		"channel": 2,
		"type": "channel",
		"subtype": "noteOff",
		"noteNumber": 48,
		"velocity": 0,
		"time": 3088,
		"track": 3
	},
	{
		"deltaTime": 32,
		"channel": 9,
		"type": "channel",
		"subtype": "noteOff",
		"noteNumber": 42,
		"velocity": 0,
		"time": 3088,
		"track": 4
	},
	{
		"deltaTime": 0,
		"channel": 0,
		"type": "channel",
		"noteNumber": 75,
		"velocity": 85.33333333333333,
		"subtype": "noteOn",
		"time": 3120,
		"track": 1
	},
	{
		"deltaTime": 0,
		"channel": 1,
		"type": "channel",
		"noteNumber": 68,
		"velocity": 85.33333333333333,
		"subtype": "noteOn",
		"time": 3120,
		"track": 2
	},
	{
		"deltaTime": 0,
		"channel": 2,
		"type": "channel",
		"noteNumber": 56,
		"velocity": 85.33333333333333,
		"subtype": "noteOn",
		"time": 3120,
		"track": 3
	},
	{
		"deltaTime": 16,
		"channel": 9,
		"type": "channel",
		"noteNumber": 42,
		"velocity": 127,
		"subtype": "noteOn",
		"time": 3120,
		"track": 4
	},
	{
		"deltaTime": 0,
		"channel": 0,
		"type": "channel",
		"subtype": "noteOff",
		"noteNumber": 75,
		"velocity": 0,
		"time": 3136,
		"track": 1
	},
	{
		"deltaTime": 0,
		"channel": 1,
		"type": "channel",
		"subtype": "noteOff",
		"noteNumber": 68,
		"velocity": 0,
		"time": 3136,
		"track": 2
	},
	{
		"deltaTime": 0,
		"channel": 2,
		"type": "channel",
		"subtype": "noteOff",
		"noteNumber": 56,
		"velocity": 0,
		"time": 3136,
		"track": 3
	},
	{
		"deltaTime": 16,
		"channel": 9,
		"type": "channel",
		"subtype": "noteOff",
		"noteNumber": 42,
		"velocity": 0,
		"time": 3136,
		"track": 4
	},
	{
		"deltaTime": 16,
		"channel": 9,
		"type": "channel",
		"noteNumber": 42,
		"velocity": 127,
		"subtype": "noteOn",
		"time": 3152,
		"track": 4
	},
	{
		"deltaTime": 0,
		"channel": 9,
		"type": "channel",
		"subtype": "noteOff",
		"noteNumber": 42,
		"velocity": 0,
		"time": 3168,
		"track": 4
	},
	{
		"deltaTime": 24,
		"channel": 9,
		"type": "channel",
		"noteNumber": 42,
		"velocity": 127,
		"subtype": "noteOn",
		"time": 3168,
		"track": 4
	},
	{
		"deltaTime": 0,
		"channel": 0,
		"type": "channel",
		"noteNumber": 74,
		"velocity": 85.33333333333333,
		"subtype": "noteOn",
		"time": 3192,
		"track": 1
	},
	{
		"deltaTime": 0,
		"channel": 1,
		"type": "channel",
		"noteNumber": 65,
		"velocity": 85.33333333333333,
		"subtype": "noteOn",
		"time": 3192,
		"track": 2
	},
	{
		"deltaTime": 8,
		"channel": 2,
		"type": "channel",
		"noteNumber": 58,
		"velocity": 85.33333333333333,
		"subtype": "noteOn",
		"time": 3192,
		"track": 3
	},
	{
		"deltaTime": 8,
		"channel": 9,
		"type": "channel",
		"subtype": "noteOff",
		"noteNumber": 42,
		"velocity": 0,
		"time": 3200,
		"track": 4
	},
	{
		"deltaTime": 0,
		"channel": 0,
		"type": "channel",
		"subtype": "noteOff",
		"noteNumber": 74,
		"velocity": 0,
		"time": 3208,
		"track": 1
	},
	{
		"deltaTime": 0,
		"channel": 1,
		"type": "channel",
		"subtype": "noteOff",
		"noteNumber": 65,
		"velocity": 0,
		"time": 3208,
		"track": 2
	},
	{
		"deltaTime": 8,
		"channel": 2,
		"type": "channel",
		"subtype": "noteOff",
		"noteNumber": 58,
		"velocity": 0,
		"time": 3208,
		"track": 3
	},
	{
		"deltaTime": 16,
		"channel": 9,
		"type": "channel",
		"noteNumber": 42,
		"velocity": 127,
		"subtype": "noteOn",
		"time": 3216,
		"track": 4
	},
	{
		"deltaTime": 16,
		"channel": 9,
		"type": "channel",
		"subtype": "noteOff",
		"noteNumber": 42,
		"velocity": 0,
		"time": 3232,
		"track": 4
	},
	{
		"deltaTime": 16,
		"channel": 9,
		"type": "channel",
		"noteNumber": 42,
		"velocity": 127,
		"subtype": "noteOn",
		"time": 3248,
		"track": 4
	},
	{
		"deltaTime": 0,
		"channel": 0,
		"type": "channel",
		"noteNumber": 72,
		"velocity": 85.33333333333333,
		"subtype": "noteOn",
		"time": 3264,
		"track": 1
	},
	{
		"deltaTime": 0,
		"channel": 1,
		"type": "channel",
		"noteNumber": 64,
		"velocity": 85.33333333333333,
		"subtype": "noteOn",
		"time": 3264,
		"track": 2
	},
	{
		"deltaTime": 0,
		"channel": 2,
		"type": "channel",
		"noteNumber": 60,
		"velocity": 85.33333333333333,
		"subtype": "noteOn",
		"time": 3264,
		"track": 3
	},
	{
		"deltaTime": 0,
		"channel": 9,
		"type": "channel",
		"subtype": "noteOff",
		"noteNumber": 42,
		"velocity": 0,
		"time": 3264,
		"track": 4
	},
	{
		"deltaTime": 16,
		"channel": 9,
		"type": "channel",
		"noteNumber": 42,
		"velocity": 127,
		"subtype": "noteOn",
		"time": 3264,
		"track": 4
	},
	{
		"deltaTime": 0,
		"channel": 0,
		"type": "channel",
		"subtype": "noteOff",
		"noteNumber": 72,
		"velocity": 0,
		"time": 3280,
		"track": 1
	},
	{
		"deltaTime": 0,
		"channel": 1,
		"type": "channel",
		"subtype": "noteOff",
		"noteNumber": 64,
		"velocity": 0,
		"time": 3280,
		"track": 2
	},
	{
		"deltaTime": 0,
		"channel": 2,
		"type": "channel",
		"subtype": "noteOff",
		"noteNumber": 60,
		"velocity": 0,
		"time": 3280,
		"track": 3
	},
	{
		"deltaTime": 32,
		"channel": 9,
		"type": "channel",
		"subtype": "noteOff",
		"noteNumber": 42,
		"velocity": 0,
		"time": 3280,
		"track": 4
	},
	{
		"deltaTime": 16,
		"channel": 9,
		"type": "channel",
		"noteNumber": 42,
		"velocity": 127,
		"subtype": "noteOn",
		"time": 3312,
		"track": 4
	},
	{
		"deltaTime": 8,
		"channel": 9,
		"type": "channel",
		"subtype": "noteOff",
		"noteNumber": 42,
		"velocity": 0,
		"time": 3328,
		"track": 4
	},
	{
		"deltaTime": 8,
		"channel": 2,
		"type": "channel",
		"noteNumber": 55,
		"velocity": 85.33333333333333,
		"subtype": "noteOn",
		"time": 3336,
		"track": 3
	},
	{
		"deltaTime": 8,
		"channel": 9,
		"type": "channel",
		"noteNumber": 42,
		"velocity": 127,
		"subtype": "noteOn",
		"time": 3344,
		"track": 4
	},
	{
		"deltaTime": 8,
		"channel": 2,
		"type": "channel",
		"subtype": "noteOff",
		"noteNumber": 55,
		"velocity": 0,
		"time": 3352,
		"track": 3
	},
	{
		"deltaTime": 0,
		"channel": 2,
		"type": "channel",
		"noteNumber": 55,
		"velocity": 85.33333333333333,
		"subtype": "noteOn",
		"time": 3360,
		"track": 3
	},
	{
		"deltaTime": 0,
		"channel": 9,
		"type": "channel",
		"subtype": "noteOff",
		"noteNumber": 42,
		"velocity": 0,
		"time": 3360,
		"track": 4
	},
	{
		"deltaTime": 16,
		"channel": 9,
		"type": "channel",
		"noteNumber": 42,
		"velocity": 127,
		"subtype": "noteOn",
		"time": 3360,
		"track": 4
	},
	{
		"deltaTime": 16,
		"channel": 2,
		"type": "channel",
		"subtype": "noteOff",
		"noteNumber": 55,
		"velocity": 0,
		"time": 3376,
		"track": 3
	},
	{
		"deltaTime": 16,
		"channel": 9,
		"type": "channel",
		"subtype": "noteOff",
		"noteNumber": 42,
		"velocity": 0,
		"time": 3392,
		"track": 4
	},
	{
		"deltaTime": 0,
		"channel": 2,
		"type": "channel",
		"noteNumber": 48,
		"velocity": 85.33333333333333,
		"subtype": "noteOn",
		"time": 3408,
		"track": 3
	},
	{
		"deltaTime": 16,
		"channel": 9,
		"type": "channel",
		"noteNumber": 42,
		"velocity": 127,
		"subtype": "noteOn",
		"time": 3408,
		"track": 4
	},
	{
		"deltaTime": 0,
		"channel": 2,
		"type": "channel",
		"subtype": "noteOff",
		"noteNumber": 48,
		"velocity": 0,
		"time": 3424,
		"track": 3
	},
	{
		"deltaTime": 16,
		"channel": 9,
		"type": "channel",
		"subtype": "noteOff",
		"noteNumber": 42,
		"velocity": 0,
		"time": 3424,
		"track": 4
	},
	{
		"deltaTime": 16,
		"channel": 9,
		"type": "channel",
		"noteNumber": 42,
		"velocity": 127,
		"subtype": "noteOn",
		"time": 3440,
		"track": 4
	},
	{
		"deltaTime": 0,
		"channel": 2,
		"type": "channel",
		"noteNumber": 48,
		"velocity": 85.33333333333333,
		"subtype": "noteOn",
		"time": 3456,
		"track": 3
	},
	{
		"deltaTime": 0,
		"channel": 9,
		"type": "channel",
		"subtype": "noteOff",
		"noteNumber": 42,
		"velocity": 0,
		"time": 3456,
		"track": 4
	},
	{
		"deltaTime": 16,
		"channel": 9,
		"type": "channel",
		"noteNumber": 42,
		"velocity": 127,
		"subtype": "noteOn",
		"time": 3456,
		"track": 4
	},
	{
		"deltaTime": 0,
		"channel": 2,
		"type": "channel",
		"subtype": "noteOff",
		"noteNumber": 48,
		"velocity": 0,
		"time": 3472,
		"track": 3
	},
	{
		"deltaTime": 32,
		"channel": 9,
		"type": "channel",
		"subtype": "noteOff",
		"noteNumber": 42,
		"velocity": 0,
		"time": 3472,
		"track": 4
	},
	{
		"deltaTime": 0,
		"channel": 0,
		"type": "channel",
		"noteNumber": 79,
		"velocity": 85.33333333333333,
		"subtype": "noteOn",
		"time": 3504,
		"track": 1
	},
	{
		"deltaTime": 0,
		"channel": 1,
		"type": "channel",
		"noteNumber": 76,
		"velocity": 85.33333333333333,
		"subtype": "noteOn",
		"time": 3504,
		"track": 2
	},
	{
		"deltaTime": 16,
		"channel": 9,
		"type": "channel",
		"noteNumber": 42,
		"velocity": 127,
		"subtype": "noteOn",
		"time": 3504,
		"track": 4
	},
	{
		"deltaTime": 0,
		"channel": 0,
		"type": "channel",
		"subtype": "noteOff",
		"noteNumber": 79,
		"velocity": 0,
		"time": 3520,
		"track": 1
	},
	{
		"deltaTime": 0,
		"channel": 1,
		"type": "channel",
		"subtype": "noteOff",
		"noteNumber": 76,
		"velocity": 0,
		"time": 3520,
		"track": 2
	},
	{
		"deltaTime": 8,
		"channel": 9,
		"type": "channel",
		"subtype": "noteOff",
		"noteNumber": 42,
		"velocity": 0,
		"time": 3520,
		"track": 4
	},
	{
		"deltaTime": 0,
		"channel": 0,
		"type": "channel",
		"noteNumber": 78,
		"velocity": 85.33333333333333,
		"subtype": "noteOn",
		"time": 3528,
		"track": 1
	},
	{
		"deltaTime": 0,
		"channel": 1,
		"type": "channel",
		"noteNumber": 75,
		"velocity": 85.33333333333333,
		"subtype": "noteOn",
		"time": 3528,
		"track": 2
	},
	{
		"deltaTime": 8,
		"channel": 2,
		"type": "channel",
		"noteNumber": 55,
		"velocity": 85.33333333333333,
		"subtype": "noteOn",
		"time": 3528,
		"track": 3
	},
	{
		"deltaTime": 8,
		"channel": 9,
		"type": "channel",
		"noteNumber": 42,
		"velocity": 127,
		"subtype": "noteOn",
		"time": 3536,
		"track": 4
	},
	{
		"deltaTime": 0,
		"channel": 0,
		"type": "channel",
		"subtype": "noteOff",
		"noteNumber": 78,
		"velocity": 0,
		"time": 3544,
		"track": 1
	},
	{
		"deltaTime": 0,
		"channel": 1,
		"type": "channel",
		"subtype": "noteOff",
		"noteNumber": 75,
		"velocity": 0,
		"time": 3544,
		"track": 2
	},
	{
		"deltaTime": 8,
		"channel": 2,
		"type": "channel",
		"subtype": "noteOff",
		"noteNumber": 55,
		"velocity": 0,
		"time": 3544,
		"track": 3
	},
	{
		"deltaTime": 0,
		"channel": 0,
		"type": "channel",
		"noteNumber": 77,
		"velocity": 85.33333333333333,
		"subtype": "noteOn",
		"time": 3552,
		"track": 1
	},
	{
		"deltaTime": 0,
		"channel": 1,
		"type": "channel",
		"noteNumber": 74,
		"velocity": 85.33333333333333,
		"subtype": "noteOn",
		"time": 3552,
		"track": 2
	},
	{
		"deltaTime": 0,
		"channel": 9,
		"type": "channel",
		"subtype": "noteOff",
		"noteNumber": 42,
		"velocity": 0,
		"time": 3552,
		"track": 4
	},
	{
		"deltaTime": 16,
		"channel": 9,
		"type": "channel",
		"noteNumber": 42,
		"velocity": 127,
		"subtype": "noteOn",
		"time": 3552,
		"track": 4
	},
	{
		"deltaTime": 0,
		"channel": 0,
		"type": "channel",
		"subtype": "noteOff",
		"noteNumber": 77,
		"velocity": 0,
		"time": 3568,
		"track": 1
	},
	{
		"deltaTime": 8,
		"channel": 1,
		"type": "channel",
		"subtype": "noteOff",
		"noteNumber": 74,
		"velocity": 0,
		"time": 3568,
		"track": 2
	},
	{
		"deltaTime": 0,
		"channel": 0,
		"type": "channel",
		"noteNumber": 75,
		"velocity": 85.33333333333333,
		"subtype": "noteOn",
		"time": 3576,
		"track": 1
	},
	{
		"deltaTime": 8,
		"channel": 1,
		"type": "channel",
		"noteNumber": 71,
		"velocity": 85.33333333333333,
		"subtype": "noteOn",
		"time": 3576,
		"track": 2
	},
	{
		"deltaTime": 8,
		"channel": 9,
		"type": "channel",
		"subtype": "noteOff",
		"noteNumber": 42,
		"velocity": 0,
		"time": 3584,
		"track": 4
	},
	{
		"deltaTime": 0,
		"channel": 0,
		"type": "channel",
		"subtype": "noteOff",
		"noteNumber": 75,
		"velocity": 0,
		"time": 3592,
		"track": 1
	},
	{
		"deltaTime": 8,
		"channel": 1,
		"type": "channel",
		"subtype": "noteOff",
		"noteNumber": 71,
		"velocity": 0,
		"time": 3592,
		"track": 2
	},
	{
		"deltaTime": 0,
		"channel": 2,
		"type": "channel",
		"noteNumber": 60,
		"velocity": 85.33333333333333,
		"subtype": "noteOn",
		"time": 3600,
		"track": 3
	},
	{
		"deltaTime": 16,
		"channel": 9,
		"type": "channel",
		"noteNumber": 42,
		"velocity": 127,
		"subtype": "noteOn",
		"time": 3600,
		"track": 4
	},
	{
		"deltaTime": 0,
		"channel": 2,
		"type": "channel",
		"subtype": "noteOff",
		"noteNumber": 60,
		"velocity": 0,
		"time": 3616,
		"track": 3
	},
	{
		"deltaTime": 8,
		"channel": 9,
		"type": "channel",
		"subtype": "noteOff",
		"noteNumber": 42,
		"velocity": 0,
		"time": 3616,
		"track": 4
	},
	{
		"deltaTime": 0,
		"channel": 0,
		"type": "channel",
		"noteNumber": 76,
		"velocity": 85.33333333333333,
		"subtype": "noteOn",
		"time": 3624,
		"track": 1
	},
	{
		"deltaTime": 8,
		"channel": 1,
		"type": "channel",
		"noteNumber": 72,
		"velocity": 85.33333333333333,
		"subtype": "noteOn",
		"time": 3624,
		"track": 2
	},
	{
		"deltaTime": 8,
		"channel": 9,
		"type": "channel",
		"noteNumber": 42,
		"velocity": 127,
		"subtype": "noteOn",
		"time": 3632,
		"track": 4
	},
	{
		"deltaTime": 0,
		"channel": 0,
		"type": "channel",
		"subtype": "noteOff",
		"noteNumber": 76,
		"velocity": 0,
		"time": 3640,
		"track": 1
	},
	{
		"deltaTime": 8,
		"channel": 1,
		"type": "channel",
		"subtype": "noteOff",
		"noteNumber": 72,
		"velocity": 0,
		"time": 3640,
		"track": 2
	},
	{
		"deltaTime": 0,
		"channel": 2,
		"type": "channel",
		"noteNumber": 53,
		"velocity": 85.33333333333333,
		"subtype": "noteOn",
		"time": 3648,
		"track": 3
	},
	{
		"deltaTime": 0,
		"channel": 9,
		"type": "channel",
		"subtype": "noteOff",
		"noteNumber": 42,
		"velocity": 0,
		"time": 3648,
		"track": 4
	},
	{
		"deltaTime": 16,
		"channel": 9,
		"type": "channel",
		"noteNumber": 42,
		"velocity": 127,
		"subtype": "noteOn",
		"time": 3648,
		"track": 4
	},
	{
		"deltaTime": 0,
		"channel": 2,
		"type": "channel",
		"subtype": "noteOff",
		"noteNumber": 53,
		"velocity": 0,
		"time": 3664,
		"track": 3
	},
	{
		"deltaTime": 8,
		"channel": 9,
		"type": "channel",
		"subtype": "noteOff",
		"noteNumber": 42,
		"velocity": 0,
		"time": 3664,
		"track": 4
	},
	{
		"deltaTime": 0,
		"channel": 0,
		"type": "channel",
		"noteNumber": 68,
		"velocity": 85.33333333333333,
		"subtype": "noteOn",
		"time": 3672,
		"track": 1
	},
	{
		"deltaTime": 16,
		"channel": 1,
		"type": "channel",
		"noteNumber": 64,
		"velocity": 85.33333333333333,
		"subtype": "noteOn",
		"time": 3672,
		"track": 2
	},
	{
		"deltaTime": 0,
		"channel": 0,
		"type": "channel",
		"subtype": "noteOff",
		"noteNumber": 68,
		"velocity": 0,
		"time": 3688,
		"track": 1
	},
	{
		"deltaTime": 8,
		"channel": 1,
		"type": "channel",
		"subtype": "noteOff",
		"noteNumber": 64,
		"velocity": 0,
		"time": 3688,
		"track": 2
	},
	{
		"deltaTime": 0,
		"channel": 0,
		"type": "channel",
		"noteNumber": 69,
		"velocity": 85.33333333333333,
		"subtype": "noteOn",
		"time": 3696,
		"track": 1
	},
	{
		"deltaTime": 0,
		"channel": 1,
		"type": "channel",
		"noteNumber": 65,
		"velocity": 85.33333333333333,
		"subtype": "noteOn",
		"time": 3696,
		"track": 2
	},
	{
		"deltaTime": 16,
		"channel": 9,
		"type": "channel",
		"noteNumber": 42,
		"velocity": 127,
		"subtype": "noteOn",
		"time": 3696,
		"track": 4
	},
	{
		"deltaTime": 0,
		"channel": 0,
		"type": "channel",
		"subtype": "noteOff",
		"noteNumber": 69,
		"velocity": 0,
		"time": 3712,
		"track": 1
	},
	{
		"deltaTime": 0,
		"channel": 1,
		"type": "channel",
		"subtype": "noteOff",
		"noteNumber": 65,
		"velocity": 0,
		"time": 3712,
		"track": 2
	},
	{
		"deltaTime": 8,
		"channel": 9,
		"type": "channel",
		"subtype": "noteOff",
		"noteNumber": 42,
		"velocity": 0,
		"time": 3712,
		"track": 4
	},
	{
		"deltaTime": 0,
		"channel": 0,
		"type": "channel",
		"noteNumber": 72,
		"velocity": 85.33333333333333,
		"subtype": "noteOn",
		"time": 3720,
		"track": 1
	},
	{
		"deltaTime": 0,
		"channel": 1,
		"type": "channel",
		"noteNumber": 67,
		"velocity": 85.33333333333333,
		"subtype": "noteOn",
		"time": 3720,
		"track": 2
	},
	{
		"deltaTime": 8,
		"channel": 2,
		"type": "channel",
		"noteNumber": 60,
		"velocity": 85.33333333333333,
		"subtype": "noteOn",
		"time": 3720,
		"track": 3
	},
	{
		"deltaTime": 8,
		"channel": 9,
		"type": "channel",
		"noteNumber": 42,
		"velocity": 127,
		"subtype": "noteOn",
		"time": 3728,
		"track": 4
	},
	{
		"deltaTime": 0,
		"channel": 0,
		"type": "channel",
		"subtype": "noteOff",
		"noteNumber": 72,
		"velocity": 0,
		"time": 3736,
		"track": 1
	},
	{
		"deltaTime": 0,
		"channel": 1,
		"type": "channel",
		"subtype": "noteOff",
		"noteNumber": 67,
		"velocity": 0,
		"time": 3736,
		"track": 2
	},
	{
		"deltaTime": 8,
		"channel": 2,
		"type": "channel",
		"subtype": "noteOff",
		"noteNumber": 60,
		"velocity": 0,
		"time": 3736,
		"track": 3
	},
	{
		"deltaTime": 0,
		"channel": 2,
		"type": "channel",
		"noteNumber": 60,
		"velocity": 85.33333333333333,
		"subtype": "noteOn",
		"time": 3744,
		"track": 3
	},
	{
		"deltaTime": 0,
		"channel": 9,
		"type": "channel",
		"subtype": "noteOff",
		"noteNumber": 42,
		"velocity": 0,
		"time": 3744,
		"track": 4
	},
	{
		"deltaTime": 16,
		"channel": 9,
		"type": "channel",
		"noteNumber": 42,
		"velocity": 127,
		"subtype": "noteOn",
		"time": 3744,
		"track": 4
	},
	{
		"deltaTime": 8,
		"channel": 2,
		"type": "channel",
		"subtype": "noteOff",
		"noteNumber": 60,
		"velocity": 0,
		"time": 3760,
		"track": 3
	},
	{
		"deltaTime": 0,
		"channel": 0,
		"type": "channel",
		"noteNumber": 69,
		"velocity": 85.33333333333333,
		"subtype": "noteOn",
		"time": 3768,
		"track": 1
	},
	{
		"deltaTime": 8,
		"channel": 1,
		"type": "channel",
		"noteNumber": 60,
		"velocity": 85.33333333333333,
		"subtype": "noteOn",
		"time": 3768,
		"track": 2
	},
	{
		"deltaTime": 8,
		"channel": 9,
		"type": "channel",
		"subtype": "noteOff",
		"noteNumber": 42,
		"velocity": 0,
		"time": 3776,
		"track": 4
	},
	{
		"deltaTime": 0,
		"channel": 0,
		"type": "channel",
		"subtype": "noteOff",
		"noteNumber": 69,
		"velocity": 0,
		"time": 3784,
		"track": 1
	},
	{
		"deltaTime": 8,
		"channel": 1,
		"type": "channel",
		"subtype": "noteOff",
		"noteNumber": 60,
		"velocity": 0,
		"time": 3784,
		"track": 2
	},
	{
		"deltaTime": 0,
		"channel": 0,
		"type": "channel",
		"noteNumber": 72,
		"velocity": 85.33333333333333,
		"subtype": "noteOn",
		"time": 3792,
		"track": 1
	},
	{
		"deltaTime": 0,
		"channel": 1,
		"type": "channel",
		"noteNumber": 64,
		"velocity": 85.33333333333333,
		"subtype": "noteOn",
		"time": 3792,
		"track": 2
	},
	{
		"deltaTime": 0,
		"channel": 2,
		"type": "channel",
		"noteNumber": 53,
		"velocity": 85.33333333333333,
		"subtype": "noteOn",
		"time": 3792,
		"track": 3
	},
	{
		"deltaTime": 16,
		"channel": 9,
		"type": "channel",
		"noteNumber": 42,
		"velocity": 127,
		"subtype": "noteOn",
		"time": 3792,
		"track": 4
	},
	{
		"deltaTime": 0,
		"channel": 0,
		"type": "channel",
		"subtype": "noteOff",
		"noteNumber": 72,
		"velocity": 0,
		"time": 3808,
		"track": 1
	},
	{
		"deltaTime": 0,
		"channel": 1,
		"type": "channel",
		"subtype": "noteOff",
		"noteNumber": 64,
		"velocity": 0,
		"time": 3808,
		"track": 2
	},
	{
		"deltaTime": 0,
		"channel": 2,
		"type": "channel",
		"subtype": "noteOff",
		"noteNumber": 53,
		"velocity": 0,
		"time": 3808,
		"track": 3
	},
	{
		"deltaTime": 8,
		"channel": 9,
		"type": "channel",
		"subtype": "noteOff",
		"noteNumber": 42,
		"velocity": 0,
		"time": 3808,
		"track": 4
	},
	{
		"deltaTime": 0,
		"channel": 0,
		"type": "channel",
		"noteNumber": 74,
		"velocity": 85.33333333333333,
		"subtype": "noteOn",
		"time": 3816,
		"track": 1
	},
	{
		"deltaTime": 8,
		"channel": 1,
		"type": "channel",
		"noteNumber": 65,
		"velocity": 85.33333333333333,
		"subtype": "noteOn",
		"time": 3816,
		"track": 2
	},
	{
		"deltaTime": 8,
		"channel": 9,
		"type": "channel",
		"noteNumber": 42,
		"velocity": 127,
		"subtype": "noteOn",
		"time": 3824,
		"track": 4
	},
	{
		"deltaTime": 0,
		"channel": 0,
		"type": "channel",
		"subtype": "noteOff",
		"noteNumber": 74,
		"velocity": 0,
		"time": 3832,
		"track": 1
	},
	{
		"deltaTime": 8,
		"channel": 1,
		"type": "channel",
		"subtype": "noteOff",
		"noteNumber": 65,
		"velocity": 0,
		"time": 3832,
		"track": 2
	},
	{
		"deltaTime": 0,
		"channel": 2,
		"type": "channel",
		"noteNumber": 48,
		"velocity": 85.33333333333333,
		"subtype": "noteOn",
		"time": 3840,
		"track": 3
	},
	{
		"deltaTime": 0,
		"channel": 9,
		"type": "channel",
		"subtype": "noteOff",
		"noteNumber": 42,
		"velocity": 0,
		"time": 3840,
		"track": 4
	},
	{
		"deltaTime": 16,
		"channel": 9,
		"type": "channel",
		"noteNumber": 42,
		"velocity": 127,
		"subtype": "noteOn",
		"time": 3840,
		"track": 4
	},
	{
		"deltaTime": 0,
		"channel": 2,
		"type": "channel",
		"subtype": "noteOff",
		"noteNumber": 48,
		"velocity": 0,
		"time": 3856,
		"track": 3
	},
	{
		"deltaTime": 32,
		"channel": 9,
		"type": "channel",
		"subtype": "noteOff",
		"noteNumber": 42,
		"velocity": 0,
		"time": 3856,
		"track": 4
	},
	{
		"deltaTime": 0,
		"channel": 0,
		"type": "channel",
		"noteNumber": 79,
		"velocity": 85.33333333333333,
		"subtype": "noteOn",
		"time": 3888,
		"track": 1
	},
	{
		"deltaTime": 0,
		"channel": 1,
		"type": "channel",
		"noteNumber": 76,
		"velocity": 85.33333333333333,
		"subtype": "noteOn",
		"time": 3888,
		"track": 2
	},
	{
		"deltaTime": 16,
		"channel": 9,
		"type": "channel",
		"noteNumber": 42,
		"velocity": 127,
		"subtype": "noteOn",
		"time": 3888,
		"track": 4
	},
	{
		"deltaTime": 0,
		"channel": 0,
		"type": "channel",
		"subtype": "noteOff",
		"noteNumber": 79,
		"velocity": 0,
		"time": 3904,
		"track": 1
	},
	{
		"deltaTime": 0,
		"channel": 1,
		"type": "channel",
		"subtype": "noteOff",
		"noteNumber": 76,
		"velocity": 0,
		"time": 3904,
		"track": 2
	},
	{
		"deltaTime": 8,
		"channel": 9,
		"type": "channel",
		"subtype": "noteOff",
		"noteNumber": 42,
		"velocity": 0,
		"time": 3904,
		"track": 4
	},
	{
		"deltaTime": 0,
		"channel": 0,
		"type": "channel",
		"noteNumber": 78,
		"velocity": 85.33333333333333,
		"subtype": "noteOn",
		"time": 3912,
		"track": 1
	},
	{
		"deltaTime": 0,
		"channel": 1,
		"type": "channel",
		"noteNumber": 75,
		"velocity": 85.33333333333333,
		"subtype": "noteOn",
		"time": 3912,
		"track": 2
	},
	{
		"deltaTime": 8,
		"channel": 2,
		"type": "channel",
		"noteNumber": 52,
		"velocity": 85.33333333333333,
		"subtype": "noteOn",
		"time": 3912,
		"track": 3
	},
	{
		"deltaTime": 8,
		"channel": 9,
		"type": "channel",
		"noteNumber": 42,
		"velocity": 127,
		"subtype": "noteOn",
		"time": 3920,
		"track": 4
	},
	{
		"deltaTime": 0,
		"channel": 0,
		"type": "channel",
		"subtype": "noteOff",
		"noteNumber": 78,
		"velocity": 0,
		"time": 3928,
		"track": 1
	},
	{
		"deltaTime": 0,
		"channel": 1,
		"type": "channel",
		"subtype": "noteOff",
		"noteNumber": 75,
		"velocity": 0,
		"time": 3928,
		"track": 2
	},
	{
		"deltaTime": 8,
		"channel": 2,
		"type": "channel",
		"subtype": "noteOff",
		"noteNumber": 52,
		"velocity": 0,
		"time": 3928,
		"track": 3
	},
	{
		"deltaTime": 0,
		"channel": 0,
		"type": "channel",
		"noteNumber": 77,
		"velocity": 85.33333333333333,
		"subtype": "noteOn",
		"time": 3936,
		"track": 1
	},
	{
		"deltaTime": 0,
		"channel": 1,
		"type": "channel",
		"noteNumber": 74,
		"velocity": 85.33333333333333,
		"subtype": "noteOn",
		"time": 3936,
		"track": 2
	},
	{
		"deltaTime": 0,
		"channel": 9,
		"type": "channel",
		"subtype": "noteOff",
		"noteNumber": 42,
		"velocity": 0,
		"time": 3936,
		"track": 4
	},
	{
		"deltaTime": 16,
		"channel": 9,
		"type": "channel",
		"noteNumber": 42,
		"velocity": 127,
		"subtype": "noteOn",
		"time": 3936,
		"track": 4
	},
	{
		"deltaTime": 0,
		"channel": 0,
		"type": "channel",
		"subtype": "noteOff",
		"noteNumber": 77,
		"velocity": 0,
		"time": 3952,
		"track": 1
	},
	{
		"deltaTime": 8,
		"channel": 1,
		"type": "channel",
		"subtype": "noteOff",
		"noteNumber": 74,
		"velocity": 0,
		"time": 3952,
		"track": 2
	},
	{
		"deltaTime": 0,
		"channel": 0,
		"type": "channel",
		"noteNumber": 75,
		"velocity": 85.33333333333333,
		"subtype": "noteOn",
		"time": 3960,
		"track": 1
	},
	{
		"deltaTime": 8,
		"channel": 1,
		"type": "channel",
		"noteNumber": 71,
		"velocity": 85.33333333333333,
		"subtype": "noteOn",
		"time": 3960,
		"track": 2
	},
	{
		"deltaTime": 8,
		"channel": 9,
		"type": "channel",
		"subtype": "noteOff",
		"noteNumber": 42,
		"velocity": 0,
		"time": 3968,
		"track": 4
	},
	{
		"deltaTime": 0,
		"channel": 0,
		"type": "channel",
		"subtype": "noteOff",
		"noteNumber": 75,
		"velocity": 0,
		"time": 3976,
		"track": 1
	},
	{
		"deltaTime": 8,
		"channel": 1,
		"type": "channel",
		"subtype": "noteOff",
		"noteNumber": 71,
		"velocity": 0,
		"time": 3976,
		"track": 2
	},
	{
		"deltaTime": 0,
		"channel": 2,
		"type": "channel",
		"noteNumber": 55,
		"velocity": 85.33333333333333,
		"subtype": "noteOn",
		"time": 3984,
		"track": 3
	},
	{
		"deltaTime": 16,
		"channel": 9,
		"type": "channel",
		"noteNumber": 42,
		"velocity": 127,
		"subtype": "noteOn",
		"time": 3984,
		"track": 4
	},
	{
		"deltaTime": 0,
		"channel": 2,
		"type": "channel",
		"subtype": "noteOff",
		"noteNumber": 55,
		"velocity": 0,
		"time": 4000,
		"track": 3
	},
	{
		"deltaTime": 8,
		"channel": 9,
		"type": "channel",
		"subtype": "noteOff",
		"noteNumber": 42,
		"velocity": 0,
		"time": 4000,
		"track": 4
	},
	{
		"deltaTime": 0,
		"channel": 0,
		"type": "channel",
		"noteNumber": 76,
		"velocity": 85.33333333333333,
		"subtype": "noteOn",
		"time": 4008,
		"track": 1
	},
	{
		"deltaTime": 0,
		"channel": 1,
		"type": "channel",
		"noteNumber": 72,
		"velocity": 85.33333333333333,
		"subtype": "noteOn",
		"time": 4008,
		"track": 2
	},
	{
		"deltaTime": 8,
		"channel": 2,
		"type": "channel",
		"noteNumber": 60,
		"velocity": 85.33333333333333,
		"subtype": "noteOn",
		"time": 4008,
		"track": 3
	},
	{
		"deltaTime": 8,
		"channel": 9,
		"type": "channel",
		"noteNumber": 42,
		"velocity": 127,
		"subtype": "noteOn",
		"time": 4016,
		"track": 4
	},
	{
		"deltaTime": 0,
		"channel": 0,
		"type": "channel",
		"subtype": "noteOff",
		"noteNumber": 76,
		"velocity": 0,
		"time": 4024,
		"track": 1
	},
	{
		"deltaTime": 0,
		"channel": 1,
		"type": "channel",
		"subtype": "noteOff",
		"noteNumber": 72,
		"velocity": 0,
		"time": 4024,
		"track": 2
	},
	{
		"deltaTime": 8,
		"channel": 2,
		"type": "channel",
		"subtype": "noteOff",
		"noteNumber": 60,
		"velocity": 0,
		"time": 4024,
		"track": 3
	},
	{
		"deltaTime": 0,
		"channel": 9,
		"type": "channel",
		"subtype": "noteOff",
		"noteNumber": 42,
		"velocity": 0,
		"time": 4032,
		"track": 4
	},
	{
		"deltaTime": 16,
		"channel": 9,
		"type": "channel",
		"noteNumber": 42,
		"velocity": 127,
		"subtype": "noteOn",
		"time": 4032,
		"track": 4
	},
	{
		"deltaTime": 8,
		"channel": 9,
		"type": "channel",
		"subtype": "noteOff",
		"noteNumber": 42,
		"velocity": 0,
		"time": 4048,
		"track": 4
	},
	{
		"deltaTime": 0,
		"channel": 0,
		"type": "channel",
		"noteNumber": 84,
		"velocity": 85.33333333333333,
		"subtype": "noteOn",
		"time": 4056,
		"track": 1
	},
	{
		"deltaTime": 0,
		"channel": 1,
		"type": "channel",
		"noteNumber": 77,
		"velocity": 85.33333333333333,
		"subtype": "noteOn",
		"time": 4056,
		"track": 2
	},
	{
		"deltaTime": 16,
		"channel": 2,
		"type": "channel",
		"noteNumber": 79,
		"velocity": 85.33333333333333,
		"subtype": "noteOn",
		"time": 4056,
		"track": 3
	},
	{
		"deltaTime": 0,
		"channel": 0,
		"type": "channel",
		"subtype": "noteOff",
		"noteNumber": 84,
		"velocity": 0,
		"time": 4072,
		"track": 1
	},
	{
		"deltaTime": 0,
		"channel": 1,
		"type": "channel",
		"subtype": "noteOff",
		"noteNumber": 77,
		"velocity": 0,
		"time": 4072,
		"track": 2
	},
	{
		"deltaTime": 8,
		"channel": 2,
		"type": "channel",
		"subtype": "noteOff",
		"noteNumber": 79,
		"velocity": 0,
		"time": 4072,
		"track": 3
	},
	{
		"deltaTime": 16,
		"channel": 9,
		"type": "channel",
		"noteNumber": 42,
		"velocity": 127,
		"subtype": "noteOn",
		"time": 4080,
		"track": 4
	},
	{
		"deltaTime": 8,
		"channel": 9,
		"type": "channel",
		"subtype": "noteOff",
		"noteNumber": 42,
		"velocity": 0,
		"time": 4096,
		"track": 4
	},
	{
		"deltaTime": 0,
		"channel": 0,
		"type": "channel",
		"noteNumber": 84,
		"velocity": 85.33333333333333,
		"subtype": "noteOn",
		"time": 4104,
		"track": 1
	},
	{
		"deltaTime": 0,
		"channel": 1,
		"type": "channel",
		"noteNumber": 77,
		"velocity": 85.33333333333333,
		"subtype": "noteOn",
		"time": 4104,
		"track": 2
	},
	{
		"deltaTime": 8,
		"channel": 2,
		"type": "channel",
		"noteNumber": 79,
		"velocity": 85.33333333333333,
		"subtype": "noteOn",
		"time": 4104,
		"track": 3
	},
	{
		"deltaTime": 8,
		"channel": 9,
		"type": "channel",
		"noteNumber": 42,
		"velocity": 127,
		"subtype": "noteOn",
		"time": 4112,
		"track": 4
	},
	{
		"deltaTime": 0,
		"channel": 0,
		"type": "channel",
		"subtype": "noteOff",
		"noteNumber": 84,
		"velocity": 0,
		"time": 4120,
		"track": 1
	},
	{
		"deltaTime": 0,
		"channel": 1,
		"type": "channel",
		"subtype": "noteOff",
		"noteNumber": 77,
		"velocity": 0,
		"time": 4120,
		"track": 2
	},
	{
		"deltaTime": 8,
		"channel": 2,
		"type": "channel",
		"subtype": "noteOff",
		"noteNumber": 79,
		"velocity": 0,
		"time": 4120,
		"track": 3
	},
	{
		"deltaTime": 0,
		"channel": 0,
		"type": "channel",
		"noteNumber": 84,
		"velocity": 85.33333333333333,
		"subtype": "noteOn",
		"time": 4128,
		"track": 1
	},
	{
		"deltaTime": 0,
		"channel": 1,
		"type": "channel",
		"noteNumber": 77,
		"velocity": 85.33333333333333,
		"subtype": "noteOn",
		"time": 4128,
		"track": 2
	},
	{
		"deltaTime": 0,
		"channel": 2,
		"type": "channel",
		"noteNumber": 79,
		"velocity": 85.33333333333333,
		"subtype": "noteOn",
		"time": 4128,
		"track": 3
	},
	{
		"deltaTime": 0,
		"channel": 9,
		"type": "channel",
		"subtype": "noteOff",
		"noteNumber": 42,
		"velocity": 0,
		"time": 4128,
		"track": 4
	},
	{
		"deltaTime": 16,
		"channel": 9,
		"type": "channel",
		"noteNumber": 42,
		"velocity": 127,
		"subtype": "noteOn",
		"time": 4128,
		"track": 4
	},
	{
		"deltaTime": 0,
		"channel": 0,
		"type": "channel",
		"subtype": "noteOff",
		"noteNumber": 84,
		"velocity": 0,
		"time": 4144,
		"track": 1
	},
	{
		"deltaTime": 0,
		"channel": 1,
		"type": "channel",
		"subtype": "noteOff",
		"noteNumber": 77,
		"velocity": 0,
		"time": 4144,
		"track": 2
	},
	{
		"deltaTime": 16,
		"channel": 2,
		"type": "channel",
		"subtype": "noteOff",
		"noteNumber": 79,
		"velocity": 0,
		"time": 4144,
		"track": 3
	},
	{
		"deltaTime": 16,
		"channel": 9,
		"type": "channel",
		"subtype": "noteOff",
		"noteNumber": 42,
		"velocity": 0,
		"time": 4160,
		"track": 4
	},
	{
		"deltaTime": 0,
		"channel": 2,
		"type": "channel",
		"noteNumber": 55,
		"velocity": 85.33333333333333,
		"subtype": "noteOn",
		"time": 4176,
		"track": 3
	},
	{
		"deltaTime": 16,
		"channel": 9,
		"type": "channel",
		"noteNumber": 42,
		"velocity": 127,
		"subtype": "noteOn",
		"time": 4176,
		"track": 4
	},
	{
		"deltaTime": 0,
		"channel": 2,
		"type": "channel",
		"subtype": "noteOff",
		"noteNumber": 55,
		"velocity": 0,
		"time": 4192,
		"track": 3
	},
	{
		"deltaTime": 16,
		"channel": 9,
		"type": "channel",
		"subtype": "noteOff",
		"noteNumber": 42,
		"velocity": 0,
		"time": 4192,
		"track": 4
	},
	{
		"deltaTime": 16,
		"channel": 9,
		"type": "channel",
		"noteNumber": 42,
		"velocity": 127,
		"subtype": "noteOn",
		"time": 4208,
		"track": 4
	},
	{
		"deltaTime": 0,
		"channel": 2,
		"type": "channel",
		"noteNumber": 48,
		"velocity": 85.33333333333333,
		"subtype": "noteOn",
		"time": 4224,
		"track": 3
	},
	{
		"deltaTime": 0,
		"channel": 9,
		"type": "channel",
		"subtype": "noteOff",
		"noteNumber": 42,
		"velocity": 0,
		"time": 4224,
		"track": 4
	},
	{
		"deltaTime": 16,
		"channel": 9,
		"type": "channel",
		"noteNumber": 42,
		"velocity": 127,
		"subtype": "noteOn",
		"time": 4224,
		"track": 4
	},
	{
		"deltaTime": 0,
		"channel": 2,
		"type": "channel",
		"subtype": "noteOff",
		"noteNumber": 48,
		"velocity": 0,
		"time": 4240,
		"track": 3
	},
	{
		"deltaTime": 32,
		"channel": 9,
		"type": "channel",
		"subtype": "noteOff",
		"noteNumber": 42,
		"velocity": 0,
		"time": 4240,
		"track": 4
	},
	{
		"deltaTime": 0,
		"channel": 0,
		"type": "channel",
		"noteNumber": 79,
		"velocity": 85.33333333333333,
		"subtype": "noteOn",
		"time": 4272,
		"track": 1
	},
	{
		"deltaTime": 0,
		"channel": 1,
		"type": "channel",
		"noteNumber": 76,
		"velocity": 85.33333333333333,
		"subtype": "noteOn",
		"time": 4272,
		"track": 2
	},
	{
		"deltaTime": 16,
		"channel": 9,
		"type": "channel",
		"noteNumber": 42,
		"velocity": 127,
		"subtype": "noteOn",
		"time": 4272,
		"track": 4
	},
	{
		"deltaTime": 0,
		"channel": 0,
		"type": "channel",
		"subtype": "noteOff",
		"noteNumber": 79,
		"velocity": 0,
		"time": 4288,
		"track": 1
	},
	{
		"deltaTime": 0,
		"channel": 1,
		"type": "channel",
		"subtype": "noteOff",
		"noteNumber": 76,
		"velocity": 0,
		"time": 4288,
		"track": 2
	},
	{
		"deltaTime": 8,
		"channel": 9,
		"type": "channel",
		"subtype": "noteOff",
		"noteNumber": 42,
		"velocity": 0,
		"time": 4288,
		"track": 4
	},
	{
		"deltaTime": 0,
		"channel": 0,
		"type": "channel",
		"noteNumber": 78,
		"velocity": 85.33333333333333,
		"subtype": "noteOn",
		"time": 4296,
		"track": 1
	},
	{
		"deltaTime": 0,
		"channel": 1,
		"type": "channel",
		"noteNumber": 75,
		"velocity": 85.33333333333333,
		"subtype": "noteOn",
		"time": 4296,
		"track": 2
	},
	{
		"deltaTime": 8,
		"channel": 2,
		"type": "channel",
		"noteNumber": 55,
		"velocity": 85.33333333333333,
		"subtype": "noteOn",
		"time": 4296,
		"track": 3
	},
	{
		"deltaTime": 8,
		"channel": 9,
		"type": "channel",
		"noteNumber": 42,
		"velocity": 127,
		"subtype": "noteOn",
		"time": 4304,
		"track": 4
	},
	{
		"deltaTime": 0,
		"channel": 0,
		"type": "channel",
		"subtype": "noteOff",
		"noteNumber": 78,
		"velocity": 0,
		"time": 4312,
		"track": 1
	},
	{
		"deltaTime": 0,
		"channel": 1,
		"type": "channel",
		"subtype": "noteOff",
		"noteNumber": 75,
		"velocity": 0,
		"time": 4312,
		"track": 2
	},
	{
		"deltaTime": 8,
		"channel": 2,
		"type": "channel",
		"subtype": "noteOff",
		"noteNumber": 55,
		"velocity": 0,
		"time": 4312,
		"track": 3
	},
	{
		"deltaTime": 0,
		"channel": 0,
		"type": "channel",
		"noteNumber": 77,
		"velocity": 85.33333333333333,
		"subtype": "noteOn",
		"time": 4320,
		"track": 1
	},
	{
		"deltaTime": 0,
		"channel": 1,
		"type": "channel",
		"noteNumber": 74,
		"velocity": 85.33333333333333,
		"subtype": "noteOn",
		"time": 4320,
		"track": 2
	},
	{
		"deltaTime": 0,
		"channel": 9,
		"type": "channel",
		"subtype": "noteOff",
		"noteNumber": 42,
		"velocity": 0,
		"time": 4320,
		"track": 4
	},
	{
		"deltaTime": 16,
		"channel": 9,
		"type": "channel",
		"noteNumber": 42,
		"velocity": 127,
		"subtype": "noteOn",
		"time": 4320,
		"track": 4
	},
	{
		"deltaTime": 0,
		"channel": 0,
		"type": "channel",
		"subtype": "noteOff",
		"noteNumber": 77,
		"velocity": 0,
		"time": 4336,
		"track": 1
	},
	{
		"deltaTime": 8,
		"channel": 1,
		"type": "channel",
		"subtype": "noteOff",
		"noteNumber": 74,
		"velocity": 0,
		"time": 4336,
		"track": 2
	},
	{
		"deltaTime": 0,
		"channel": 0,
		"type": "channel",
		"noteNumber": 75,
		"velocity": 85.33333333333333,
		"subtype": "noteOn",
		"time": 4344,
		"track": 1
	},
	{
		"deltaTime": 8,
		"channel": 1,
		"type": "channel",
		"noteNumber": 71,
		"velocity": 85.33333333333333,
		"subtype": "noteOn",
		"time": 4344,
		"track": 2
	},
	{
		"deltaTime": 8,
		"channel": 9,
		"type": "channel",
		"subtype": "noteOff",
		"noteNumber": 42,
		"velocity": 0,
		"time": 4352,
		"track": 4
	},
	{
		"deltaTime": 0,
		"channel": 0,
		"type": "channel",
		"subtype": "noteOff",
		"noteNumber": 75,
		"velocity": 0,
		"time": 4360,
		"track": 1
	},
	{
		"deltaTime": 8,
		"channel": 1,
		"type": "channel",
		"subtype": "noteOff",
		"noteNumber": 71,
		"velocity": 0,
		"time": 4360,
		"track": 2
	},
	{
		"deltaTime": 0,
		"channel": 2,
		"type": "channel",
		"noteNumber": 60,
		"velocity": 85.33333333333333,
		"subtype": "noteOn",
		"time": 4368,
		"track": 3
	},
	{
		"deltaTime": 16,
		"channel": 9,
		"type": "channel",
		"noteNumber": 42,
		"velocity": 127,
		"subtype": "noteOn",
		"time": 4368,
		"track": 4
	},
	{
		"deltaTime": 0,
		"channel": 2,
		"type": "channel",
		"subtype": "noteOff",
		"noteNumber": 60,
		"velocity": 0,
		"time": 4384,
		"track": 3
	},
	{
		"deltaTime": 8,
		"channel": 9,
		"type": "channel",
		"subtype": "noteOff",
		"noteNumber": 42,
		"velocity": 0,
		"time": 4384,
		"track": 4
	},
	{
		"deltaTime": 0,
		"channel": 0,
		"type": "channel",
		"noteNumber": 76,
		"velocity": 85.33333333333333,
		"subtype": "noteOn",
		"time": 4392,
		"track": 1
	},
	{
		"deltaTime": 8,
		"channel": 1,
		"type": "channel",
		"noteNumber": 72,
		"velocity": 85.33333333333333,
		"subtype": "noteOn",
		"time": 4392,
		"track": 2
	},
	{
		"deltaTime": 8,
		"channel": 9,
		"type": "channel",
		"noteNumber": 42,
		"velocity": 127,
		"subtype": "noteOn",
		"time": 4400,
		"track": 4
	},
	{
		"deltaTime": 0,
		"channel": 0,
		"type": "channel",
		"subtype": "noteOff",
		"noteNumber": 76,
		"velocity": 0,
		"time": 4408,
		"track": 1
	},
	{
		"deltaTime": 8,
		"channel": 1,
		"type": "channel",
		"subtype": "noteOff",
		"noteNumber": 72,
		"velocity": 0,
		"time": 4408,
		"track": 2
	},
	{
		"deltaTime": 0,
		"channel": 2,
		"type": "channel",
		"noteNumber": 53,
		"velocity": 85.33333333333333,
		"subtype": "noteOn",
		"time": 4416,
		"track": 3
	},
	{
		"deltaTime": 0,
		"channel": 9,
		"type": "channel",
		"subtype": "noteOff",
		"noteNumber": 42,
		"velocity": 0,
		"time": 4416,
		"track": 4
	},
	{
		"deltaTime": 16,
		"channel": 9,
		"type": "channel",
		"noteNumber": 42,
		"velocity": 127,
		"subtype": "noteOn",
		"time": 4416,
		"track": 4
	},
	{
		"deltaTime": 0,
		"channel": 2,
		"type": "channel",
		"subtype": "noteOff",
		"noteNumber": 53,
		"velocity": 0,
		"time": 4432,
		"track": 3
	},
	{
		"deltaTime": 8,
		"channel": 9,
		"type": "channel",
		"subtype": "noteOff",
		"noteNumber": 42,
		"velocity": 0,
		"time": 4432,
		"track": 4
	},
	{
		"deltaTime": 0,
		"channel": 0,
		"type": "channel",
		"noteNumber": 68,
		"velocity": 85.33333333333333,
		"subtype": "noteOn",
		"time": 4440,
		"track": 1
	},
	{
		"deltaTime": 16,
		"channel": 1,
		"type": "channel",
		"noteNumber": 64,
		"velocity": 85.33333333333333,
		"subtype": "noteOn",
		"time": 4440,
		"track": 2
	},
	{
		"deltaTime": 0,
		"channel": 0,
		"type": "channel",
		"subtype": "noteOff",
		"noteNumber": 68,
		"velocity": 0,
		"time": 4456,
		"track": 1
	},
	{
		"deltaTime": 8,
		"channel": 1,
		"type": "channel",
		"subtype": "noteOff",
		"noteNumber": 64,
		"velocity": 0,
		"time": 4456,
		"track": 2
	},
	{
		"deltaTime": 0,
		"channel": 0,
		"type": "channel",
		"noteNumber": 69,
		"velocity": 85.33333333333333,
		"subtype": "noteOn",
		"time": 4464,
		"track": 1
	},
	{
		"deltaTime": 0,
		"channel": 1,
		"type": "channel",
		"noteNumber": 65,
		"velocity": 85.33333333333333,
		"subtype": "noteOn",
		"time": 4464,
		"track": 2
	},
	{
		"deltaTime": 16,
		"channel": 9,
		"type": "channel",
		"noteNumber": 42,
		"velocity": 127,
		"subtype": "noteOn",
		"time": 4464,
		"track": 4
	},
	{
		"deltaTime": 0,
		"channel": 0,
		"type": "channel",
		"subtype": "noteOff",
		"noteNumber": 69,
		"velocity": 0,
		"time": 4480,
		"track": 1
	},
	{
		"deltaTime": 0,
		"channel": 1,
		"type": "channel",
		"subtype": "noteOff",
		"noteNumber": 65,
		"velocity": 0,
		"time": 4480,
		"track": 2
	},
	{
		"deltaTime": 8,
		"channel": 9,
		"type": "channel",
		"subtype": "noteOff",
		"noteNumber": 42,
		"velocity": 0,
		"time": 4480,
		"track": 4
	},
	{
		"deltaTime": 0,
		"channel": 0,
		"type": "channel",
		"noteNumber": 72,
		"velocity": 85.33333333333333,
		"subtype": "noteOn",
		"time": 4488,
		"track": 1
	},
	{
		"deltaTime": 0,
		"channel": 1,
		"type": "channel",
		"noteNumber": 67,
		"velocity": 85.33333333333333,
		"subtype": "noteOn",
		"time": 4488,
		"track": 2
	},
	{
		"deltaTime": 8,
		"channel": 2,
		"type": "channel",
		"noteNumber": 60,
		"velocity": 85.33333333333333,
		"subtype": "noteOn",
		"time": 4488,
		"track": 3
	},
	{
		"deltaTime": 8,
		"channel": 9,
		"type": "channel",
		"noteNumber": 42,
		"velocity": 127,
		"subtype": "noteOn",
		"time": 4496,
		"track": 4
	},
	{
		"deltaTime": 0,
		"channel": 0,
		"type": "channel",
		"subtype": "noteOff",
		"noteNumber": 72,
		"velocity": 0,
		"time": 4504,
		"track": 1
	},
	{
		"deltaTime": 0,
		"channel": 1,
		"type": "channel",
		"subtype": "noteOff",
		"noteNumber": 67,
		"velocity": 0,
		"time": 4504,
		"track": 2
	},
	{
		"deltaTime": 8,
		"channel": 2,
		"type": "channel",
		"subtype": "noteOff",
		"noteNumber": 60,
		"velocity": 0,
		"time": 4504,
		"track": 3
	},
	{
		"deltaTime": 0,
		"channel": 2,
		"type": "channel",
		"noteNumber": 60,
		"velocity": 85.33333333333333,
		"subtype": "noteOn",
		"time": 4512,
		"track": 3
	},
	{
		"deltaTime": 0,
		"channel": 9,
		"type": "channel",
		"subtype": "noteOff",
		"noteNumber": 42,
		"velocity": 0,
		"time": 4512,
		"track": 4
	},
	{
		"deltaTime": 16,
		"channel": 9,
		"type": "channel",
		"noteNumber": 42,
		"velocity": 127,
		"subtype": "noteOn",
		"time": 4512,
		"track": 4
	},
	{
		"deltaTime": 8,
		"channel": 2,
		"type": "channel",
		"subtype": "noteOff",
		"noteNumber": 60,
		"velocity": 0,
		"time": 4528,
		"track": 3
	},
	{
		"deltaTime": 0,
		"channel": 0,
		"type": "channel",
		"noteNumber": 69,
		"velocity": 85.33333333333333,
		"subtype": "noteOn",
		"time": 4536,
		"track": 1
	},
	{
		"deltaTime": 8,
		"channel": 1,
		"type": "channel",
		"noteNumber": 60,
		"velocity": 85.33333333333333,
		"subtype": "noteOn",
		"time": 4536,
		"track": 2
	},
	{
		"deltaTime": 8,
		"channel": 9,
		"type": "channel",
		"subtype": "noteOff",
		"noteNumber": 42,
		"velocity": 0,
		"time": 4544,
		"track": 4
	},
	{
		"deltaTime": 0,
		"channel": 0,
		"type": "channel",
		"subtype": "noteOff",
		"noteNumber": 69,
		"velocity": 0,
		"time": 4552,
		"track": 1
	},
	{
		"deltaTime": 8,
		"channel": 1,
		"type": "channel",
		"subtype": "noteOff",
		"noteNumber": 60,
		"velocity": 0,
		"time": 4552,
		"track": 2
	},
	{
		"deltaTime": 0,
		"channel": 0,
		"type": "channel",
		"noteNumber": 72,
		"velocity": 85.33333333333333,
		"subtype": "noteOn",
		"time": 4560,
		"track": 1
	},
	{
		"deltaTime": 0,
		"channel": 1,
		"type": "channel",
		"noteNumber": 64,
		"velocity": 85.33333333333333,
		"subtype": "noteOn",
		"time": 4560,
		"track": 2
	},
	{
		"deltaTime": 0,
		"channel": 2,
		"type": "channel",
		"noteNumber": 53,
		"velocity": 85.33333333333333,
		"subtype": "noteOn",
		"time": 4560,
		"track": 3
	},
	{
		"deltaTime": 16,
		"channel": 9,
		"type": "channel",
		"noteNumber": 42,
		"velocity": 127,
		"subtype": "noteOn",
		"time": 4560,
		"track": 4
	},
	{
		"deltaTime": 0,
		"channel": 0,
		"type": "channel",
		"subtype": "noteOff",
		"noteNumber": 72,
		"velocity": 0,
		"time": 4576,
		"track": 1
	},
	{
		"deltaTime": 0,
		"channel": 1,
		"type": "channel",
		"subtype": "noteOff",
		"noteNumber": 64,
		"velocity": 0,
		"time": 4576,
		"track": 2
	},
	{
		"deltaTime": 0,
		"channel": 2,
		"type": "channel",
		"subtype": "noteOff",
		"noteNumber": 53,
		"velocity": 0,
		"time": 4576,
		"track": 3
	},
	{
		"deltaTime": 8,
		"channel": 9,
		"type": "channel",
		"subtype": "noteOff",
		"noteNumber": 42,
		"velocity": 0,
		"time": 4576,
		"track": 4
	},
	{
		"deltaTime": 0,
		"channel": 0,
		"type": "channel",
		"noteNumber": 74,
		"velocity": 85.33333333333333,
		"subtype": "noteOn",
		"time": 4584,
		"track": 1
	},
	{
		"deltaTime": 8,
		"channel": 1,
		"type": "channel",
		"noteNumber": 65,
		"velocity": 85.33333333333333,
		"subtype": "noteOn",
		"time": 4584,
		"track": 2
	},
	{
		"deltaTime": 8,
		"channel": 9,
		"type": "channel",
		"noteNumber": 42,
		"velocity": 127,
		"subtype": "noteOn",
		"time": 4592,
		"track": 4
	},
	{
		"deltaTime": 0,
		"channel": 0,
		"type": "channel",
		"subtype": "noteOff",
		"noteNumber": 74,
		"velocity": 0,
		"time": 4600,
		"track": 1
	},
	{
		"deltaTime": 8,
		"channel": 1,
		"type": "channel",
		"subtype": "noteOff",
		"noteNumber": 65,
		"velocity": 0,
		"time": 4600,
		"track": 2
	},
	{
		"deltaTime": 0,
		"channel": 2,
		"type": "channel",
		"noteNumber": 48,
		"velocity": 85.33333333333333,
		"subtype": "noteOn",
		"time": 4608,
		"track": 3
	},
	{
		"deltaTime": 0,
		"channel": 9,
		"type": "channel",
		"subtype": "noteOff",
		"noteNumber": 42,
		"velocity": 0,
		"time": 4608,
		"track": 4
	},
	{
		"deltaTime": 16,
		"channel": 9,
		"type": "channel",
		"noteNumber": 42,
		"velocity": 127,
		"subtype": "noteOn",
		"time": 4608,
		"track": 4
	},
	{
		"deltaTime": 0,
		"channel": 2,
		"type": "channel",
		"subtype": "noteOff",
		"noteNumber": 48,
		"velocity": 0,
		"time": 4624,
		"track": 3
	},
	{
		"deltaTime": 32,
		"channel": 9,
		"type": "channel",
		"subtype": "noteOff",
		"noteNumber": 42,
		"velocity": 0,
		"time": 4624,
		"track": 4
	},
	{
		"deltaTime": 0,
		"channel": 0,
		"type": "channel",
		"noteNumber": 75,
		"velocity": 85.33333333333333,
		"subtype": "noteOn",
		"time": 4656,
		"track": 1
	},
	{
		"deltaTime": 0,
		"channel": 1,
		"type": "channel",
		"noteNumber": 68,
		"velocity": 85.33333333333333,
		"subtype": "noteOn",
		"time": 4656,
		"track": 2
	},
	{
		"deltaTime": 0,
		"channel": 2,
		"type": "channel",
		"noteNumber": 56,
		"velocity": 85.33333333333333,
		"subtype": "noteOn",
		"time": 4656,
		"track": 3
	},
	{
		"deltaTime": 16,
		"channel": 9,
		"type": "channel",
		"noteNumber": 42,
		"velocity": 127,
		"subtype": "noteOn",
		"time": 4656,
		"track": 4
	},
	{
		"deltaTime": 0,
		"channel": 0,
		"type": "channel",
		"subtype": "noteOff",
		"noteNumber": 75,
		"velocity": 0,
		"time": 4672,
		"track": 1
	},
	{
		"deltaTime": 0,
		"channel": 1,
		"type": "channel",
		"subtype": "noteOff",
		"noteNumber": 68,
		"velocity": 0,
		"time": 4672,
		"track": 2
	},
	{
		"deltaTime": 0,
		"channel": 2,
		"type": "channel",
		"subtype": "noteOff",
		"noteNumber": 56,
		"velocity": 0,
		"time": 4672,
		"track": 3
	},
	{
		"deltaTime": 16,
		"channel": 9,
		"type": "channel",
		"subtype": "noteOff",
		"noteNumber": 42,
		"velocity": 0,
		"time": 4672,
		"track": 4
	},
	{
		"deltaTime": 16,
		"channel": 9,
		"type": "channel",
		"noteNumber": 42,
		"velocity": 127,
		"subtype": "noteOn",
		"time": 4688,
		"track": 4
	},
	{
		"deltaTime": 0,
		"channel": 9,
		"type": "channel",
		"subtype": "noteOff",
		"noteNumber": 42,
		"velocity": 0,
		"time": 4704,
		"track": 4
	},
	{
		"deltaTime": 24,
		"channel": 9,
		"type": "channel",
		"noteNumber": 42,
		"velocity": 127,
		"subtype": "noteOn",
		"time": 4704,
		"track": 4
	},
	{
		"deltaTime": 0,
		"channel": 0,
		"type": "channel",
		"noteNumber": 74,
		"velocity": 85.33333333333333,
		"subtype": "noteOn",
		"time": 4728,
		"track": 1
	},
	{
		"deltaTime": 0,
		"channel": 1,
		"type": "channel",
		"noteNumber": 65,
		"velocity": 85.33333333333333,
		"subtype": "noteOn",
		"time": 4728,
		"track": 2
	},
	{
		"deltaTime": 8,
		"channel": 2,
		"type": "channel",
		"noteNumber": 58,
		"velocity": 85.33333333333333,
		"subtype": "noteOn",
		"time": 4728,
		"track": 3
	},
	{
		"deltaTime": 8,
		"channel": 9,
		"type": "channel",
		"subtype": "noteOff",
		"noteNumber": 42,
		"velocity": 0,
		"time": 4736,
		"track": 4
	},
	{
		"deltaTime": 0,
		"channel": 0,
		"type": "channel",
		"subtype": "noteOff",
		"noteNumber": 74,
		"velocity": 0,
		"time": 4744,
		"track": 1
	},
	{
		"deltaTime": 0,
		"channel": 1,
		"type": "channel",
		"subtype": "noteOff",
		"noteNumber": 65,
		"velocity": 0,
		"time": 4744,
		"track": 2
	},
	{
		"deltaTime": 8,
		"channel": 2,
		"type": "channel",
		"subtype": "noteOff",
		"noteNumber": 58,
		"velocity": 0,
		"time": 4744,
		"track": 3
	},
	{
		"deltaTime": 16,
		"channel": 9,
		"type": "channel",
		"noteNumber": 42,
		"velocity": 127,
		"subtype": "noteOn",
		"time": 4752,
		"track": 4
	},
	{
		"deltaTime": 16,
		"channel": 9,
		"type": "channel",
		"subtype": "noteOff",
		"noteNumber": 42,
		"velocity": 0,
		"time": 4768,
		"track": 4
	},
	{
		"deltaTime": 16,
		"channel": 9,
		"type": "channel",
		"noteNumber": 42,
		"velocity": 127,
		"subtype": "noteOn",
		"time": 4784,
		"track": 4
	},
	{
		"deltaTime": 0,
		"channel": 0,
		"type": "channel",
		"noteNumber": 72,
		"velocity": 85.33333333333333,
		"subtype": "noteOn",
		"time": 4800,
		"track": 1
	},
	{
		"deltaTime": 0,
		"channel": 1,
		"type": "channel",
		"noteNumber": 64,
		"velocity": 85.33333333333333,
		"subtype": "noteOn",
		"time": 4800,
		"track": 2
	},
	{
		"deltaTime": 0,
		"channel": 2,
		"type": "channel",
		"noteNumber": 60,
		"velocity": 85.33333333333333,
		"subtype": "noteOn",
		"time": 4800,
		"track": 3
	},
	{
		"deltaTime": 0,
		"channel": 9,
		"type": "channel",
		"subtype": "noteOff",
		"noteNumber": 42,
		"velocity": 0,
		"time": 4800,
		"track": 4
	},
	{
		"deltaTime": 16,
		"channel": 9,
		"type": "channel",
		"noteNumber": 42,
		"velocity": 127,
		"subtype": "noteOn",
		"time": 4800,
		"track": 4
	},
	{
		"deltaTime": 0,
		"channel": 0,
		"type": "channel",
		"subtype": "noteOff",
		"noteNumber": 72,
		"velocity": 0,
		"time": 4816,
		"track": 1
	},
	{
		"deltaTime": 0,
		"channel": 1,
		"type": "channel",
		"subtype": "noteOff",
		"noteNumber": 64,
		"velocity": 0,
		"time": 4816,
		"track": 2
	},
	{
		"deltaTime": 0,
		"channel": 2,
		"type": "channel",
		"subtype": "noteOff",
		"noteNumber": 60,
		"velocity": 0,
		"time": 4816,
		"track": 3
	},
	{
		"deltaTime": 32,
		"channel": 9,
		"type": "channel",
		"subtype": "noteOff",
		"noteNumber": 42,
		"velocity": 0,
		"time": 4816,
		"track": 4
	},
	{
		"deltaTime": 16,
		"channel": 9,
		"type": "channel",
		"noteNumber": 42,
		"velocity": 127,
		"subtype": "noteOn",
		"time": 4848,
		"track": 4
	},
	{
		"deltaTime": 8,
		"channel": 9,
		"type": "channel",
		"subtype": "noteOff",
		"noteNumber": 42,
		"velocity": 0,
		"time": 4864,
		"track": 4
	},
	{
		"deltaTime": 8,
		"channel": 2,
		"type": "channel",
		"noteNumber": 55,
		"velocity": 85.33333333333333,
		"subtype": "noteOn",
		"time": 4872,
		"track": 3
	},
	{
		"deltaTime": 8,
		"channel": 9,
		"type": "channel",
		"noteNumber": 42,
		"velocity": 127,
		"subtype": "noteOn",
		"time": 4880,
		"track": 4
	},
	{
		"deltaTime": 8,
		"channel": 2,
		"type": "channel",
		"subtype": "noteOff",
		"noteNumber": 55,
		"velocity": 0,
		"time": 4888,
		"track": 3
	},
	{
		"deltaTime": 0,
		"channel": 2,
		"type": "channel",
		"noteNumber": 55,
		"velocity": 85.33333333333333,
		"subtype": "noteOn",
		"time": 4896,
		"track": 3
	},
	{
		"deltaTime": 0,
		"channel": 9,
		"type": "channel",
		"subtype": "noteOff",
		"noteNumber": 42,
		"velocity": 0,
		"time": 4896,
		"track": 4
	},
	{
		"deltaTime": 16,
		"channel": 9,
		"type": "channel",
		"noteNumber": 42,
		"velocity": 127,
		"subtype": "noteOn",
		"time": 4896,
		"track": 4
	},
	{
		"deltaTime": 16,
		"channel": 2,
		"type": "channel",
		"subtype": "noteOff",
		"noteNumber": 55,
		"velocity": 0,
		"time": 4912,
		"track": 3
	},
	{
		"deltaTime": 16,
		"channel": 9,
		"type": "channel",
		"subtype": "noteOff",
		"noteNumber": 42,
		"velocity": 0,
		"time": 4928,
		"track": 4
	},
	{
		"deltaTime": 0,
		"channel": 2,
		"type": "channel",
		"noteNumber": 48,
		"velocity": 85.33333333333333,
		"subtype": "noteOn",
		"time": 4944,
		"track": 3
	},
	{
		"deltaTime": 16,
		"channel": 9,
		"type": "channel",
		"noteNumber": 42,
		"velocity": 127,
		"subtype": "noteOn",
		"time": 4944,
		"track": 4
	},
	{
		"deltaTime": 0,
		"channel": 2,
		"type": "channel",
		"subtype": "noteOff",
		"noteNumber": 48,
		"velocity": 0,
		"time": 4960,
		"track": 3
	},
	{
		"deltaTime": 16,
		"channel": 9,
		"type": "channel",
		"subtype": "noteOff",
		"noteNumber": 42,
		"velocity": 0,
		"time": 4960,
		"track": 4
	},
	{
		"deltaTime": 16,
		"channel": 9,
		"type": "channel",
		"noteNumber": 42,
		"velocity": 127,
		"subtype": "noteOn",
		"time": 4976,
		"track": 4
	},
	{
		"deltaTime": 0,
		"channel": 0,
		"type": "channel",
		"noteNumber": 72,
		"velocity": 85.33333333333333,
		"subtype": "noteOn",
		"time": 4992,
		"track": 1
	},
	{
		"deltaTime": 0,
		"channel": 1,
		"type": "channel",
		"noteNumber": 68,
		"velocity": 85.33333333333333,
		"subtype": "noteOn",
		"time": 4992,
		"track": 2
	},
	{
		"deltaTime": 0,
		"channel": 2,
		"type": "channel",
		"noteNumber": 44,
		"velocity": 85.33333333333333,
		"subtype": "noteOn",
		"time": 4992,
		"track": 3
	},
	{
		"deltaTime": 0,
		"channel": 9,
		"type": "channel",
		"subtype": "noteOff",
		"noteNumber": 42,
		"velocity": 0,
		"time": 4992,
		"track": 4
	},
	{
		"deltaTime": 16,
		"channel": 9,
		"type": "channel",
		"noteNumber": 42,
		"velocity": 127,
		"subtype": "noteOn",
		"time": 4992,
		"track": 4
	},
	{
		"deltaTime": 0,
		"channel": 0,
		"type": "channel",
		"subtype": "noteOff",
		"noteNumber": 72,
		"velocity": 0,
		"time": 5008,
		"track": 1
	},
	{
		"deltaTime": 0,
		"channel": 1,
		"type": "channel",
		"subtype": "noteOff",
		"noteNumber": 68,
		"velocity": 0,
		"time": 5008,
		"track": 2
	},
	{
		"deltaTime": 8,
		"channel": 2,
		"type": "channel",
		"subtype": "noteOff",
		"noteNumber": 44,
		"velocity": 0,
		"time": 5008,
		"track": 3
	},
	{
		"deltaTime": 0,
		"channel": 0,
		"type": "channel",
		"noteNumber": 72,
		"velocity": 85.33333333333333,
		"subtype": "noteOn",
		"time": 5016,
		"track": 1
	},
	{
		"deltaTime": 8,
		"channel": 1,
		"type": "channel",
		"noteNumber": 68,
		"velocity": 85.33333333333333,
		"subtype": "noteOn",
		"time": 5016,
		"track": 2
	},
	{
		"deltaTime": 8,
		"channel": 9,
		"type": "channel",
		"subtype": "noteOff",
		"noteNumber": 42,
		"velocity": 0,
		"time": 5024,
		"track": 4
	},
	{
		"deltaTime": 0,
		"channel": 0,
		"type": "channel",
		"subtype": "noteOff",
		"noteNumber": 72,
		"velocity": 0,
		"time": 5032,
		"track": 1
	},
	{
		"deltaTime": 8,
		"channel": 1,
		"type": "channel",
		"subtype": "noteOff",
		"noteNumber": 68,
		"velocity": 0,
		"time": 5032,
		"track": 2
	},
	{
		"deltaTime": 16,
		"channel": 9,
		"type": "channel",
		"noteNumber": 42,
		"velocity": 127,
		"subtype": "noteOn",
		"time": 5040,
		"track": 4
	},
	{
		"deltaTime": 8,
		"channel": 9,
		"type": "channel",
		"subtype": "noteOff",
		"noteNumber": 42,
		"velocity": 0,
		"time": 5056,
		"track": 4
	},
	{
		"deltaTime": 0,
		"channel": 0,
		"type": "channel",
		"noteNumber": 72,
		"velocity": 85.33333333333333,
		"subtype": "noteOn",
		"time": 5064,
		"track": 1
	},
	{
		"deltaTime": 0,
		"channel": 1,
		"type": "channel",
		"noteNumber": 68,
		"velocity": 85.33333333333333,
		"subtype": "noteOn",
		"time": 5064,
		"track": 2
	},
	{
		"deltaTime": 0,
		"channel": 2,
		"type": "channel",
		"noteNumber": 51,
		"velocity": 85.33333333333333,
		"subtype": "noteOn",
		"time": 5064,
		"track": 3
	},
	{
		"deltaTime": 16,
		"channel": 9,
		"type": "channel",
		"noteNumber": 42,
		"velocity": 127,
		"subtype": "noteOn",
		"time": 5064,
		"track": 4
	},
	{
		"deltaTime": 0,
		"channel": 0,
		"type": "channel",
		"subtype": "noteOff",
		"noteNumber": 72,
		"velocity": 0,
		"time": 5080,
		"track": 1
	},
	{
		"deltaTime": 0,
		"channel": 1,
		"type": "channel",
		"subtype": "noteOff",
		"noteNumber": 68,
		"velocity": 0,
		"time": 5080,
		"track": 2
	},
	{
		"deltaTime": 16,
		"channel": 2,
		"type": "channel",
		"subtype": "noteOff",
		"noteNumber": 51,
		"velocity": 0,
		"time": 5080,
		"track": 3
	},
	{
		"deltaTime": 16,
		"channel": 9,
		"type": "channel",
		"subtype": "noteOff",
		"noteNumber": 42,
		"velocity": 0,
		"time": 5096,
		"track": 4
	},
	{
		"deltaTime": 0,
		"channel": 0,
		"type": "channel",
		"noteNumber": 72,
		"velocity": 85.33333333333333,
		"subtype": "noteOn",
		"time": 5112,
		"track": 1
	},
	{
		"deltaTime": 0,
		"channel": 1,
		"type": "channel",
		"noteNumber": 68,
		"velocity": 85.33333333333333,
		"subtype": "noteOn",
		"time": 5112,
		"track": 2
	},
	{
		"deltaTime": 16,
		"channel": 9,
		"type": "channel",
		"noteNumber": 42,
		"velocity": 127,
		"subtype": "noteOn",
		"time": 5112,
		"track": 4
	},
	{
		"deltaTime": 0,
		"channel": 0,
		"type": "channel",
		"subtype": "noteOff",
		"noteNumber": 72,
		"velocity": 0,
		"time": 5128,
		"track": 1
	},
	{
		"deltaTime": 0,
		"channel": 1,
		"type": "channel",
		"subtype": "noteOff",
		"noteNumber": 68,
		"velocity": 0,
		"time": 5128,
		"track": 2
	},
	{
		"deltaTime": 8,
		"channel": 9,
		"type": "channel",
		"subtype": "noteOff",
		"noteNumber": 42,
		"velocity": 0,
		"time": 5128,
		"track": 4
	},
	{
		"deltaTime": 0,
		"channel": 0,
		"type": "channel",
		"noteNumber": 74,
		"velocity": 85.33333333333333,
		"subtype": "noteOn",
		"time": 5136,
		"track": 1
	},
	{
		"deltaTime": 0,
		"channel": 1,
		"type": "channel",
		"noteNumber": 70,
		"velocity": 85.33333333333333,
		"subtype": "noteOn",
		"time": 5136,
		"track": 2
	},
	{
		"deltaTime": 0,
		"channel": 2,
		"type": "channel",
		"noteNumber": 56,
		"velocity": 85.33333333333333,
		"subtype": "noteOn",
		"time": 5136,
		"track": 3
	},
	{
		"deltaTime": 16,
		"channel": 9,
		"type": "channel",
		"noteNumber": 42,
		"velocity": 127,
		"subtype": "noteOn",
		"time": 5136,
		"track": 4
	},
	{
		"deltaTime": 0,
		"channel": 0,
		"type": "channel",
		"subtype": "noteOff",
		"noteNumber": 74,
		"velocity": 0,
		"time": 5152,
		"track": 1
	},
	{
		"deltaTime": 0,
		"channel": 1,
		"type": "channel",
		"subtype": "noteOff",
		"noteNumber": 70,
		"velocity": 0,
		"time": 5152,
		"track": 2
	},
	{
		"deltaTime": 16,
		"channel": 2,
		"type": "channel",
		"subtype": "noteOff",
		"noteNumber": 56,
		"velocity": 0,
		"time": 5152,
		"track": 3
	},
	{
		"deltaTime": 16,
		"channel": 9,
		"type": "channel",
		"subtype": "noteOff",
		"noteNumber": 42,
		"velocity": 0,
		"time": 5168,
		"track": 4
	},
	{
		"deltaTime": 0,
		"channel": 0,
		"type": "channel",
		"noteNumber": 76,
		"velocity": 85.33333333333333,
		"subtype": "noteOn",
		"time": 5184,
		"track": 1
	},
	{
		"deltaTime": 0,
		"channel": 1,
		"type": "channel",
		"noteNumber": 67,
		"velocity": 85.33333333333333,
		"subtype": "noteOn",
		"time": 5184,
		"track": 2
	},
	{
		"deltaTime": 0,
		"channel": 2,
		"type": "channel",
		"noteNumber": 55,
		"velocity": 85.33333333333333,
		"subtype": "noteOn",
		"time": 5184,
		"track": 3
	},
	{
		"deltaTime": 16,
		"channel": 9,
		"type": "channel",
		"noteNumber": 42,
		"velocity": 127,
		"subtype": "noteOn",
		"time": 5184,
		"track": 4
	},
	{
		"deltaTime": 0,
		"channel": 0,
		"type": "channel",
		"subtype": "noteOff",
		"noteNumber": 76,
		"velocity": 0,
		"time": 5200,
		"track": 1
	},
	{
		"deltaTime": 0,
		"channel": 1,
		"type": "channel",
		"subtype": "noteOff",
		"noteNumber": 67,
		"velocity": 0,
		"time": 5200,
		"track": 2
	},
	{
		"deltaTime": 8,
		"channel": 2,
		"type": "channel",
		"subtype": "noteOff",
		"noteNumber": 55,
		"velocity": 0,
		"time": 5200,
		"track": 3
	},
	{
		"deltaTime": 0,
		"channel": 0,
		"type": "channel",
		"noteNumber": 72,
		"velocity": 85.33333333333333,
		"subtype": "noteOn",
		"time": 5208,
		"track": 1
	},
	{
		"deltaTime": 8,
		"channel": 1,
		"type": "channel",
		"noteNumber": 64,
		"velocity": 85.33333333333333,
		"subtype": "noteOn",
		"time": 5208,
		"track": 2
	},
	{
		"deltaTime": 8,
		"channel": 9,
		"type": "channel",
		"subtype": "noteOff",
		"noteNumber": 42,
		"velocity": 0,
		"time": 5216,
		"track": 4
	},
	{
		"deltaTime": 0,
		"channel": 0,
		"type": "channel",
		"subtype": "noteOff",
		"noteNumber": 72,
		"velocity": 0,
		"time": 5224,
		"track": 1
	},
	{
		"deltaTime": 32,
		"channel": 1,
		"type": "channel",
		"subtype": "noteOff",
		"noteNumber": 64,
		"velocity": 0,
		"time": 5224,
		"track": 2
	},
	{
		"deltaTime": 0,
		"channel": 0,
		"type": "channel",
		"noteNumber": 69,
		"velocity": 85.33333333333333,
		"subtype": "noteOn",
		"time": 5256,
		"track": 1
	},
	{
		"deltaTime": 0,
		"channel": 1,
		"type": "channel",
		"noteNumber": 64,
		"velocity": 85.33333333333333,
		"subtype": "noteOn",
		"time": 5256,
		"track": 2
	},
	{
		"deltaTime": 0,
		"channel": 2,
		"type": "channel",
		"noteNumber": 48,
		"velocity": 85.33333333333333,
		"subtype": "noteOn",
		"time": 5256,
		"track": 3
	},
	{
		"deltaTime": 16,
		"channel": 9,
		"type": "channel",
		"noteNumber": 42,
		"velocity": 127,
		"subtype": "noteOn",
		"time": 5256,
		"track": 4
	},
	{
		"deltaTime": 0,
		"channel": 0,
		"type": "channel",
		"subtype": "noteOff",
		"noteNumber": 69,
		"velocity": 0,
		"time": 5272,
		"track": 1
	},
	{
		"deltaTime": 0,
		"channel": 1,
		"type": "channel",
		"subtype": "noteOff",
		"noteNumber": 64,
		"velocity": 0,
		"time": 5272,
		"track": 2
	},
	{
		"deltaTime": 8,
		"channel": 2,
		"type": "channel",
		"subtype": "noteOff",
		"noteNumber": 48,
		"velocity": 0,
		"time": 5272,
		"track": 3
	},
	{
		"deltaTime": 0,
		"channel": 0,
		"type": "channel",
		"noteNumber": 67,
		"velocity": 85.33333333333333,
		"subtype": "noteOn",
		"time": 5280,
		"track": 1
	},
	{
		"deltaTime": 8,
		"channel": 1,
		"type": "channel",
		"noteNumber": 60,
		"velocity": 85.33333333333333,
		"subtype": "noteOn",
		"time": 5280,
		"track": 2
	},
	{
		"deltaTime": 8,
		"channel": 9,
		"type": "channel",
		"subtype": "noteOff",
		"noteNumber": 42,
		"velocity": 0,
		"time": 5288,
		"track": 4
	},
	{
		"deltaTime": 0,
		"channel": 0,
		"type": "channel",
		"subtype": "noteOff",
		"noteNumber": 67,
		"velocity": 0,
		"time": 5296,
		"track": 1
	},
	{
		"deltaTime": 8,
		"channel": 1,
		"type": "channel",
		"subtype": "noteOff",
		"noteNumber": 60,
		"velocity": 0,
		"time": 5296,
		"track": 2
	},
	{
		"deltaTime": 16,
		"channel": 9,
		"type": "channel",
		"noteNumber": 42,
		"velocity": 127,
		"subtype": "noteOn",
		"time": 5304,
		"track": 4
	},
	{
		"deltaTime": 8,
		"channel": 9,
		"type": "channel",
		"subtype": "noteOff",
		"noteNumber": 42,
		"velocity": 0,
		"time": 5320,
		"track": 4
	},
	{
		"deltaTime": 0,
		"channel": 2,
		"type": "channel",
		"noteNumber": 43,
		"velocity": 85.33333333333333,
		"subtype": "noteOn",
		"time": 5328,
		"track": 3
	},
	{
		"deltaTime": 16,
		"channel": 9,
		"type": "channel",
		"noteNumber": 42,
		"velocity": 127,
		"subtype": "noteOn",
		"time": 5328,
		"track": 4
	},
	{
		"deltaTime": 0,
		"channel": 2,
		"type": "channel",
		"subtype": "noteOff",
		"noteNumber": 43,
		"velocity": 0,
		"time": 5344,
		"track": 3
	},
	{
		"deltaTime": 8,
		"channel": 9,
		"type": "channel",
		"subtype": "noteOff",
		"noteNumber": 42,
		"velocity": 0,
		"time": 5344,
		"track": 4
	},
	{
		"deltaTime": 16,
		"channel": 9,
		"type": "channel",
		"noteNumber": 42,
		"velocity": 127,
		"subtype": "noteOn",
		"time": 5352,
		"track": 4
	},
	{
		"deltaTime": 8,
		"channel": 9,
		"type": "channel",
		"subtype": "noteOff",
		"noteNumber": 42,
		"velocity": 0,
		"time": 5368,
		"track": 4
	},
	{
		"deltaTime": 0,
		"channel": 0,
		"type": "channel",
		"noteNumber": 72,
		"velocity": 85.33333333333333,
		"subtype": "noteOn",
		"time": 5376,
		"track": 1
	},
	{
		"deltaTime": 0,
		"channel": 1,
		"type": "channel",
		"noteNumber": 68,
		"velocity": 85.33333333333333,
		"subtype": "noteOn",
		"time": 5376,
		"track": 2
	},
	{
		"deltaTime": 0,
		"channel": 2,
		"type": "channel",
		"noteNumber": 44,
		"velocity": 85.33333333333333,
		"subtype": "noteOn",
		"time": 5376,
		"track": 3
	},
	{
		"deltaTime": 16,
		"channel": 9,
		"type": "channel",
		"noteNumber": 42,
		"velocity": 127,
		"subtype": "noteOn",
		"time": 5376,
		"track": 4
	},
	{
		"deltaTime": 0,
		"channel": 0,
		"type": "channel",
		"subtype": "noteOff",
		"noteNumber": 72,
		"velocity": 0,
		"time": 5392,
		"track": 1
	},
	{
		"deltaTime": 0,
		"channel": 1,
		"type": "channel",
		"subtype": "noteOff",
		"noteNumber": 68,
		"velocity": 0,
		"time": 5392,
		"track": 2
	},
	{
		"deltaTime": 8,
		"channel": 2,
		"type": "channel",
		"subtype": "noteOff",
		"noteNumber": 44,
		"velocity": 0,
		"time": 5392,
		"track": 3
	},
	{
		"deltaTime": 0,
		"channel": 0,
		"type": "channel",
		"noteNumber": 72,
		"velocity": 85.33333333333333,
		"subtype": "noteOn",
		"time": 5400,
		"track": 1
	},
	{
		"deltaTime": 8,
		"channel": 1,
		"type": "channel",
		"noteNumber": 68,
		"velocity": 85.33333333333333,
		"subtype": "noteOn",
		"time": 5400,
		"track": 2
	},
	{
		"deltaTime": 8,
		"channel": 9,
		"type": "channel",
		"subtype": "noteOff",
		"noteNumber": 42,
		"velocity": 0,
		"time": 5408,
		"track": 4
	},
	{
		"deltaTime": 0,
		"channel": 0,
		"type": "channel",
		"subtype": "noteOff",
		"noteNumber": 72,
		"velocity": 0,
		"time": 5416,
		"track": 1
	},
	{
		"deltaTime": 8,
		"channel": 1,
		"type": "channel",
		"subtype": "noteOff",
		"noteNumber": 68,
		"velocity": 0,
		"time": 5416,
		"track": 2
	},
	{
		"deltaTime": 16,
		"channel": 9,
		"type": "channel",
		"noteNumber": 42,
		"velocity": 127,
		"subtype": "noteOn",
		"time": 5424,
		"track": 4
	},
	{
		"deltaTime": 8,
		"channel": 9,
		"type": "channel",
		"subtype": "noteOff",
		"noteNumber": 42,
		"velocity": 0,
		"time": 5440,
		"track": 4
	},
	{
		"deltaTime": 0,
		"channel": 0,
		"type": "channel",
		"noteNumber": 72,
		"velocity": 85.33333333333333,
		"subtype": "noteOn",
		"time": 5448,
		"track": 1
	},
	{
		"deltaTime": 0,
		"channel": 1,
		"type": "channel",
		"noteNumber": 68,
		"velocity": 85.33333333333333,
		"subtype": "noteOn",
		"time": 5448,
		"track": 2
	},
	{
		"deltaTime": 0,
		"channel": 2,
		"type": "channel",
		"noteNumber": 51,
		"velocity": 85.33333333333333,
		"subtype": "noteOn",
		"time": 5448,
		"track": 3
	},
	{
		"deltaTime": 16,
		"channel": 9,
		"type": "channel",
		"noteNumber": 42,
		"velocity": 127,
		"subtype": "noteOn",
		"time": 5448,
		"track": 4
	},
	{
		"deltaTime": 0,
		"channel": 0,
		"type": "channel",
		"subtype": "noteOff",
		"noteNumber": 72,
		"velocity": 0,
		"time": 5464,
		"track": 1
	},
	{
		"deltaTime": 0,
		"channel": 1,
		"type": "channel",
		"subtype": "noteOff",
		"noteNumber": 68,
		"velocity": 0,
		"time": 5464,
		"track": 2
	},
	{
		"deltaTime": 16,
		"channel": 2,
		"type": "channel",
		"subtype": "noteOff",
		"noteNumber": 51,
		"velocity": 0,
		"time": 5464,
		"track": 3
	},
	{
		"deltaTime": 16,
		"channel": 9,
		"type": "channel",
		"subtype": "noteOff",
		"noteNumber": 42,
		"velocity": 0,
		"time": 5480,
		"track": 4
	},
	{
		"deltaTime": 0,
		"channel": 0,
		"type": "channel",
		"noteNumber": 72,
		"velocity": 85.33333333333333,
		"subtype": "noteOn",
		"time": 5496,
		"track": 1
	},
	{
		"deltaTime": 0,
		"channel": 1,
		"type": "channel",
		"noteNumber": 68,
		"velocity": 85.33333333333333,
		"subtype": "noteOn",
		"time": 5496,
		"track": 2
	},
	{
		"deltaTime": 16,
		"channel": 9,
		"type": "channel",
		"noteNumber": 42,
		"velocity": 127,
		"subtype": "noteOn",
		"time": 5496,
		"track": 4
	},
	{
		"deltaTime": 0,
		"channel": 0,
		"type": "channel",
		"subtype": "noteOff",
		"noteNumber": 72,
		"velocity": 0,
		"time": 5512,
		"track": 1
	},
	{
		"deltaTime": 0,
		"channel": 1,
		"type": "channel",
		"subtype": "noteOff",
		"noteNumber": 68,
		"velocity": 0,
		"time": 5512,
		"track": 2
	},
	{
		"deltaTime": 8,
		"channel": 9,
		"type": "channel",
		"subtype": "noteOff",
		"noteNumber": 42,
		"velocity": 0,
		"time": 5512,
		"track": 4
	},
	{
		"deltaTime": 0,
		"channel": 0,
		"type": "channel",
		"noteNumber": 74,
		"velocity": 85.33333333333333,
		"subtype": "noteOn",
		"time": 5520,
		"track": 1
	},
	{
		"deltaTime": 0,
		"channel": 1,
		"type": "channel",
		"noteNumber": 70,
		"velocity": 85.33333333333333,
		"subtype": "noteOn",
		"time": 5520,
		"track": 2
	},
	{
		"deltaTime": 0,
		"channel": 2,
		"type": "channel",
		"noteNumber": 56,
		"velocity": 85.33333333333333,
		"subtype": "noteOn",
		"time": 5520,
		"track": 3
	},
	{
		"deltaTime": 16,
		"channel": 9,
		"type": "channel",
		"noteNumber": 42,
		"velocity": 127,
		"subtype": "noteOn",
		"time": 5520,
		"track": 4
	},
	{
		"deltaTime": 0,
		"channel": 0,
		"type": "channel",
		"subtype": "noteOff",
		"noteNumber": 74,
		"velocity": 0,
		"time": 5536,
		"track": 1
	},
	{
		"deltaTime": 0,
		"channel": 1,
		"type": "channel",
		"subtype": "noteOff",
		"noteNumber": 70,
		"velocity": 0,
		"time": 5536,
		"track": 2
	},
	{
		"deltaTime": 8,
		"channel": 2,
		"type": "channel",
		"subtype": "noteOff",
		"noteNumber": 56,
		"velocity": 0,
		"time": 5536,
		"track": 3
	},
	{
		"deltaTime": 0,
		"channel": 0,
		"type": "channel",
		"noteNumber": 76,
		"velocity": 85.33333333333333,
		"subtype": "noteOn",
		"time": 5544,
		"track": 1
	},
	{
		"deltaTime": 8,
		"channel": 1,
		"type": "channel",
		"noteNumber": 67,
		"velocity": 85.33333333333333,
		"subtype": "noteOn",
		"time": 5544,
		"track": 2
	},
	{
		"deltaTime": 8,
		"channel": 9,
		"type": "channel",
		"subtype": "noteOff",
		"noteNumber": 42,
		"velocity": 0,
		"time": 5552,
		"track": 4
	},
	{
		"deltaTime": 0,
		"channel": 0,
		"type": "channel",
		"subtype": "noteOff",
		"noteNumber": 76,
		"velocity": 0,
		"time": 5560,
		"track": 1
	},
	{
		"deltaTime": 8,
		"channel": 1,
		"type": "channel",
		"subtype": "noteOff",
		"noteNumber": 67,
		"velocity": 0,
		"time": 5560,
		"track": 2
	},
	{
		"deltaTime": 0,
		"channel": 2,
		"type": "channel",
		"noteNumber": 55,
		"velocity": 85.33333333333333,
		"subtype": "noteOn",
		"time": 5568,
		"track": 3
	},
	{
		"deltaTime": 16,
		"channel": 9,
		"type": "channel",
		"noteNumber": 42,
		"velocity": 127,
		"subtype": "noteOn",
		"time": 5568,
		"track": 4
	},
	{
		"deltaTime": 16,
		"channel": 2,
		"type": "channel",
		"subtype": "noteOff",
		"noteNumber": 55,
		"velocity": 0,
		"time": 5584,
		"track": 3
	},
	{
		"deltaTime": 40,
		"channel": 9,
		"type": "channel",
		"subtype": "noteOff",
		"noteNumber": 42,
		"velocity": 0,
		"time": 5600,
		"track": 4
	},
	{
		"deltaTime": 0,
		"channel": 2,
		"type": "channel",
		"noteNumber": 48,
		"velocity": 85.33333333333333,
		"subtype": "noteOn",
		"time": 5640,
		"track": 3
	},
	{
		"deltaTime": 16,
		"channel": 9,
		"type": "channel",
		"noteNumber": 42,
		"velocity": 127,
		"subtype": "noteOn",
		"time": 5640,
		"track": 4
	},
	{
		"deltaTime": 16,
		"channel": 2,
		"type": "channel",
		"subtype": "noteOff",
		"noteNumber": 48,
		"velocity": 0,
		"time": 5656,
		"track": 3
	},
	{
		"deltaTime": 16,
		"channel": 9,
		"type": "channel",
		"subtype": "noteOff",
		"noteNumber": 42,
		"velocity": 0,
		"time": 5672,
		"track": 4
	},
	{
		"deltaTime": 16,
		"channel": 9,
		"type": "channel",
		"noteNumber": 42,
		"velocity": 127,
		"subtype": "noteOn",
		"time": 5688,
		"track": 4
	},
	{
		"deltaTime": 8,
		"channel": 9,
		"type": "channel",
		"subtype": "noteOff",
		"noteNumber": 42,
		"velocity": 0,
		"time": 5704,
		"track": 4
	},
	{
		"deltaTime": 0,
		"channel": 2,
		"type": "channel",
		"noteNumber": 43,
		"velocity": 85.33333333333333,
		"subtype": "noteOn",
		"time": 5712,
		"track": 3
	},
	{
		"deltaTime": 16,
		"channel": 9,
		"type": "channel",
		"noteNumber": 42,
		"velocity": 127,
		"subtype": "noteOn",
		"time": 5712,
		"track": 4
	},
	{
		"deltaTime": 0,
		"channel": 2,
		"type": "channel",
		"subtype": "noteOff",
		"noteNumber": 43,
		"velocity": 0,
		"time": 5728,
		"track": 3
	},
	{
		"deltaTime": 8,
		"channel": 9,
		"type": "channel",
		"subtype": "noteOff",
		"noteNumber": 42,
		"velocity": 0,
		"time": 5728,
		"track": 4
	},
	{
		"deltaTime": 16,
		"channel": 9,
		"type": "channel",
		"noteNumber": 42,
		"velocity": 127,
		"subtype": "noteOn",
		"time": 5736,
		"track": 4
	},
	{
		"deltaTime": 8,
		"channel": 9,
		"type": "channel",
		"subtype": "noteOff",
		"noteNumber": 42,
		"velocity": 0,
		"time": 5752,
		"track": 4
	},
	{
		"deltaTime": 0,
		"channel": 0,
		"type": "channel",
		"noteNumber": 72,
		"velocity": 85.33333333333333,
		"subtype": "noteOn",
		"time": 5760,
		"track": 1
	},
	{
		"deltaTime": 0,
		"channel": 1,
		"type": "channel",
		"noteNumber": 68,
		"velocity": 85.33333333333333,
		"subtype": "noteOn",
		"time": 5760,
		"track": 2
	},
	{
		"deltaTime": 0,
		"channel": 2,
		"type": "channel",
		"noteNumber": 44,
		"velocity": 85.33333333333333,
		"subtype": "noteOn",
		"time": 5760,
		"track": 3
	},
	{
		"deltaTime": 16,
		"channel": 9,
		"type": "channel",
		"noteNumber": 42,
		"velocity": 127,
		"subtype": "noteOn",
		"time": 5760,
		"track": 4
	},
	{
		"deltaTime": 0,
		"channel": 0,
		"type": "channel",
		"subtype": "noteOff",
		"noteNumber": 72,
		"velocity": 0,
		"time": 5776,
		"track": 1
	},
	{
		"deltaTime": 0,
		"channel": 1,
		"type": "channel",
		"subtype": "noteOff",
		"noteNumber": 68,
		"velocity": 0,
		"time": 5776,
		"track": 2
	},
	{
		"deltaTime": 8,
		"channel": 2,
		"type": "channel",
		"subtype": "noteOff",
		"noteNumber": 44,
		"velocity": 0,
		"time": 5776,
		"track": 3
	},
	{
		"deltaTime": 0,
		"channel": 0,
		"type": "channel",
		"noteNumber": 72,
		"velocity": 85.33333333333333,
		"subtype": "noteOn",
		"time": 5784,
		"track": 1
	},
	{
		"deltaTime": 8,
		"channel": 1,
		"type": "channel",
		"noteNumber": 68,
		"velocity": 85.33333333333333,
		"subtype": "noteOn",
		"time": 5784,
		"track": 2
	},
	{
		"deltaTime": 8,
		"channel": 9,
		"type": "channel",
		"subtype": "noteOff",
		"noteNumber": 42,
		"velocity": 0,
		"time": 5792,
		"track": 4
	},
	{
		"deltaTime": 0,
		"channel": 0,
		"type": "channel",
		"subtype": "noteOff",
		"noteNumber": 72,
		"velocity": 0,
		"time": 5800,
		"track": 1
	},
	{
		"deltaTime": 8,
		"channel": 1,
		"type": "channel",
		"subtype": "noteOff",
		"noteNumber": 68,
		"velocity": 0,
		"time": 5800,
		"track": 2
	},
	{
		"deltaTime": 16,
		"channel": 9,
		"type": "channel",
		"noteNumber": 42,
		"velocity": 127,
		"subtype": "noteOn",
		"time": 5808,
		"track": 4
	},
	{
		"deltaTime": 8,
		"channel": 9,
		"type": "channel",
		"subtype": "noteOff",
		"noteNumber": 42,
		"velocity": 0,
		"time": 5824,
		"track": 4
	},
	{
		"deltaTime": 0,
		"channel": 0,
		"type": "channel",
		"noteNumber": 72,
		"velocity": 85.33333333333333,
		"subtype": "noteOn",
		"time": 5832,
		"track": 1
	},
	{
		"deltaTime": 0,
		"channel": 1,
		"type": "channel",
		"noteNumber": 68,
		"velocity": 85.33333333333333,
		"subtype": "noteOn",
		"time": 5832,
		"track": 2
	},
	{
		"deltaTime": 0,
		"channel": 2,
		"type": "channel",
		"noteNumber": 51,
		"velocity": 85.33333333333333,
		"subtype": "noteOn",
		"time": 5832,
		"track": 3
	},
	{
		"deltaTime": 16,
		"channel": 9,
		"type": "channel",
		"noteNumber": 42,
		"velocity": 127,
		"subtype": "noteOn",
		"time": 5832,
		"track": 4
	},
	{
		"deltaTime": 0,
		"channel": 0,
		"type": "channel",
		"subtype": "noteOff",
		"noteNumber": 72,
		"velocity": 0,
		"time": 5848,
		"track": 1
	},
	{
		"deltaTime": 0,
		"channel": 1,
		"type": "channel",
		"subtype": "noteOff",
		"noteNumber": 68,
		"velocity": 0,
		"time": 5848,
		"track": 2
	},
	{
		"deltaTime": 16,
		"channel": 2,
		"type": "channel",
		"subtype": "noteOff",
		"noteNumber": 51,
		"velocity": 0,
		"time": 5848,
		"track": 3
	},
	{
		"deltaTime": 16,
		"channel": 9,
		"type": "channel",
		"subtype": "noteOff",
		"noteNumber": 42,
		"velocity": 0,
		"time": 5864,
		"track": 4
	},
	{
		"deltaTime": 0,
		"channel": 0,
		"type": "channel",
		"noteNumber": 72,
		"velocity": 85.33333333333333,
		"subtype": "noteOn",
		"time": 5880,
		"track": 1
	},
	{
		"deltaTime": 0,
		"channel": 1,
		"type": "channel",
		"noteNumber": 68,
		"velocity": 85.33333333333333,
		"subtype": "noteOn",
		"time": 5880,
		"track": 2
	},
	{
		"deltaTime": 16,
		"channel": 9,
		"type": "channel",
		"noteNumber": 42,
		"velocity": 127,
		"subtype": "noteOn",
		"time": 5880,
		"track": 4
	},
	{
		"deltaTime": 0,
		"channel": 0,
		"type": "channel",
		"subtype": "noteOff",
		"noteNumber": 72,
		"velocity": 0,
		"time": 5896,
		"track": 1
	},
	{
		"deltaTime": 0,
		"channel": 1,
		"type": "channel",
		"subtype": "noteOff",
		"noteNumber": 68,
		"velocity": 0,
		"time": 5896,
		"track": 2
	},
	{
		"deltaTime": 8,
		"channel": 9,
		"type": "channel",
		"subtype": "noteOff",
		"noteNumber": 42,
		"velocity": 0,
		"time": 5896,
		"track": 4
	},
	{
		"deltaTime": 0,
		"channel": 0,
		"type": "channel",
		"noteNumber": 74,
		"velocity": 85.33333333333333,
		"subtype": "noteOn",
		"time": 5904,
		"track": 1
	},
	{
		"deltaTime": 0,
		"channel": 1,
		"type": "channel",
		"noteNumber": 70,
		"velocity": 85.33333333333333,
		"subtype": "noteOn",
		"time": 5904,
		"track": 2
	},
	{
		"deltaTime": 0,
		"channel": 2,
		"type": "channel",
		"noteNumber": 56,
		"velocity": 85.33333333333333,
		"subtype": "noteOn",
		"time": 5904,
		"track": 3
	},
	{
		"deltaTime": 16,
		"channel": 9,
		"type": "channel",
		"noteNumber": 42,
		"velocity": 127,
		"subtype": "noteOn",
		"time": 5904,
		"track": 4
	},
	{
		"deltaTime": 0,
		"channel": 0,
		"type": "channel",
		"subtype": "noteOff",
		"noteNumber": 74,
		"velocity": 0,
		"time": 5920,
		"track": 1
	},
	{
		"deltaTime": 0,
		"channel": 1,
		"type": "channel",
		"subtype": "noteOff",
		"noteNumber": 70,
		"velocity": 0,
		"time": 5920,
		"track": 2
	},
	{
		"deltaTime": 16,
		"channel": 2,
		"type": "channel",
		"subtype": "noteOff",
		"noteNumber": 56,
		"velocity": 0,
		"time": 5920,
		"track": 3
	},
	{
		"deltaTime": 16,
		"channel": 9,
		"type": "channel",
		"subtype": "noteOff",
		"noteNumber": 42,
		"velocity": 0,
		"time": 5936,
		"track": 4
	},
	{
		"deltaTime": 0,
		"channel": 0,
		"type": "channel",
		"noteNumber": 76,
		"velocity": 85.33333333333333,
		"subtype": "noteOn",
		"time": 5952,
		"track": 1
	},
	{
		"deltaTime": 0,
		"channel": 1,
		"type": "channel",
		"noteNumber": 67,
		"velocity": 85.33333333333333,
		"subtype": "noteOn",
		"time": 5952,
		"track": 2
	},
	{
		"deltaTime": 0,
		"channel": 2,
		"type": "channel",
		"noteNumber": 55,
		"velocity": 85.33333333333333,
		"subtype": "noteOn",
		"time": 5952,
		"track": 3
	},
	{
		"deltaTime": 16,
		"channel": 9,
		"type": "channel",
		"noteNumber": 42,
		"velocity": 127,
		"subtype": "noteOn",
		"time": 5952,
		"track": 4
	},
	{
		"deltaTime": 0,
		"channel": 0,
		"type": "channel",
		"subtype": "noteOff",
		"noteNumber": 76,
		"velocity": 0,
		"time": 5968,
		"track": 1
	},
	{
		"deltaTime": 0,
		"channel": 1,
		"type": "channel",
		"subtype": "noteOff",
		"noteNumber": 67,
		"velocity": 0,
		"time": 5968,
		"track": 2
	},
	{
		"deltaTime": 8,
		"channel": 2,
		"type": "channel",
		"subtype": "noteOff",
		"noteNumber": 55,
		"velocity": 0,
		"time": 5968,
		"track": 3
	},
	{
		"deltaTime": 0,
		"channel": 0,
		"type": "channel",
		"noteNumber": 72,
		"velocity": 85.33333333333333,
		"subtype": "noteOn",
		"time": 5976,
		"track": 1
	},
	{
		"deltaTime": 8,
		"channel": 1,
		"type": "channel",
		"noteNumber": 64,
		"velocity": 85.33333333333333,
		"subtype": "noteOn",
		"time": 5976,
		"track": 2
	},
	{
		"deltaTime": 8,
		"channel": 9,
		"type": "channel",
		"subtype": "noteOff",
		"noteNumber": 42,
		"velocity": 0,
		"time": 5984,
		"track": 4
	},
	{
		"deltaTime": 0,
		"channel": 0,
		"type": "channel",
		"subtype": "noteOff",
		"noteNumber": 72,
		"velocity": 0,
		"time": 5992,
		"track": 1
	},
	{
		"deltaTime": 32,
		"channel": 1,
		"type": "channel",
		"subtype": "noteOff",
		"noteNumber": 64,
		"velocity": 0,
		"time": 5992,
		"track": 2
	},
	{
		"deltaTime": 0,
		"channel": 0,
		"type": "channel",
		"noteNumber": 69,
		"velocity": 85.33333333333333,
		"subtype": "noteOn",
		"time": 6024,
		"track": 1
	},
	{
		"deltaTime": 0,
		"channel": 1,
		"type": "channel",
		"noteNumber": 64,
		"velocity": 85.33333333333333,
		"subtype": "noteOn",
		"time": 6024,
		"track": 2
	},
	{
		"deltaTime": 0,
		"channel": 2,
		"type": "channel",
		"noteNumber": 48,
		"velocity": 85.33333333333333,
		"subtype": "noteOn",
		"time": 6024,
		"track": 3
	},
	{
		"deltaTime": 16,
		"channel": 9,
		"type": "channel",
		"noteNumber": 42,
		"velocity": 127,
		"subtype": "noteOn",
		"time": 6024,
		"track": 4
	},
	{
		"deltaTime": 0,
		"channel": 0,
		"type": "channel",
		"subtype": "noteOff",
		"noteNumber": 69,
		"velocity": 0,
		"time": 6040,
		"track": 1
	},
	{
		"deltaTime": 0,
		"channel": 1,
		"type": "channel",
		"subtype": "noteOff",
		"noteNumber": 64,
		"velocity": 0,
		"time": 6040,
		"track": 2
	},
	{
		"deltaTime": 8,
		"channel": 2,
		"type": "channel",
		"subtype": "noteOff",
		"noteNumber": 48,
		"velocity": 0,
		"time": 6040,
		"track": 3
	},
	{
		"deltaTime": 0,
		"channel": 0,
		"type": "channel",
		"noteNumber": 67,
		"velocity": 85.33333333333333,
		"subtype": "noteOn",
		"time": 6048,
		"track": 1
	},
	{
		"deltaTime": 8,
		"channel": 1,
		"type": "channel",
		"noteNumber": 60,
		"velocity": 85.33333333333333,
		"subtype": "noteOn",
		"time": 6048,
		"track": 2
	},
	{
		"deltaTime": 8,
		"channel": 9,
		"type": "channel",
		"subtype": "noteOff",
		"noteNumber": 42,
		"velocity": 0,
		"time": 6056,
		"track": 4
	},
	{
		"deltaTime": 0,
		"channel": 0,
		"type": "channel",
		"subtype": "noteOff",
		"noteNumber": 67,
		"velocity": 0,
		"time": 6064,
		"track": 1
	},
	{
		"deltaTime": 8,
		"channel": 1,
		"type": "channel",
		"subtype": "noteOff",
		"noteNumber": 60,
		"velocity": 0,
		"time": 6064,
		"track": 2
	},
	{
		"deltaTime": 16,
		"channel": 9,
		"type": "channel",
		"noteNumber": 42,
		"velocity": 127,
		"subtype": "noteOn",
		"time": 6072,
		"track": 4
	},
	{
		"deltaTime": 8,
		"channel": 9,
		"type": "channel",
		"subtype": "noteOff",
		"noteNumber": 42,
		"velocity": 0,
		"time": 6088,
		"track": 4
	},
	{
		"deltaTime": 0,
		"channel": 2,
		"type": "channel",
		"noteNumber": 43,
		"velocity": 85.33333333333333,
		"subtype": "noteOn",
		"time": 6096,
		"track": 3
	},
	{
		"deltaTime": 16,
		"channel": 9,
		"type": "channel",
		"noteNumber": 42,
		"velocity": 127,
		"subtype": "noteOn",
		"time": 6096,
		"track": 4
	},
	{
		"deltaTime": 0,
		"channel": 2,
		"type": "channel",
		"subtype": "noteOff",
		"noteNumber": 43,
		"velocity": 0,
		"time": 6112,
		"track": 3
	},
	{
		"deltaTime": 8,
		"channel": 9,
		"type": "channel",
		"subtype": "noteOff",
		"noteNumber": 42,
		"velocity": 0,
		"time": 6112,
		"track": 4
	},
	{
		"deltaTime": 16,
		"channel": 9,
		"type": "channel",
		"noteNumber": 42,
		"velocity": 127,
		"subtype": "noteOn",
		"time": 6120,
		"track": 4
	},
	{
		"deltaTime": 8,
		"channel": 9,
		"type": "channel",
		"subtype": "noteOff",
		"noteNumber": 42,
		"velocity": 0,
		"time": 6136,
		"track": 4
	},
	{
		"deltaTime": 0,
		"channel": 0,
		"type": "channel",
		"noteNumber": 76,
		"velocity": 85.33333333333333,
		"subtype": "noteOn",
		"time": 6144,
		"track": 1
	},
	{
		"deltaTime": 0,
		"channel": 1,
		"type": "channel",
		"noteNumber": 66,
		"velocity": 85.33333333333333,
		"subtype": "noteOn",
		"time": 6144,
		"track": 2
	},
	{
		"deltaTime": 0,
		"channel": 2,
		"type": "channel",
		"noteNumber": 50,
		"velocity": 85.33333333333333,
		"subtype": "noteOn",
		"time": 6144,
		"track": 3
	},
	{
		"deltaTime": 16,
		"channel": 9,
		"type": "channel",
		"noteNumber": 42,
		"velocity": 127,
		"subtype": "noteOn",
		"time": 6144,
		"track": 4
	},
	{
		"deltaTime": 0,
		"channel": 0,
		"type": "channel",
		"subtype": "noteOff",
		"noteNumber": 76,
		"velocity": 0,
		"time": 6160,
		"track": 1
	},
	{
		"deltaTime": 0,
		"channel": 1,
		"type": "channel",
		"subtype": "noteOff",
		"noteNumber": 66,
		"velocity": 0,
		"time": 6160,
		"track": 2
	},
	{
		"deltaTime": 8,
		"channel": 2,
		"type": "channel",
		"subtype": "noteOff",
		"noteNumber": 50,
		"velocity": 0,
		"time": 6160,
		"track": 3
	},
	{
		"deltaTime": 0,
		"channel": 0,
		"type": "channel",
		"noteNumber": 76,
		"velocity": 85.33333333333333,
		"subtype": "noteOn",
		"time": 6168,
		"track": 1
	},
	{
		"deltaTime": 0,
		"channel": 1,
		"type": "channel",
		"noteNumber": 66,
		"velocity": 85.33333333333333,
		"subtype": "noteOn",
		"time": 6168,
		"track": 2
	},
	{
		"deltaTime": 8,
		"channel": 2,
		"type": "channel",
		"noteNumber": 50,
		"velocity": 85.33333333333333,
		"subtype": "noteOn",
		"time": 6168,
		"track": 3
	},
	{
		"deltaTime": 8,
		"channel": 9,
		"type": "channel",
		"subtype": "noteOff",
		"noteNumber": 42,
		"velocity": 0,
		"time": 6176,
		"track": 4
	},
	{
		"deltaTime": 0,
		"channel": 0,
		"type": "channel",
		"subtype": "noteOff",
		"noteNumber": 76,
		"velocity": 0,
		"time": 6184,
		"track": 1
	},
	{
		"deltaTime": 0,
		"channel": 1,
		"type": "channel",
		"subtype": "noteOff",
		"noteNumber": 66,
		"velocity": 0,
		"time": 6184,
		"track": 2
	},
	{
		"deltaTime": 8,
		"channel": 2,
		"type": "channel",
		"subtype": "noteOff",
		"noteNumber": 50,
		"velocity": 0,
		"time": 6184,
		"track": 3
	},
	{
		"deltaTime": 16,
		"channel": 9,
		"type": "channel",
		"noteNumber": 42,
		"velocity": 127,
		"subtype": "noteOn",
		"time": 6192,
		"track": 4
	},
	{
		"deltaTime": 8,
		"channel": 9,
		"type": "channel",
		"subtype": "noteOff",
		"noteNumber": 42,
		"velocity": 0,
		"time": 6208,
		"track": 4
	},
	{
		"deltaTime": 0,
		"channel": 0,
		"type": "channel",
		"noteNumber": 76,
		"velocity": 85.33333333333333,
		"subtype": "noteOn",
		"time": 6216,
		"track": 1
	},
	{
		"deltaTime": 0,
		"channel": 1,
		"type": "channel",
		"noteNumber": 66,
		"velocity": 85.33333333333333,
		"subtype": "noteOn",
		"time": 6216,
		"track": 2
	},
	{
		"deltaTime": 0,
		"channel": 2,
		"type": "channel",
		"noteNumber": 50,
		"velocity": 85.33333333333333,
		"subtype": "noteOn",
		"time": 6216,
		"track": 3
	},
	{
		"deltaTime": 16,
		"channel": 9,
		"type": "channel",
		"noteNumber": 42,
		"velocity": 127,
		"subtype": "noteOn",
		"time": 6216,
		"track": 4
	},
	{
		"deltaTime": 0,
		"channel": 0,
		"type": "channel",
		"subtype": "noteOff",
		"noteNumber": 76,
		"velocity": 0,
		"time": 6232,
		"track": 1
	},
	{
		"deltaTime": 0,
		"channel": 1,
		"type": "channel",
		"subtype": "noteOff",
		"noteNumber": 66,
		"velocity": 0,
		"time": 6232,
		"track": 2
	},
	{
		"deltaTime": 16,
		"channel": 2,
		"type": "channel",
		"subtype": "noteOff",
		"noteNumber": 50,
		"velocity": 0,
		"time": 6232,
		"track": 3
	},
	{
		"deltaTime": 16,
		"channel": 9,
		"type": "channel",
		"subtype": "noteOff",
		"noteNumber": 42,
		"velocity": 0,
		"time": 6248,
		"track": 4
	},
	{
		"deltaTime": 0,
		"channel": 0,
		"type": "channel",
		"noteNumber": 72,
		"velocity": 85.33333333333333,
		"subtype": "noteOn",
		"time": 6264,
		"track": 1
	},
	{
		"deltaTime": 0,
		"channel": 1,
		"type": "channel",
		"noteNumber": 66,
		"velocity": 85.33333333333333,
		"subtype": "noteOn",
		"time": 6264,
		"track": 2
	},
	{
		"deltaTime": 0,
		"channel": 2,
		"type": "channel",
		"noteNumber": 50,
		"velocity": 85.33333333333333,
		"subtype": "noteOn",
		"time": 6264,
		"track": 3
	},
	{
		"deltaTime": 16,
		"channel": 9,
		"type": "channel",
		"noteNumber": 42,
		"velocity": 127,
		"subtype": "noteOn",
		"time": 6264,
		"track": 4
	},
	{
		"deltaTime": 0,
		"channel": 0,
		"type": "channel",
		"subtype": "noteOff",
		"noteNumber": 72,
		"velocity": 0,
		"time": 6280,
		"track": 1
	},
	{
		"deltaTime": 0,
		"channel": 1,
		"type": "channel",
		"subtype": "noteOff",
		"noteNumber": 66,
		"velocity": 0,
		"time": 6280,
		"track": 2
	},
	{
		"deltaTime": 0,
		"channel": 2,
		"type": "channel",
		"subtype": "noteOff",
		"noteNumber": 50,
		"velocity": 0,
		"time": 6280,
		"track": 3
	},
	{
		"deltaTime": 8,
		"channel": 9,
		"type": "channel",
		"subtype": "noteOff",
		"noteNumber": 42,
		"velocity": 0,
		"time": 6280,
		"track": 4
	},
	{
		"deltaTime": 0,
		"channel": 0,
		"type": "channel",
		"noteNumber": 76,
		"velocity": 85.33333333333333,
		"subtype": "noteOn",
		"time": 6288,
		"track": 1
	},
	{
		"deltaTime": 0,
		"channel": 1,
		"type": "channel",
		"noteNumber": 66,
		"velocity": 85.33333333333333,
		"subtype": "noteOn",
		"time": 6288,
		"track": 2
	},
	{
		"deltaTime": 0,
		"channel": 2,
		"type": "channel",
		"noteNumber": 50,
		"velocity": 85.33333333333333,
		"subtype": "noteOn",
		"time": 6288,
		"track": 3
	},
	{
		"deltaTime": 16,
		"channel": 9,
		"type": "channel",
		"noteNumber": 42,
		"velocity": 127,
		"subtype": "noteOn",
		"time": 6288,
		"track": 4
	},
	{
		"deltaTime": 0,
		"channel": 0,
		"type": "channel",
		"subtype": "noteOff",
		"noteNumber": 76,
		"velocity": 0,
		"time": 6304,
		"track": 1
	},
	{
		"deltaTime": 0,
		"channel": 1,
		"type": "channel",
		"subtype": "noteOff",
		"noteNumber": 66,
		"velocity": 0,
		"time": 6304,
		"track": 2
	},
	{
		"deltaTime": 16,
		"channel": 2,
		"type": "channel",
		"subtype": "noteOff",
		"noteNumber": 50,
		"velocity": 0,
		"time": 6304,
		"track": 3
	},
	{
		"deltaTime": 16,
		"channel": 9,
		"type": "channel",
		"subtype": "noteOff",
		"noteNumber": 42,
		"velocity": 0,
		"time": 6320,
		"track": 4
	},
	{
		"deltaTime": 0,
		"channel": 0,
		"type": "channel",
		"noteNumber": 79,
		"velocity": 85.33333333333333,
		"subtype": "noteOn",
		"time": 6336,
		"track": 1
	},
	{
		"deltaTime": 0,
		"channel": 1,
		"type": "channel",
		"noteNumber": 71,
		"velocity": 85.33333333333333,
		"subtype": "noteOn",
		"time": 6336,
		"track": 2
	},
	{
		"deltaTime": 0,
		"channel": 2,
		"type": "channel",
		"noteNumber": 67,
		"velocity": 85.33333333333333,
		"subtype": "noteOn",
		"time": 6336,
		"track": 3
	},
	{
		"deltaTime": 16,
		"channel": 9,
		"type": "channel",
		"noteNumber": 42,
		"velocity": 127,
		"subtype": "noteOn",
		"time": 6336,
		"track": 4
	},
	{
		"deltaTime": 0,
		"channel": 0,
		"type": "channel",
		"subtype": "noteOff",
		"noteNumber": 79,
		"velocity": 0,
		"time": 6352,
		"track": 1
	},
	{
		"deltaTime": 0,
		"channel": 1,
		"type": "channel",
		"subtype": "noteOff",
		"noteNumber": 71,
		"velocity": 0,
		"time": 6352,
		"track": 2
	},
	{
		"deltaTime": 16,
		"channel": 2,
		"type": "channel",
		"subtype": "noteOff",
		"noteNumber": 67,
		"velocity": 0,
		"time": 6352,
		"track": 3
	},
	{
		"deltaTime": 40,
		"channel": 9,
		"type": "channel",
		"subtype": "noteOff",
		"noteNumber": 42,
		"velocity": 0,
		"time": 6368,
		"track": 4
	},
	{
		"deltaTime": 24,
		"channel": 9,
		"type": "channel",
		"noteNumber": 42,
		"velocity": 127,
		"subtype": "noteOn",
		"time": 6408,
		"track": 4
	},
	{
		"deltaTime": 0,
		"channel": 1,
		"type": "channel",
		"noteNumber": 67,
		"velocity": 85.33333333333333,
		"subtype": "noteOn",
		"time": 6432,
		"track": 2
	},
	{
		"deltaTime": 8,
		"channel": 2,
		"type": "channel",
		"noteNumber": 55,
		"velocity": 85.33333333333333,
		"subtype": "noteOn",
		"time": 6432,
		"track": 3
	},
	{
		"deltaTime": 8,
		"channel": 9,
		"type": "channel",
		"subtype": "noteOff",
		"noteNumber": 42,
		"velocity": 0,
		"time": 6440,
		"track": 4
	},
	{
		"deltaTime": 0,
		"channel": 1,
		"type": "channel",
		"subtype": "noteOff",
		"noteNumber": 67,
		"velocity": 0,
		"time": 6448,
		"track": 2
	},
	{
		"deltaTime": 8,
		"channel": 2,
		"type": "channel",
		"subtype": "noteOff",
		"noteNumber": 55,
		"velocity": 0,
		"time": 6448,
		"track": 3
	},
	{
		"deltaTime": 16,
		"channel": 9,
		"type": "channel",
		"noteNumber": 42,
		"velocity": 127,
		"subtype": "noteOn",
		"time": 6456,
		"track": 4
	},
	{
		"deltaTime": 8,
		"channel": 9,
		"type": "channel",
		"subtype": "noteOff",
		"noteNumber": 42,
		"velocity": 0,
		"time": 6472,
		"track": 4
	},
	{
		"deltaTime": 16,
		"channel": 9,
		"type": "channel",
		"noteNumber": 42,
		"velocity": 127,
		"subtype": "noteOn",
		"time": 6480,
		"track": 4
	},
	{
		"deltaTime": 8,
		"channel": 9,
		"type": "channel",
		"subtype": "noteOff",
		"noteNumber": 42,
		"velocity": 0,
		"time": 6496,
		"track": 4
	},
	{
		"deltaTime": 16,
		"channel": 9,
		"type": "channel",
		"noteNumber": 42,
		"velocity": 127,
		"subtype": "noteOn",
		"time": 6504,
		"track": 4
	},
	{
		"deltaTime": 8,
		"channel": 9,
		"type": "channel",
		"subtype": "noteOff",
		"noteNumber": 42,
		"velocity": 0,
		"time": 6520,
		"track": 4
	},
	{
		"deltaTime": 0,
		"channel": 0,
		"type": "channel",
		"noteNumber": 72,
		"velocity": 85.33333333333333,
		"subtype": "noteOn",
		"time": 6528,
		"track": 1
	},
	{
		"deltaTime": 0,
		"channel": 1,
		"type": "channel",
		"noteNumber": 64,
		"velocity": 85.33333333333333,
		"subtype": "noteOn",
		"time": 6528,
		"track": 2
	},
	{
		"deltaTime": 0,
		"channel": 2,
		"type": "channel",
		"noteNumber": 55,
		"velocity": 85.33333333333333,
		"subtype": "noteOn",
		"time": 6528,
		"track": 3
	},
	{
		"deltaTime": 16,
		"channel": 9,
		"type": "channel",
		"noteNumber": 42,
		"velocity": 127,
		"subtype": "noteOn",
		"time": 6528,
		"track": 4
	},
	{
		"deltaTime": 0,
		"channel": 0,
		"type": "channel",
		"subtype": "noteOff",
		"noteNumber": 72,
		"velocity": 0,
		"time": 6544,
		"track": 1
	},
	{
		"deltaTime": 0,
		"channel": 1,
		"type": "channel",
		"subtype": "noteOff",
		"noteNumber": 64,
		"velocity": 0,
		"time": 6544,
		"track": 2
	},
	{
		"deltaTime": 0,
		"channel": 2,
		"type": "channel",
		"subtype": "noteOff",
		"noteNumber": 55,
		"velocity": 0,
		"time": 6544,
		"track": 3
	},
	{
		"deltaTime": 32,
		"channel": 9,
		"type": "channel",
		"subtype": "noteOff",
		"noteNumber": 42,
		"velocity": 0,
		"time": 6544,
		"track": 4
	},
	{
		"deltaTime": 16,
		"channel": 9,
		"type": "channel",
		"noteNumber": 42,
		"velocity": 127,
		"subtype": "noteOn",
		"time": 6576,
		"track": 4
	},
	{
		"deltaTime": 8,
		"channel": 9,
		"type": "channel",
		"subtype": "noteOff",
		"noteNumber": 42,
		"velocity": 0,
		"time": 6592,
		"track": 4
	},
	{
		"deltaTime": 0,
		"channel": 0,
		"type": "channel",
		"noteNumber": 67,
		"velocity": 85.33333333333333,
		"subtype": "noteOn",
		"time": 6600,
		"track": 1
	},
	{
		"deltaTime": 0,
		"channel": 1,
		"type": "channel",
		"noteNumber": 60,
		"velocity": 85.33333333333333,
		"subtype": "noteOn",
		"time": 6600,
		"track": 2
	},
	{
		"deltaTime": 8,
		"channel": 2,
		"type": "channel",
		"noteNumber": 52,
		"velocity": 85.33333333333333,
		"subtype": "noteOn",
		"time": 6600,
		"track": 3
	},
	{
		"deltaTime": 8,
		"channel": 9,
		"type": "channel",
		"noteNumber": 42,
		"velocity": 127,
		"subtype": "noteOn",
		"time": 6608,
		"track": 4
	},
	{
		"deltaTime": 0,
		"channel": 0,
		"type": "channel",
		"subtype": "noteOff",
		"noteNumber": 67,
		"velocity": 0,
		"time": 6616,
		"track": 1
	},
	{
		"deltaTime": 0,
		"channel": 1,
		"type": "channel",
		"subtype": "noteOff",
		"noteNumber": 60,
		"velocity": 0,
		"time": 6616,
		"track": 2
	},
	{
		"deltaTime": 8,
		"channel": 2,
		"type": "channel",
		"subtype": "noteOff",
		"noteNumber": 52,
		"velocity": 0,
		"time": 6616,
		"track": 3
	},
	{
		"deltaTime": 0,
		"channel": 9,
		"type": "channel",
		"subtype": "noteOff",
		"noteNumber": 42,
		"velocity": 0,
		"time": 6624,
		"track": 4
	},
	{
		"deltaTime": 32,
		"channel": 9,
		"type": "channel",
		"noteNumber": 42,
		"velocity": 127,
		"subtype": "noteOn",
		"time": 6624,
		"track": 4
	},
	{
		"deltaTime": 16,
		"channel": 9,
		"type": "channel",
		"subtype": "noteOff",
		"noteNumber": 42,
		"velocity": 0,
		"time": 6656,
		"track": 4
	},
	{
		"deltaTime": 0,
		"channel": 0,
		"type": "channel",
		"noteNumber": 64,
		"velocity": 85.33333333333333,
		"subtype": "noteOn",
		"time": 6672,
		"track": 1
	},
	{
		"deltaTime": 0,
		"channel": 1,
		"type": "channel",
		"noteNumber": 55,
		"velocity": 85.33333333333333,
		"subtype": "noteOn",
		"time": 6672,
		"track": 2
	},
	{
		"deltaTime": 0,
		"channel": 2,
		"type": "channel",
		"noteNumber": 48,
		"velocity": 85.33333333333333,
		"subtype": "noteOn",
		"time": 6672,
		"track": 3
	},
	{
		"deltaTime": 16,
		"channel": 9,
		"type": "channel",
		"noteNumber": 42,
		"velocity": 127,
		"subtype": "noteOn",
		"time": 6672,
		"track": 4
	},
	{
		"deltaTime": 0,
		"channel": 0,
		"type": "channel",
		"subtype": "noteOff",
		"noteNumber": 64,
		"velocity": 0,
		"time": 6688,
		"track": 1
	},
	{
		"deltaTime": 0,
		"channel": 1,
		"type": "channel",
		"subtype": "noteOff",
		"noteNumber": 55,
		"velocity": 0,
		"time": 6688,
		"track": 2
	},
	{
		"deltaTime": 0,
		"channel": 2,
		"type": "channel",
		"subtype": "noteOff",
		"noteNumber": 48,
		"velocity": 0,
		"time": 6688,
		"track": 3
	},
	{
		"deltaTime": 16,
		"channel": 9,
		"type": "channel",
		"subtype": "noteOff",
		"noteNumber": 42,
		"velocity": 0,
		"time": 6688,
		"track": 4
	},
	{
		"deltaTime": 16,
		"channel": 9,
		"type": "channel",
		"noteNumber": 42,
		"velocity": 127,
		"subtype": "noteOn",
		"time": 6704,
		"track": 4
	},
	{
		"deltaTime": 0,
		"channel": 9,
		"type": "channel",
		"subtype": "noteOff",
		"noteNumber": 42,
		"velocity": 0,
		"time": 6720,
		"track": 4
	},
	{
		"deltaTime": 16,
		"channel": 9,
		"type": "channel",
		"noteNumber": 42,
		"velocity": 127,
		"subtype": "noteOn",
		"time": 6720,
		"track": 4
	},
	{
		"deltaTime": 8,
		"channel": 9,
		"type": "channel",
		"subtype": "noteOff",
		"noteNumber": 42,
		"velocity": 0,
		"time": 6736,
		"track": 4
	},
	{
		"deltaTime": 0,
		"channel": 0,
		"type": "channel",
		"noteNumber": 69,
		"velocity": 85.33333333333333,
		"subtype": "noteOn",
		"time": 6744,
		"track": 1
	},
	{
		"deltaTime": 0,
		"channel": 1,
		"type": "channel",
		"noteNumber": 60,
		"velocity": 85.33333333333333,
		"subtype": "noteOn",
		"time": 6744,
		"track": 2
	},
	{
		"deltaTime": 16,
		"channel": 2,
		"type": "channel",
		"noteNumber": 53,
		"velocity": 85.33333333333333,
		"subtype": "noteOn",
		"time": 6744,
		"track": 3
	},
	{
		"deltaTime": 0,
		"channel": 0,
		"type": "channel",
		"subtype": "noteOff",
		"noteNumber": 69,
		"velocity": 0,
		"time": 6760,
		"track": 1
	},
	{
		"deltaTime": 0,
		"channel": 1,
		"type": "channel",
		"subtype": "noteOff",
		"noteNumber": 60,
		"velocity": 0,
		"time": 6760,
		"track": 2
	},
	{
		"deltaTime": 8,
		"channel": 2,
		"type": "channel",
		"subtype": "noteOff",
		"noteNumber": 53,
		"velocity": 0,
		"time": 6760,
		"track": 3
	},
	{
		"deltaTime": 16,
		"channel": 9,
		"type": "channel",
		"noteNumber": 42,
		"velocity": 127,
		"subtype": "noteOn",
		"time": 6768,
		"track": 4
	},
	{
		"deltaTime": 8,
		"channel": 9,
		"type": "channel",
		"subtype": "noteOff",
		"noteNumber": 42,
		"velocity": 0,
		"time": 6784,
		"track": 4
	},
	{
		"deltaTime": 0,
		"channel": 0,
		"type": "channel",
		"noteNumber": 71,
		"velocity": 85.33333333333333,
		"subtype": "noteOn",
		"time": 6792,
		"track": 1
	},
	{
		"deltaTime": 0,
		"channel": 1,
		"type": "channel",
		"noteNumber": 62,
		"velocity": 85.33333333333333,
		"subtype": "noteOn",
		"time": 6792,
		"track": 2
	},
	{
		"deltaTime": 8,
		"channel": 2,
		"type": "channel",
		"noteNumber": 55,
		"velocity": 85.33333333333333,
		"subtype": "noteOn",
		"time": 6792,
		"track": 3
	},
	{
		"deltaTime": 8,
		"channel": 9,
		"type": "channel",
		"noteNumber": 42,
		"velocity": 127,
		"subtype": "noteOn",
		"time": 6800,
		"track": 4
	},
	{
		"deltaTime": 0,
		"channel": 0,
		"type": "channel",
		"subtype": "noteOff",
		"noteNumber": 71,
		"velocity": 0,
		"time": 6808,
		"track": 1
	},
	{
		"deltaTime": 0,
		"channel": 1,
		"type": "channel",
		"subtype": "noteOff",
		"noteNumber": 62,
		"velocity": 0,
		"time": 6808,
		"track": 2
	},
	{
		"deltaTime": 8,
		"channel": 2,
		"type": "channel",
		"subtype": "noteOff",
		"noteNumber": 55,
		"velocity": 0,
		"time": 6808,
		"track": 3
	},
	{
		"deltaTime": 0,
		"channel": 9,
		"type": "channel",
		"subtype": "noteOff",
		"noteNumber": 42,
		"velocity": 0,
		"time": 6816,
		"track": 4
	},
	{
		"deltaTime": 24,
		"channel": 9,
		"type": "channel",
		"noteNumber": 42,
		"velocity": 127,
		"subtype": "noteOn",
		"time": 6816,
		"track": 4
	},
	{
		"deltaTime": 0,
		"channel": 0,
		"type": "channel",
		"noteNumber": 70,
		"velocity": 85.33333333333333,
		"subtype": "noteOn",
		"time": 6840,
		"track": 1
	},
	{
		"deltaTime": 0,
		"channel": 1,
		"type": "channel",
		"noteNumber": 61,
		"velocity": 85.33333333333333,
		"subtype": "noteOn",
		"time": 6840,
		"track": 2
	},
	{
		"deltaTime": 8,
		"channel": 2,
		"type": "channel",
		"noteNumber": 54,
		"velocity": 85.33333333333333,
		"subtype": "noteOn",
		"time": 6840,
		"track": 3
	},
	{
		"deltaTime": 8,
		"channel": 9,
		"type": "channel",
		"subtype": "noteOff",
		"noteNumber": 42,
		"velocity": 0,
		"time": 6848,
		"track": 4
	},
	{
		"deltaTime": 0,
		"channel": 0,
		"type": "channel",
		"subtype": "noteOff",
		"noteNumber": 70,
		"velocity": 0,
		"time": 6856,
		"track": 1
	},
	{
		"deltaTime": 0,
		"channel": 1,
		"type": "channel",
		"subtype": "noteOff",
		"noteNumber": 61,
		"velocity": 0,
		"time": 6856,
		"track": 2
	},
	{
		"deltaTime": 8,
		"channel": 2,
		"type": "channel",
		"subtype": "noteOff",
		"noteNumber": 54,
		"velocity": 0,
		"time": 6856,
		"track": 3
	},
	{
		"deltaTime": 0,
		"channel": 0,
		"type": "channel",
		"noteNumber": 69,
		"velocity": 85.33333333333333,
		"subtype": "noteOn",
		"time": 6864,
		"track": 1
	},
	{
		"deltaTime": 0,
		"channel": 1,
		"type": "channel",
		"noteNumber": 60,
		"velocity": 85.33333333333333,
		"subtype": "noteOn",
		"time": 6864,
		"track": 2
	},
	{
		"deltaTime": 0,
		"channel": 2,
		"type": "channel",
		"noteNumber": 53,
		"velocity": 85.33333333333333,
		"subtype": "noteOn",
		"time": 6864,
		"track": 3
	},
	{
		"deltaTime": 16,
		"channel": 9,
		"type": "channel",
		"noteNumber": 42,
		"velocity": 127,
		"subtype": "noteOn",
		"time": 6864,
		"track": 4
	},
	{
		"deltaTime": 0,
		"channel": 0,
		"type": "channel",
		"subtype": "noteOff",
		"noteNumber": 69,
		"velocity": 0,
		"time": 6880,
		"track": 1
	},
	{
		"deltaTime": 0,
		"channel": 1,
		"type": "channel",
		"subtype": "noteOff",
		"noteNumber": 60,
		"velocity": 0,
		"time": 6880,
		"track": 2
	},
	{
		"deltaTime": 0,
		"channel": 2,
		"type": "channel",
		"subtype": "noteOff",
		"noteNumber": 53,
		"velocity": 0,
		"time": 6880,
		"track": 3
	},
	{
		"deltaTime": 16,
		"channel": 9,
		"type": "channel",
		"subtype": "noteOff",
		"noteNumber": 42,
		"velocity": 0,
		"time": 6880,
		"track": 4
	},
	{
		"deltaTime": 16,
		"channel": 9,
		"type": "channel",
		"noteNumber": 42,
		"velocity": 127,
		"subtype": "noteOn",
		"time": 6896,
		"track": 4
	},
	{
		"deltaTime": 0,
		"channel": 0,
		"type": "channel",
		"noteNumber": 67,
		"velocity": 85.33333333333333,
		"subtype": "noteOn",
		"time": 6912,
		"track": 1
	},
	{
		"deltaTime": 0,
		"channel": 1,
		"type": "channel",
		"noteNumber": 60,
		"velocity": 85.33333333333333,
		"subtype": "noteOn",
		"time": 6912,
		"track": 2
	},
	{
		"deltaTime": 0,
		"channel": 2,
		"type": "channel",
		"noteNumber": 52,
		"velocity": 85.33333333333333,
		"subtype": "noteOn",
		"time": 6912,
		"track": 3
	},
	{
		"deltaTime": 0,
		"channel": 9,
		"type": "channel",
		"subtype": "noteOff",
		"noteNumber": 42,
		"velocity": 0,
		"time": 6912,
		"track": 4
	},
	{
		"deltaTime": 16,
		"channel": 9,
		"type": "channel",
		"noteNumber": 42,
		"velocity": 127,
		"subtype": "noteOn",
		"time": 6912,
		"track": 4
	},
	{
		"deltaTime": 0,
		"channel": 0,
		"type": "channel",
		"subtype": "noteOff",
		"noteNumber": 67,
		"velocity": 0,
		"time": 6928,
		"track": 1
	},
	{
		"deltaTime": 0,
		"channel": 1,
		"type": "channel",
		"subtype": "noteOff",
		"noteNumber": 60,
		"velocity": 0,
		"time": 6928,
		"track": 2
	},
	{
		"deltaTime": 0,
		"channel": 2,
		"type": "channel",
		"subtype": "noteOff",
		"noteNumber": 52,
		"velocity": 0,
		"time": 6928,
		"track": 3
	},
	{
		"deltaTime": 16,
		"channel": 9,
		"type": "channel",
		"subtype": "noteOff",
		"noteNumber": 42,
		"velocity": 0,
		"time": 6928,
		"track": 4
	},
	{
		"deltaTime": 0,
		"channel": 0,
		"type": "channel",
		"noteNumber": 76,
		"velocity": 85.33333333333333,
		"subtype": "noteOn",
		"time": 6944,
		"track": 1
	},
	{
		"deltaTime": 0,
		"channel": 1,
		"type": "channel",
		"noteNumber": 67,
		"velocity": 85.33333333333333,
		"subtype": "noteOn",
		"time": 6944,
		"track": 2
	},
	{
		"deltaTime": 16,
		"channel": 2,
		"type": "channel",
		"noteNumber": 60,
		"velocity": 85.33333333333333,
		"subtype": "noteOn",
		"time": 6944,
		"track": 3
	},
	{
		"deltaTime": 0,
		"channel": 0,
		"type": "channel",
		"subtype": "noteOff",
		"noteNumber": 76,
		"velocity": 0,
		"time": 6960,
		"track": 1
	},
	{
		"deltaTime": 0,
		"channel": 1,
		"type": "channel",
		"subtype": "noteOff",
		"noteNumber": 67,
		"velocity": 0,
		"time": 6960,
		"track": 2
	},
	{
		"deltaTime": 0,
		"channel": 2,
		"type": "channel",
		"subtype": "noteOff",
		"noteNumber": 60,
		"velocity": 0,
		"time": 6960,
		"track": 3
	},
	{
		"deltaTime": 16,
		"channel": 9,
		"type": "channel",
		"noteNumber": 42,
		"velocity": 127,
		"subtype": "noteOn",
		"time": 6960,
		"track": 4
	},
	{
		"deltaTime": 0,
		"channel": 0,
		"type": "channel",
		"noteNumber": 79,
		"velocity": 85.33333333333333,
		"subtype": "noteOn",
		"time": 6976,
		"track": 1
	},
	{
		"deltaTime": 0,
		"channel": 1,
		"type": "channel",
		"noteNumber": 71,
		"velocity": 85.33333333333333,
		"subtype": "noteOn",
		"time": 6976,
		"track": 2
	},
	{
		"deltaTime": 0,
		"channel": 2,
		"type": "channel",
		"noteNumber": 64,
		"velocity": 85.33333333333333,
		"subtype": "noteOn",
		"time": 6976,
		"track": 3
	},
	{
		"deltaTime": 16,
		"channel": 9,
		"type": "channel",
		"subtype": "noteOff",
		"noteNumber": 42,
		"velocity": 0,
		"time": 6976,
		"track": 4
	},
	{
		"deltaTime": 0,
		"channel": 0,
		"type": "channel",
		"subtype": "noteOff",
		"noteNumber": 79,
		"velocity": 0,
		"time": 6992,
		"track": 1
	},
	{
		"deltaTime": 0,
		"channel": 1,
		"type": "channel",
		"subtype": "noteOff",
		"noteNumber": 71,
		"velocity": 0,
		"time": 6992,
		"track": 2
	},
	{
		"deltaTime": 0,
		"channel": 2,
		"type": "channel",
		"subtype": "noteOff",
		"noteNumber": 64,
		"velocity": 0,
		"time": 6992,
		"track": 3
	},
	{
		"deltaTime": 16,
		"channel": 9,
		"type": "channel",
		"noteNumber": 42,
		"velocity": 127,
		"subtype": "noteOn",
		"time": 6992,
		"track": 4
	},
	{
		"deltaTime": 0,
		"channel": 0,
		"type": "channel",
		"noteNumber": 81,
		"velocity": 85.33333333333333,
		"subtype": "noteOn",
		"time": 7008,
		"track": 1
	},
	{
		"deltaTime": 0,
		"channel": 1,
		"type": "channel",
		"noteNumber": 72,
		"velocity": 85.33333333333333,
		"subtype": "noteOn",
		"time": 7008,
		"track": 2
	},
	{
		"deltaTime": 0,
		"channel": 2,
		"type": "channel",
		"noteNumber": 65,
		"velocity": 85.33333333333333,
		"subtype": "noteOn",
		"time": 7008,
		"track": 3
	},
	{
		"deltaTime": 0,
		"channel": 9,
		"type": "channel",
		"subtype": "noteOff",
		"noteNumber": 42,
		"velocity": 0,
		"time": 7008,
		"track": 4
	},
	{
		"deltaTime": 16,
		"channel": 9,
		"type": "channel",
		"noteNumber": 42,
		"velocity": 127,
		"subtype": "noteOn",
		"time": 7008,
		"track": 4
	},
	{
		"deltaTime": 0,
		"channel": 0,
		"type": "channel",
		"subtype": "noteOff",
		"noteNumber": 81,
		"velocity": 0,
		"time": 7024,
		"track": 1
	},
	{
		"deltaTime": 0,
		"channel": 1,
		"type": "channel",
		"subtype": "noteOff",
		"noteNumber": 72,
		"velocity": 0,
		"time": 7024,
		"track": 2
	},
	{
		"deltaTime": 16,
		"channel": 2,
		"type": "channel",
		"subtype": "noteOff",
		"noteNumber": 65,
		"velocity": 0,
		"time": 7024,
		"track": 3
	},
	{
		"deltaTime": 16,
		"channel": 9,
		"type": "channel",
		"subtype": "noteOff",
		"noteNumber": 42,
		"velocity": 0,
		"time": 7040,
		"track": 4
	},
	{
		"deltaTime": 0,
		"channel": 0,
		"type": "channel",
		"noteNumber": 77,
		"velocity": 85.33333333333333,
		"subtype": "noteOn",
		"time": 7056,
		"track": 1
	},
	{
		"deltaTime": 0,
		"channel": 1,
		"type": "channel",
		"noteNumber": 69,
		"velocity": 85.33333333333333,
		"subtype": "noteOn",
		"time": 7056,
		"track": 2
	},
	{
		"deltaTime": 0,
		"channel": 2,
		"type": "channel",
		"noteNumber": 62,
		"velocity": 85.33333333333333,
		"subtype": "noteOn",
		"time": 7056,
		"track": 3
	},
	{
		"deltaTime": 16,
		"channel": 9,
		"type": "channel",
		"noteNumber": 42,
		"velocity": 127,
		"subtype": "noteOn",
		"time": 7056,
		"track": 4
	},
	{
		"deltaTime": 0,
		"channel": 0,
		"type": "channel",
		"subtype": "noteOff",
		"noteNumber": 77,
		"velocity": 0,
		"time": 7072,
		"track": 1
	},
	{
		"deltaTime": 0,
		"channel": 1,
		"type": "channel",
		"subtype": "noteOff",
		"noteNumber": 69,
		"velocity": 0,
		"time": 7072,
		"track": 2
	},
	{
		"deltaTime": 0,
		"channel": 2,
		"type": "channel",
		"subtype": "noteOff",
		"noteNumber": 62,
		"velocity": 0,
		"time": 7072,
		"track": 3
	},
	{
		"deltaTime": 8,
		"channel": 9,
		"type": "channel",
		"subtype": "noteOff",
		"noteNumber": 42,
		"velocity": 0,
		"time": 7072,
		"track": 4
	},
	{
		"deltaTime": 0,
		"channel": 0,
		"type": "channel",
		"noteNumber": 79,
		"velocity": 85.33333333333333,
		"subtype": "noteOn",
		"time": 7080,
		"track": 1
	},
	{
		"deltaTime": 0,
		"channel": 1,
		"type": "channel",
		"noteNumber": 71,
		"velocity": 85.33333333333333,
		"subtype": "noteOn",
		"time": 7080,
		"track": 2
	},
	{
		"deltaTime": 8,
		"channel": 2,
		"type": "channel",
		"noteNumber": 64,
		"velocity": 85.33333333333333,
		"subtype": "noteOn",
		"time": 7080,
		"track": 3
	},
	{
		"deltaTime": 8,
		"channel": 9,
		"type": "channel",
		"noteNumber": 42,
		"velocity": 127,
		"subtype": "noteOn",
		"time": 7088,
		"track": 4
	},
	{
		"deltaTime": 0,
		"channel": 0,
		"type": "channel",
		"subtype": "noteOff",
		"noteNumber": 79,
		"velocity": 0,
		"time": 7096,
		"track": 1
	},
	{
		"deltaTime": 0,
		"channel": 1,
		"type": "channel",
		"subtype": "noteOff",
		"noteNumber": 71,
		"velocity": 0,
		"time": 7096,
		"track": 2
	},
	{
		"deltaTime": 8,
		"channel": 2,
		"type": "channel",
		"subtype": "noteOff",
		"noteNumber": 64,
		"velocity": 0,
		"time": 7096,
		"track": 3
	},
	{
		"deltaTime": 0,
		"channel": 9,
		"type": "channel",
		"subtype": "noteOff",
		"noteNumber": 42,
		"velocity": 0,
		"time": 7104,
		"track": 4
	},
	{
		"deltaTime": 16,
		"channel": 9,
		"type": "channel",
		"noteNumber": 42,
		"velocity": 127,
		"subtype": "noteOn",
		"time": 7104,
		"track": 4
	},
	{
		"deltaTime": 8,
		"channel": 9,
		"type": "channel",
		"subtype": "noteOff",
		"noteNumber": 42,
		"velocity": 0,
		"time": 7120,
		"track": 4
	},
	{
		"deltaTime": 0,
		"channel": 0,
		"type": "channel",
		"noteNumber": 76,
		"velocity": 85.33333333333333,
		"subtype": "noteOn",
		"time": 7128,
		"track": 1
	},
	{
		"deltaTime": 0,
		"channel": 1,
		"type": "channel",
		"noteNumber": 69,
		"velocity": 85.33333333333333,
		"subtype": "noteOn",
		"time": 7128,
		"track": 2
	},
	{
		"deltaTime": 16,
		"channel": 2,
		"type": "channel",
		"noteNumber": 60,
		"velocity": 85.33333333333333,
		"subtype": "noteOn",
		"time": 7128,
		"track": 3
	},
	{
		"deltaTime": 0,
		"channel": 0,
		"type": "channel",
		"subtype": "noteOff",
		"noteNumber": 76,
		"velocity": 0,
		"time": 7144,
		"track": 1
	},
	{
		"deltaTime": 0,
		"channel": 1,
		"type": "channel",
		"subtype": "noteOff",
		"noteNumber": 69,
		"velocity": 0,
		"time": 7144,
		"track": 2
	},
	{
		"deltaTime": 8,
		"channel": 2,
		"type": "channel",
		"subtype": "noteOff",
		"noteNumber": 60,
		"velocity": 0,
		"time": 7144,
		"track": 3
	},
	{
		"deltaTime": 16,
		"channel": 9,
		"type": "channel",
		"noteNumber": 42,
		"velocity": 127,
		"subtype": "noteOn",
		"time": 7152,
		"track": 4
	},
	{
		"deltaTime": 8,
		"channel": 9,
		"type": "channel",
		"subtype": "noteOff",
		"noteNumber": 42,
		"velocity": 0,
		"time": 7168,
		"track": 4
	},
	{
		"deltaTime": 0,
		"channel": 0,
		"type": "channel",
		"noteNumber": 72,
		"velocity": 85.33333333333333,
		"subtype": "noteOn",
		"time": 7176,
		"track": 1
	},
	{
		"deltaTime": 0,
		"channel": 1,
		"type": "channel",
		"noteNumber": 64,
		"velocity": 85.33333333333333,
		"subtype": "noteOn",
		"time": 7176,
		"track": 2
	},
	{
		"deltaTime": 8,
		"channel": 2,
		"type": "channel",
		"noteNumber": 57,
		"velocity": 85.33333333333333,
		"subtype": "noteOn",
		"time": 7176,
		"track": 3
	},
	{
		"deltaTime": 8,
		"channel": 9,
		"type": "channel",
		"noteNumber": 42,
		"velocity": 127,
		"subtype": "noteOn",
		"time": 7184,
		"track": 4
	},
	{
		"deltaTime": 0,
		"channel": 0,
		"type": "channel",
		"subtype": "noteOff",
		"noteNumber": 72,
		"velocity": 0,
		"time": 7192,
		"track": 1
	},
	{
		"deltaTime": 0,
		"channel": 1,
		"type": "channel",
		"subtype": "noteOff",
		"noteNumber": 64,
		"velocity": 0,
		"time": 7192,
		"track": 2
	},
	{
		"deltaTime": 8,
		"channel": 2,
		"type": "channel",
		"subtype": "noteOff",
		"noteNumber": 57,
		"velocity": 0,
		"time": 7192,
		"track": 3
	},
	{
		"deltaTime": 0,
		"channel": 0,
		"type": "channel",
		"noteNumber": 74,
		"velocity": 85.33333333333333,
		"subtype": "noteOn",
		"time": 7200,
		"track": 1
	},
	{
		"deltaTime": 0,
		"channel": 1,
		"type": "channel",
		"noteNumber": 65,
		"velocity": 85.33333333333333,
		"subtype": "noteOn",
		"time": 7200,
		"track": 2
	},
	{
		"deltaTime": 0,
		"channel": 2,
		"type": "channel",
		"noteNumber": 59,
		"velocity": 85.33333333333333,
		"subtype": "noteOn",
		"time": 7200,
		"track": 3
	},
	{
		"deltaTime": 0,
		"channel": 9,
		"type": "channel",
		"subtype": "noteOff",
		"noteNumber": 42,
		"velocity": 0,
		"time": 7200,
		"track": 4
	},
	{
		"deltaTime": 16,
		"channel": 9,
		"type": "channel",
		"noteNumber": 42,
		"velocity": 127,
		"subtype": "noteOn",
		"time": 7200,
		"track": 4
	},
	{
		"deltaTime": 0,
		"channel": 0,
		"type": "channel",
		"subtype": "noteOff",
		"noteNumber": 74,
		"velocity": 0,
		"time": 7216,
		"track": 1
	},
	{
		"deltaTime": 0,
		"channel": 1,
		"type": "channel",
		"subtype": "noteOff",
		"noteNumber": 65,
		"velocity": 0,
		"time": 7216,
		"track": 2
	},
	{
		"deltaTime": 8,
		"channel": 2,
		"type": "channel",
		"subtype": "noteOff",
		"noteNumber": 59,
		"velocity": 0,
		"time": 7216,
		"track": 3
	},
	{
		"deltaTime": 0,
		"channel": 0,
		"type": "channel",
		"noteNumber": 71,
		"velocity": 85.33333333333333,
		"subtype": "noteOn",
		"time": 7224,
		"track": 1
	},
	{
		"deltaTime": 0,
		"channel": 1,
		"type": "channel",
		"noteNumber": 62,
		"velocity": 85.33333333333333,
		"subtype": "noteOn",
		"time": 7224,
		"track": 2
	},
	{
		"deltaTime": 8,
		"channel": 2,
		"type": "channel",
		"noteNumber": 55,
		"velocity": 85.33333333333333,
		"subtype": "noteOn",
		"time": 7224,
		"track": 3
	},
	{
		"deltaTime": 8,
		"channel": 9,
		"type": "channel",
		"subtype": "noteOff",
		"noteNumber": 42,
		"velocity": 0,
		"time": 7232,
		"track": 4
	},
	{
		"deltaTime": 0,
		"channel": 0,
		"type": "channel",
		"subtype": "noteOff",
		"noteNumber": 71,
		"velocity": 0,
		"time": 7240,
		"track": 1
	},
	{
		"deltaTime": 0,
		"channel": 1,
		"type": "channel",
		"subtype": "noteOff",
		"noteNumber": 62,
		"velocity": 0,
		"time": 7240,
		"track": 2
	},
	{
		"deltaTime": 8,
		"channel": 2,
		"type": "channel",
		"subtype": "noteOff",
		"noteNumber": 55,
		"velocity": 0,
		"time": 7240,
		"track": 3
	},
	{
		"deltaTime": 16,
		"channel": 9,
		"type": "channel",
		"noteNumber": 42,
		"velocity": 127,
		"subtype": "noteOn",
		"time": 7248,
		"track": 4
	},
	{
		"deltaTime": 16,
		"channel": 9,
		"type": "channel",
		"subtype": "noteOff",
		"noteNumber": 42,
		"velocity": 0,
		"time": 7264,
		"track": 4
	},
	{
		"deltaTime": 16,
		"channel": 9,
		"type": "channel",
		"noteNumber": 42,
		"velocity": 127,
		"subtype": "noteOn",
		"time": 7280,
		"track": 4
	},
	{
		"deltaTime": 0,
		"channel": 0,
		"type": "channel",
		"noteNumber": 72,
		"velocity": 85.33333333333333,
		"subtype": "noteOn",
		"time": 7296,
		"track": 1
	},
	{
		"deltaTime": 0,
		"channel": 1,
		"type": "channel",
		"noteNumber": 64,
		"velocity": 85.33333333333333,
		"subtype": "noteOn",
		"time": 7296,
		"track": 2
	},
	{
		"deltaTime": 0,
		"channel": 2,
		"type": "channel",
		"noteNumber": 55,
		"velocity": 85.33333333333333,
		"subtype": "noteOn",
		"time": 7296,
		"track": 3
	},
	{
		"deltaTime": 0,
		"channel": 9,
		"type": "channel",
		"subtype": "noteOff",
		"noteNumber": 42,
		"velocity": 0,
		"time": 7296,
		"track": 4
	},
	{
		"deltaTime": 16,
		"channel": 9,
		"type": "channel",
		"noteNumber": 42,
		"velocity": 127,
		"subtype": "noteOn",
		"time": 7296,
		"track": 4
	},
	{
		"deltaTime": 0,
		"channel": 0,
		"type": "channel",
		"subtype": "noteOff",
		"noteNumber": 72,
		"velocity": 0,
		"time": 7312,
		"track": 1
	},
	{
		"deltaTime": 0,
		"channel": 1,
		"type": "channel",
		"subtype": "noteOff",
		"noteNumber": 64,
		"velocity": 0,
		"time": 7312,
		"track": 2
	},
	{
		"deltaTime": 0,
		"channel": 2,
		"type": "channel",
		"subtype": "noteOff",
		"noteNumber": 55,
		"velocity": 0,
		"time": 7312,
		"track": 3
	},
	{
		"deltaTime": 32,
		"channel": 9,
		"type": "channel",
		"subtype": "noteOff",
		"noteNumber": 42,
		"velocity": 0,
		"time": 7312,
		"track": 4
	},
	{
		"deltaTime": 16,
		"channel": 9,
		"type": "channel",
		"noteNumber": 42,
		"velocity": 127,
		"subtype": "noteOn",
		"time": 7344,
		"track": 4
	},
	{
		"deltaTime": 8,
		"channel": 9,
		"type": "channel",
		"subtype": "noteOff",
		"noteNumber": 42,
		"velocity": 0,
		"time": 7360,
		"track": 4
	},
	{
		"deltaTime": 0,
		"channel": 0,
		"type": "channel",
		"noteNumber": 67,
		"velocity": 85.33333333333333,
		"subtype": "noteOn",
		"time": 7368,
		"track": 1
	},
	{
		"deltaTime": 0,
		"channel": 1,
		"type": "channel",
		"noteNumber": 60,
		"velocity": 85.33333333333333,
		"subtype": "noteOn",
		"time": 7368,
		"track": 2
	},
	{
		"deltaTime": 8,
		"channel": 2,
		"type": "channel",
		"noteNumber": 52,
		"velocity": 85.33333333333333,
		"subtype": "noteOn",
		"time": 7368,
		"track": 3
	},
	{
		"deltaTime": 8,
		"channel": 9,
		"type": "channel",
		"noteNumber": 42,
		"velocity": 127,
		"subtype": "noteOn",
		"time": 7376,
		"track": 4
	},
	{
		"deltaTime": 0,
		"channel": 0,
		"type": "channel",
		"subtype": "noteOff",
		"noteNumber": 67,
		"velocity": 0,
		"time": 7384,
		"track": 1
	},
	{
		"deltaTime": 0,
		"channel": 1,
		"type": "channel",
		"subtype": "noteOff",
		"noteNumber": 60,
		"velocity": 0,
		"time": 7384,
		"track": 2
	},
	{
		"deltaTime": 8,
		"channel": 2,
		"type": "channel",
		"subtype": "noteOff",
		"noteNumber": 52,
		"velocity": 0,
		"time": 7384,
		"track": 3
	},
	{
		"deltaTime": 0,
		"channel": 9,
		"type": "channel",
		"subtype": "noteOff",
		"noteNumber": 42,
		"velocity": 0,
		"time": 7392,
		"track": 4
	},
	{
		"deltaTime": 32,
		"channel": 9,
		"type": "channel",
		"noteNumber": 42,
		"velocity": 127,
		"subtype": "noteOn",
		"time": 7392,
		"track": 4
	},
	{
		"deltaTime": 16,
		"channel": 9,
		"type": "channel",
		"subtype": "noteOff",
		"noteNumber": 42,
		"velocity": 0,
		"time": 7424,
		"track": 4
	},
	{
		"deltaTime": 0,
		"channel": 0,
		"type": "channel",
		"noteNumber": 64,
		"velocity": 85.33333333333333,
		"subtype": "noteOn",
		"time": 7440,
		"track": 1
	},
	{
		"deltaTime": 0,
		"channel": 1,
		"type": "channel",
		"noteNumber": 55,
		"velocity": 85.33333333333333,
		"subtype": "noteOn",
		"time": 7440,
		"track": 2
	},
	{
		"deltaTime": 0,
		"channel": 2,
		"type": "channel",
		"noteNumber": 48,
		"velocity": 85.33333333333333,
		"subtype": "noteOn",
		"time": 7440,
		"track": 3
	},
	{
		"deltaTime": 16,
		"channel": 9,
		"type": "channel",
		"noteNumber": 42,
		"velocity": 127,
		"subtype": "noteOn",
		"time": 7440,
		"track": 4
	},
	{
		"deltaTime": 0,
		"channel": 0,
		"type": "channel",
		"subtype": "noteOff",
		"noteNumber": 64,
		"velocity": 0,
		"time": 7456,
		"track": 1
	},
	{
		"deltaTime": 0,
		"channel": 1,
		"type": "channel",
		"subtype": "noteOff",
		"noteNumber": 55,
		"velocity": 0,
		"time": 7456,
		"track": 2
	},
	{
		"deltaTime": 0,
		"channel": 2,
		"type": "channel",
		"subtype": "noteOff",
		"noteNumber": 48,
		"velocity": 0,
		"time": 7456,
		"track": 3
	},
	{
		"deltaTime": 16,
		"channel": 9,
		"type": "channel",
		"subtype": "noteOff",
		"noteNumber": 42,
		"velocity": 0,
		"time": 7456,
		"track": 4
	},
	{
		"deltaTime": 16,
		"channel": 9,
		"type": "channel",
		"noteNumber": 42,
		"velocity": 127,
		"subtype": "noteOn",
		"time": 7472,
		"track": 4
	},
	{
		"deltaTime": 0,
		"channel": 9,
		"type": "channel",
		"subtype": "noteOff",
		"noteNumber": 42,
		"velocity": 0,
		"time": 7488,
		"track": 4
	},
	{
		"deltaTime": 16,
		"channel": 9,
		"type": "channel",
		"noteNumber": 42,
		"velocity": 127,
		"subtype": "noteOn",
		"time": 7488,
		"track": 4
	},
	{
		"deltaTime": 8,
		"channel": 9,
		"type": "channel",
		"subtype": "noteOff",
		"noteNumber": 42,
		"velocity": 0,
		"time": 7504,
		"track": 4
	},
	{
		"deltaTime": 0,
		"channel": 0,
		"type": "channel",
		"noteNumber": 69,
		"velocity": 85.33333333333333,
		"subtype": "noteOn",
		"time": 7512,
		"track": 1
	},
	{
		"deltaTime": 0,
		"channel": 1,
		"type": "channel",
		"noteNumber": 60,
		"velocity": 85.33333333333333,
		"subtype": "noteOn",
		"time": 7512,
		"track": 2
	},
	{
		"deltaTime": 16,
		"channel": 2,
		"type": "channel",
		"noteNumber": 53,
		"velocity": 85.33333333333333,
		"subtype": "noteOn",
		"time": 7512,
		"track": 3
	},
	{
		"deltaTime": 0,
		"channel": 0,
		"type": "channel",
		"subtype": "noteOff",
		"noteNumber": 69,
		"velocity": 0,
		"time": 7528,
		"track": 1
	},
	{
		"deltaTime": 0,
		"channel": 1,
		"type": "channel",
		"subtype": "noteOff",
		"noteNumber": 60,
		"velocity": 0,
		"time": 7528,
		"track": 2
	},
	{
		"deltaTime": 8,
		"channel": 2,
		"type": "channel",
		"subtype": "noteOff",
		"noteNumber": 53,
		"velocity": 0,
		"time": 7528,
		"track": 3
	},
	{
		"deltaTime": 16,
		"channel": 9,
		"type": "channel",
		"noteNumber": 42,
		"velocity": 127,
		"subtype": "noteOn",
		"time": 7536,
		"track": 4
	},
	{
		"deltaTime": 8,
		"channel": 9,
		"type": "channel",
		"subtype": "noteOff",
		"noteNumber": 42,
		"velocity": 0,
		"time": 7552,
		"track": 4
	},
	{
		"deltaTime": 0,
		"channel": 0,
		"type": "channel",
		"noteNumber": 71,
		"velocity": 85.33333333333333,
		"subtype": "noteOn",
		"time": 7560,
		"track": 1
	},
	{
		"deltaTime": 0,
		"channel": 1,
		"type": "channel",
		"noteNumber": 62,
		"velocity": 85.33333333333333,
		"subtype": "noteOn",
		"time": 7560,
		"track": 2
	},
	{
		"deltaTime": 8,
		"channel": 2,
		"type": "channel",
		"noteNumber": 55,
		"velocity": 85.33333333333333,
		"subtype": "noteOn",
		"time": 7560,
		"track": 3
	},
	{
		"deltaTime": 8,
		"channel": 9,
		"type": "channel",
		"noteNumber": 42,
		"velocity": 127,
		"subtype": "noteOn",
		"time": 7568,
		"track": 4
	},
	{
		"deltaTime": 0,
		"channel": 0,
		"type": "channel",
		"subtype": "noteOff",
		"noteNumber": 71,
		"velocity": 0,
		"time": 7576,
		"track": 1
	},
	{
		"deltaTime": 0,
		"channel": 1,
		"type": "channel",
		"subtype": "noteOff",
		"noteNumber": 62,
		"velocity": 0,
		"time": 7576,
		"track": 2
	},
	{
		"deltaTime": 8,
		"channel": 2,
		"type": "channel",
		"subtype": "noteOff",
		"noteNumber": 55,
		"velocity": 0,
		"time": 7576,
		"track": 3
	},
	{
		"deltaTime": 0,
		"channel": 9,
		"type": "channel",
		"subtype": "noteOff",
		"noteNumber": 42,
		"velocity": 0,
		"time": 7584,
		"track": 4
	},
	{
		"deltaTime": 24,
		"channel": 9,
		"type": "channel",
		"noteNumber": 42,
		"velocity": 127,
		"subtype": "noteOn",
		"time": 7584,
		"track": 4
	},
	{
		"deltaTime": 0,
		"channel": 0,
		"type": "channel",
		"noteNumber": 70,
		"velocity": 85.33333333333333,
		"subtype": "noteOn",
		"time": 7608,
		"track": 1
	},
	{
		"deltaTime": 0,
		"channel": 1,
		"type": "channel",
		"noteNumber": 61,
		"velocity": 85.33333333333333,
		"subtype": "noteOn",
		"time": 7608,
		"track": 2
	},
	{
		"deltaTime": 8,
		"channel": 2,
		"type": "channel",
		"noteNumber": 54,
		"velocity": 85.33333333333333,
		"subtype": "noteOn",
		"time": 7608,
		"track": 3
	},
	{
		"deltaTime": 8,
		"channel": 9,
		"type": "channel",
		"subtype": "noteOff",
		"noteNumber": 42,
		"velocity": 0,
		"time": 7616,
		"track": 4
	},
	{
		"deltaTime": 0,
		"channel": 0,
		"type": "channel",
		"subtype": "noteOff",
		"noteNumber": 70,
		"velocity": 0,
		"time": 7624,
		"track": 1
	},
	{
		"deltaTime": 0,
		"channel": 1,
		"type": "channel",
		"subtype": "noteOff",
		"noteNumber": 61,
		"velocity": 0,
		"time": 7624,
		"track": 2
	},
	{
		"deltaTime": 8,
		"channel": 2,
		"type": "channel",
		"subtype": "noteOff",
		"noteNumber": 54,
		"velocity": 0,
		"time": 7624,
		"track": 3
	},
	{
		"deltaTime": 0,
		"channel": 0,
		"type": "channel",
		"noteNumber": 69,
		"velocity": 85.33333333333333,
		"subtype": "noteOn",
		"time": 7632,
		"track": 1
	},
	{
		"deltaTime": 0,
		"channel": 1,
		"type": "channel",
		"noteNumber": 60,
		"velocity": 85.33333333333333,
		"subtype": "noteOn",
		"time": 7632,
		"track": 2
	},
	{
		"deltaTime": 0,
		"channel": 2,
		"type": "channel",
		"noteNumber": 53,
		"velocity": 85.33333333333333,
		"subtype": "noteOn",
		"time": 7632,
		"track": 3
	},
	{
		"deltaTime": 16,
		"channel": 9,
		"type": "channel",
		"noteNumber": 42,
		"velocity": 127,
		"subtype": "noteOn",
		"time": 7632,
		"track": 4
	},
	{
		"deltaTime": 0,
		"channel": 0,
		"type": "channel",
		"subtype": "noteOff",
		"noteNumber": 69,
		"velocity": 0,
		"time": 7648,
		"track": 1
	},
	{
		"deltaTime": 0,
		"channel": 1,
		"type": "channel",
		"subtype": "noteOff",
		"noteNumber": 60,
		"velocity": 0,
		"time": 7648,
		"track": 2
	},
	{
		"deltaTime": 0,
		"channel": 2,
		"type": "channel",
		"subtype": "noteOff",
		"noteNumber": 53,
		"velocity": 0,
		"time": 7648,
		"track": 3
	},
	{
		"deltaTime": 16,
		"channel": 9,
		"type": "channel",
		"subtype": "noteOff",
		"noteNumber": 42,
		"velocity": 0,
		"time": 7648,
		"track": 4
	},
	{
		"deltaTime": 16,
		"channel": 9,
		"type": "channel",
		"noteNumber": 42,
		"velocity": 127,
		"subtype": "noteOn",
		"time": 7664,
		"track": 4
	},
	{
		"deltaTime": 0,
		"channel": 0,
		"type": "channel",
		"noteNumber": 67,
		"velocity": 85.33333333333333,
		"subtype": "noteOn",
		"time": 7680,
		"track": 1
	},
	{
		"deltaTime": 0,
		"channel": 1,
		"type": "channel",
		"noteNumber": 60,
		"velocity": 85.33333333333333,
		"subtype": "noteOn",
		"time": 7680,
		"track": 2
	},
	{
		"deltaTime": 0,
		"channel": 2,
		"type": "channel",
		"noteNumber": 52,
		"velocity": 85.33333333333333,
		"subtype": "noteOn",
		"time": 7680,
		"track": 3
	},
	{
		"deltaTime": 0,
		"channel": 9,
		"type": "channel",
		"subtype": "noteOff",
		"noteNumber": 42,
		"velocity": 0,
		"time": 7680,
		"track": 4
	},
	{
		"deltaTime": 16,
		"channel": 9,
		"type": "channel",
		"noteNumber": 42,
		"velocity": 127,
		"subtype": "noteOn",
		"time": 7680,
		"track": 4
	},
	{
		"deltaTime": 0,
		"channel": 0,
		"type": "channel",
		"subtype": "noteOff",
		"noteNumber": 67,
		"velocity": 0,
		"time": 7696,
		"track": 1
	},
	{
		"deltaTime": 0,
		"channel": 1,
		"type": "channel",
		"subtype": "noteOff",
		"noteNumber": 60,
		"velocity": 0,
		"time": 7696,
		"track": 2
	},
	{
		"deltaTime": 0,
		"channel": 2,
		"type": "channel",
		"subtype": "noteOff",
		"noteNumber": 52,
		"velocity": 0,
		"time": 7696,
		"track": 3
	},
	{
		"deltaTime": 16,
		"channel": 9,
		"type": "channel",
		"subtype": "noteOff",
		"noteNumber": 42,
		"velocity": 0,
		"time": 7696,
		"track": 4
	},
	{
		"deltaTime": 0,
		"channel": 0,
		"type": "channel",
		"noteNumber": 76,
		"velocity": 85.33333333333333,
		"subtype": "noteOn",
		"time": 7712,
		"track": 1
	},
	{
		"deltaTime": 0,
		"channel": 1,
		"type": "channel",
		"noteNumber": 67,
		"velocity": 85.33333333333333,
		"subtype": "noteOn",
		"time": 7712,
		"track": 2
	},
	{
		"deltaTime": 16,
		"channel": 2,
		"type": "channel",
		"noteNumber": 60,
		"velocity": 85.33333333333333,
		"subtype": "noteOn",
		"time": 7712,
		"track": 3
	},
	{
		"deltaTime": 0,
		"channel": 0,
		"type": "channel",
		"subtype": "noteOff",
		"noteNumber": 76,
		"velocity": 0,
		"time": 7728,
		"track": 1
	},
	{
		"deltaTime": 0,
		"channel": 1,
		"type": "channel",
		"subtype": "noteOff",
		"noteNumber": 67,
		"velocity": 0,
		"time": 7728,
		"track": 2
	},
	{
		"deltaTime": 0,
		"channel": 2,
		"type": "channel",
		"subtype": "noteOff",
		"noteNumber": 60,
		"velocity": 0,
		"time": 7728,
		"track": 3
	},
	{
		"deltaTime": 16,
		"channel": 9,
		"type": "channel",
		"noteNumber": 42,
		"velocity": 127,
		"subtype": "noteOn",
		"time": 7728,
		"track": 4
	},
	{
		"deltaTime": 0,
		"channel": 0,
		"type": "channel",
		"noteNumber": 79,
		"velocity": 85.33333333333333,
		"subtype": "noteOn",
		"time": 7744,
		"track": 1
	},
	{
		"deltaTime": 0,
		"channel": 1,
		"type": "channel",
		"noteNumber": 71,
		"velocity": 85.33333333333333,
		"subtype": "noteOn",
		"time": 7744,
		"track": 2
	},
	{
		"deltaTime": 0,
		"channel": 2,
		"type": "channel",
		"noteNumber": 64,
		"velocity": 85.33333333333333,
		"subtype": "noteOn",
		"time": 7744,
		"track": 3
	},
	{
		"deltaTime": 16,
		"channel": 9,
		"type": "channel",
		"subtype": "noteOff",
		"noteNumber": 42,
		"velocity": 0,
		"time": 7744,
		"track": 4
	},
	{
		"deltaTime": 0,
		"channel": 0,
		"type": "channel",
		"subtype": "noteOff",
		"noteNumber": 79,
		"velocity": 0,
		"time": 7760,
		"track": 1
	},
	{
		"deltaTime": 0,
		"channel": 1,
		"type": "channel",
		"subtype": "noteOff",
		"noteNumber": 71,
		"velocity": 0,
		"time": 7760,
		"track": 2
	},
	{
		"deltaTime": 0,
		"channel": 2,
		"type": "channel",
		"subtype": "noteOff",
		"noteNumber": 64,
		"velocity": 0,
		"time": 7760,
		"track": 3
	},
	{
		"deltaTime": 16,
		"channel": 9,
		"type": "channel",
		"noteNumber": 42,
		"velocity": 127,
		"subtype": "noteOn",
		"time": 7760,
		"track": 4
	},
	{
		"deltaTime": 0,
		"channel": 0,
		"type": "channel",
		"noteNumber": 81,
		"velocity": 85.33333333333333,
		"subtype": "noteOn",
		"time": 7776,
		"track": 1
	},
	{
		"deltaTime": 0,
		"channel": 1,
		"type": "channel",
		"noteNumber": 72,
		"velocity": 85.33333333333333,
		"subtype": "noteOn",
		"time": 7776,
		"track": 2
	},
	{
		"deltaTime": 0,
		"channel": 2,
		"type": "channel",
		"noteNumber": 65,
		"velocity": 85.33333333333333,
		"subtype": "noteOn",
		"time": 7776,
		"track": 3
	},
	{
		"deltaTime": 0,
		"channel": 9,
		"type": "channel",
		"subtype": "noteOff",
		"noteNumber": 42,
		"velocity": 0,
		"time": 7776,
		"track": 4
	},
	{
		"deltaTime": 16,
		"channel": 9,
		"type": "channel",
		"noteNumber": 42,
		"velocity": 127,
		"subtype": "noteOn",
		"time": 7776,
		"track": 4
	},
	{
		"deltaTime": 0,
		"channel": 0,
		"type": "channel",
		"subtype": "noteOff",
		"noteNumber": 81,
		"velocity": 0,
		"time": 7792,
		"track": 1
	},
	{
		"deltaTime": 0,
		"channel": 1,
		"type": "channel",
		"subtype": "noteOff",
		"noteNumber": 72,
		"velocity": 0,
		"time": 7792,
		"track": 2
	},
	{
		"deltaTime": 16,
		"channel": 2,
		"type": "channel",
		"subtype": "noteOff",
		"noteNumber": 65,
		"velocity": 0,
		"time": 7792,
		"track": 3
	},
	{
		"deltaTime": 16,
		"channel": 9,
		"type": "channel",
		"subtype": "noteOff",
		"noteNumber": 42,
		"velocity": 0,
		"time": 7808,
		"track": 4
	},
	{
		"deltaTime": 0,
		"channel": 0,
		"type": "channel",
		"noteNumber": 77,
		"velocity": 85.33333333333333,
		"subtype": "noteOn",
		"time": 7824,
		"track": 1
	},
	{
		"deltaTime": 0,
		"channel": 1,
		"type": "channel",
		"noteNumber": 69,
		"velocity": 85.33333333333333,
		"subtype": "noteOn",
		"time": 7824,
		"track": 2
	},
	{
		"deltaTime": 0,
		"channel": 2,
		"type": "channel",
		"noteNumber": 62,
		"velocity": 85.33333333333333,
		"subtype": "noteOn",
		"time": 7824,
		"track": 3
	},
	{
		"deltaTime": 16,
		"channel": 9,
		"type": "channel",
		"noteNumber": 42,
		"velocity": 127,
		"subtype": "noteOn",
		"time": 7824,
		"track": 4
	},
	{
		"deltaTime": 0,
		"channel": 0,
		"type": "channel",
		"subtype": "noteOff",
		"noteNumber": 77,
		"velocity": 0,
		"time": 7840,
		"track": 1
	},
	{
		"deltaTime": 0,
		"channel": 1,
		"type": "channel",
		"subtype": "noteOff",
		"noteNumber": 69,
		"velocity": 0,
		"time": 7840,
		"track": 2
	},
	{
		"deltaTime": 0,
		"channel": 2,
		"type": "channel",
		"subtype": "noteOff",
		"noteNumber": 62,
		"velocity": 0,
		"time": 7840,
		"track": 3
	},
	{
		"deltaTime": 8,
		"channel": 9,
		"type": "channel",
		"subtype": "noteOff",
		"noteNumber": 42,
		"velocity": 0,
		"time": 7840,
		"track": 4
	},
	{
		"deltaTime": 0,
		"channel": 0,
		"type": "channel",
		"noteNumber": 79,
		"velocity": 85.33333333333333,
		"subtype": "noteOn",
		"time": 7848,
		"track": 1
	},
	{
		"deltaTime": 0,
		"channel": 1,
		"type": "channel",
		"noteNumber": 71,
		"velocity": 85.33333333333333,
		"subtype": "noteOn",
		"time": 7848,
		"track": 2
	},
	{
		"deltaTime": 8,
		"channel": 2,
		"type": "channel",
		"noteNumber": 64,
		"velocity": 85.33333333333333,
		"subtype": "noteOn",
		"time": 7848,
		"track": 3
	},
	{
		"deltaTime": 8,
		"channel": 9,
		"type": "channel",
		"noteNumber": 42,
		"velocity": 127,
		"subtype": "noteOn",
		"time": 7856,
		"track": 4
	},
	{
		"deltaTime": 0,
		"channel": 0,
		"type": "channel",
		"subtype": "noteOff",
		"noteNumber": 79,
		"velocity": 0,
		"time": 7864,
		"track": 1
	},
	{
		"deltaTime": 0,
		"channel": 1,
		"type": "channel",
		"subtype": "noteOff",
		"noteNumber": 71,
		"velocity": 0,
		"time": 7864,
		"track": 2
	},
	{
		"deltaTime": 8,
		"channel": 2,
		"type": "channel",
		"subtype": "noteOff",
		"noteNumber": 64,
		"velocity": 0,
		"time": 7864,
		"track": 3
	},
	{
		"deltaTime": 0,
		"channel": 9,
		"type": "channel",
		"subtype": "noteOff",
		"noteNumber": 42,
		"velocity": 0,
		"time": 7872,
		"track": 4
	},
	{
		"deltaTime": 16,
		"channel": 9,
		"type": "channel",
		"noteNumber": 42,
		"velocity": 127,
		"subtype": "noteOn",
		"time": 7872,
		"track": 4
	},
	{
		"deltaTime": 8,
		"channel": 9,
		"type": "channel",
		"subtype": "noteOff",
		"noteNumber": 42,
		"velocity": 0,
		"time": 7888,
		"track": 4
	},
	{
		"deltaTime": 0,
		"channel": 0,
		"type": "channel",
		"noteNumber": 76,
		"velocity": 85.33333333333333,
		"subtype": "noteOn",
		"time": 7896,
		"track": 1
	},
	{
		"deltaTime": 0,
		"channel": 1,
		"type": "channel",
		"noteNumber": 69,
		"velocity": 85.33333333333333,
		"subtype": "noteOn",
		"time": 7896,
		"track": 2
	},
	{
		"deltaTime": 16,
		"channel": 2,
		"type": "channel",
		"noteNumber": 60,
		"velocity": 85.33333333333333,
		"subtype": "noteOn",
		"time": 7896,
		"track": 3
	},
	{
		"deltaTime": 0,
		"channel": 0,
		"type": "channel",
		"subtype": "noteOff",
		"noteNumber": 76,
		"velocity": 0,
		"time": 7912,
		"track": 1
	},
	{
		"deltaTime": 0,
		"channel": 1,
		"type": "channel",
		"subtype": "noteOff",
		"noteNumber": 69,
		"velocity": 0,
		"time": 7912,
		"track": 2
	},
	{
		"deltaTime": 8,
		"channel": 2,
		"type": "channel",
		"subtype": "noteOff",
		"noteNumber": 60,
		"velocity": 0,
		"time": 7912,
		"track": 3
	},
	{
		"deltaTime": 16,
		"channel": 9,
		"type": "channel",
		"noteNumber": 42,
		"velocity": 127,
		"subtype": "noteOn",
		"time": 7920,
		"track": 4
	},
	{
		"deltaTime": 8,
		"channel": 9,
		"type": "channel",
		"subtype": "noteOff",
		"noteNumber": 42,
		"velocity": 0,
		"time": 7936,
		"track": 4
	},
	{
		"deltaTime": 0,
		"channel": 0,
		"type": "channel",
		"noteNumber": 72,
		"velocity": 85.33333333333333,
		"subtype": "noteOn",
		"time": 7944,
		"track": 1
	},
	{
		"deltaTime": 0,
		"channel": 1,
		"type": "channel",
		"noteNumber": 64,
		"velocity": 85.33333333333333,
		"subtype": "noteOn",
		"time": 7944,
		"track": 2
	},
	{
		"deltaTime": 8,
		"channel": 2,
		"type": "channel",
		"noteNumber": 57,
		"velocity": 85.33333333333333,
		"subtype": "noteOn",
		"time": 7944,
		"track": 3
	},
	{
		"deltaTime": 8,
		"channel": 9,
		"type": "channel",
		"noteNumber": 42,
		"velocity": 127,
		"subtype": "noteOn",
		"time": 7952,
		"track": 4
	},
	{
		"deltaTime": 0,
		"channel": 0,
		"type": "channel",
		"subtype": "noteOff",
		"noteNumber": 72,
		"velocity": 0,
		"time": 7960,
		"track": 1
	},
	{
		"deltaTime": 0,
		"channel": 1,
		"type": "channel",
		"subtype": "noteOff",
		"noteNumber": 64,
		"velocity": 0,
		"time": 7960,
		"track": 2
	},
	{
		"deltaTime": 8,
		"channel": 2,
		"type": "channel",
		"subtype": "noteOff",
		"noteNumber": 57,
		"velocity": 0,
		"time": 7960,
		"track": 3
	},
	{
		"deltaTime": 0,
		"channel": 0,
		"type": "channel",
		"noteNumber": 74,
		"velocity": 85.33333333333333,
		"subtype": "noteOn",
		"time": 7968,
		"track": 1
	},
	{
		"deltaTime": 0,
		"channel": 1,
		"type": "channel",
		"noteNumber": 65,
		"velocity": 85.33333333333333,
		"subtype": "noteOn",
		"time": 7968,
		"track": 2
	},
	{
		"deltaTime": 0,
		"channel": 2,
		"type": "channel",
		"noteNumber": 59,
		"velocity": 85.33333333333333,
		"subtype": "noteOn",
		"time": 7968,
		"track": 3
	},
	{
		"deltaTime": 0,
		"channel": 9,
		"type": "channel",
		"subtype": "noteOff",
		"noteNumber": 42,
		"velocity": 0,
		"time": 7968,
		"track": 4
	},
	{
		"deltaTime": 16,
		"channel": 9,
		"type": "channel",
		"noteNumber": 42,
		"velocity": 127,
		"subtype": "noteOn",
		"time": 7968,
		"track": 4
	},
	{
		"deltaTime": 0,
		"channel": 0,
		"type": "channel",
		"subtype": "noteOff",
		"noteNumber": 74,
		"velocity": 0,
		"time": 7984,
		"track": 1
	},
	{
		"deltaTime": 0,
		"channel": 1,
		"type": "channel",
		"subtype": "noteOff",
		"noteNumber": 65,
		"velocity": 0,
		"time": 7984,
		"track": 2
	},
	{
		"deltaTime": 8,
		"channel": 2,
		"type": "channel",
		"subtype": "noteOff",
		"noteNumber": 59,
		"velocity": 0,
		"time": 7984,
		"track": 3
	},
	{
		"deltaTime": 0,
		"channel": 0,
		"type": "channel",
		"noteNumber": 71,
		"velocity": 85.33333333333333,
		"subtype": "noteOn",
		"time": 7992,
		"track": 1
	},
	{
		"deltaTime": 0,
		"channel": 1,
		"type": "channel",
		"noteNumber": 62,
		"velocity": 85.33333333333333,
		"subtype": "noteOn",
		"time": 7992,
		"track": 2
	},
	{
		"deltaTime": 8,
		"channel": 2,
		"type": "channel",
		"noteNumber": 55,
		"velocity": 85.33333333333333,
		"subtype": "noteOn",
		"time": 7992,
		"track": 3
	},
	{
		"deltaTime": 8,
		"channel": 9,
		"type": "channel",
		"subtype": "noteOff",
		"noteNumber": 42,
		"velocity": 0,
		"time": 8000,
		"track": 4
	},
	{
		"deltaTime": 0,
		"channel": 0,
		"type": "channel",
		"subtype": "noteOff",
		"noteNumber": 71,
		"velocity": 0,
		"time": 8008,
		"track": 1
	},
	{
		"deltaTime": 0,
		"channel": 1,
		"type": "channel",
		"subtype": "noteOff",
		"noteNumber": 62,
		"velocity": 0,
		"time": 8008,
		"track": 2
	},
	{
		"deltaTime": 8,
		"channel": 2,
		"type": "channel",
		"subtype": "noteOff",
		"noteNumber": 55,
		"velocity": 0,
		"time": 8008,
		"track": 3
	},
	{
		"deltaTime": 16,
		"channel": 9,
		"type": "channel",
		"noteNumber": 42,
		"velocity": 127,
		"subtype": "noteOn",
		"time": 8016,
		"track": 4
	},
	{
		"deltaTime": 16,
		"channel": 9,
		"type": "channel",
		"subtype": "noteOff",
		"noteNumber": 42,
		"velocity": 0,
		"time": 8032,
		"track": 4
	},
	{
		"deltaTime": 16,
		"channel": 9,
		"type": "channel",
		"noteNumber": 42,
		"velocity": 127,
		"subtype": "noteOn",
		"time": 8048,
		"track": 4
	},
	{
		"deltaTime": 0,
		"channel": 0,
		"type": "channel",
		"noteNumber": 76,
		"velocity": 85.33333333333333,
		"subtype": "noteOn",
		"time": 8064,
		"track": 1
	},
	{
		"deltaTime": 0,
		"channel": 1,
		"type": "channel",
		"noteNumber": 72,
		"velocity": 85.33333333333333,
		"subtype": "noteOn",
		"time": 8064,
		"track": 2
	},
	{
		"deltaTime": 0,
		"channel": 2,
		"type": "channel",
		"noteNumber": 48,
		"velocity": 85.33333333333333,
		"subtype": "noteOn",
		"time": 8064,
		"track": 3
	},
	{
		"deltaTime": 0,
		"channel": 9,
		"type": "channel",
		"subtype": "noteOff",
		"noteNumber": 42,
		"velocity": 0,
		"time": 8064,
		"track": 4
	},
	{
		"deltaTime": 16,
		"channel": 9,
		"type": "channel",
		"noteNumber": 42,
		"velocity": 127,
		"subtype": "noteOn",
		"time": 8064,
		"track": 4
	},
	{
		"deltaTime": 0,
		"channel": 0,
		"type": "channel",
		"subtype": "noteOff",
		"noteNumber": 76,
		"velocity": 0,
		"time": 8080,
		"track": 1
	},
	{
		"deltaTime": 0,
		"channel": 1,
		"type": "channel",
		"subtype": "noteOff",
		"noteNumber": 72,
		"velocity": 0,
		"time": 8080,
		"track": 2
	},
	{
		"deltaTime": 0,
		"channel": 2,
		"type": "channel",
		"subtype": "noteOff",
		"noteNumber": 48,
		"velocity": 0,
		"time": 8080,
		"track": 3
	},
	{
		"deltaTime": 8,
		"channel": 9,
		"type": "channel",
		"subtype": "noteOff",
		"noteNumber": 42,
		"velocity": 0,
		"time": 8080,
		"track": 4
	},
	{
		"deltaTime": 0,
		"channel": 0,
		"type": "channel",
		"noteNumber": 72,
		"velocity": 85.33333333333333,
		"subtype": "noteOn",
		"time": 8088,
		"track": 1
	},
	{
		"deltaTime": 16,
		"channel": 1,
		"type": "channel",
		"noteNumber": 69,
		"velocity": 85.33333333333333,
		"subtype": "noteOn",
		"time": 8088,
		"track": 2
	},
	{
		"deltaTime": 0,
		"channel": 0,
		"type": "channel",
		"subtype": "noteOff",
		"noteNumber": 72,
		"velocity": 0,
		"time": 8104,
		"track": 1
	},
	{
		"deltaTime": 32,
		"channel": 1,
		"type": "channel",
		"subtype": "noteOff",
		"noteNumber": 69,
		"velocity": 0,
		"time": 8104,
		"track": 2
	},
	{
		"deltaTime": 0,
		"channel": 0,
		"type": "channel",
		"noteNumber": 67,
		"velocity": 85.33333333333333,
		"subtype": "noteOn",
		"time": 8136,
		"track": 1
	},
	{
		"deltaTime": 0,
		"channel": 1,
		"type": "channel",
		"noteNumber": 64,
		"velocity": 85.33333333333333,
		"subtype": "noteOn",
		"time": 8136,
		"track": 2
	},
	{
		"deltaTime": 0,
		"channel": 2,
		"type": "channel",
		"noteNumber": 54,
		"velocity": 85.33333333333333,
		"subtype": "noteOn",
		"time": 8136,
		"track": 3
	},
	{
		"deltaTime": 16,
		"channel": 9,
		"type": "channel",
		"noteNumber": 42,
		"velocity": 127,
		"subtype": "noteOn",
		"time": 8136,
		"track": 4
	},
	{
		"deltaTime": 0,
		"channel": 0,
		"type": "channel",
		"subtype": "noteOff",
		"noteNumber": 67,
		"velocity": 0,
		"time": 8152,
		"track": 1
	},
	{
		"deltaTime": 0,
		"channel": 1,
		"type": "channel",
		"subtype": "noteOff",
		"noteNumber": 64,
		"velocity": 0,
		"time": 8152,
		"track": 2
	},
	{
		"deltaTime": 0,
		"channel": 2,
		"type": "channel",
		"subtype": "noteOff",
		"noteNumber": 54,
		"velocity": 0,
		"time": 8152,
		"track": 3
	},
	{
		"deltaTime": 8,
		"channel": 9,
		"type": "channel",
		"subtype": "noteOff",
		"noteNumber": 42,
		"velocity": 0,
		"time": 8152,
		"track": 4
	},
	{
		"deltaTime": 0,
		"channel": 2,
		"type": "channel",
		"noteNumber": 55,
		"velocity": 85.33333333333333,
		"subtype": "noteOn",
		"time": 8160,
		"track": 3
	},
	{
		"deltaTime": 16,
		"channel": 9,
		"type": "channel",
		"noteNumber": 42,
		"velocity": 127,
		"subtype": "noteOn",
		"time": 8160,
		"track": 4
	},
	{
		"deltaTime": 16,
		"channel": 2,
		"type": "channel",
		"subtype": "noteOff",
		"noteNumber": 55,
		"velocity": 0,
		"time": 8176,
		"track": 3
	},
	{
		"deltaTime": 16,
		"channel": 9,
		"type": "channel",
		"subtype": "noteOff",
		"noteNumber": 42,
		"velocity": 0,
		"time": 8192,
		"track": 4
	},
	{
		"deltaTime": 0,
		"channel": 0,
		"type": "channel",
		"noteNumber": 68,
		"velocity": 85.33333333333333,
		"subtype": "noteOn",
		"time": 8208,
		"track": 1
	},
	{
		"deltaTime": 0,
		"channel": 1,
		"type": "channel",
		"noteNumber": 64,
		"velocity": 85.33333333333333,
		"subtype": "noteOn",
		"time": 8208,
		"track": 2
	},
	{
		"deltaTime": 0,
		"channel": 2,
		"type": "channel",
		"noteNumber": 60,
		"velocity": 85.33333333333333,
		"subtype": "noteOn",
		"time": 8208,
		"track": 3
	},
	{
		"deltaTime": 16,
		"channel": 9,
		"type": "channel",
		"noteNumber": 42,
		"velocity": 127,
		"subtype": "noteOn",
		"time": 8208,
		"track": 4
	},
	{
		"deltaTime": 0,
		"channel": 0,
		"type": "channel",
		"subtype": "noteOff",
		"noteNumber": 68,
		"velocity": 0,
		"time": 8224,
		"track": 1
	},
	{
		"deltaTime": 0,
		"channel": 1,
		"type": "channel",
		"subtype": "noteOff",
		"noteNumber": 64,
		"velocity": 0,
		"time": 8224,
		"track": 2
	},
	{
		"deltaTime": 0,
		"channel": 2,
		"type": "channel",
		"subtype": "noteOff",
		"noteNumber": 60,
		"velocity": 0,
		"time": 8224,
		"track": 3
	},
	{
		"deltaTime": 32,
		"channel": 9,
		"type": "channel",
		"subtype": "noteOff",
		"noteNumber": 42,
		"velocity": 0,
		"time": 8224,
		"track": 4
	},
	{
		"deltaTime": 0,
		"channel": 0,
		"type": "channel",
		"noteNumber": 69,
		"velocity": 85.33333333333333,
		"subtype": "noteOn",
		"time": 8256,
		"track": 1
	},
	{
		"deltaTime": 0,
		"channel": 1,
		"type": "channel",
		"noteNumber": 65,
		"velocity": 85.33333333333333,
		"subtype": "noteOn",
		"time": 8256,
		"track": 2
	},
	{
		"deltaTime": 0,
		"channel": 2,
		"type": "channel",
		"noteNumber": 53,
		"velocity": 85.33333333333333,
		"subtype": "noteOn",
		"time": 8256,
		"track": 3
	},
	{
		"deltaTime": 16,
		"channel": 9,
		"type": "channel",
		"noteNumber": 42,
		"velocity": 127,
		"subtype": "noteOn",
		"time": 8256,
		"track": 4
	},
	{
		"deltaTime": 0,
		"channel": 0,
		"type": "channel",
		"subtype": "noteOff",
		"noteNumber": 69,
		"velocity": 0,
		"time": 8272,
		"track": 1
	},
	{
		"deltaTime": 0,
		"channel": 1,
		"type": "channel",
		"subtype": "noteOff",
		"noteNumber": 65,
		"velocity": 0,
		"time": 8272,
		"track": 2
	},
	{
		"deltaTime": 0,
		"channel": 2,
		"type": "channel",
		"subtype": "noteOff",
		"noteNumber": 53,
		"velocity": 0,
		"time": 8272,
		"track": 3
	},
	{
		"deltaTime": 8,
		"channel": 9,
		"type": "channel",
		"subtype": "noteOff",
		"noteNumber": 42,
		"velocity": 0,
		"time": 8272,
		"track": 4
	},
	{
		"deltaTime": 0,
		"channel": 0,
		"type": "channel",
		"noteNumber": 77,
		"velocity": 85.33333333333333,
		"subtype": "noteOn",
		"time": 8280,
		"track": 1
	},
	{
		"deltaTime": 16,
		"channel": 1,
		"type": "channel",
		"noteNumber": 72,
		"velocity": 85.33333333333333,
		"subtype": "noteOn",
		"time": 8280,
		"track": 2
	},
	{
		"deltaTime": 0,
		"channel": 0,
		"type": "channel",
		"subtype": "noteOff",
		"noteNumber": 77,
		"velocity": 0,
		"time": 8296,
		"track": 1
	},
	{
		"deltaTime": 8,
		"channel": 1,
		"type": "channel",
		"subtype": "noteOff",
		"noteNumber": 72,
		"velocity": 0,
		"time": 8296,
		"track": 2
	},
	{
		"deltaTime": 16,
		"channel": 2,
		"type": "channel",
		"noteNumber": 53,
		"velocity": 85.33333333333333,
		"subtype": "noteOn",
		"time": 8304,
		"track": 3
	},
	{
		"deltaTime": 8,
		"channel": 2,
		"type": "channel",
		"subtype": "noteOff",
		"noteNumber": 53,
		"velocity": 0,
		"time": 8320,
		"track": 3
	},
	{
		"deltaTime": 0,
		"channel": 0,
		"type": "channel",
		"noteNumber": 77,
		"velocity": 85.33333333333333,
		"subtype": "noteOn",
		"time": 8328,
		"track": 1
	},
	{
		"deltaTime": 0,
		"channel": 1,
		"type": "channel",
		"noteNumber": 72,
		"velocity": 85.33333333333333,
		"subtype": "noteOn",
		"time": 8328,
		"track": 2
	},
	{
		"deltaTime": 16,
		"channel": 9,
		"type": "channel",
		"noteNumber": 42,
		"velocity": 127,
		"subtype": "noteOn",
		"time": 8328,
		"track": 4
	},
	{
		"deltaTime": 0,
		"channel": 0,
		"type": "channel",
		"subtype": "noteOff",
		"noteNumber": 77,
		"velocity": 0,
		"time": 8344,
		"track": 1
	},
	{
		"deltaTime": 0,
		"channel": 1,
		"type": "channel",
		"subtype": "noteOff",
		"noteNumber": 72,
		"velocity": 0,
		"time": 8344,
		"track": 2
	},
	{
		"deltaTime": 8,
		"channel": 9,
		"type": "channel",
		"subtype": "noteOff",
		"noteNumber": 42,
		"velocity": 0,
		"time": 8344,
		"track": 4
	},
	{
		"deltaTime": 0,
		"channel": 0,
		"type": "channel",
		"noteNumber": 69,
		"velocity": 85.33333333333333,
		"subtype": "noteOn",
		"time": 8352,
		"track": 1
	},
	{
		"deltaTime": 0,
		"channel": 1,
		"type": "channel",
		"noteNumber": 65,
		"velocity": 85.33333333333333,
		"subtype": "noteOn",
		"time": 8352,
		"track": 2
	},
	{
		"deltaTime": 0,
		"channel": 2,
		"type": "channel",
		"noteNumber": 60,
		"velocity": 85.33333333333333,
		"subtype": "noteOn",
		"time": 8352,
		"track": 3
	},
	{
		"deltaTime": 16,
		"channel": 9,
		"type": "channel",
		"noteNumber": 42,
		"velocity": 127,
		"subtype": "noteOn",
		"time": 8352,
		"track": 4
	},
	{
		"deltaTime": 0,
		"channel": 0,
		"type": "channel",
		"subtype": "noteOff",
		"noteNumber": 69,
		"velocity": 0,
		"time": 8368,
		"track": 1
	},
	{
		"deltaTime": 0,
		"channel": 1,
		"type": "channel",
		"subtype": "noteOff",
		"noteNumber": 65,
		"velocity": 0,
		"time": 8368,
		"track": 2
	},
	{
		"deltaTime": 8,
		"channel": 2,
		"type": "channel",
		"subtype": "noteOff",
		"noteNumber": 60,
		"velocity": 0,
		"time": 8368,
		"track": 3
	},
	{
		"deltaTime": 8,
		"channel": 2,
		"type": "channel",
		"noteNumber": 60,
		"velocity": 85.33333333333333,
		"subtype": "noteOn",
		"time": 8376,
		"track": 3
	},
	{
		"deltaTime": 8,
		"channel": 9,
		"type": "channel",
		"subtype": "noteOff",
		"noteNumber": 42,
		"velocity": 0,
		"time": 8384,
		"track": 4
	},
	{
		"deltaTime": 8,
		"channel": 2,
		"type": "channel",
		"subtype": "noteOff",
		"noteNumber": 60,
		"velocity": 0,
		"time": 8392,
		"track": 3
	},
	{
		"deltaTime": 0,
		"channel": 2,
		"type": "channel",
		"noteNumber": 53,
		"velocity": 85.33333333333333,
		"subtype": "noteOn",
		"time": 8400,
		"track": 3
	},
	{
		"deltaTime": 16,
		"channel": 9,
		"type": "channel",
		"noteNumber": 42,
		"velocity": 127,
		"subtype": "noteOn",
		"time": 8400,
		"track": 4
	},
	{
		"deltaTime": 0,
		"channel": 2,
		"type": "channel",
		"subtype": "noteOff",
		"noteNumber": 53,
		"velocity": 0,
		"time": 8416,
		"track": 3
	},
	{
		"deltaTime": 32,
		"channel": 9,
		"type": "channel",
		"subtype": "noteOff",
		"noteNumber": 42,
		"velocity": 0,
		"time": 8416,
		"track": 4
	},
	{
		"deltaTime": 0,
		"channel": 0,
		"type": "channel",
		"noteNumber": 71,
		"velocity": 85.33333333333333,
		"subtype": "noteOn",
		"time": 8448,
		"track": 1
	},
	{
		"deltaTime": 0,
		"channel": 1,
		"type": "channel",
		"noteNumber": 67,
		"velocity": 85.33333333333333,
		"subtype": "noteOn",
		"time": 8448,
		"track": 2
	},
	{
		"deltaTime": 0,
		"channel": 2,
		"type": "channel",
		"noteNumber": 50,
		"velocity": 85.33333333333333,
		"subtype": "noteOn",
		"time": 8448,
		"track": 3
	},
	{
		"deltaTime": 16,
		"channel": 9,
		"type": "channel",
		"noteNumber": 42,
		"velocity": 127,
		"subtype": "noteOn",
		"time": 8448,
		"track": 4
	},
	{
		"deltaTime": 0,
		"channel": 0,
		"type": "channel",
		"subtype": "noteOff",
		"noteNumber": 71,
		"velocity": 0,
		"time": 8464,
		"track": 1
	},
	{
		"deltaTime": 0,
		"channel": 1,
		"type": "channel",
		"subtype": "noteOff",
		"noteNumber": 67,
		"velocity": 0,
		"time": 8464,
		"track": 2
	},
	{
		"deltaTime": 0,
		"channel": 2,
		"type": "channel",
		"subtype": "noteOff",
		"noteNumber": 50,
		"velocity": 0,
		"time": 8464,
		"track": 3
	},
	{
		"deltaTime": 16,
		"channel": 9,
		"type": "channel",
		"subtype": "noteOff",
		"noteNumber": 42,
		"velocity": 0,
		"time": 8464,
		"track": 4
	},
	{
		"deltaTime": 0,
		"channel": 0,
		"type": "channel",
		"noteNumber": 81,
		"velocity": 85.33333333333333,
		"subtype": "noteOn",
		"time": 8480,
		"track": 1
	},
	{
		"deltaTime": 16,
		"channel": 1,
		"type": "channel",
		"noteNumber": 77,
		"velocity": 85.33333333333333,
		"subtype": "noteOn",
		"time": 8480,
		"track": 2
	},
	{
		"deltaTime": 0,
		"channel": 0,
		"type": "channel",
		"subtype": "noteOff",
		"noteNumber": 81,
		"velocity": 0,
		"time": 8496,
		"track": 1
	},
	{
		"deltaTime": 16,
		"channel": 1,
		"type": "channel",
		"subtype": "noteOff",
		"noteNumber": 77,
		"velocity": 0,
		"time": 8496,
		"track": 2
	},
	{
		"deltaTime": 0,
		"channel": 0,
		"type": "channel",
		"noteNumber": 81,
		"velocity": 85.33333333333333,
		"subtype": "noteOn",
		"time": 8512,
		"track": 1
	},
	{
		"deltaTime": 8,
		"channel": 1,
		"type": "channel",
		"noteNumber": 77,
		"velocity": 85.33333333333333,
		"subtype": "noteOn",
		"time": 8512,
		"track": 2
	},
	{
		"deltaTime": 0,
		"channel": 2,
		"type": "channel",
		"noteNumber": 53,
		"velocity": 85.33333333333333,
		"subtype": "noteOn",
		"time": 8520,
		"track": 3
	},
	{
		"deltaTime": 8,
		"channel": 9,
		"type": "channel",
		"noteNumber": 42,
		"velocity": 127,
		"subtype": "noteOn",
		"time": 8520,
		"track": 4
	},
	{
		"deltaTime": 0,
		"channel": 0,
		"type": "channel",
		"subtype": "noteOff",
		"noteNumber": 81,
		"velocity": 0,
		"time": 8528,
		"track": 1
	},
	{
		"deltaTime": 8,
		"channel": 1,
		"type": "channel",
		"subtype": "noteOff",
		"noteNumber": 77,
		"velocity": 0,
		"time": 8528,
		"track": 2
	},
	{
		"deltaTime": 0,
		"channel": 2,
		"type": "channel",
		"subtype": "noteOff",
		"noteNumber": 53,
		"velocity": 0,
		"time": 8536,
		"track": 3
	},
	{
		"deltaTime": 8,
		"channel": 9,
		"type": "channel",
		"subtype": "noteOff",
		"noteNumber": 42,
		"velocity": 0,
		"time": 8536,
		"track": 4
	},
	{
		"deltaTime": 0,
		"channel": 0,
		"type": "channel",
		"noteNumber": 81,
		"velocity": 85.33333333333333,
		"subtype": "noteOn",
		"time": 8544,
		"track": 1
	},
	{
		"deltaTime": 0,
		"channel": 1,
		"type": "channel",
		"noteNumber": 77,
		"velocity": 85.33333333333333,
		"subtype": "noteOn",
		"time": 8544,
		"track": 2
	},
	{
		"deltaTime": 0,
		"channel": 2,
		"type": "channel",
		"noteNumber": 55,
		"velocity": 85.33333333333333,
		"subtype": "noteOn",
		"time": 8544,
		"track": 3
	},
	{
		"deltaTime": 16,
		"channel": 9,
		"type": "channel",
		"noteNumber": 42,
		"velocity": 127,
		"subtype": "noteOn",
		"time": 8544,
		"track": 4
	},
	{
		"deltaTime": 0,
		"channel": 0,
		"type": "channel",
		"subtype": "noteOff",
		"noteNumber": 81,
		"velocity": 0,
		"time": 8560,
		"track": 1
	},
	{
		"deltaTime": 0,
		"channel": 1,
		"type": "channel",
		"subtype": "noteOff",
		"noteNumber": 77,
		"velocity": 0,
		"time": 8560,
		"track": 2
	},
	{
		"deltaTime": 16,
		"channel": 2,
		"type": "channel",
		"subtype": "noteOff",
		"noteNumber": 55,
		"velocity": 0,
		"time": 8560,
		"track": 3
	},
	{
		"deltaTime": 0,
		"channel": 0,
		"type": "channel",
		"noteNumber": 79,
		"velocity": 85.33333333333333,
		"subtype": "noteOn",
		"time": 8576,
		"track": 1
	},
	{
		"deltaTime": 0,
		"channel": 1,
		"type": "channel",
		"noteNumber": 76,
		"velocity": 85.33333333333333,
		"subtype": "noteOn",
		"time": 8576,
		"track": 2
	},
	{
		"deltaTime": 16,
		"channel": 9,
		"type": "channel",
		"subtype": "noteOff",
		"noteNumber": 42,
		"velocity": 0,
		"time": 8576,
		"track": 4
	},
	{
		"deltaTime": 0,
		"channel": 0,
		"type": "channel",
		"subtype": "noteOff",
		"noteNumber": 79,
		"velocity": 0,
		"time": 8592,
		"track": 1
	},
	{
		"deltaTime": 0,
		"channel": 1,
		"type": "channel",
		"subtype": "noteOff",
		"noteNumber": 76,
		"velocity": 0,
		"time": 8592,
		"track": 2
	},
	{
		"deltaTime": 0,
		"channel": 2,
		"type": "channel",
		"noteNumber": 59,
		"velocity": 85.33333333333333,
		"subtype": "noteOn",
		"time": 8592,
		"track": 3
	},
	{
		"deltaTime": 16,
		"channel": 9,
		"type": "channel",
		"noteNumber": 42,
		"velocity": 127,
		"subtype": "noteOn",
		"time": 8592,
		"track": 4
	},
	{
		"deltaTime": 0,
		"channel": 0,
		"type": "channel",
		"noteNumber": 77,
		"velocity": 85.33333333333333,
		"subtype": "noteOn",
		"time": 8608,
		"track": 1
	},
	{
		"deltaTime": 0,
		"channel": 1,
		"type": "channel",
		"noteNumber": 74,
		"velocity": 85.33333333333333,
		"subtype": "noteOn",
		"time": 8608,
		"track": 2
	},
	{
		"deltaTime": 0,
		"channel": 2,
		"type": "channel",
		"subtype": "noteOff",
		"noteNumber": 59,
		"velocity": 0,
		"time": 8608,
		"track": 3
	},
	{
		"deltaTime": 16,
		"channel": 9,
		"type": "channel",
		"subtype": "noteOff",
		"noteNumber": 42,
		"velocity": 0,
		"time": 8608,
		"track": 4
	},
	{
		"deltaTime": 0,
		"channel": 0,
		"type": "channel",
		"subtype": "noteOff",
		"noteNumber": 77,
		"velocity": 0,
		"time": 8624,
		"track": 1
	},
	{
		"deltaTime": 16,
		"channel": 1,
		"type": "channel",
		"subtype": "noteOff",
		"noteNumber": 74,
		"velocity": 0,
		"time": 8624,
		"track": 2
	},
	{
		"deltaTime": 0,
		"channel": 0,
		"type": "channel",
		"noteNumber": 76,
		"velocity": 85.33333333333333,
		"subtype": "noteOn",
		"time": 8640,
		"track": 1
	},
	{
		"deltaTime": 0,
		"channel": 1,
		"type": "channel",
		"noteNumber": 72,
		"velocity": 85.33333333333333,
		"subtype": "noteOn",
		"time": 8640,
		"track": 2
	},
	{
		"deltaTime": 0,
		"channel": 2,
		"type": "channel",
		"noteNumber": 55,
		"velocity": 85.33333333333333,
		"subtype": "noteOn",
		"time": 8640,
		"track": 3
	},
	{
		"deltaTime": 16,
		"channel": 9,
		"type": "channel",
		"noteNumber": 42,
		"velocity": 127,
		"subtype": "noteOn",
		"time": 8640,
		"track": 4
	},
	{
		"deltaTime": 0,
		"channel": 0,
		"type": "channel",
		"subtype": "noteOff",
		"noteNumber": 76,
		"velocity": 0,
		"time": 8656,
		"track": 1
	},
	{
		"deltaTime": 0,
		"channel": 1,
		"type": "channel",
		"subtype": "noteOff",
		"noteNumber": 72,
		"velocity": 0,
		"time": 8656,
		"track": 2
	},
	{
		"deltaTime": 0,
		"channel": 2,
		"type": "channel",
		"subtype": "noteOff",
		"noteNumber": 55,
		"velocity": 0,
		"time": 8656,
		"track": 3
	},
	{
		"deltaTime": 8,
		"channel": 9,
		"type": "channel",
		"subtype": "noteOff",
		"noteNumber": 42,
		"velocity": 0,
		"time": 8656,
		"track": 4
	},
	{
		"deltaTime": 0,
		"channel": 0,
		"type": "channel",
		"noteNumber": 72,
		"velocity": 85.33333333333333,
		"subtype": "noteOn",
		"time": 8664,
		"track": 1
	},
	{
		"deltaTime": 16,
		"channel": 1,
		"type": "channel",
		"noteNumber": 69,
		"velocity": 85.33333333333333,
		"subtype": "noteOn",
		"time": 8664,
		"track": 2
	},
	{
		"deltaTime": 0,
		"channel": 0,
		"type": "channel",
		"subtype": "noteOff",
		"noteNumber": 72,
		"velocity": 0,
		"time": 8680,
		"track": 1
	},
	{
		"deltaTime": 8,
		"channel": 1,
		"type": "channel",
		"subtype": "noteOff",
		"noteNumber": 69,
		"velocity": 0,
		"time": 8680,
		"track": 2
	},
	{
		"deltaTime": 16,
		"channel": 2,
		"type": "channel",
		"noteNumber": 55,
		"velocity": 85.33333333333333,
		"subtype": "noteOn",
		"time": 8688,
		"track": 3
	},
	{
		"deltaTime": 8,
		"channel": 2,
		"type": "channel",
		"subtype": "noteOff",
		"noteNumber": 55,
		"velocity": 0,
		"time": 8704,
		"track": 3
	},
	{
		"deltaTime": 0,
		"channel": 0,
		"type": "channel",
		"noteNumber": 69,
		"velocity": 85.33333333333333,
		"subtype": "noteOn",
		"time": 8712,
		"track": 1
	},
	{
		"deltaTime": 0,
		"channel": 1,
		"type": "channel",
		"noteNumber": 65,
		"velocity": 85.33333333333333,
		"subtype": "noteOn",
		"time": 8712,
		"track": 2
	},
	{
		"deltaTime": 16,
		"channel": 9,
		"type": "channel",
		"noteNumber": 42,
		"velocity": 127,
		"subtype": "noteOn",
		"time": 8712,
		"track": 4
	},
	{
		"deltaTime": 0,
		"channel": 0,
		"type": "channel",
		"subtype": "noteOff",
		"noteNumber": 69,
		"velocity": 0,
		"time": 8728,
		"track": 1
	},
	{
		"deltaTime": 0,
		"channel": 1,
		"type": "channel",
		"subtype": "noteOff",
		"noteNumber": 65,
		"velocity": 0,
		"time": 8728,
		"track": 2
	},
	{
		"deltaTime": 8,
		"channel": 9,
		"type": "channel",
		"subtype": "noteOff",
		"noteNumber": 42,
		"velocity": 0,
		"time": 8728,
		"track": 4
	},
	{
		"deltaTime": 0,
		"channel": 0,
		"type": "channel",
		"noteNumber": 67,
		"velocity": 85.33333333333333,
		"subtype": "noteOn",
		"time": 8736,
		"track": 1
	},
	{
		"deltaTime": 0,
		"channel": 1,
		"type": "channel",
		"noteNumber": 64,
		"velocity": 85.33333333333333,
		"subtype": "noteOn",
		"time": 8736,
		"track": 2
	},
	{
		"deltaTime": 0,
		"channel": 2,
		"type": "channel",
		"noteNumber": 60,
		"velocity": 85.33333333333333,
		"subtype": "noteOn",
		"time": 8736,
		"track": 3
	},
	{
		"deltaTime": 16,
		"channel": 9,
		"type": "channel",
		"noteNumber": 42,
		"velocity": 127,
		"subtype": "noteOn",
		"time": 8736,
		"track": 4
	},
	{
		"deltaTime": 0,
		"channel": 0,
		"type": "channel",
		"subtype": "noteOff",
		"noteNumber": 67,
		"velocity": 0,
		"time": 8752,
		"track": 1
	},
	{
		"deltaTime": 0,
		"channel": 1,
		"type": "channel",
		"subtype": "noteOff",
		"noteNumber": 64,
		"velocity": 0,
		"time": 8752,
		"track": 2
	},
	{
		"deltaTime": 8,
		"channel": 2,
		"type": "channel",
		"subtype": "noteOff",
		"noteNumber": 60,
		"velocity": 0,
		"time": 8752,
		"track": 3
	},
	{
		"deltaTime": 8,
		"channel": 2,
		"type": "channel",
		"noteNumber": 60,
		"velocity": 85.33333333333333,
		"subtype": "noteOn",
		"time": 8760,
		"track": 3
	},
	{
		"deltaTime": 8,
		"channel": 9,
		"type": "channel",
		"subtype": "noteOff",
		"noteNumber": 42,
		"velocity": 0,
		"time": 8768,
		"track": 4
	},
	{
		"deltaTime": 8,
		"channel": 2,
		"type": "channel",
		"subtype": "noteOff",
		"noteNumber": 60,
		"velocity": 0,
		"time": 8776,
		"track": 3
	},
	{
		"deltaTime": 0,
		"channel": 2,
		"type": "channel",
		"noteNumber": 55,
		"velocity": 85.33333333333333,
		"subtype": "noteOn",
		"time": 8784,
		"track": 3
	},
	{
		"deltaTime": 16,
		"channel": 9,
		"type": "channel",
		"noteNumber": 42,
		"velocity": 127,
		"subtype": "noteOn",
		"time": 8784,
		"track": 4
	},
	{
		"deltaTime": 0,
		"channel": 2,
		"type": "channel",
		"subtype": "noteOff",
		"noteNumber": 55,
		"velocity": 0,
		"time": 8800,
		"track": 3
	},
	{
		"deltaTime": 32,
		"channel": 9,
		"type": "channel",
		"subtype": "noteOff",
		"noteNumber": 42,
		"velocity": 0,
		"time": 8800,
		"track": 4
	},
	{
		"deltaTime": 0,
		"channel": 0,
		"type": "channel",
		"noteNumber": 76,
		"velocity": 85.33333333333333,
		"subtype": "noteOn",
		"time": 8832,
		"track": 1
	},
	{
		"deltaTime": 0,
		"channel": 1,
		"type": "channel",
		"noteNumber": 72,
		"velocity": 85.33333333333333,
		"subtype": "noteOn",
		"time": 8832,
		"track": 2
	},
	{
		"deltaTime": 0,
		"channel": 2,
		"type": "channel",
		"noteNumber": 48,
		"velocity": 85.33333333333333,
		"subtype": "noteOn",
		"time": 8832,
		"track": 3
	},
	{
		"deltaTime": 16,
		"channel": 9,
		"type": "channel",
		"noteNumber": 42,
		"velocity": 127,
		"subtype": "noteOn",
		"time": 8832,
		"track": 4
	},
	{
		"deltaTime": 0,
		"channel": 0,
		"type": "channel",
		"subtype": "noteOff",
		"noteNumber": 76,
		"velocity": 0,
		"time": 8848,
		"track": 1
	},
	{
		"deltaTime": 0,
		"channel": 1,
		"type": "channel",
		"subtype": "noteOff",
		"noteNumber": 72,
		"velocity": 0,
		"time": 8848,
		"track": 2
	},
	{
		"deltaTime": 0,
		"channel": 2,
		"type": "channel",
		"subtype": "noteOff",
		"noteNumber": 48,
		"velocity": 0,
		"time": 8848,
		"track": 3
	},
	{
		"deltaTime": 8,
		"channel": 9,
		"type": "channel",
		"subtype": "noteOff",
		"noteNumber": 42,
		"velocity": 0,
		"time": 8848,
		"track": 4
	},
	{
		"deltaTime": 0,
		"channel": 0,
		"type": "channel",
		"noteNumber": 72,
		"velocity": 85.33333333333333,
		"subtype": "noteOn",
		"time": 8856,
		"track": 1
	},
	{
		"deltaTime": 16,
		"channel": 1,
		"type": "channel",
		"noteNumber": 69,
		"velocity": 85.33333333333333,
		"subtype": "noteOn",
		"time": 8856,
		"track": 2
	},
	{
		"deltaTime": 0,
		"channel": 0,
		"type": "channel",
		"subtype": "noteOff",
		"noteNumber": 72,
		"velocity": 0,
		"time": 8872,
		"track": 1
	},
	{
		"deltaTime": 32,
		"channel": 1,
		"type": "channel",
		"subtype": "noteOff",
		"noteNumber": 69,
		"velocity": 0,
		"time": 8872,
		"track": 2
	},
	{
		"deltaTime": 0,
		"channel": 0,
		"type": "channel",
		"noteNumber": 67,
		"velocity": 85.33333333333333,
		"subtype": "noteOn",
		"time": 8904,
		"track": 1
	},
	{
		"deltaTime": 0,
		"channel": 1,
		"type": "channel",
		"noteNumber": 64,
		"velocity": 85.33333333333333,
		"subtype": "noteOn",
		"time": 8904,
		"track": 2
	},
	{
		"deltaTime": 0,
		"channel": 2,
		"type": "channel",
		"noteNumber": 54,
		"velocity": 85.33333333333333,
		"subtype": "noteOn",
		"time": 8904,
		"track": 3
	},
	{
		"deltaTime": 16,
		"channel": 9,
		"type": "channel",
		"noteNumber": 42,
		"velocity": 127,
		"subtype": "noteOn",
		"time": 8904,
		"track": 4
	},
	{
		"deltaTime": 0,
		"channel": 0,
		"type": "channel",
		"subtype": "noteOff",
		"noteNumber": 67,
		"velocity": 0,
		"time": 8920,
		"track": 1
	},
	{
		"deltaTime": 0,
		"channel": 1,
		"type": "channel",
		"subtype": "noteOff",
		"noteNumber": 64,
		"velocity": 0,
		"time": 8920,
		"track": 2
	},
	{
		"deltaTime": 0,
		"channel": 2,
		"type": "channel",
		"subtype": "noteOff",
		"noteNumber": 54,
		"velocity": 0,
		"time": 8920,
		"track": 3
	},
	{
		"deltaTime": 8,
		"channel": 9,
		"type": "channel",
		"subtype": "noteOff",
		"noteNumber": 42,
		"velocity": 0,
		"time": 8920,
		"track": 4
	},
	{
		"deltaTime": 0,
		"channel": 2,
		"type": "channel",
		"noteNumber": 55,
		"velocity": 85.33333333333333,
		"subtype": "noteOn",
		"time": 8928,
		"track": 3
	},
	{
		"deltaTime": 16,
		"channel": 9,
		"type": "channel",
		"noteNumber": 42,
		"velocity": 127,
		"subtype": "noteOn",
		"time": 8928,
		"track": 4
	},
	{
		"deltaTime": 16,
		"channel": 2,
		"type": "channel",
		"subtype": "noteOff",
		"noteNumber": 55,
		"velocity": 0,
		"time": 8944,
		"track": 3
	},
	{
		"deltaTime": 16,
		"channel": 9,
		"type": "channel",
		"subtype": "noteOff",
		"noteNumber": 42,
		"velocity": 0,
		"time": 8960,
		"track": 4
	},
	{
		"deltaTime": 0,
		"channel": 0,
		"type": "channel",
		"noteNumber": 68,
		"velocity": 85.33333333333333,
		"subtype": "noteOn",
		"time": 8976,
		"track": 1
	},
	{
		"deltaTime": 0,
		"channel": 1,
		"type": "channel",
		"noteNumber": 64,
		"velocity": 85.33333333333333,
		"subtype": "noteOn",
		"time": 8976,
		"track": 2
	},
	{
		"deltaTime": 0,
		"channel": 2,
		"type": "channel",
		"noteNumber": 60,
		"velocity": 85.33333333333333,
		"subtype": "noteOn",
		"time": 8976,
		"track": 3
	},
	{
		"deltaTime": 16,
		"channel": 9,
		"type": "channel",
		"noteNumber": 42,
		"velocity": 127,
		"subtype": "noteOn",
		"time": 8976,
		"track": 4
	},
	{
		"deltaTime": 0,
		"channel": 0,
		"type": "channel",
		"subtype": "noteOff",
		"noteNumber": 68,
		"velocity": 0,
		"time": 8992,
		"track": 1
	},
	{
		"deltaTime": 0,
		"channel": 1,
		"type": "channel",
		"subtype": "noteOff",
		"noteNumber": 64,
		"velocity": 0,
		"time": 8992,
		"track": 2
	},
	{
		"deltaTime": 0,
		"channel": 2,
		"type": "channel",
		"subtype": "noteOff",
		"noteNumber": 60,
		"velocity": 0,
		"time": 8992,
		"track": 3
	},
	{
		"deltaTime": 32,
		"channel": 9,
		"type": "channel",
		"subtype": "noteOff",
		"noteNumber": 42,
		"velocity": 0,
		"time": 8992,
		"track": 4
	},
	{
		"deltaTime": 0,
		"channel": 0,
		"type": "channel",
		"noteNumber": 69,
		"velocity": 85.33333333333333,
		"subtype": "noteOn",
		"time": 9024,
		"track": 1
	},
	{
		"deltaTime": 0,
		"channel": 1,
		"type": "channel",
		"noteNumber": 65,
		"velocity": 85.33333333333333,
		"subtype": "noteOn",
		"time": 9024,
		"track": 2
	},
	{
		"deltaTime": 0,
		"channel": 2,
		"type": "channel",
		"noteNumber": 53,
		"velocity": 85.33333333333333,
		"subtype": "noteOn",
		"time": 9024,
		"track": 3
	},
	{
		"deltaTime": 16,
		"channel": 9,
		"type": "channel",
		"noteNumber": 42,
		"velocity": 127,
		"subtype": "noteOn",
		"time": 9024,
		"track": 4
	},
	{
		"deltaTime": 0,
		"channel": 0,
		"type": "channel",
		"subtype": "noteOff",
		"noteNumber": 69,
		"velocity": 0,
		"time": 9040,
		"track": 1
	},
	{
		"deltaTime": 0,
		"channel": 1,
		"type": "channel",
		"subtype": "noteOff",
		"noteNumber": 65,
		"velocity": 0,
		"time": 9040,
		"track": 2
	},
	{
		"deltaTime": 0,
		"channel": 2,
		"type": "channel",
		"subtype": "noteOff",
		"noteNumber": 53,
		"velocity": 0,
		"time": 9040,
		"track": 3
	},
	{
		"deltaTime": 8,
		"channel": 9,
		"type": "channel",
		"subtype": "noteOff",
		"noteNumber": 42,
		"velocity": 0,
		"time": 9040,
		"track": 4
	},
	{
		"deltaTime": 0,
		"channel": 0,
		"type": "channel",
		"noteNumber": 77,
		"velocity": 85.33333333333333,
		"subtype": "noteOn",
		"time": 9048,
		"track": 1
	},
	{
		"deltaTime": 16,
		"channel": 1,
		"type": "channel",
		"noteNumber": 72,
		"velocity": 85.33333333333333,
		"subtype": "noteOn",
		"time": 9048,
		"track": 2
	},
	{
		"deltaTime": 0,
		"channel": 0,
		"type": "channel",
		"subtype": "noteOff",
		"noteNumber": 77,
		"velocity": 0,
		"time": 9064,
		"track": 1
	},
	{
		"deltaTime": 8,
		"channel": 1,
		"type": "channel",
		"subtype": "noteOff",
		"noteNumber": 72,
		"velocity": 0,
		"time": 9064,
		"track": 2
	},
	{
		"deltaTime": 16,
		"channel": 2,
		"type": "channel",
		"noteNumber": 53,
		"velocity": 85.33333333333333,
		"subtype": "noteOn",
		"time": 9072,
		"track": 3
	},
	{
		"deltaTime": 8,
		"channel": 2,
		"type": "channel",
		"subtype": "noteOff",
		"noteNumber": 53,
		"velocity": 0,
		"time": 9088,
		"track": 3
	},
	{
		"deltaTime": 0,
		"channel": 0,
		"type": "channel",
		"noteNumber": 77,
		"velocity": 85.33333333333333,
		"subtype": "noteOn",
		"time": 9096,
		"track": 1
	},
	{
		"deltaTime": 0,
		"channel": 1,
		"type": "channel",
		"noteNumber": 72,
		"velocity": 85.33333333333333,
		"subtype": "noteOn",
		"time": 9096,
		"track": 2
	},
	{
		"deltaTime": 16,
		"channel": 9,
		"type": "channel",
		"noteNumber": 42,
		"velocity": 127,
		"subtype": "noteOn",
		"time": 9096,
		"track": 4
	},
	{
		"deltaTime": 0,
		"channel": 0,
		"type": "channel",
		"subtype": "noteOff",
		"noteNumber": 77,
		"velocity": 0,
		"time": 9112,
		"track": 1
	},
	{
		"deltaTime": 0,
		"channel": 1,
		"type": "channel",
		"subtype": "noteOff",
		"noteNumber": 72,
		"velocity": 0,
		"time": 9112,
		"track": 2
	},
	{
		"deltaTime": 8,
		"channel": 9,
		"type": "channel",
		"subtype": "noteOff",
		"noteNumber": 42,
		"velocity": 0,
		"time": 9112,
		"track": 4
	},
	{
		"deltaTime": 0,
		"channel": 0,
		"type": "channel",
		"noteNumber": 69,
		"velocity": 85.33333333333333,
		"subtype": "noteOn",
		"time": 9120,
		"track": 1
	},
	{
		"deltaTime": 0,
		"channel": 1,
		"type": "channel",
		"noteNumber": 65,
		"velocity": 85.33333333333333,
		"subtype": "noteOn",
		"time": 9120,
		"track": 2
	},
	{
		"deltaTime": 0,
		"channel": 2,
		"type": "channel",
		"noteNumber": 60,
		"velocity": 85.33333333333333,
		"subtype": "noteOn",
		"time": 9120,
		"track": 3
	},
	{
		"deltaTime": 16,
		"channel": 9,
		"type": "channel",
		"noteNumber": 42,
		"velocity": 127,
		"subtype": "noteOn",
		"time": 9120,
		"track": 4
	},
	{
		"deltaTime": 0,
		"channel": 0,
		"type": "channel",
		"subtype": "noteOff",
		"noteNumber": 69,
		"velocity": 0,
		"time": 9136,
		"track": 1
	},
	{
		"deltaTime": 0,
		"channel": 1,
		"type": "channel",
		"subtype": "noteOff",
		"noteNumber": 65,
		"velocity": 0,
		"time": 9136,
		"track": 2
	},
	{
		"deltaTime": 8,
		"channel": 2,
		"type": "channel",
		"subtype": "noteOff",
		"noteNumber": 60,
		"velocity": 0,
		"time": 9136,
		"track": 3
	},
	{
		"deltaTime": 8,
		"channel": 2,
		"type": "channel",
		"noteNumber": 60,
		"velocity": 85.33333333333333,
		"subtype": "noteOn",
		"time": 9144,
		"track": 3
	},
	{
		"deltaTime": 8,
		"channel": 9,
		"type": "channel",
		"subtype": "noteOff",
		"noteNumber": 42,
		"velocity": 0,
		"time": 9152,
		"track": 4
	},
	{
		"deltaTime": 8,
		"channel": 2,
		"type": "channel",
		"subtype": "noteOff",
		"noteNumber": 60,
		"velocity": 0,
		"time": 9160,
		"track": 3
	},
	{
		"deltaTime": 0,
		"channel": 2,
		"type": "channel",
		"noteNumber": 53,
		"velocity": 85.33333333333333,
		"subtype": "noteOn",
		"time": 9168,
		"track": 3
	},
	{
		"deltaTime": 16,
		"channel": 9,
		"type": "channel",
		"noteNumber": 42,
		"velocity": 127,
		"subtype": "noteOn",
		"time": 9168,
		"track": 4
	},
	{
		"deltaTime": 0,
		"channel": 2,
		"type": "channel",
		"subtype": "noteOff",
		"noteNumber": 53,
		"velocity": 0,
		"time": 9184,
		"track": 3
	},
	{
		"deltaTime": 32,
		"channel": 9,
		"type": "channel",
		"subtype": "noteOff",
		"noteNumber": 42,
		"velocity": 0,
		"time": 9184,
		"track": 4
	},
	{
		"deltaTime": 0,
		"channel": 0,
		"type": "channel",
		"noteNumber": 71,
		"velocity": 85.33333333333333,
		"subtype": "noteOn",
		"time": 9216,
		"track": 1
	},
	{
		"deltaTime": 0,
		"channel": 1,
		"type": "channel",
		"noteNumber": 67,
		"velocity": 85.33333333333333,
		"subtype": "noteOn",
		"time": 9216,
		"track": 2
	},
	{
		"deltaTime": 0,
		"channel": 2,
		"type": "channel",
		"noteNumber": 55,
		"velocity": 85.33333333333333,
		"subtype": "noteOn",
		"time": 9216,
		"track": 3
	},
	{
		"deltaTime": 16,
		"channel": 9,
		"type": "channel",
		"noteNumber": 42,
		"velocity": 127,
		"subtype": "noteOn",
		"time": 9216,
		"track": 4
	},
	{
		"deltaTime": 0,
		"channel": 0,
		"type": "channel",
		"subtype": "noteOff",
		"noteNumber": 71,
		"velocity": 0,
		"time": 9232,
		"track": 1
	},
	{
		"deltaTime": 0,
		"channel": 1,
		"type": "channel",
		"subtype": "noteOff",
		"noteNumber": 67,
		"velocity": 0,
		"time": 9232,
		"track": 2
	},
	{
		"deltaTime": 0,
		"channel": 2,
		"type": "channel",
		"subtype": "noteOff",
		"noteNumber": 55,
		"velocity": 0,
		"time": 9232,
		"track": 3
	},
	{
		"deltaTime": 8,
		"channel": 9,
		"type": "channel",
		"subtype": "noteOff",
		"noteNumber": 42,
		"velocity": 0,
		"time": 9232,
		"track": 4
	},
	{
		"deltaTime": 0,
		"channel": 0,
		"type": "channel",
		"noteNumber": 77,
		"velocity": 85.33333333333333,
		"subtype": "noteOn",
		"time": 9240,
		"track": 1
	},
	{
		"deltaTime": 0,
		"channel": 1,
		"type": "channel",
		"noteNumber": 74,
		"velocity": 85.33333333333333,
		"subtype": "noteOn",
		"time": 9240,
		"track": 2
	},
	{
		"deltaTime": 16,
		"channel": 2,
		"type": "channel",
		"noteNumber": 55,
		"velocity": 85.33333333333333,
		"subtype": "noteOn",
		"time": 9240,
		"track": 3
	},
	{
		"deltaTime": 0,
		"channel": 0,
		"type": "channel",
		"subtype": "noteOff",
		"noteNumber": 77,
		"velocity": 0,
		"time": 9256,
		"track": 1
	},
	{
		"deltaTime": 0,
		"channel": 1,
		"type": "channel",
		"subtype": "noteOff",
		"noteNumber": 74,
		"velocity": 0,
		"time": 9256,
		"track": 2
	},
	{
		"deltaTime": 32,
		"channel": 2,
		"type": "channel",
		"subtype": "noteOff",
		"noteNumber": 55,
		"velocity": 0,
		"time": 9256,
		"track": 3
	},
	{
		"deltaTime": 0,
		"channel": 0,
		"type": "channel",
		"noteNumber": 77,
		"velocity": 85.33333333333333,
		"subtype": "noteOn",
		"time": 9288,
		"track": 1
	},
	{
		"deltaTime": 0,
		"channel": 1,
		"type": "channel",
		"noteNumber": 74,
		"velocity": 85.33333333333333,
		"subtype": "noteOn",
		"time": 9288,
		"track": 2
	},
	{
		"deltaTime": 0,
		"channel": 2,
		"type": "channel",
		"noteNumber": 55,
		"velocity": 85.33333333333333,
		"subtype": "noteOn",
		"time": 9288,
		"track": 3
	},
	{
		"deltaTime": 16,
		"channel": 9,
		"type": "channel",
		"noteNumber": 42,
		"velocity": 127,
		"subtype": "noteOn",
		"time": 9288,
		"track": 4
	},
	{
		"deltaTime": 0,
		"channel": 0,
		"type": "channel",
		"subtype": "noteOff",
		"noteNumber": 77,
		"velocity": 0,
		"time": 9304,
		"track": 1
	},
	{
		"deltaTime": 0,
		"channel": 1,
		"type": "channel",
		"subtype": "noteOff",
		"noteNumber": 74,
		"velocity": 0,
		"time": 9304,
		"track": 2
	},
	{
		"deltaTime": 0,
		"channel": 2,
		"type": "channel",
		"subtype": "noteOff",
		"noteNumber": 55,
		"velocity": 0,
		"time": 9304,
		"track": 3
	},
	{
		"deltaTime": 8,
		"channel": 9,
		"type": "channel",
		"subtype": "noteOff",
		"noteNumber": 42,
		"velocity": 0,
		"time": 9304,
		"track": 4
	},
	{
		"deltaTime": 0,
		"channel": 0,
		"type": "channel",
		"noteNumber": 77,
		"velocity": 85.33333333333333,
		"subtype": "noteOn",
		"time": 9312,
		"track": 1
	},
	{
		"deltaTime": 0,
		"channel": 1,
		"type": "channel",
		"noteNumber": 74,
		"velocity": 85.33333333333333,
		"subtype": "noteOn",
		"time": 9312,
		"track": 2
	},
	{
		"deltaTime": 0,
		"channel": 2,
		"type": "channel",
		"noteNumber": 55,
		"velocity": 85.33333333333333,
		"subtype": "noteOn",
		"time": 9312,
		"track": 3
	},
	{
		"deltaTime": 16,
		"channel": 9,
		"type": "channel",
		"noteNumber": 42,
		"velocity": 127,
		"subtype": "noteOn",
		"time": 9312,
		"track": 4
	},
	{
		"deltaTime": 0,
		"channel": 0,
		"type": "channel",
		"subtype": "noteOff",
		"noteNumber": 77,
		"velocity": 0,
		"time": 9328,
		"track": 1
	},
	{
		"deltaTime": 0,
		"channel": 1,
		"type": "channel",
		"subtype": "noteOff",
		"noteNumber": 74,
		"velocity": 0,
		"time": 9328,
		"track": 2
	},
	{
		"deltaTime": 16,
		"channel": 2,
		"type": "channel",
		"subtype": "noteOff",
		"noteNumber": 55,
		"velocity": 0,
		"time": 9328,
		"track": 3
	},
	{
		"deltaTime": 0,
		"channel": 0,
		"type": "channel",
		"noteNumber": 76,
		"velocity": 85.33333333333333,
		"subtype": "noteOn",
		"time": 9344,
		"track": 1
	},
	{
		"deltaTime": 0,
		"channel": 1,
		"type": "channel",
		"noteNumber": 72,
		"velocity": 85.33333333333333,
		"subtype": "noteOn",
		"time": 9344,
		"track": 2
	},
	{
		"deltaTime": 0,
		"channel": 2,
		"type": "channel",
		"noteNumber": 57,
		"velocity": 85.33333333333333,
		"subtype": "noteOn",
		"time": 9344,
		"track": 3
	},
	{
		"deltaTime": 16,
		"channel": 9,
		"type": "channel",
		"subtype": "noteOff",
		"noteNumber": 42,
		"velocity": 0,
		"time": 9344,
		"track": 4
	},
	{
		"deltaTime": 0,
		"channel": 0,
		"type": "channel",
		"subtype": "noteOff",
		"noteNumber": 76,
		"velocity": 0,
		"time": 9360,
		"track": 1
	},
	{
		"deltaTime": 0,
		"channel": 1,
		"type": "channel",
		"subtype": "noteOff",
		"noteNumber": 72,
		"velocity": 0,
		"time": 9360,
		"track": 2
	},
	{
		"deltaTime": 0,
		"channel": 2,
		"type": "channel",
		"subtype": "noteOff",
		"noteNumber": 57,
		"velocity": 0,
		"time": 9360,
		"track": 3
	},
	{
		"deltaTime": 16,
		"channel": 9,
		"type": "channel",
		"noteNumber": 42,
		"velocity": 127,
		"subtype": "noteOn",
		"time": 9360,
		"track": 4
	},
	{
		"deltaTime": 0,
		"channel": 0,
		"type": "channel",
		"noteNumber": 74,
		"velocity": 85.33333333333333,
		"subtype": "noteOn",
		"time": 9376,
		"track": 1
	},
	{
		"deltaTime": 0,
		"channel": 1,
		"type": "channel",
		"noteNumber": 71,
		"velocity": 85.33333333333333,
		"subtype": "noteOn",
		"time": 9376,
		"track": 2
	},
	{
		"deltaTime": 0,
		"channel": 2,
		"type": "channel",
		"noteNumber": 59,
		"velocity": 85.33333333333333,
		"subtype": "noteOn",
		"time": 9376,
		"track": 3
	},
	{
		"deltaTime": 16,
		"channel": 9,
		"type": "channel",
		"subtype": "noteOff",
		"noteNumber": 42,
		"velocity": 0,
		"time": 9376,
		"track": 4
	},
	{
		"deltaTime": 0,
		"channel": 0,
		"type": "channel",
		"subtype": "noteOff",
		"noteNumber": 74,
		"velocity": 0,
		"time": 9392,
		"track": 1
	},
	{
		"deltaTime": 0,
		"channel": 1,
		"type": "channel",
		"subtype": "noteOff",
		"noteNumber": 71,
		"velocity": 0,
		"time": 9392,
		"track": 2
	},
	{
		"deltaTime": 16,
		"channel": 2,
		"type": "channel",
		"subtype": "noteOff",
		"noteNumber": 59,
		"velocity": 0,
		"time": 9392,
		"track": 3
	},
	{
		"deltaTime": 0,
		"channel": 0,
		"type": "channel",
		"noteNumber": 72,
		"velocity": 85.33333333333333,
		"subtype": "noteOn",
		"time": 9408,
		"track": 1
	},
	{
		"deltaTime": 0,
		"channel": 1,
		"type": "channel",
		"noteNumber": 67,
		"velocity": 85.33333333333333,
		"subtype": "noteOn",
		"time": 9408,
		"track": 2
	},
	{
		"deltaTime": 0,
		"channel": 2,
		"type": "channel",
		"noteNumber": 60,
		"velocity": 85.33333333333333,
		"subtype": "noteOn",
		"time": 9408,
		"track": 3
	},
	{
		"deltaTime": 16,
		"channel": 9,
		"type": "channel",
		"noteNumber": 42,
		"velocity": 127,
		"subtype": "noteOn",
		"time": 9408,
		"track": 4
	},
	{
		"deltaTime": 0,
		"channel": 0,
		"type": "channel",
		"subtype": "noteOff",
		"noteNumber": 72,
		"velocity": 0,
		"time": 9424,
		"track": 1
	},
	{
		"deltaTime": 0,
		"channel": 1,
		"type": "channel",
		"subtype": "noteOff",
		"noteNumber": 67,
		"velocity": 0,
		"time": 9424,
		"track": 2
	},
	{
		"deltaTime": 0,
		"channel": 2,
		"type": "channel",
		"subtype": "noteOff",
		"noteNumber": 60,
		"velocity": 0,
		"time": 9424,
		"track": 3
	},
	{
		"deltaTime": 8,
		"channel": 9,
		"type": "channel",
		"subtype": "noteOff",
		"noteNumber": 42,
		"velocity": 0,
		"time": 9424,
		"track": 4
	},
	{
		"deltaTime": 16,
		"channel": 1,
		"type": "channel",
		"noteNumber": 64,
		"velocity": 85.33333333333333,
		"subtype": "noteOn",
		"time": 9432,
		"track": 2
	},
	{
		"deltaTime": 8,
		"channel": 1,
		"type": "channel",
		"subtype": "noteOff",
		"noteNumber": 64,
		"velocity": 0,
		"time": 9448,
		"track": 2
	},
	{
		"deltaTime": 16,
		"channel": 2,
		"type": "channel",
		"noteNumber": 55,
		"velocity": 85.33333333333333,
		"subtype": "noteOn",
		"time": 9456,
		"track": 3
	},
	{
		"deltaTime": 8,
		"channel": 2,
		"type": "channel",
		"subtype": "noteOff",
		"noteNumber": 55,
		"velocity": 0,
		"time": 9472,
		"track": 3
	},
	{
		"deltaTime": 0,
		"channel": 1,
		"type": "channel",
		"noteNumber": 64,
		"velocity": 85.33333333333333,
		"subtype": "noteOn",
		"time": 9480,
		"track": 2
	},
	{
		"deltaTime": 16,
		"channel": 9,
		"type": "channel",
		"noteNumber": 42,
		"velocity": 127,
		"subtype": "noteOn",
		"time": 9480,
		"track": 4
	},
	{
		"deltaTime": 0,
		"channel": 1,
		"type": "channel",
		"subtype": "noteOff",
		"noteNumber": 64,
		"velocity": 0,
		"time": 9496,
		"track": 2
	},
	{
		"deltaTime": 8,
		"channel": 9,
		"type": "channel",
		"subtype": "noteOff",
		"noteNumber": 42,
		"velocity": 0,
		"time": 9496,
		"track": 4
	},
	{
		"deltaTime": 0,
		"channel": 1,
		"type": "channel",
		"noteNumber": 60,
		"velocity": 85.33333333333333,
		"subtype": "noteOn",
		"time": 9504,
		"track": 2
	},
	{
		"deltaTime": 0,
		"channel": 2,
		"type": "channel",
		"noteNumber": 48,
		"velocity": 85.33333333333333,
		"subtype": "noteOn",
		"time": 9504,
		"track": 3
	},
	{
		"deltaTime": 16,
		"channel": 9,
		"type": "channel",
		"noteNumber": 42,
		"velocity": 127,
		"subtype": "noteOn",
		"time": 9504,
		"track": 4
	},
	{
		"deltaTime": 0,
		"channel": 1,
		"type": "channel",
		"subtype": "noteOff",
		"noteNumber": 60,
		"velocity": 0,
		"time": 9520,
		"track": 2
	},
	{
		"deltaTime": 16,
		"channel": 2,
		"type": "channel",
		"subtype": "noteOff",
		"noteNumber": 48,
		"velocity": 0,
		"time": 9520,
		"track": 3
	},
	{
		"deltaTime": 16,
		"channel": 9,
		"type": "channel",
		"subtype": "noteOff",
		"noteNumber": 42,
		"velocity": 0,
		"time": 9536,
		"track": 4
	},
	{
		"deltaTime": 16,
		"channel": 9,
		"type": "channel",
		"noteNumber": 42,
		"velocity": 127,
		"subtype": "noteOn",
		"time": 9552,
		"track": 4
	},
	{
		"deltaTime": 32,
		"channel": 9,
		"type": "channel",
		"subtype": "noteOff",
		"noteNumber": 42,
		"velocity": 0,
		"time": 9568,
		"track": 4
	},
	{
		"deltaTime": 0,
		"channel": 0,
		"type": "channel",
		"noteNumber": 76,
		"velocity": 85.33333333333333,
		"subtype": "noteOn",
		"time": 9600,
		"track": 1
	},
	{
		"deltaTime": 0,
		"channel": 1,
		"type": "channel",
		"noteNumber": 72,
		"velocity": 85.33333333333333,
		"subtype": "noteOn",
		"time": 9600,
		"track": 2
	},
	{
		"deltaTime": 0,
		"channel": 2,
		"type": "channel",
		"noteNumber": 48,
		"velocity": 85.33333333333333,
		"subtype": "noteOn",
		"time": 9600,
		"track": 3
	},
	{
		"deltaTime": 16,
		"channel": 9,
		"type": "channel",
		"noteNumber": 42,
		"velocity": 127,
		"subtype": "noteOn",
		"time": 9600,
		"track": 4
	},
	{
		"deltaTime": 0,
		"channel": 0,
		"type": "channel",
		"subtype": "noteOff",
		"noteNumber": 76,
		"velocity": 0,
		"time": 9616,
		"track": 1
	},
	{
		"deltaTime": 0,
		"channel": 1,
		"type": "channel",
		"subtype": "noteOff",
		"noteNumber": 72,
		"velocity": 0,
		"time": 9616,
		"track": 2
	},
	{
		"deltaTime": 0,
		"channel": 2,
		"type": "channel",
		"subtype": "noteOff",
		"noteNumber": 48,
		"velocity": 0,
		"time": 9616,
		"track": 3
	},
	{
		"deltaTime": 8,
		"channel": 9,
		"type": "channel",
		"subtype": "noteOff",
		"noteNumber": 42,
		"velocity": 0,
		"time": 9616,
		"track": 4
	},
	{
		"deltaTime": 0,
		"channel": 0,
		"type": "channel",
		"noteNumber": 72,
		"velocity": 85.33333333333333,
		"subtype": "noteOn",
		"time": 9624,
		"track": 1
	},
	{
		"deltaTime": 16,
		"channel": 1,
		"type": "channel",
		"noteNumber": 69,
		"velocity": 85.33333333333333,
		"subtype": "noteOn",
		"time": 9624,
		"track": 2
	},
	{
		"deltaTime": 0,
		"channel": 0,
		"type": "channel",
		"subtype": "noteOff",
		"noteNumber": 72,
		"velocity": 0,
		"time": 9640,
		"track": 1
	},
	{
		"deltaTime": 32,
		"channel": 1,
		"type": "channel",
		"subtype": "noteOff",
		"noteNumber": 69,
		"velocity": 0,
		"time": 9640,
		"track": 2
	},
	{
		"deltaTime": 0,
		"channel": 0,
		"type": "channel",
		"noteNumber": 67,
		"velocity": 85.33333333333333,
		"subtype": "noteOn",
		"time": 9672,
		"track": 1
	},
	{
		"deltaTime": 0,
		"channel": 1,
		"type": "channel",
		"noteNumber": 64,
		"velocity": 85.33333333333333,
		"subtype": "noteOn",
		"time": 9672,
		"track": 2
	},
	{
		"deltaTime": 0,
		"channel": 2,
		"type": "channel",
		"noteNumber": 54,
		"velocity": 85.33333333333333,
		"subtype": "noteOn",
		"time": 9672,
		"track": 3
	},
	{
		"deltaTime": 16,
		"channel": 9,
		"type": "channel",
		"noteNumber": 42,
		"velocity": 127,
		"subtype": "noteOn",
		"time": 9672,
		"track": 4
	},
	{
		"deltaTime": 0,
		"channel": 0,
		"type": "channel",
		"subtype": "noteOff",
		"noteNumber": 67,
		"velocity": 0,
		"time": 9688,
		"track": 1
	},
	{
		"deltaTime": 0,
		"channel": 1,
		"type": "channel",
		"subtype": "noteOff",
		"noteNumber": 64,
		"velocity": 0,
		"time": 9688,
		"track": 2
	},
	{
		"deltaTime": 0,
		"channel": 2,
		"type": "channel",
		"subtype": "noteOff",
		"noteNumber": 54,
		"velocity": 0,
		"time": 9688,
		"track": 3
	},
	{
		"deltaTime": 8,
		"channel": 9,
		"type": "channel",
		"subtype": "noteOff",
		"noteNumber": 42,
		"velocity": 0,
		"time": 9688,
		"track": 4
	},
	{
		"deltaTime": 0,
		"channel": 2,
		"type": "channel",
		"noteNumber": 55,
		"velocity": 85.33333333333333,
		"subtype": "noteOn",
		"time": 9696,
		"track": 3
	},
	{
		"deltaTime": 16,
		"channel": 9,
		"type": "channel",
		"noteNumber": 42,
		"velocity": 127,
		"subtype": "noteOn",
		"time": 9696,
		"track": 4
	},
	{
		"deltaTime": 16,
		"channel": 2,
		"type": "channel",
		"subtype": "noteOff",
		"noteNumber": 55,
		"velocity": 0,
		"time": 9712,
		"track": 3
	},
	{
		"deltaTime": 16,
		"channel": 9,
		"type": "channel",
		"subtype": "noteOff",
		"noteNumber": 42,
		"velocity": 0,
		"time": 9728,
		"track": 4
	},
	{
		"deltaTime": 0,
		"channel": 0,
		"type": "channel",
		"noteNumber": 68,
		"velocity": 85.33333333333333,
		"subtype": "noteOn",
		"time": 9744,
		"track": 1
	},
	{
		"deltaTime": 0,
		"channel": 1,
		"type": "channel",
		"noteNumber": 64,
		"velocity": 85.33333333333333,
		"subtype": "noteOn",
		"time": 9744,
		"track": 2
	},
	{
		"deltaTime": 0,
		"channel": 2,
		"type": "channel",
		"noteNumber": 60,
		"velocity": 85.33333333333333,
		"subtype": "noteOn",
		"time": 9744,
		"track": 3
	},
	{
		"deltaTime": 16,
		"channel": 9,
		"type": "channel",
		"noteNumber": 42,
		"velocity": 127,
		"subtype": "noteOn",
		"time": 9744,
		"track": 4
	},
	{
		"deltaTime": 0,
		"channel": 0,
		"type": "channel",
		"subtype": "noteOff",
		"noteNumber": 68,
		"velocity": 0,
		"time": 9760,
		"track": 1
	},
	{
		"deltaTime": 0,
		"channel": 1,
		"type": "channel",
		"subtype": "noteOff",
		"noteNumber": 64,
		"velocity": 0,
		"time": 9760,
		"track": 2
	},
	{
		"deltaTime": 0,
		"channel": 2,
		"type": "channel",
		"subtype": "noteOff",
		"noteNumber": 60,
		"velocity": 0,
		"time": 9760,
		"track": 3
	},
	{
		"deltaTime": 32,
		"channel": 9,
		"type": "channel",
		"subtype": "noteOff",
		"noteNumber": 42,
		"velocity": 0,
		"time": 9760,
		"track": 4
	},
	{
		"deltaTime": 0,
		"channel": 0,
		"type": "channel",
		"noteNumber": 69,
		"velocity": 85.33333333333333,
		"subtype": "noteOn",
		"time": 9792,
		"track": 1
	},
	{
		"deltaTime": 0,
		"channel": 1,
		"type": "channel",
		"noteNumber": 65,
		"velocity": 85.33333333333333,
		"subtype": "noteOn",
		"time": 9792,
		"track": 2
	},
	{
		"deltaTime": 0,
		"channel": 2,
		"type": "channel",
		"noteNumber": 53,
		"velocity": 85.33333333333333,
		"subtype": "noteOn",
		"time": 9792,
		"track": 3
	},
	{
		"deltaTime": 16,
		"channel": 9,
		"type": "channel",
		"noteNumber": 42,
		"velocity": 127,
		"subtype": "noteOn",
		"time": 9792,
		"track": 4
	},
	{
		"deltaTime": 0,
		"channel": 0,
		"type": "channel",
		"subtype": "noteOff",
		"noteNumber": 69,
		"velocity": 0,
		"time": 9808,
		"track": 1
	},
	{
		"deltaTime": 0,
		"channel": 1,
		"type": "channel",
		"subtype": "noteOff",
		"noteNumber": 65,
		"velocity": 0,
		"time": 9808,
		"track": 2
	},
	{
		"deltaTime": 0,
		"channel": 2,
		"type": "channel",
		"subtype": "noteOff",
		"noteNumber": 53,
		"velocity": 0,
		"time": 9808,
		"track": 3
	},
	{
		"deltaTime": 8,
		"channel": 9,
		"type": "channel",
		"subtype": "noteOff",
		"noteNumber": 42,
		"velocity": 0,
		"time": 9808,
		"track": 4
	},
	{
		"deltaTime": 0,
		"channel": 0,
		"type": "channel",
		"noteNumber": 77,
		"velocity": 85.33333333333333,
		"subtype": "noteOn",
		"time": 9816,
		"track": 1
	},
	{
		"deltaTime": 16,
		"channel": 1,
		"type": "channel",
		"noteNumber": 72,
		"velocity": 85.33333333333333,
		"subtype": "noteOn",
		"time": 9816,
		"track": 2
	},
	{
		"deltaTime": 0,
		"channel": 0,
		"type": "channel",
		"subtype": "noteOff",
		"noteNumber": 77,
		"velocity": 0,
		"time": 9832,
		"track": 1
	},
	{
		"deltaTime": 8,
		"channel": 1,
		"type": "channel",
		"subtype": "noteOff",
		"noteNumber": 72,
		"velocity": 0,
		"time": 9832,
		"track": 2
	},
	{
		"deltaTime": 16,
		"channel": 2,
		"type": "channel",
		"noteNumber": 53,
		"velocity": 85.33333333333333,
		"subtype": "noteOn",
		"time": 9840,
		"track": 3
	},
	{
		"deltaTime": 8,
		"channel": 2,
		"type": "channel",
		"subtype": "noteOff",
		"noteNumber": 53,
		"velocity": 0,
		"time": 9856,
		"track": 3
	},
	{
		"deltaTime": 0,
		"channel": 0,
		"type": "channel",
		"noteNumber": 77,
		"velocity": 85.33333333333333,
		"subtype": "noteOn",
		"time": 9864,
		"track": 1
	},
	{
		"deltaTime": 0,
		"channel": 1,
		"type": "channel",
		"noteNumber": 72,
		"velocity": 85.33333333333333,
		"subtype": "noteOn",
		"time": 9864,
		"track": 2
	},
	{
		"deltaTime": 16,
		"channel": 9,
		"type": "channel",
		"noteNumber": 42,
		"velocity": 127,
		"subtype": "noteOn",
		"time": 9864,
		"track": 4
	},
	{
		"deltaTime": 0,
		"channel": 0,
		"type": "channel",
		"subtype": "noteOff",
		"noteNumber": 77,
		"velocity": 0,
		"time": 9880,
		"track": 1
	},
	{
		"deltaTime": 0,
		"channel": 1,
		"type": "channel",
		"subtype": "noteOff",
		"noteNumber": 72,
		"velocity": 0,
		"time": 9880,
		"track": 2
	},
	{
		"deltaTime": 8,
		"channel": 9,
		"type": "channel",
		"subtype": "noteOff",
		"noteNumber": 42,
		"velocity": 0,
		"time": 9880,
		"track": 4
	},
	{
		"deltaTime": 0,
		"channel": 0,
		"type": "channel",
		"noteNumber": 69,
		"velocity": 85.33333333333333,
		"subtype": "noteOn",
		"time": 9888,
		"track": 1
	},
	{
		"deltaTime": 0,
		"channel": 1,
		"type": "channel",
		"noteNumber": 65,
		"velocity": 85.33333333333333,
		"subtype": "noteOn",
		"time": 9888,
		"track": 2
	},
	{
		"deltaTime": 0,
		"channel": 2,
		"type": "channel",
		"noteNumber": 60,
		"velocity": 85.33333333333333,
		"subtype": "noteOn",
		"time": 9888,
		"track": 3
	},
	{
		"deltaTime": 16,
		"channel": 9,
		"type": "channel",
		"noteNumber": 42,
		"velocity": 127,
		"subtype": "noteOn",
		"time": 9888,
		"track": 4
	},
	{
		"deltaTime": 0,
		"channel": 0,
		"type": "channel",
		"subtype": "noteOff",
		"noteNumber": 69,
		"velocity": 0,
		"time": 9904,
		"track": 1
	},
	{
		"deltaTime": 0,
		"channel": 1,
		"type": "channel",
		"subtype": "noteOff",
		"noteNumber": 65,
		"velocity": 0,
		"time": 9904,
		"track": 2
	},
	{
		"deltaTime": 8,
		"channel": 2,
		"type": "channel",
		"subtype": "noteOff",
		"noteNumber": 60,
		"velocity": 0,
		"time": 9904,
		"track": 3
	},
	{
		"deltaTime": 8,
		"channel": 2,
		"type": "channel",
		"noteNumber": 60,
		"velocity": 85.33333333333333,
		"subtype": "noteOn",
		"time": 9912,
		"track": 3
	},
	{
		"deltaTime": 8,
		"channel": 9,
		"type": "channel",
		"subtype": "noteOff",
		"noteNumber": 42,
		"velocity": 0,
		"time": 9920,
		"track": 4
	},
	{
		"deltaTime": 8,
		"channel": 2,
		"type": "channel",
		"subtype": "noteOff",
		"noteNumber": 60,
		"velocity": 0,
		"time": 9928,
		"track": 3
	},
	{
		"deltaTime": 0,
		"channel": 2,
		"type": "channel",
		"noteNumber": 53,
		"velocity": 85.33333333333333,
		"subtype": "noteOn",
		"time": 9936,
		"track": 3
	},
	{
		"deltaTime": 16,
		"channel": 9,
		"type": "channel",
		"noteNumber": 42,
		"velocity": 127,
		"subtype": "noteOn",
		"time": 9936,
		"track": 4
	},
	{
		"deltaTime": 0,
		"channel": 2,
		"type": "channel",
		"subtype": "noteOff",
		"noteNumber": 53,
		"velocity": 0,
		"time": 9952,
		"track": 3
	},
	{
		"deltaTime": 32,
		"channel": 9,
		"type": "channel",
		"subtype": "noteOff",
		"noteNumber": 42,
		"velocity": 0,
		"time": 9952,
		"track": 4
	},
	{
		"deltaTime": 0,
		"channel": 0,
		"type": "channel",
		"noteNumber": 71,
		"velocity": 85.33333333333333,
		"subtype": "noteOn",
		"time": 9984,
		"track": 1
	},
	{
		"deltaTime": 0,
		"channel": 1,
		"type": "channel",
		"noteNumber": 67,
		"velocity": 85.33333333333333,
		"subtype": "noteOn",
		"time": 9984,
		"track": 2
	},
	{
		"deltaTime": 0,
		"channel": 2,
		"type": "channel",
		"noteNumber": 50,
		"velocity": 85.33333333333333,
		"subtype": "noteOn",
		"time": 9984,
		"track": 3
	},
	{
		"deltaTime": 16,
		"channel": 9,
		"type": "channel",
		"noteNumber": 42,
		"velocity": 127,
		"subtype": "noteOn",
		"time": 9984,
		"track": 4
	},
	{
		"deltaTime": 0,
		"channel": 0,
		"type": "channel",
		"subtype": "noteOff",
		"noteNumber": 71,
		"velocity": 0,
		"time": 10000,
		"track": 1
	},
	{
		"deltaTime": 0,
		"channel": 1,
		"type": "channel",
		"subtype": "noteOff",
		"noteNumber": 67,
		"velocity": 0,
		"time": 10000,
		"track": 2
	},
	{
		"deltaTime": 0,
		"channel": 2,
		"type": "channel",
		"subtype": "noteOff",
		"noteNumber": 50,
		"velocity": 0,
		"time": 10000,
		"track": 3
	},
	{
		"deltaTime": 16,
		"channel": 9,
		"type": "channel",
		"subtype": "noteOff",
		"noteNumber": 42,
		"velocity": 0,
		"time": 10000,
		"track": 4
	},
	{
		"deltaTime": 0,
		"channel": 0,
		"type": "channel",
		"noteNumber": 81,
		"velocity": 85.33333333333333,
		"subtype": "noteOn",
		"time": 10016,
		"track": 1
	},
	{
		"deltaTime": 16,
		"channel": 1,
		"type": "channel",
		"noteNumber": 77,
		"velocity": 85.33333333333333,
		"subtype": "noteOn",
		"time": 10016,
		"track": 2
	},
	{
		"deltaTime": 0,
		"channel": 0,
		"type": "channel",
		"subtype": "noteOff",
		"noteNumber": 81,
		"velocity": 0,
		"time": 10032,
		"track": 1
	},
	{
		"deltaTime": 16,
		"channel": 1,
		"type": "channel",
		"subtype": "noteOff",
		"noteNumber": 77,
		"velocity": 0,
		"time": 10032,
		"track": 2
	},
	{
		"deltaTime": 0,
		"channel": 0,
		"type": "channel",
		"noteNumber": 81,
		"velocity": 85.33333333333333,
		"subtype": "noteOn",
		"time": 10048,
		"track": 1
	},
	{
		"deltaTime": 8,
		"channel": 1,
		"type": "channel",
		"noteNumber": 77,
		"velocity": 85.33333333333333,
		"subtype": "noteOn",
		"time": 10048,
		"track": 2
	},
	{
		"deltaTime": 0,
		"channel": 2,
		"type": "channel",
		"noteNumber": 53,
		"velocity": 85.33333333333333,
		"subtype": "noteOn",
		"time": 10056,
		"track": 3
	},
	{
		"deltaTime": 8,
		"channel": 9,
		"type": "channel",
		"noteNumber": 42,
		"velocity": 127,
		"subtype": "noteOn",
		"time": 10056,
		"track": 4
	},
	{
		"deltaTime": 0,
		"channel": 0,
		"type": "channel",
		"subtype": "noteOff",
		"noteNumber": 81,
		"velocity": 0,
		"time": 10064,
		"track": 1
	},
	{
		"deltaTime": 8,
		"channel": 1,
		"type": "channel",
		"subtype": "noteOff",
		"noteNumber": 77,
		"velocity": 0,
		"time": 10064,
		"track": 2
	},
	{
		"deltaTime": 0,
		"channel": 2,
		"type": "channel",
		"subtype": "noteOff",
		"noteNumber": 53,
		"velocity": 0,
		"time": 10072,
		"track": 3
	},
	{
		"deltaTime": 8,
		"channel": 9,
		"type": "channel",
		"subtype": "noteOff",
		"noteNumber": 42,
		"velocity": 0,
		"time": 10072,
		"track": 4
	},
	{
		"deltaTime": 0,
		"channel": 0,
		"type": "channel",
		"noteNumber": 81,
		"velocity": 85.33333333333333,
		"subtype": "noteOn",
		"time": 10080,
		"track": 1
	},
	{
		"deltaTime": 0,
		"channel": 1,
		"type": "channel",
		"noteNumber": 77,
		"velocity": 85.33333333333333,
		"subtype": "noteOn",
		"time": 10080,
		"track": 2
	},
	{
		"deltaTime": 0,
		"channel": 2,
		"type": "channel",
		"noteNumber": 55,
		"velocity": 85.33333333333333,
		"subtype": "noteOn",
		"time": 10080,
		"track": 3
	},
	{
		"deltaTime": 16,
		"channel": 9,
		"type": "channel",
		"noteNumber": 42,
		"velocity": 127,
		"subtype": "noteOn",
		"time": 10080,
		"track": 4
	},
	{
		"deltaTime": 0,
		"channel": 0,
		"type": "channel",
		"subtype": "noteOff",
		"noteNumber": 81,
		"velocity": 0,
		"time": 10096,
		"track": 1
	},
	{
		"deltaTime": 0,
		"channel": 1,
		"type": "channel",
		"subtype": "noteOff",
		"noteNumber": 77,
		"velocity": 0,
		"time": 10096,
		"track": 2
	},
	{
		"deltaTime": 16,
		"channel": 2,
		"type": "channel",
		"subtype": "noteOff",
		"noteNumber": 55,
		"velocity": 0,
		"time": 10096,
		"track": 3
	},
	{
		"deltaTime": 0,
		"channel": 0,
		"type": "channel",
		"noteNumber": 79,
		"velocity": 85.33333333333333,
		"subtype": "noteOn",
		"time": 10112,
		"track": 1
	},
	{
		"deltaTime": 0,
		"channel": 1,
		"type": "channel",
		"noteNumber": 76,
		"velocity": 85.33333333333333,
		"subtype": "noteOn",
		"time": 10112,
		"track": 2
	},
	{
		"deltaTime": 16,
		"channel": 9,
		"type": "channel",
		"subtype": "noteOff",
		"noteNumber": 42,
		"velocity": 0,
		"time": 10112,
		"track": 4
	},
	{
		"deltaTime": 0,
		"channel": 0,
		"type": "channel",
		"subtype": "noteOff",
		"noteNumber": 79,
		"velocity": 0,
		"time": 10128,
		"track": 1
	},
	{
		"deltaTime": 0,
		"channel": 1,
		"type": "channel",
		"subtype": "noteOff",
		"noteNumber": 76,
		"velocity": 0,
		"time": 10128,
		"track": 2
	},
	{
		"deltaTime": 0,
		"channel": 2,
		"type": "channel",
		"noteNumber": 59,
		"velocity": 85.33333333333333,
		"subtype": "noteOn",
		"time": 10128,
		"track": 3
	},
	{
		"deltaTime": 16,
		"channel": 9,
		"type": "channel",
		"noteNumber": 42,
		"velocity": 127,
		"subtype": "noteOn",
		"time": 10128,
		"track": 4
	},
	{
		"deltaTime": 0,
		"channel": 0,
		"type": "channel",
		"noteNumber": 77,
		"velocity": 85.33333333333333,
		"subtype": "noteOn",
		"time": 10144,
		"track": 1
	},
	{
		"deltaTime": 0,
		"channel": 1,
		"type": "channel",
		"noteNumber": 74,
		"velocity": 85.33333333333333,
		"subtype": "noteOn",
		"time": 10144,
		"track": 2
	},
	{
		"deltaTime": 0,
		"channel": 2,
		"type": "channel",
		"subtype": "noteOff",
		"noteNumber": 59,
		"velocity": 0,
		"time": 10144,
		"track": 3
	},
	{
		"deltaTime": 16,
		"channel": 9,
		"type": "channel",
		"subtype": "noteOff",
		"noteNumber": 42,
		"velocity": 0,
		"time": 10144,
		"track": 4
	},
	{
		"deltaTime": 0,
		"channel": 0,
		"type": "channel",
		"subtype": "noteOff",
		"noteNumber": 77,
		"velocity": 0,
		"time": 10160,
		"track": 1
	},
	{
		"deltaTime": 16,
		"channel": 1,
		"type": "channel",
		"subtype": "noteOff",
		"noteNumber": 74,
		"velocity": 0,
		"time": 10160,
		"track": 2
	},
	{
		"deltaTime": 0,
		"channel": 0,
		"type": "channel",
		"noteNumber": 76,
		"velocity": 85.33333333333333,
		"subtype": "noteOn",
		"time": 10176,
		"track": 1
	},
	{
		"deltaTime": 0,
		"channel": 1,
		"type": "channel",
		"noteNumber": 72,
		"velocity": 85.33333333333333,
		"subtype": "noteOn",
		"time": 10176,
		"track": 2
	},
	{
		"deltaTime": 0,
		"channel": 2,
		"type": "channel",
		"noteNumber": 55,
		"velocity": 85.33333333333333,
		"subtype": "noteOn",
		"time": 10176,
		"track": 3
	},
	{
		"deltaTime": 16,
		"channel": 9,
		"type": "channel",
		"noteNumber": 42,
		"velocity": 127,
		"subtype": "noteOn",
		"time": 10176,
		"track": 4
	},
	{
		"deltaTime": 0,
		"channel": 0,
		"type": "channel",
		"subtype": "noteOff",
		"noteNumber": 76,
		"velocity": 0,
		"time": 10192,
		"track": 1
	},
	{
		"deltaTime": 0,
		"channel": 1,
		"type": "channel",
		"subtype": "noteOff",
		"noteNumber": 72,
		"velocity": 0,
		"time": 10192,
		"track": 2
	},
	{
		"deltaTime": 0,
		"channel": 2,
		"type": "channel",
		"subtype": "noteOff",
		"noteNumber": 55,
		"velocity": 0,
		"time": 10192,
		"track": 3
	},
	{
		"deltaTime": 8,
		"channel": 9,
		"type": "channel",
		"subtype": "noteOff",
		"noteNumber": 42,
		"velocity": 0,
		"time": 10192,
		"track": 4
	},
	{
		"deltaTime": 0,
		"channel": 0,
		"type": "channel",
		"noteNumber": 72,
		"velocity": 85.33333333333333,
		"subtype": "noteOn",
		"time": 10200,
		"track": 1
	},
	{
		"deltaTime": 16,
		"channel": 1,
		"type": "channel",
		"noteNumber": 69,
		"velocity": 85.33333333333333,
		"subtype": "noteOn",
		"time": 10200,
		"track": 2
	},
	{
		"deltaTime": 0,
		"channel": 0,
		"type": "channel",
		"subtype": "noteOff",
		"noteNumber": 72,
		"velocity": 0,
		"time": 10216,
		"track": 1
	},
	{
		"deltaTime": 8,
		"channel": 1,
		"type": "channel",
		"subtype": "noteOff",
		"noteNumber": 69,
		"velocity": 0,
		"time": 10216,
		"track": 2
	},
	{
		"deltaTime": 16,
		"channel": 2,
		"type": "channel",
		"noteNumber": 55,
		"velocity": 85.33333333333333,
		"subtype": "noteOn",
		"time": 10224,
		"track": 3
	},
	{
		"deltaTime": 8,
		"channel": 2,
		"type": "channel",
		"subtype": "noteOff",
		"noteNumber": 55,
		"velocity": 0,
		"time": 10240,
		"track": 3
	},
	{
		"deltaTime": 0,
		"channel": 0,
		"type": "channel",
		"noteNumber": 69,
		"velocity": 85.33333333333333,
		"subtype": "noteOn",
		"time": 10248,
		"track": 1
	},
	{
		"deltaTime": 0,
		"channel": 1,
		"type": "channel",
		"noteNumber": 65,
		"velocity": 85.33333333333333,
		"subtype": "noteOn",
		"time": 10248,
		"track": 2
	},
	{
		"deltaTime": 16,
		"channel": 9,
		"type": "channel",
		"noteNumber": 42,
		"velocity": 127,
		"subtype": "noteOn",
		"time": 10248,
		"track": 4
	},
	{
		"deltaTime": 0,
		"channel": 0,
		"type": "channel",
		"subtype": "noteOff",
		"noteNumber": 69,
		"velocity": 0,
		"time": 10264,
		"track": 1
	},
	{
		"deltaTime": 0,
		"channel": 1,
		"type": "channel",
		"subtype": "noteOff",
		"noteNumber": 65,
		"velocity": 0,
		"time": 10264,
		"track": 2
	},
	{
		"deltaTime": 8,
		"channel": 9,
		"type": "channel",
		"subtype": "noteOff",
		"noteNumber": 42,
		"velocity": 0,
		"time": 10264,
		"track": 4
	},
	{
		"deltaTime": 0,
		"channel": 0,
		"type": "channel",
		"noteNumber": 67,
		"velocity": 85.33333333333333,
		"subtype": "noteOn",
		"time": 10272,
		"track": 1
	},
	{
		"deltaTime": 0,
		"channel": 1,
		"type": "channel",
		"noteNumber": 64,
		"velocity": 85.33333333333333,
		"subtype": "noteOn",
		"time": 10272,
		"track": 2
	},
	{
		"deltaTime": 0,
		"channel": 2,
		"type": "channel",
		"noteNumber": 60,
		"velocity": 85.33333333333333,
		"subtype": "noteOn",
		"time": 10272,
		"track": 3
	},
	{
		"deltaTime": 16,
		"channel": 9,
		"type": "channel",
		"noteNumber": 42,
		"velocity": 127,
		"subtype": "noteOn",
		"time": 10272,
		"track": 4
	},
	{
		"deltaTime": 0,
		"channel": 0,
		"type": "channel",
		"subtype": "noteOff",
		"noteNumber": 67,
		"velocity": 0,
		"time": 10288,
		"track": 1
	},
	{
		"deltaTime": 0,
		"channel": 1,
		"type": "channel",
		"subtype": "noteOff",
		"noteNumber": 64,
		"velocity": 0,
		"time": 10288,
		"track": 2
	},
	{
		"deltaTime": 8,
		"channel": 2,
		"type": "channel",
		"subtype": "noteOff",
		"noteNumber": 60,
		"velocity": 0,
		"time": 10288,
		"track": 3
	},
	{
		"deltaTime": 8,
		"channel": 2,
		"type": "channel",
		"noteNumber": 60,
		"velocity": 85.33333333333333,
		"subtype": "noteOn",
		"time": 10296,
		"track": 3
	},
	{
		"deltaTime": 8,
		"channel": 9,
		"type": "channel",
		"subtype": "noteOff",
		"noteNumber": 42,
		"velocity": 0,
		"time": 10304,
		"track": 4
	},
	{
		"deltaTime": 8,
		"channel": 2,
		"type": "channel",
		"subtype": "noteOff",
		"noteNumber": 60,
		"velocity": 0,
		"time": 10312,
		"track": 3
	},
	{
		"deltaTime": 0,
		"channel": 2,
		"type": "channel",
		"noteNumber": 55,
		"velocity": 85.33333333333333,
		"subtype": "noteOn",
		"time": 10320,
		"track": 3
	},
	{
		"deltaTime": 16,
		"channel": 9,
		"type": "channel",
		"noteNumber": 42,
		"velocity": 127,
		"subtype": "noteOn",
		"time": 10320,
		"track": 4
	},
	{
		"deltaTime": 0,
		"channel": 2,
		"type": "channel",
		"subtype": "noteOff",
		"noteNumber": 55,
		"velocity": 0,
		"time": 10336,
		"track": 3
	},
	{
		"deltaTime": 32,
		"channel": 9,
		"type": "channel",
		"subtype": "noteOff",
		"noteNumber": 42,
		"velocity": 0,
		"time": 10336,
		"track": 4
	},
	{
		"deltaTime": 0,
		"channel": 0,
		"type": "channel",
		"noteNumber": 76,
		"velocity": 85.33333333333333,
		"subtype": "noteOn",
		"time": 10368,
		"track": 1
	},
	{
		"deltaTime": 0,
		"channel": 1,
		"type": "channel",
		"noteNumber": 72,
		"velocity": 85.33333333333333,
		"subtype": "noteOn",
		"time": 10368,
		"track": 2
	},
	{
		"deltaTime": 0,
		"channel": 2,
		"type": "channel",
		"noteNumber": 48,
		"velocity": 85.33333333333333,
		"subtype": "noteOn",
		"time": 10368,
		"track": 3
	},
	{
		"deltaTime": 16,
		"channel": 9,
		"type": "channel",
		"noteNumber": 42,
		"velocity": 127,
		"subtype": "noteOn",
		"time": 10368,
		"track": 4
	},
	{
		"deltaTime": 0,
		"channel": 0,
		"type": "channel",
		"subtype": "noteOff",
		"noteNumber": 76,
		"velocity": 0,
		"time": 10384,
		"track": 1
	},
	{
		"deltaTime": 0,
		"channel": 1,
		"type": "channel",
		"subtype": "noteOff",
		"noteNumber": 72,
		"velocity": 0,
		"time": 10384,
		"track": 2
	},
	{
		"deltaTime": 0,
		"channel": 2,
		"type": "channel",
		"subtype": "noteOff",
		"noteNumber": 48,
		"velocity": 0,
		"time": 10384,
		"track": 3
	},
	{
		"deltaTime": 8,
		"channel": 9,
		"type": "channel",
		"subtype": "noteOff",
		"noteNumber": 42,
		"velocity": 0,
		"time": 10384,
		"track": 4
	},
	{
		"deltaTime": 0,
		"channel": 0,
		"type": "channel",
		"noteNumber": 72,
		"velocity": 85.33333333333333,
		"subtype": "noteOn",
		"time": 10392,
		"track": 1
	},
	{
		"deltaTime": 16,
		"channel": 1,
		"type": "channel",
		"noteNumber": 69,
		"velocity": 85.33333333333333,
		"subtype": "noteOn",
		"time": 10392,
		"track": 2
	},
	{
		"deltaTime": 0,
		"channel": 0,
		"type": "channel",
		"subtype": "noteOff",
		"noteNumber": 72,
		"velocity": 0,
		"time": 10408,
		"track": 1
	},
	{
		"deltaTime": 32,
		"channel": 1,
		"type": "channel",
		"subtype": "noteOff",
		"noteNumber": 69,
		"velocity": 0,
		"time": 10408,
		"track": 2
	},
	{
		"deltaTime": 0,
		"channel": 0,
		"type": "channel",
		"noteNumber": 67,
		"velocity": 85.33333333333333,
		"subtype": "noteOn",
		"time": 10440,
		"track": 1
	},
	{
		"deltaTime": 0,
		"channel": 1,
		"type": "channel",
		"noteNumber": 64,
		"velocity": 85.33333333333333,
		"subtype": "noteOn",
		"time": 10440,
		"track": 2
	},
	{
		"deltaTime": 0,
		"channel": 2,
		"type": "channel",
		"noteNumber": 54,
		"velocity": 85.33333333333333,
		"subtype": "noteOn",
		"time": 10440,
		"track": 3
	},
	{
		"deltaTime": 16,
		"channel": 9,
		"type": "channel",
		"noteNumber": 42,
		"velocity": 127,
		"subtype": "noteOn",
		"time": 10440,
		"track": 4
	},
	{
		"deltaTime": 0,
		"channel": 0,
		"type": "channel",
		"subtype": "noteOff",
		"noteNumber": 67,
		"velocity": 0,
		"time": 10456,
		"track": 1
	},
	{
		"deltaTime": 0,
		"channel": 1,
		"type": "channel",
		"subtype": "noteOff",
		"noteNumber": 64,
		"velocity": 0,
		"time": 10456,
		"track": 2
	},
	{
		"deltaTime": 0,
		"channel": 2,
		"type": "channel",
		"subtype": "noteOff",
		"noteNumber": 54,
		"velocity": 0,
		"time": 10456,
		"track": 3
	},
	{
		"deltaTime": 8,
		"channel": 9,
		"type": "channel",
		"subtype": "noteOff",
		"noteNumber": 42,
		"velocity": 0,
		"time": 10456,
		"track": 4
	},
	{
		"deltaTime": 0,
		"channel": 2,
		"type": "channel",
		"noteNumber": 55,
		"velocity": 85.33333333333333,
		"subtype": "noteOn",
		"time": 10464,
		"track": 3
	},
	{
		"deltaTime": 16,
		"channel": 9,
		"type": "channel",
		"noteNumber": 42,
		"velocity": 127,
		"subtype": "noteOn",
		"time": 10464,
		"track": 4
	},
	{
		"deltaTime": 16,
		"channel": 2,
		"type": "channel",
		"subtype": "noteOff",
		"noteNumber": 55,
		"velocity": 0,
		"time": 10480,
		"track": 3
	},
	{
		"deltaTime": 16,
		"channel": 9,
		"type": "channel",
		"subtype": "noteOff",
		"noteNumber": 42,
		"velocity": 0,
		"time": 10496,
		"track": 4
	},
	{
		"deltaTime": 0,
		"channel": 0,
		"type": "channel",
		"noteNumber": 68,
		"velocity": 85.33333333333333,
		"subtype": "noteOn",
		"time": 10512,
		"track": 1
	},
	{
		"deltaTime": 0,
		"channel": 1,
		"type": "channel",
		"noteNumber": 64,
		"velocity": 85.33333333333333,
		"subtype": "noteOn",
		"time": 10512,
		"track": 2
	},
	{
		"deltaTime": 0,
		"channel": 2,
		"type": "channel",
		"noteNumber": 60,
		"velocity": 85.33333333333333,
		"subtype": "noteOn",
		"time": 10512,
		"track": 3
	},
	{
		"deltaTime": 16,
		"channel": 9,
		"type": "channel",
		"noteNumber": 42,
		"velocity": 127,
		"subtype": "noteOn",
		"time": 10512,
		"track": 4
	},
	{
		"deltaTime": 0,
		"channel": 0,
		"type": "channel",
		"subtype": "noteOff",
		"noteNumber": 68,
		"velocity": 0,
		"time": 10528,
		"track": 1
	},
	{
		"deltaTime": 0,
		"channel": 1,
		"type": "channel",
		"subtype": "noteOff",
		"noteNumber": 64,
		"velocity": 0,
		"time": 10528,
		"track": 2
	},
	{
		"deltaTime": 0,
		"channel": 2,
		"type": "channel",
		"subtype": "noteOff",
		"noteNumber": 60,
		"velocity": 0,
		"time": 10528,
		"track": 3
	},
	{
		"deltaTime": 32,
		"channel": 9,
		"type": "channel",
		"subtype": "noteOff",
		"noteNumber": 42,
		"velocity": 0,
		"time": 10528,
		"track": 4
	},
	{
		"deltaTime": 0,
		"channel": 0,
		"type": "channel",
		"noteNumber": 69,
		"velocity": 85.33333333333333,
		"subtype": "noteOn",
		"time": 10560,
		"track": 1
	},
	{
		"deltaTime": 0,
		"channel": 1,
		"type": "channel",
		"noteNumber": 65,
		"velocity": 85.33333333333333,
		"subtype": "noteOn",
		"time": 10560,
		"track": 2
	},
	{
		"deltaTime": 0,
		"channel": 2,
		"type": "channel",
		"noteNumber": 53,
		"velocity": 85.33333333333333,
		"subtype": "noteOn",
		"time": 10560,
		"track": 3
	},
	{
		"deltaTime": 16,
		"channel": 9,
		"type": "channel",
		"noteNumber": 42,
		"velocity": 127,
		"subtype": "noteOn",
		"time": 10560,
		"track": 4
	},
	{
		"deltaTime": 0,
		"channel": 0,
		"type": "channel",
		"subtype": "noteOff",
		"noteNumber": 69,
		"velocity": 0,
		"time": 10576,
		"track": 1
	},
	{
		"deltaTime": 0,
		"channel": 1,
		"type": "channel",
		"subtype": "noteOff",
		"noteNumber": 65,
		"velocity": 0,
		"time": 10576,
		"track": 2
	},
	{
		"deltaTime": 0,
		"channel": 2,
		"type": "channel",
		"subtype": "noteOff",
		"noteNumber": 53,
		"velocity": 0,
		"time": 10576,
		"track": 3
	},
	{
		"deltaTime": 8,
		"channel": 9,
		"type": "channel",
		"subtype": "noteOff",
		"noteNumber": 42,
		"velocity": 0,
		"time": 10576,
		"track": 4
	},
	{
		"deltaTime": 0,
		"channel": 0,
		"type": "channel",
		"noteNumber": 77,
		"velocity": 85.33333333333333,
		"subtype": "noteOn",
		"time": 10584,
		"track": 1
	},
	{
		"deltaTime": 16,
		"channel": 1,
		"type": "channel",
		"noteNumber": 72,
		"velocity": 85.33333333333333,
		"subtype": "noteOn",
		"time": 10584,
		"track": 2
	},
	{
		"deltaTime": 0,
		"channel": 0,
		"type": "channel",
		"subtype": "noteOff",
		"noteNumber": 77,
		"velocity": 0,
		"time": 10600,
		"track": 1
	},
	{
		"deltaTime": 8,
		"channel": 1,
		"type": "channel",
		"subtype": "noteOff",
		"noteNumber": 72,
		"velocity": 0,
		"time": 10600,
		"track": 2
	},
	{
		"deltaTime": 16,
		"channel": 2,
		"type": "channel",
		"noteNumber": 53,
		"velocity": 85.33333333333333,
		"subtype": "noteOn",
		"time": 10608,
		"track": 3
	},
	{
		"deltaTime": 8,
		"channel": 2,
		"type": "channel",
		"subtype": "noteOff",
		"noteNumber": 53,
		"velocity": 0,
		"time": 10624,
		"track": 3
	},
	{
		"deltaTime": 0,
		"channel": 0,
		"type": "channel",
		"noteNumber": 77,
		"velocity": 85.33333333333333,
		"subtype": "noteOn",
		"time": 10632,
		"track": 1
	},
	{
		"deltaTime": 0,
		"channel": 1,
		"type": "channel",
		"noteNumber": 72,
		"velocity": 85.33333333333333,
		"subtype": "noteOn",
		"time": 10632,
		"track": 2
	},
	{
		"deltaTime": 16,
		"channel": 9,
		"type": "channel",
		"noteNumber": 42,
		"velocity": 127,
		"subtype": "noteOn",
		"time": 10632,
		"track": 4
	},
	{
		"deltaTime": 0,
		"channel": 0,
		"type": "channel",
		"subtype": "noteOff",
		"noteNumber": 77,
		"velocity": 0,
		"time": 10648,
		"track": 1
	},
	{
		"deltaTime": 0,
		"channel": 1,
		"type": "channel",
		"subtype": "noteOff",
		"noteNumber": 72,
		"velocity": 0,
		"time": 10648,
		"track": 2
	},
	{
		"deltaTime": 8,
		"channel": 9,
		"type": "channel",
		"subtype": "noteOff",
		"noteNumber": 42,
		"velocity": 0,
		"time": 10648,
		"track": 4
	},
	{
		"deltaTime": 0,
		"channel": 0,
		"type": "channel",
		"noteNumber": 69,
		"velocity": 85.33333333333333,
		"subtype": "noteOn",
		"time": 10656,
		"track": 1
	},
	{
		"deltaTime": 0,
		"channel": 1,
		"type": "channel",
		"noteNumber": 65,
		"velocity": 85.33333333333333,
		"subtype": "noteOn",
		"time": 10656,
		"track": 2
	},
	{
		"deltaTime": 0,
		"channel": 2,
		"type": "channel",
		"noteNumber": 60,
		"velocity": 85.33333333333333,
		"subtype": "noteOn",
		"time": 10656,
		"track": 3
	},
	{
		"deltaTime": 16,
		"channel": 9,
		"type": "channel",
		"noteNumber": 42,
		"velocity": 127,
		"subtype": "noteOn",
		"time": 10656,
		"track": 4
	},
	{
		"deltaTime": 0,
		"channel": 0,
		"type": "channel",
		"subtype": "noteOff",
		"noteNumber": 69,
		"velocity": 0,
		"time": 10672,
		"track": 1
	},
	{
		"deltaTime": 0,
		"channel": 1,
		"type": "channel",
		"subtype": "noteOff",
		"noteNumber": 65,
		"velocity": 0,
		"time": 10672,
		"track": 2
	},
	{
		"deltaTime": 8,
		"channel": 2,
		"type": "channel",
		"subtype": "noteOff",
		"noteNumber": 60,
		"velocity": 0,
		"time": 10672,
		"track": 3
	},
	{
		"deltaTime": 8,
		"channel": 2,
		"type": "channel",
		"noteNumber": 60,
		"velocity": 85.33333333333333,
		"subtype": "noteOn",
		"time": 10680,
		"track": 3
	},
	{
		"deltaTime": 8,
		"channel": 9,
		"type": "channel",
		"subtype": "noteOff",
		"noteNumber": 42,
		"velocity": 0,
		"time": 10688,
		"track": 4
	},
	{
		"deltaTime": 8,
		"channel": 2,
		"type": "channel",
		"subtype": "noteOff",
		"noteNumber": 60,
		"velocity": 0,
		"time": 10696,
		"track": 3
	},
	{
		"deltaTime": 0,
		"channel": 2,
		"type": "channel",
		"noteNumber": 53,
		"velocity": 85.33333333333333,
		"subtype": "noteOn",
		"time": 10704,
		"track": 3
	},
	{
		"deltaTime": 16,
		"channel": 9,
		"type": "channel",
		"noteNumber": 42,
		"velocity": 127,
		"subtype": "noteOn",
		"time": 10704,
		"track": 4
	},
	{
		"deltaTime": 0,
		"channel": 2,
		"type": "channel",
		"subtype": "noteOff",
		"noteNumber": 53,
		"velocity": 0,
		"time": 10720,
		"track": 3
	},
	{
		"deltaTime": 32,
		"channel": 9,
		"type": "channel",
		"subtype": "noteOff",
		"noteNumber": 42,
		"velocity": 0,
		"time": 10720,
		"track": 4
	},
	{
		"deltaTime": 0,
		"channel": 0,
		"type": "channel",
		"noteNumber": 71,
		"velocity": 85.33333333333333,
		"subtype": "noteOn",
		"time": 10752,
		"track": 1
	},
	{
		"deltaTime": 0,
		"channel": 1,
		"type": "channel",
		"noteNumber": 67,
		"velocity": 85.33333333333333,
		"subtype": "noteOn",
		"time": 10752,
		"track": 2
	},
	{
		"deltaTime": 0,
		"channel": 2,
		"type": "channel",
		"noteNumber": 55,
		"velocity": 85.33333333333333,
		"subtype": "noteOn",
		"time": 10752,
		"track": 3
	},
	{
		"deltaTime": 16,
		"channel": 9,
		"type": "channel",
		"noteNumber": 42,
		"velocity": 127,
		"subtype": "noteOn",
		"time": 10752,
		"track": 4
	},
	{
		"deltaTime": 0,
		"channel": 0,
		"type": "channel",
		"subtype": "noteOff",
		"noteNumber": 71,
		"velocity": 0,
		"time": 10768,
		"track": 1
	},
	{
		"deltaTime": 0,
		"channel": 1,
		"type": "channel",
		"subtype": "noteOff",
		"noteNumber": 67,
		"velocity": 0,
		"time": 10768,
		"track": 2
	},
	{
		"deltaTime": 0,
		"channel": 2,
		"type": "channel",
		"subtype": "noteOff",
		"noteNumber": 55,
		"velocity": 0,
		"time": 10768,
		"track": 3
	},
	{
		"deltaTime": 8,
		"channel": 9,
		"type": "channel",
		"subtype": "noteOff",
		"noteNumber": 42,
		"velocity": 0,
		"time": 10768,
		"track": 4
	},
	{
		"deltaTime": 0,
		"channel": 0,
		"type": "channel",
		"noteNumber": 77,
		"velocity": 85.33333333333333,
		"subtype": "noteOn",
		"time": 10776,
		"track": 1
	},
	{
		"deltaTime": 0,
		"channel": 1,
		"type": "channel",
		"noteNumber": 74,
		"velocity": 85.33333333333333,
		"subtype": "noteOn",
		"time": 10776,
		"track": 2
	},
	{
		"deltaTime": 16,
		"channel": 2,
		"type": "channel",
		"noteNumber": 55,
		"velocity": 85.33333333333333,
		"subtype": "noteOn",
		"time": 10776,
		"track": 3
	},
	{
		"deltaTime": 0,
		"channel": 0,
		"type": "channel",
		"subtype": "noteOff",
		"noteNumber": 77,
		"velocity": 0,
		"time": 10792,
		"track": 1
	},
	{
		"deltaTime": 0,
		"channel": 1,
		"type": "channel",
		"subtype": "noteOff",
		"noteNumber": 74,
		"velocity": 0,
		"time": 10792,
		"track": 2
	},
	{
		"deltaTime": 32,
		"channel": 2,
		"type": "channel",
		"subtype": "noteOff",
		"noteNumber": 55,
		"velocity": 0,
		"time": 10792,
		"track": 3
	},
	{
		"deltaTime": 0,
		"channel": 0,
		"type": "channel",
		"noteNumber": 77,
		"velocity": 85.33333333333333,
		"subtype": "noteOn",
		"time": 10824,
		"track": 1
	},
	{
		"deltaTime": 0,
		"channel": 1,
		"type": "channel",
		"noteNumber": 74,
		"velocity": 85.33333333333333,
		"subtype": "noteOn",
		"time": 10824,
		"track": 2
	},
	{
		"deltaTime": 0,
		"channel": 2,
		"type": "channel",
		"noteNumber": 55,
		"velocity": 85.33333333333333,
		"subtype": "noteOn",
		"time": 10824,
		"track": 3
	},
	{
		"deltaTime": 16,
		"channel": 9,
		"type": "channel",
		"noteNumber": 42,
		"velocity": 127,
		"subtype": "noteOn",
		"time": 10824,
		"track": 4
	},
	{
		"deltaTime": 0,
		"channel": 0,
		"type": "channel",
		"subtype": "noteOff",
		"noteNumber": 77,
		"velocity": 0,
		"time": 10840,
		"track": 1
	},
	{
		"deltaTime": 0,
		"channel": 1,
		"type": "channel",
		"subtype": "noteOff",
		"noteNumber": 74,
		"velocity": 0,
		"time": 10840,
		"track": 2
	},
	{
		"deltaTime": 0,
		"channel": 2,
		"type": "channel",
		"subtype": "noteOff",
		"noteNumber": 55,
		"velocity": 0,
		"time": 10840,
		"track": 3
	},
	{
		"deltaTime": 8,
		"channel": 9,
		"type": "channel",
		"subtype": "noteOff",
		"noteNumber": 42,
		"velocity": 0,
		"time": 10840,
		"track": 4
	},
	{
		"deltaTime": 0,
		"channel": 0,
		"type": "channel",
		"noteNumber": 77,
		"velocity": 85.33333333333333,
		"subtype": "noteOn",
		"time": 10848,
		"track": 1
	},
	{
		"deltaTime": 0,
		"channel": 1,
		"type": "channel",
		"noteNumber": 74,
		"velocity": 85.33333333333333,
		"subtype": "noteOn",
		"time": 10848,
		"track": 2
	},
	{
		"deltaTime": 0,
		"channel": 2,
		"type": "channel",
		"noteNumber": 55,
		"velocity": 85.33333333333333,
		"subtype": "noteOn",
		"time": 10848,
		"track": 3
	},
	{
		"deltaTime": 16,
		"channel": 9,
		"type": "channel",
		"noteNumber": 42,
		"velocity": 127,
		"subtype": "noteOn",
		"time": 10848,
		"track": 4
	},
	{
		"deltaTime": 0,
		"channel": 0,
		"type": "channel",
		"subtype": "noteOff",
		"noteNumber": 77,
		"velocity": 0,
		"time": 10864,
		"track": 1
	},
	{
		"deltaTime": 0,
		"channel": 1,
		"type": "channel",
		"subtype": "noteOff",
		"noteNumber": 74,
		"velocity": 0,
		"time": 10864,
		"track": 2
	},
	{
		"deltaTime": 16,
		"channel": 2,
		"type": "channel",
		"subtype": "noteOff",
		"noteNumber": 55,
		"velocity": 0,
		"time": 10864,
		"track": 3
	},
	{
		"deltaTime": 0,
		"channel": 0,
		"type": "channel",
		"noteNumber": 76,
		"velocity": 85.33333333333333,
		"subtype": "noteOn",
		"time": 10880,
		"track": 1
	},
	{
		"deltaTime": 0,
		"channel": 1,
		"type": "channel",
		"noteNumber": 72,
		"velocity": 85.33333333333333,
		"subtype": "noteOn",
		"time": 10880,
		"track": 2
	},
	{
		"deltaTime": 0,
		"channel": 2,
		"type": "channel",
		"noteNumber": 57,
		"velocity": 85.33333333333333,
		"subtype": "noteOn",
		"time": 10880,
		"track": 3
	},
	{
		"deltaTime": 16,
		"channel": 9,
		"type": "channel",
		"subtype": "noteOff",
		"noteNumber": 42,
		"velocity": 0,
		"time": 10880,
		"track": 4
	},
	{
		"deltaTime": 0,
		"channel": 0,
		"type": "channel",
		"subtype": "noteOff",
		"noteNumber": 76,
		"velocity": 0,
		"time": 10896,
		"track": 1
	},
	{
		"deltaTime": 0,
		"channel": 1,
		"type": "channel",
		"subtype": "noteOff",
		"noteNumber": 72,
		"velocity": 0,
		"time": 10896,
		"track": 2
	},
	{
		"deltaTime": 0,
		"channel": 2,
		"type": "channel",
		"subtype": "noteOff",
		"noteNumber": 57,
		"velocity": 0,
		"time": 10896,
		"track": 3
	},
	{
		"deltaTime": 16,
		"channel": 9,
		"type": "channel",
		"noteNumber": 42,
		"velocity": 127,
		"subtype": "noteOn",
		"time": 10896,
		"track": 4
	},
	{
		"deltaTime": 0,
		"channel": 0,
		"type": "channel",
		"noteNumber": 74,
		"velocity": 85.33333333333333,
		"subtype": "noteOn",
		"time": 10912,
		"track": 1
	},
	{
		"deltaTime": 0,
		"channel": 1,
		"type": "channel",
		"noteNumber": 71,
		"velocity": 85.33333333333333,
		"subtype": "noteOn",
		"time": 10912,
		"track": 2
	},
	{
		"deltaTime": 0,
		"channel": 2,
		"type": "channel",
		"noteNumber": 59,
		"velocity": 85.33333333333333,
		"subtype": "noteOn",
		"time": 10912,
		"track": 3
	},
	{
		"deltaTime": 16,
		"channel": 9,
		"type": "channel",
		"subtype": "noteOff",
		"noteNumber": 42,
		"velocity": 0,
		"time": 10912,
		"track": 4
	},
	{
		"deltaTime": 0,
		"channel": 0,
		"type": "channel",
		"subtype": "noteOff",
		"noteNumber": 74,
		"velocity": 0,
		"time": 10928,
		"track": 1
	},
	{
		"deltaTime": 0,
		"channel": 1,
		"type": "channel",
		"subtype": "noteOff",
		"noteNumber": 71,
		"velocity": 0,
		"time": 10928,
		"track": 2
	},
	{
		"deltaTime": 16,
		"channel": 2,
		"type": "channel",
		"subtype": "noteOff",
		"noteNumber": 59,
		"velocity": 0,
		"time": 10928,
		"track": 3
	},
	{
		"deltaTime": 0,
		"channel": 0,
		"type": "channel",
		"noteNumber": 72,
		"velocity": 85.33333333333333,
		"subtype": "noteOn",
		"time": 10944,
		"track": 1
	},
	{
		"deltaTime": 0,
		"channel": 1,
		"type": "channel",
		"noteNumber": 67,
		"velocity": 85.33333333333333,
		"subtype": "noteOn",
		"time": 10944,
		"track": 2
	},
	{
		"deltaTime": 0,
		"channel": 2,
		"type": "channel",
		"noteNumber": 60,
		"velocity": 85.33333333333333,
		"subtype": "noteOn",
		"time": 10944,
		"track": 3
	},
	{
		"deltaTime": 16,
		"channel": 9,
		"type": "channel",
		"noteNumber": 42,
		"velocity": 127,
		"subtype": "noteOn",
		"time": 10944,
		"track": 4
	},
	{
		"deltaTime": 0,
		"channel": 0,
		"type": "channel",
		"subtype": "noteOff",
		"noteNumber": 72,
		"velocity": 0,
		"time": 10960,
		"track": 1
	},
	{
		"deltaTime": 0,
		"channel": 1,
		"type": "channel",
		"subtype": "noteOff",
		"noteNumber": 67,
		"velocity": 0,
		"time": 10960,
		"track": 2
	},
	{
		"deltaTime": 0,
		"channel": 2,
		"type": "channel",
		"subtype": "noteOff",
		"noteNumber": 60,
		"velocity": 0,
		"time": 10960,
		"track": 3
	},
	{
		"deltaTime": 8,
		"channel": 9,
		"type": "channel",
		"subtype": "noteOff",
		"noteNumber": 42,
		"velocity": 0,
		"time": 10960,
		"track": 4
	},
	{
		"deltaTime": 16,
		"channel": 1,
		"type": "channel",
		"noteNumber": 64,
		"velocity": 85.33333333333333,
		"subtype": "noteOn",
		"time": 10968,
		"track": 2
	},
	{
		"deltaTime": 8,
		"channel": 1,
		"type": "channel",
		"subtype": "noteOff",
		"noteNumber": 64,
		"velocity": 0,
		"time": 10984,
		"track": 2
	},
	{
		"deltaTime": 16,
		"channel": 2,
		"type": "channel",
		"noteNumber": 55,
		"velocity": 85.33333333333333,
		"subtype": "noteOn",
		"time": 10992,
		"track": 3
	},
	{
		"deltaTime": 8,
		"channel": 2,
		"type": "channel",
		"subtype": "noteOff",
		"noteNumber": 55,
		"velocity": 0,
		"time": 11008,
		"track": 3
	},
	{
		"deltaTime": 0,
		"channel": 1,
		"type": "channel",
		"noteNumber": 64,
		"velocity": 85.33333333333333,
		"subtype": "noteOn",
		"time": 11016,
		"track": 2
	},
	{
		"deltaTime": 16,
		"channel": 9,
		"type": "channel",
		"noteNumber": 42,
		"velocity": 127,
		"subtype": "noteOn",
		"time": 11016,
		"track": 4
	},
	{
		"deltaTime": 0,
		"channel": 1,
		"type": "channel",
		"subtype": "noteOff",
		"noteNumber": 64,
		"velocity": 0,
		"time": 11032,
		"track": 2
	},
	{
		"deltaTime": 8,
		"channel": 9,
		"type": "channel",
		"subtype": "noteOff",
		"noteNumber": 42,
		"velocity": 0,
		"time": 11032,
		"track": 4
	},
	{
		"deltaTime": 0,
		"channel": 1,
		"type": "channel",
		"noteNumber": 60,
		"velocity": 85.33333333333333,
		"subtype": "noteOn",
		"time": 11040,
		"track": 2
	},
	{
		"deltaTime": 0,
		"channel": 2,
		"type": "channel",
		"noteNumber": 48,
		"velocity": 85.33333333333333,
		"subtype": "noteOn",
		"time": 11040,
		"track": 3
	},
	{
		"deltaTime": 16,
		"channel": 9,
		"type": "channel",
		"noteNumber": 42,
		"velocity": 127,
		"subtype": "noteOn",
		"time": 11040,
		"track": 4
	},
	{
		"deltaTime": 0,
		"channel": 1,
		"type": "channel",
		"subtype": "noteOff",
		"noteNumber": 60,
		"velocity": 0,
		"time": 11056,
		"track": 2
	},
	{
		"deltaTime": 16,
		"channel": 2,
		"type": "channel",
		"subtype": "noteOff",
		"noteNumber": 48,
		"velocity": 0,
		"time": 11056,
		"track": 3
	},
	{
		"deltaTime": 16,
		"channel": 9,
		"type": "channel",
		"subtype": "noteOff",
		"noteNumber": 42,
		"velocity": 0,
		"time": 11072,
		"track": 4
	},
	{
		"deltaTime": 16,
		"channel": 9,
		"type": "channel",
		"noteNumber": 42,
		"velocity": 127,
		"subtype": "noteOn",
		"time": 11088,
		"track": 4
	},
	{
		"deltaTime": 32,
		"channel": 9,
		"type": "channel",
		"subtype": "noteOff",
		"noteNumber": 42,
		"velocity": 0,
		"time": 11104,
		"track": 4
	},
	{
		"deltaTime": 0,
		"channel": 0,
		"type": "channel",
		"noteNumber": 72,
		"velocity": 85.33333333333333,
		"subtype": "noteOn",
		"time": 11136,
		"track": 1
	},
	{
		"deltaTime": 0,
		"channel": 1,
		"type": "channel",
		"noteNumber": 68,
		"velocity": 85.33333333333333,
		"subtype": "noteOn",
		"time": 11136,
		"track": 2
	},
	{
		"deltaTime": 0,
		"channel": 2,
		"type": "channel",
		"noteNumber": 44,
		"velocity": 85.33333333333333,
		"subtype": "noteOn",
		"time": 11136,
		"track": 3
	},
	{
		"deltaTime": 16,
		"channel": 9,
		"type": "channel",
		"noteNumber": 42,
		"velocity": 127,
		"subtype": "noteOn",
		"time": 11136,
		"track": 4
	},
	{
		"deltaTime": 0,
		"channel": 0,
		"type": "channel",
		"subtype": "noteOff",
		"noteNumber": 72,
		"velocity": 0,
		"time": 11152,
		"track": 1
	},
	{
		"deltaTime": 0,
		"channel": 1,
		"type": "channel",
		"subtype": "noteOff",
		"noteNumber": 68,
		"velocity": 0,
		"time": 11152,
		"track": 2
	},
	{
		"deltaTime": 8,
		"channel": 2,
		"type": "channel",
		"subtype": "noteOff",
		"noteNumber": 44,
		"velocity": 0,
		"time": 11152,
		"track": 3
	},
	{
		"deltaTime": 0,
		"channel": 0,
		"type": "channel",
		"noteNumber": 72,
		"velocity": 85.33333333333333,
		"subtype": "noteOn",
		"time": 11160,
		"track": 1
	},
	{
		"deltaTime": 8,
		"channel": 1,
		"type": "channel",
		"noteNumber": 68,
		"velocity": 85.33333333333333,
		"subtype": "noteOn",
		"time": 11160,
		"track": 2
	},
	{
		"deltaTime": 8,
		"channel": 9,
		"type": "channel",
		"subtype": "noteOff",
		"noteNumber": 42,
		"velocity": 0,
		"time": 11168,
		"track": 4
	},
	{
		"deltaTime": 0,
		"channel": 0,
		"type": "channel",
		"subtype": "noteOff",
		"noteNumber": 72,
		"velocity": 0,
		"time": 11176,
		"track": 1
	},
	{
		"deltaTime": 8,
		"channel": 1,
		"type": "channel",
		"subtype": "noteOff",
		"noteNumber": 68,
		"velocity": 0,
		"time": 11176,
		"track": 2
	},
	{
		"deltaTime": 16,
		"channel": 9,
		"type": "channel",
		"noteNumber": 42,
		"velocity": 127,
		"subtype": "noteOn",
		"time": 11184,
		"track": 4
	},
	{
		"deltaTime": 8,
		"channel": 9,
		"type": "channel",
		"subtype": "noteOff",
		"noteNumber": 42,
		"velocity": 0,
		"time": 11200,
		"track": 4
	},
	{
		"deltaTime": 0,
		"channel": 0,
		"type": "channel",
		"noteNumber": 72,
		"velocity": 85.33333333333333,
		"subtype": "noteOn",
		"time": 11208,
		"track": 1
	},
	{
		"deltaTime": 0,
		"channel": 1,
		"type": "channel",
		"noteNumber": 68,
		"velocity": 85.33333333333333,
		"subtype": "noteOn",
		"time": 11208,
		"track": 2
	},
	{
		"deltaTime": 0,
		"channel": 2,
		"type": "channel",
		"noteNumber": 51,
		"velocity": 85.33333333333333,
		"subtype": "noteOn",
		"time": 11208,
		"track": 3
	},
	{
		"deltaTime": 16,
		"channel": 9,
		"type": "channel",
		"noteNumber": 42,
		"velocity": 127,
		"subtype": "noteOn",
		"time": 11208,
		"track": 4
	},
	{
		"deltaTime": 0,
		"channel": 0,
		"type": "channel",
		"subtype": "noteOff",
		"noteNumber": 72,
		"velocity": 0,
		"time": 11224,
		"track": 1
	},
	{
		"deltaTime": 0,
		"channel": 1,
		"type": "channel",
		"subtype": "noteOff",
		"noteNumber": 68,
		"velocity": 0,
		"time": 11224,
		"track": 2
	},
	{
		"deltaTime": 16,
		"channel": 2,
		"type": "channel",
		"subtype": "noteOff",
		"noteNumber": 51,
		"velocity": 0,
		"time": 11224,
		"track": 3
	},
	{
		"deltaTime": 16,
		"channel": 9,
		"type": "channel",
		"subtype": "noteOff",
		"noteNumber": 42,
		"velocity": 0,
		"time": 11240,
		"track": 4
	},
	{
		"deltaTime": 0,
		"channel": 0,
		"type": "channel",
		"noteNumber": 72,
		"velocity": 85.33333333333333,
		"subtype": "noteOn",
		"time": 11256,
		"track": 1
	},
	{
		"deltaTime": 0,
		"channel": 1,
		"type": "channel",
		"noteNumber": 68,
		"velocity": 85.33333333333333,
		"subtype": "noteOn",
		"time": 11256,
		"track": 2
	},
	{
		"deltaTime": 16,
		"channel": 9,
		"type": "channel",
		"noteNumber": 42,
		"velocity": 127,
		"subtype": "noteOn",
		"time": 11256,
		"track": 4
	},
	{
		"deltaTime": 0,
		"channel": 0,
		"type": "channel",
		"subtype": "noteOff",
		"noteNumber": 72,
		"velocity": 0,
		"time": 11272,
		"track": 1
	},
	{
		"deltaTime": 0,
		"channel": 1,
		"type": "channel",
		"subtype": "noteOff",
		"noteNumber": 68,
		"velocity": 0,
		"time": 11272,
		"track": 2
	},
	{
		"deltaTime": 8,
		"channel": 9,
		"type": "channel",
		"subtype": "noteOff",
		"noteNumber": 42,
		"velocity": 0,
		"time": 11272,
		"track": 4
	},
	{
		"deltaTime": 0,
		"channel": 0,
		"type": "channel",
		"noteNumber": 74,
		"velocity": 85.33333333333333,
		"subtype": "noteOn",
		"time": 11280,
		"track": 1
	},
	{
		"deltaTime": 0,
		"channel": 1,
		"type": "channel",
		"noteNumber": 70,
		"velocity": 85.33333333333333,
		"subtype": "noteOn",
		"time": 11280,
		"track": 2
	},
	{
		"deltaTime": 0,
		"channel": 2,
		"type": "channel",
		"noteNumber": 56,
		"velocity": 85.33333333333333,
		"subtype": "noteOn",
		"time": 11280,
		"track": 3
	},
	{
		"deltaTime": 16,
		"channel": 9,
		"type": "channel",
		"noteNumber": 42,
		"velocity": 127,
		"subtype": "noteOn",
		"time": 11280,
		"track": 4
	},
	{
		"deltaTime": 0,
		"channel": 0,
		"type": "channel",
		"subtype": "noteOff",
		"noteNumber": 74,
		"velocity": 0,
		"time": 11296,
		"track": 1
	},
	{
		"deltaTime": 0,
		"channel": 1,
		"type": "channel",
		"subtype": "noteOff",
		"noteNumber": 70,
		"velocity": 0,
		"time": 11296,
		"track": 2
	},
	{
		"deltaTime": 16,
		"channel": 2,
		"type": "channel",
		"subtype": "noteOff",
		"noteNumber": 56,
		"velocity": 0,
		"time": 11296,
		"track": 3
	},
	{
		"deltaTime": 16,
		"channel": 9,
		"type": "channel",
		"subtype": "noteOff",
		"noteNumber": 42,
		"velocity": 0,
		"time": 11312,
		"track": 4
	},
	{
		"deltaTime": 0,
		"channel": 0,
		"type": "channel",
		"noteNumber": 76,
		"velocity": 85.33333333333333,
		"subtype": "noteOn",
		"time": 11328,
		"track": 1
	},
	{
		"deltaTime": 0,
		"channel": 1,
		"type": "channel",
		"noteNumber": 67,
		"velocity": 85.33333333333333,
		"subtype": "noteOn",
		"time": 11328,
		"track": 2
	},
	{
		"deltaTime": 0,
		"channel": 2,
		"type": "channel",
		"noteNumber": 55,
		"velocity": 85.33333333333333,
		"subtype": "noteOn",
		"time": 11328,
		"track": 3
	},
	{
		"deltaTime": 16,
		"channel": 9,
		"type": "channel",
		"noteNumber": 42,
		"velocity": 127,
		"subtype": "noteOn",
		"time": 11328,
		"track": 4
	},
	{
		"deltaTime": 0,
		"channel": 0,
		"type": "channel",
		"subtype": "noteOff",
		"noteNumber": 76,
		"velocity": 0,
		"time": 11344,
		"track": 1
	},
	{
		"deltaTime": 0,
		"channel": 1,
		"type": "channel",
		"subtype": "noteOff",
		"noteNumber": 67,
		"velocity": 0,
		"time": 11344,
		"track": 2
	},
	{
		"deltaTime": 8,
		"channel": 2,
		"type": "channel",
		"subtype": "noteOff",
		"noteNumber": 55,
		"velocity": 0,
		"time": 11344,
		"track": 3
	},
	{
		"deltaTime": 0,
		"channel": 0,
		"type": "channel",
		"noteNumber": 72,
		"velocity": 85.33333333333333,
		"subtype": "noteOn",
		"time": 11352,
		"track": 1
	},
	{
		"deltaTime": 8,
		"channel": 1,
		"type": "channel",
		"noteNumber": 64,
		"velocity": 85.33333333333333,
		"subtype": "noteOn",
		"time": 11352,
		"track": 2
	},
	{
		"deltaTime": 8,
		"channel": 9,
		"type": "channel",
		"subtype": "noteOff",
		"noteNumber": 42,
		"velocity": 0,
		"time": 11360,
		"track": 4
	},
	{
		"deltaTime": 0,
		"channel": 0,
		"type": "channel",
		"subtype": "noteOff",
		"noteNumber": 72,
		"velocity": 0,
		"time": 11368,
		"track": 1
	},
	{
		"deltaTime": 32,
		"channel": 1,
		"type": "channel",
		"subtype": "noteOff",
		"noteNumber": 64,
		"velocity": 0,
		"time": 11368,
		"track": 2
	},
	{
		"deltaTime": 0,
		"channel": 0,
		"type": "channel",
		"noteNumber": 69,
		"velocity": 85.33333333333333,
		"subtype": "noteOn",
		"time": 11400,
		"track": 1
	},
	{
		"deltaTime": 0,
		"channel": 1,
		"type": "channel",
		"noteNumber": 64,
		"velocity": 85.33333333333333,
		"subtype": "noteOn",
		"time": 11400,
		"track": 2
	},
	{
		"deltaTime": 0,
		"channel": 2,
		"type": "channel",
		"noteNumber": 48,
		"velocity": 85.33333333333333,
		"subtype": "noteOn",
		"time": 11400,
		"track": 3
	},
	{
		"deltaTime": 16,
		"channel": 9,
		"type": "channel",
		"noteNumber": 42,
		"velocity": 127,
		"subtype": "noteOn",
		"time": 11400,
		"track": 4
	},
	{
		"deltaTime": 0,
		"channel": 0,
		"type": "channel",
		"subtype": "noteOff",
		"noteNumber": 69,
		"velocity": 0,
		"time": 11416,
		"track": 1
	},
	{
		"deltaTime": 0,
		"channel": 1,
		"type": "channel",
		"subtype": "noteOff",
		"noteNumber": 64,
		"velocity": 0,
		"time": 11416,
		"track": 2
	},
	{
		"deltaTime": 8,
		"channel": 2,
		"type": "channel",
		"subtype": "noteOff",
		"noteNumber": 48,
		"velocity": 0,
		"time": 11416,
		"track": 3
	},
	{
		"deltaTime": 0,
		"channel": 0,
		"type": "channel",
		"noteNumber": 67,
		"velocity": 85.33333333333333,
		"subtype": "noteOn",
		"time": 11424,
		"track": 1
	},
	{
		"deltaTime": 8,
		"channel": 1,
		"type": "channel",
		"noteNumber": 60,
		"velocity": 85.33333333333333,
		"subtype": "noteOn",
		"time": 11424,
		"track": 2
	},
	{
		"deltaTime": 8,
		"channel": 9,
		"type": "channel",
		"subtype": "noteOff",
		"noteNumber": 42,
		"velocity": 0,
		"time": 11432,
		"track": 4
	},
	{
		"deltaTime": 0,
		"channel": 0,
		"type": "channel",
		"subtype": "noteOff",
		"noteNumber": 67,
		"velocity": 0,
		"time": 11440,
		"track": 1
	},
	{
		"deltaTime": 8,
		"channel": 1,
		"type": "channel",
		"subtype": "noteOff",
		"noteNumber": 60,
		"velocity": 0,
		"time": 11440,
		"track": 2
	},
	{
		"deltaTime": 16,
		"channel": 9,
		"type": "channel",
		"noteNumber": 42,
		"velocity": 127,
		"subtype": "noteOn",
		"time": 11448,
		"track": 4
	},
	{
		"deltaTime": 8,
		"channel": 9,
		"type": "channel",
		"subtype": "noteOff",
		"noteNumber": 42,
		"velocity": 0,
		"time": 11464,
		"track": 4
	},
	{
		"deltaTime": 0,
		"channel": 2,
		"type": "channel",
		"noteNumber": 43,
		"velocity": 85.33333333333333,
		"subtype": "noteOn",
		"time": 11472,
		"track": 3
	},
	{
		"deltaTime": 16,
		"channel": 9,
		"type": "channel",
		"noteNumber": 42,
		"velocity": 127,
		"subtype": "noteOn",
		"time": 11472,
		"track": 4
	},
	{
		"deltaTime": 0,
		"channel": 2,
		"type": "channel",
		"subtype": "noteOff",
		"noteNumber": 43,
		"velocity": 0,
		"time": 11488,
		"track": 3
	},
	{
		"deltaTime": 8,
		"channel": 9,
		"type": "channel",
		"subtype": "noteOff",
		"noteNumber": 42,
		"velocity": 0,
		"time": 11488,
		"track": 4
	},
	{
		"deltaTime": 16,
		"channel": 9,
		"type": "channel",
		"noteNumber": 42,
		"velocity": 127,
		"subtype": "noteOn",
		"time": 11496,
		"track": 4
	},
	{
		"deltaTime": 8,
		"channel": 9,
		"type": "channel",
		"subtype": "noteOff",
		"noteNumber": 42,
		"velocity": 0,
		"time": 11512,
		"track": 4
	},
	{
		"deltaTime": 0,
		"channel": 0,
		"type": "channel",
		"noteNumber": 72,
		"velocity": 85.33333333333333,
		"subtype": "noteOn",
		"time": 11520,
		"track": 1
	},
	{
		"deltaTime": 0,
		"channel": 1,
		"type": "channel",
		"noteNumber": 68,
		"velocity": 85.33333333333333,
		"subtype": "noteOn",
		"time": 11520,
		"track": 2
	},
	{
		"deltaTime": 0,
		"channel": 2,
		"type": "channel",
		"noteNumber": 44,
		"velocity": 85.33333333333333,
		"subtype": "noteOn",
		"time": 11520,
		"track": 3
	},
	{
		"deltaTime": 16,
		"channel": 9,
		"type": "channel",
		"noteNumber": 42,
		"velocity": 127,
		"subtype": "noteOn",
		"time": 11520,
		"track": 4
	},
	{
		"deltaTime": 0,
		"channel": 0,
		"type": "channel",
		"subtype": "noteOff",
		"noteNumber": 72,
		"velocity": 0,
		"time": 11536,
		"track": 1
	},
	{
		"deltaTime": 0,
		"channel": 1,
		"type": "channel",
		"subtype": "noteOff",
		"noteNumber": 68,
		"velocity": 0,
		"time": 11536,
		"track": 2
	},
	{
		"deltaTime": 8,
		"channel": 2,
		"type": "channel",
		"subtype": "noteOff",
		"noteNumber": 44,
		"velocity": 0,
		"time": 11536,
		"track": 3
	},
	{
		"deltaTime": 0,
		"channel": 0,
		"type": "channel",
		"noteNumber": 72,
		"velocity": 85.33333333333333,
		"subtype": "noteOn",
		"time": 11544,
		"track": 1
	},
	{
		"deltaTime": 8,
		"channel": 1,
		"type": "channel",
		"noteNumber": 68,
		"velocity": 85.33333333333333,
		"subtype": "noteOn",
		"time": 11544,
		"track": 2
	},
	{
		"deltaTime": 8,
		"channel": 9,
		"type": "channel",
		"subtype": "noteOff",
		"noteNumber": 42,
		"velocity": 0,
		"time": 11552,
		"track": 4
	},
	{
		"deltaTime": 0,
		"channel": 0,
		"type": "channel",
		"subtype": "noteOff",
		"noteNumber": 72,
		"velocity": 0,
		"time": 11560,
		"track": 1
	},
	{
		"deltaTime": 8,
		"channel": 1,
		"type": "channel",
		"subtype": "noteOff",
		"noteNumber": 68,
		"velocity": 0,
		"time": 11560,
		"track": 2
	},
	{
		"deltaTime": 16,
		"channel": 9,
		"type": "channel",
		"noteNumber": 42,
		"velocity": 127,
		"subtype": "noteOn",
		"time": 11568,
		"track": 4
	},
	{
		"deltaTime": 8,
		"channel": 9,
		"type": "channel",
		"subtype": "noteOff",
		"noteNumber": 42,
		"velocity": 0,
		"time": 11584,
		"track": 4
	},
	{
		"deltaTime": 0,
		"channel": 0,
		"type": "channel",
		"noteNumber": 72,
		"velocity": 85.33333333333333,
		"subtype": "noteOn",
		"time": 11592,
		"track": 1
	},
	{
		"deltaTime": 0,
		"channel": 1,
		"type": "channel",
		"noteNumber": 68,
		"velocity": 85.33333333333333,
		"subtype": "noteOn",
		"time": 11592,
		"track": 2
	},
	{
		"deltaTime": 0,
		"channel": 2,
		"type": "channel",
		"noteNumber": 51,
		"velocity": 85.33333333333333,
		"subtype": "noteOn",
		"time": 11592,
		"track": 3
	},
	{
		"deltaTime": 16,
		"channel": 9,
		"type": "channel",
		"noteNumber": 42,
		"velocity": 127,
		"subtype": "noteOn",
		"time": 11592,
		"track": 4
	},
	{
		"deltaTime": 0,
		"channel": 0,
		"type": "channel",
		"subtype": "noteOff",
		"noteNumber": 72,
		"velocity": 0,
		"time": 11608,
		"track": 1
	},
	{
		"deltaTime": 0,
		"channel": 1,
		"type": "channel",
		"subtype": "noteOff",
		"noteNumber": 68,
		"velocity": 0,
		"time": 11608,
		"track": 2
	},
	{
		"deltaTime": 16,
		"channel": 2,
		"type": "channel",
		"subtype": "noteOff",
		"noteNumber": 51,
		"velocity": 0,
		"time": 11608,
		"track": 3
	},
	{
		"deltaTime": 16,
		"channel": 9,
		"type": "channel",
		"subtype": "noteOff",
		"noteNumber": 42,
		"velocity": 0,
		"time": 11624,
		"track": 4
	},
	{
		"deltaTime": 0,
		"channel": 0,
		"type": "channel",
		"noteNumber": 72,
		"velocity": 85.33333333333333,
		"subtype": "noteOn",
		"time": 11640,
		"track": 1
	},
	{
		"deltaTime": 0,
		"channel": 1,
		"type": "channel",
		"noteNumber": 68,
		"velocity": 85.33333333333333,
		"subtype": "noteOn",
		"time": 11640,
		"track": 2
	},
	{
		"deltaTime": 16,
		"channel": 9,
		"type": "channel",
		"noteNumber": 42,
		"velocity": 127,
		"subtype": "noteOn",
		"time": 11640,
		"track": 4
	},
	{
		"deltaTime": 0,
		"channel": 0,
		"type": "channel",
		"subtype": "noteOff",
		"noteNumber": 72,
		"velocity": 0,
		"time": 11656,
		"track": 1
	},
	{
		"deltaTime": 0,
		"channel": 1,
		"type": "channel",
		"subtype": "noteOff",
		"noteNumber": 68,
		"velocity": 0,
		"time": 11656,
		"track": 2
	},
	{
		"deltaTime": 8,
		"channel": 9,
		"type": "channel",
		"subtype": "noteOff",
		"noteNumber": 42,
		"velocity": 0,
		"time": 11656,
		"track": 4
	},
	{
		"deltaTime": 0,
		"channel": 0,
		"type": "channel",
		"noteNumber": 74,
		"velocity": 85.33333333333333,
		"subtype": "noteOn",
		"time": 11664,
		"track": 1
	},
	{
		"deltaTime": 0,
		"channel": 1,
		"type": "channel",
		"noteNumber": 70,
		"velocity": 85.33333333333333,
		"subtype": "noteOn",
		"time": 11664,
		"track": 2
	},
	{
		"deltaTime": 0,
		"channel": 2,
		"type": "channel",
		"noteNumber": 56,
		"velocity": 85.33333333333333,
		"subtype": "noteOn",
		"time": 11664,
		"track": 3
	},
	{
		"deltaTime": 16,
		"channel": 9,
		"type": "channel",
		"noteNumber": 42,
		"velocity": 127,
		"subtype": "noteOn",
		"time": 11664,
		"track": 4
	},
	{
		"deltaTime": 0,
		"channel": 0,
		"type": "channel",
		"subtype": "noteOff",
		"noteNumber": 74,
		"velocity": 0,
		"time": 11680,
		"track": 1
	},
	{
		"deltaTime": 0,
		"channel": 1,
		"type": "channel",
		"subtype": "noteOff",
		"noteNumber": 70,
		"velocity": 0,
		"time": 11680,
		"track": 2
	},
	{
		"deltaTime": 8,
		"channel": 2,
		"type": "channel",
		"subtype": "noteOff",
		"noteNumber": 56,
		"velocity": 0,
		"time": 11680,
		"track": 3
	},
	{
		"deltaTime": 0,
		"channel": 0,
		"type": "channel",
		"noteNumber": 76,
		"velocity": 85.33333333333333,
		"subtype": "noteOn",
		"time": 11688,
		"track": 1
	},
	{
		"deltaTime": 8,
		"channel": 1,
		"type": "channel",
		"noteNumber": 67,
		"velocity": 85.33333333333333,
		"subtype": "noteOn",
		"time": 11688,
		"track": 2
	},
	{
		"deltaTime": 8,
		"channel": 9,
		"type": "channel",
		"subtype": "noteOff",
		"noteNumber": 42,
		"velocity": 0,
		"time": 11696,
		"track": 4
	},
	{
		"deltaTime": 0,
		"channel": 0,
		"type": "channel",
		"subtype": "noteOff",
		"noteNumber": 76,
		"velocity": 0,
		"time": 11704,
		"track": 1
	},
	{
		"deltaTime": 8,
		"channel": 1,
		"type": "channel",
		"subtype": "noteOff",
		"noteNumber": 67,
		"velocity": 0,
		"time": 11704,
		"track": 2
	},
	{
		"deltaTime": 0,
		"channel": 2,
		"type": "channel",
		"noteNumber": 55,
		"velocity": 85.33333333333333,
		"subtype": "noteOn",
		"time": 11712,
		"track": 3
	},
	{
		"deltaTime": 16,
		"channel": 9,
		"type": "channel",
		"noteNumber": 42,
		"velocity": 127,
		"subtype": "noteOn",
		"time": 11712,
		"track": 4
	},
	{
		"deltaTime": 16,
		"channel": 2,
		"type": "channel",
		"subtype": "noteOff",
		"noteNumber": 55,
		"velocity": 0,
		"time": 11728,
		"track": 3
	},
	{
		"deltaTime": 40,
		"channel": 9,
		"type": "channel",
		"subtype": "noteOff",
		"noteNumber": 42,
		"velocity": 0,
		"time": 11744,
		"track": 4
	},
	{
		"deltaTime": 0,
		"channel": 2,
		"type": "channel",
		"noteNumber": 48,
		"velocity": 85.33333333333333,
		"subtype": "noteOn",
		"time": 11784,
		"track": 3
	},
	{
		"deltaTime": 16,
		"channel": 9,
		"type": "channel",
		"noteNumber": 42,
		"velocity": 127,
		"subtype": "noteOn",
		"time": 11784,
		"track": 4
	},
	{
		"deltaTime": 16,
		"channel": 2,
		"type": "channel",
		"subtype": "noteOff",
		"noteNumber": 48,
		"velocity": 0,
		"time": 11800,
		"track": 3
	},
	{
		"deltaTime": 16,
		"channel": 9,
		"type": "channel",
		"subtype": "noteOff",
		"noteNumber": 42,
		"velocity": 0,
		"time": 11816,
		"track": 4
	},
	{
		"deltaTime": 16,
		"channel": 9,
		"type": "channel",
		"noteNumber": 42,
		"velocity": 127,
		"subtype": "noteOn",
		"time": 11832,
		"track": 4
	},
	{
		"deltaTime": 8,
		"channel": 9,
		"type": "channel",
		"subtype": "noteOff",
		"noteNumber": 42,
		"velocity": 0,
		"time": 11848,
		"track": 4
	},
	{
		"deltaTime": 0,
		"channel": 2,
		"type": "channel",
		"noteNumber": 43,
		"velocity": 85.33333333333333,
		"subtype": "noteOn",
		"time": 11856,
		"track": 3
	},
	{
		"deltaTime": 16,
		"channel": 9,
		"type": "channel",
		"noteNumber": 42,
		"velocity": 127,
		"subtype": "noteOn",
		"time": 11856,
		"track": 4
	},
	{
		"deltaTime": 0,
		"channel": 2,
		"type": "channel",
		"subtype": "noteOff",
		"noteNumber": 43,
		"velocity": 0,
		"time": 11872,
		"track": 3
	},
	{
		"deltaTime": 8,
		"channel": 9,
		"type": "channel",
		"subtype": "noteOff",
		"noteNumber": 42,
		"velocity": 0,
		"time": 11872,
		"track": 4
	},
	{
		"deltaTime": 16,
		"channel": 9,
		"type": "channel",
		"noteNumber": 42,
		"velocity": 127,
		"subtype": "noteOn",
		"time": 11880,
		"track": 4
	},
	{
		"deltaTime": 8,
		"channel": 9,
		"type": "channel",
		"subtype": "noteOff",
		"noteNumber": 42,
		"velocity": 0,
		"time": 11896,
		"track": 4
	},
	{
		"deltaTime": 0,
		"channel": 0,
		"type": "channel",
		"noteNumber": 72,
		"velocity": 85.33333333333333,
		"subtype": "noteOn",
		"time": 11904,
		"track": 1
	},
	{
		"deltaTime": 0,
		"channel": 1,
		"type": "channel",
		"noteNumber": 68,
		"velocity": 85.33333333333333,
		"subtype": "noteOn",
		"time": 11904,
		"track": 2
	},
	{
		"deltaTime": 0,
		"channel": 2,
		"type": "channel",
		"noteNumber": 44,
		"velocity": 85.33333333333333,
		"subtype": "noteOn",
		"time": 11904,
		"track": 3
	},
	{
		"deltaTime": 16,
		"channel": 9,
		"type": "channel",
		"noteNumber": 42,
		"velocity": 127,
		"subtype": "noteOn",
		"time": 11904,
		"track": 4
	},
	{
		"deltaTime": 0,
		"channel": 0,
		"type": "channel",
		"subtype": "noteOff",
		"noteNumber": 72,
		"velocity": 0,
		"time": 11920,
		"track": 1
	},
	{
		"deltaTime": 0,
		"channel": 1,
		"type": "channel",
		"subtype": "noteOff",
		"noteNumber": 68,
		"velocity": 0,
		"time": 11920,
		"track": 2
	},
	{
		"deltaTime": 8,
		"channel": 2,
		"type": "channel",
		"subtype": "noteOff",
		"noteNumber": 44,
		"velocity": 0,
		"time": 11920,
		"track": 3
	},
	{
		"deltaTime": 0,
		"channel": 0,
		"type": "channel",
		"noteNumber": 72,
		"velocity": 85.33333333333333,
		"subtype": "noteOn",
		"time": 11928,
		"track": 1
	},
	{
		"deltaTime": 8,
		"channel": 1,
		"type": "channel",
		"noteNumber": 68,
		"velocity": 85.33333333333333,
		"subtype": "noteOn",
		"time": 11928,
		"track": 2
	},
	{
		"deltaTime": 8,
		"channel": 9,
		"type": "channel",
		"subtype": "noteOff",
		"noteNumber": 42,
		"velocity": 0,
		"time": 11936,
		"track": 4
	},
	{
		"deltaTime": 0,
		"channel": 0,
		"type": "channel",
		"subtype": "noteOff",
		"noteNumber": 72,
		"velocity": 0,
		"time": 11944,
		"track": 1
	},
	{
		"deltaTime": 8,
		"channel": 1,
		"type": "channel",
		"subtype": "noteOff",
		"noteNumber": 68,
		"velocity": 0,
		"time": 11944,
		"track": 2
	},
	{
		"deltaTime": 16,
		"channel": 9,
		"type": "channel",
		"noteNumber": 42,
		"velocity": 127,
		"subtype": "noteOn",
		"time": 11952,
		"track": 4
	},
	{
		"deltaTime": 8,
		"channel": 9,
		"type": "channel",
		"subtype": "noteOff",
		"noteNumber": 42,
		"velocity": 0,
		"time": 11968,
		"track": 4
	},
	{
		"deltaTime": 0,
		"channel": 0,
		"type": "channel",
		"noteNumber": 72,
		"velocity": 85.33333333333333,
		"subtype": "noteOn",
		"time": 11976,
		"track": 1
	},
	{
		"deltaTime": 0,
		"channel": 1,
		"type": "channel",
		"noteNumber": 68,
		"velocity": 85.33333333333333,
		"subtype": "noteOn",
		"time": 11976,
		"track": 2
	},
	{
		"deltaTime": 0,
		"channel": 2,
		"type": "channel",
		"noteNumber": 51,
		"velocity": 85.33333333333333,
		"subtype": "noteOn",
		"time": 11976,
		"track": 3
	},
	{
		"deltaTime": 16,
		"channel": 9,
		"type": "channel",
		"noteNumber": 42,
		"velocity": 127,
		"subtype": "noteOn",
		"time": 11976,
		"track": 4
	},
	{
		"deltaTime": 0,
		"channel": 0,
		"type": "channel",
		"subtype": "noteOff",
		"noteNumber": 72,
		"velocity": 0,
		"time": 11992,
		"track": 1
	},
	{
		"deltaTime": 0,
		"channel": 1,
		"type": "channel",
		"subtype": "noteOff",
		"noteNumber": 68,
		"velocity": 0,
		"time": 11992,
		"track": 2
	},
	{
		"deltaTime": 16,
		"channel": 2,
		"type": "channel",
		"subtype": "noteOff",
		"noteNumber": 51,
		"velocity": 0,
		"time": 11992,
		"track": 3
	},
	{
		"deltaTime": 16,
		"channel": 9,
		"type": "channel",
		"subtype": "noteOff",
		"noteNumber": 42,
		"velocity": 0,
		"time": 12008,
		"track": 4
	},
	{
		"deltaTime": 0,
		"channel": 0,
		"type": "channel",
		"noteNumber": 72,
		"velocity": 85.33333333333333,
		"subtype": "noteOn",
		"time": 12024,
		"track": 1
	},
	{
		"deltaTime": 0,
		"channel": 1,
		"type": "channel",
		"noteNumber": 68,
		"velocity": 85.33333333333333,
		"subtype": "noteOn",
		"time": 12024,
		"track": 2
	},
	{
		"deltaTime": 16,
		"channel": 9,
		"type": "channel",
		"noteNumber": 42,
		"velocity": 127,
		"subtype": "noteOn",
		"time": 12024,
		"track": 4
	},
	{
		"deltaTime": 0,
		"channel": 0,
		"type": "channel",
		"subtype": "noteOff",
		"noteNumber": 72,
		"velocity": 0,
		"time": 12040,
		"track": 1
	},
	{
		"deltaTime": 0,
		"channel": 1,
		"type": "channel",
		"subtype": "noteOff",
		"noteNumber": 68,
		"velocity": 0,
		"time": 12040,
		"track": 2
	},
	{
		"deltaTime": 8,
		"channel": 9,
		"type": "channel",
		"subtype": "noteOff",
		"noteNumber": 42,
		"velocity": 0,
		"time": 12040,
		"track": 4
	},
	{
		"deltaTime": 0,
		"channel": 0,
		"type": "channel",
		"noteNumber": 74,
		"velocity": 85.33333333333333,
		"subtype": "noteOn",
		"time": 12048,
		"track": 1
	},
	{
		"deltaTime": 0,
		"channel": 1,
		"type": "channel",
		"noteNumber": 70,
		"velocity": 85.33333333333333,
		"subtype": "noteOn",
		"time": 12048,
		"track": 2
	},
	{
		"deltaTime": 0,
		"channel": 2,
		"type": "channel",
		"noteNumber": 56,
		"velocity": 85.33333333333333,
		"subtype": "noteOn",
		"time": 12048,
		"track": 3
	},
	{
		"deltaTime": 16,
		"channel": 9,
		"type": "channel",
		"noteNumber": 42,
		"velocity": 127,
		"subtype": "noteOn",
		"time": 12048,
		"track": 4
	},
	{
		"deltaTime": 0,
		"channel": 0,
		"type": "channel",
		"subtype": "noteOff",
		"noteNumber": 74,
		"velocity": 0,
		"time": 12064,
		"track": 1
	},
	{
		"deltaTime": 0,
		"channel": 1,
		"type": "channel",
		"subtype": "noteOff",
		"noteNumber": 70,
		"velocity": 0,
		"time": 12064,
		"track": 2
	},
	{
		"deltaTime": 16,
		"channel": 2,
		"type": "channel",
		"subtype": "noteOff",
		"noteNumber": 56,
		"velocity": 0,
		"time": 12064,
		"track": 3
	},
	{
		"deltaTime": 16,
		"channel": 9,
		"type": "channel",
		"subtype": "noteOff",
		"noteNumber": 42,
		"velocity": 0,
		"time": 12080,
		"track": 4
	},
	{
		"deltaTime": 0,
		"channel": 0,
		"type": "channel",
		"noteNumber": 76,
		"velocity": 85.33333333333333,
		"subtype": "noteOn",
		"time": 12096,
		"track": 1
	},
	{
		"deltaTime": 0,
		"channel": 1,
		"type": "channel",
		"noteNumber": 67,
		"velocity": 85.33333333333333,
		"subtype": "noteOn",
		"time": 12096,
		"track": 2
	},
	{
		"deltaTime": 0,
		"channel": 2,
		"type": "channel",
		"noteNumber": 55,
		"velocity": 85.33333333333333,
		"subtype": "noteOn",
		"time": 12096,
		"track": 3
	},
	{
		"deltaTime": 16,
		"channel": 9,
		"type": "channel",
		"noteNumber": 42,
		"velocity": 127,
		"subtype": "noteOn",
		"time": 12096,
		"track": 4
	},
	{
		"deltaTime": 0,
		"channel": 0,
		"type": "channel",
		"subtype": "noteOff",
		"noteNumber": 76,
		"velocity": 0,
		"time": 12112,
		"track": 1
	},
	{
		"deltaTime": 0,
		"channel": 1,
		"type": "channel",
		"subtype": "noteOff",
		"noteNumber": 67,
		"velocity": 0,
		"time": 12112,
		"track": 2
	},
	{
		"deltaTime": 8,
		"channel": 2,
		"type": "channel",
		"subtype": "noteOff",
		"noteNumber": 55,
		"velocity": 0,
		"time": 12112,
		"track": 3
	},
	{
		"deltaTime": 0,
		"channel": 0,
		"type": "channel",
		"noteNumber": 72,
		"velocity": 85.33333333333333,
		"subtype": "noteOn",
		"time": 12120,
		"track": 1
	},
	{
		"deltaTime": 8,
		"channel": 1,
		"type": "channel",
		"noteNumber": 64,
		"velocity": 85.33333333333333,
		"subtype": "noteOn",
		"time": 12120,
		"track": 2
	},
	{
		"deltaTime": 8,
		"channel": 9,
		"type": "channel",
		"subtype": "noteOff",
		"noteNumber": 42,
		"velocity": 0,
		"time": 12128,
		"track": 4
	},
	{
		"deltaTime": 0,
		"channel": 0,
		"type": "channel",
		"subtype": "noteOff",
		"noteNumber": 72,
		"velocity": 0,
		"time": 12136,
		"track": 1
	},
	{
		"deltaTime": 32,
		"channel": 1,
		"type": "channel",
		"subtype": "noteOff",
		"noteNumber": 64,
		"velocity": 0,
		"time": 12136,
		"track": 2
	},
	{
		"deltaTime": 0,
		"channel": 0,
		"type": "channel",
		"noteNumber": 69,
		"velocity": 85.33333333333333,
		"subtype": "noteOn",
		"time": 12168,
		"track": 1
	},
	{
		"deltaTime": 0,
		"channel": 1,
		"type": "channel",
		"noteNumber": 64,
		"velocity": 85.33333333333333,
		"subtype": "noteOn",
		"time": 12168,
		"track": 2
	},
	{
		"deltaTime": 0,
		"channel": 2,
		"type": "channel",
		"noteNumber": 48,
		"velocity": 85.33333333333333,
		"subtype": "noteOn",
		"time": 12168,
		"track": 3
	},
	{
		"deltaTime": 16,
		"channel": 9,
		"type": "channel",
		"noteNumber": 42,
		"velocity": 127,
		"subtype": "noteOn",
		"time": 12168,
		"track": 4
	},
	{
		"deltaTime": 0,
		"channel": 0,
		"type": "channel",
		"subtype": "noteOff",
		"noteNumber": 69,
		"velocity": 0,
		"time": 12184,
		"track": 1
	},
	{
		"deltaTime": 0,
		"channel": 1,
		"type": "channel",
		"subtype": "noteOff",
		"noteNumber": 64,
		"velocity": 0,
		"time": 12184,
		"track": 2
	},
	{
		"deltaTime": 8,
		"channel": 2,
		"type": "channel",
		"subtype": "noteOff",
		"noteNumber": 48,
		"velocity": 0,
		"time": 12184,
		"track": 3
	},
	{
		"deltaTime": 0,
		"channel": 0,
		"type": "channel",
		"noteNumber": 67,
		"velocity": 85.33333333333333,
		"subtype": "noteOn",
		"time": 12192,
		"track": 1
	},
	{
		"deltaTime": 8,
		"channel": 1,
		"type": "channel",
		"noteNumber": 60,
		"velocity": 85.33333333333333,
		"subtype": "noteOn",
		"time": 12192,
		"track": 2
	},
	{
		"deltaTime": 8,
		"channel": 9,
		"type": "channel",
		"subtype": "noteOff",
		"noteNumber": 42,
		"velocity": 0,
		"time": 12200,
		"track": 4
	},
	{
		"deltaTime": 0,
		"channel": 0,
		"type": "channel",
		"subtype": "noteOff",
		"noteNumber": 67,
		"velocity": 0,
		"time": 12208,
		"track": 1
	},
	{
		"deltaTime": 8,
		"channel": 1,
		"type": "channel",
		"subtype": "noteOff",
		"noteNumber": 60,
		"velocity": 0,
		"time": 12208,
		"track": 2
	},
	{
		"deltaTime": 16,
		"channel": 9,
		"type": "channel",
		"noteNumber": 42,
		"velocity": 127,
		"subtype": "noteOn",
		"time": 12216,
		"track": 4
	},
	{
		"deltaTime": 8,
		"channel": 9,
		"type": "channel",
		"subtype": "noteOff",
		"noteNumber": 42,
		"velocity": 0,
		"time": 12232,
		"track": 4
	},
	{
		"deltaTime": 0,
		"channel": 2,
		"type": "channel",
		"noteNumber": 43,
		"velocity": 85.33333333333333,
		"subtype": "noteOn",
		"time": 12240,
		"track": 3
	},
	{
		"deltaTime": 16,
		"channel": 9,
		"type": "channel",
		"noteNumber": 42,
		"velocity": 127,
		"subtype": "noteOn",
		"time": 12240,
		"track": 4
	},
	{
		"deltaTime": 0,
		"channel": 2,
		"type": "channel",
		"subtype": "noteOff",
		"noteNumber": 43,
		"velocity": 0,
		"time": 12256,
		"track": 3
	},
	{
		"deltaTime": 8,
		"channel": 9,
		"type": "channel",
		"subtype": "noteOff",
		"noteNumber": 42,
		"velocity": 0,
		"time": 12256,
		"track": 4
	},
	{
		"deltaTime": 16,
		"channel": 9,
		"type": "channel",
		"noteNumber": 42,
		"velocity": 127,
		"subtype": "noteOn",
		"time": 12264,
		"track": 4
	},
	{
		"deltaTime": 8,
		"channel": 9,
		"type": "channel",
		"subtype": "noteOff",
		"noteNumber": 42,
		"velocity": 0,
		"time": 12280,
		"track": 4
	},
	{
		"deltaTime": 0,
		"channel": 0,
		"type": "channel",
		"noteNumber": 76,
		"velocity": 85.33333333333333,
		"subtype": "noteOn",
		"time": 12288,
		"track": 1
	},
	{
		"deltaTime": 0,
		"channel": 1,
		"type": "channel",
		"noteNumber": 66,
		"velocity": 85.33333333333333,
		"subtype": "noteOn",
		"time": 12288,
		"track": 2
	},
	{
		"deltaTime": 0,
		"channel": 2,
		"type": "channel",
		"noteNumber": 50,
		"velocity": 85.33333333333333,
		"subtype": "noteOn",
		"time": 12288,
		"track": 3
	},
	{
		"deltaTime": 16,
		"channel": 9,
		"type": "channel",
		"noteNumber": 42,
		"velocity": 127,
		"subtype": "noteOn",
		"time": 12288,
		"track": 4
	},
	{
		"deltaTime": 0,
		"channel": 0,
		"type": "channel",
		"subtype": "noteOff",
		"noteNumber": 76,
		"velocity": 0,
		"time": 12304,
		"track": 1
	},
	{
		"deltaTime": 0,
		"channel": 1,
		"type": "channel",
		"subtype": "noteOff",
		"noteNumber": 66,
		"velocity": 0,
		"time": 12304,
		"track": 2
	},
	{
		"deltaTime": 8,
		"channel": 2,
		"type": "channel",
		"subtype": "noteOff",
		"noteNumber": 50,
		"velocity": 0,
		"time": 12304,
		"track": 3
	},
	{
		"deltaTime": 0,
		"channel": 0,
		"type": "channel",
		"noteNumber": 76,
		"velocity": 85.33333333333333,
		"subtype": "noteOn",
		"time": 12312,
		"track": 1
	},
	{
		"deltaTime": 0,
		"channel": 1,
		"type": "channel",
		"noteNumber": 66,
		"velocity": 85.33333333333333,
		"subtype": "noteOn",
		"time": 12312,
		"track": 2
	},
	{
		"deltaTime": 8,
		"channel": 2,
		"type": "channel",
		"noteNumber": 50,
		"velocity": 85.33333333333333,
		"subtype": "noteOn",
		"time": 12312,
		"track": 3
	},
	{
		"deltaTime": 8,
		"channel": 9,
		"type": "channel",
		"subtype": "noteOff",
		"noteNumber": 42,
		"velocity": 0,
		"time": 12320,
		"track": 4
	},
	{
		"deltaTime": 0,
		"channel": 0,
		"type": "channel",
		"subtype": "noteOff",
		"noteNumber": 76,
		"velocity": 0,
		"time": 12328,
		"track": 1
	},
	{
		"deltaTime": 0,
		"channel": 1,
		"type": "channel",
		"subtype": "noteOff",
		"noteNumber": 66,
		"velocity": 0,
		"time": 12328,
		"track": 2
	},
	{
		"deltaTime": 8,
		"channel": 2,
		"type": "channel",
		"subtype": "noteOff",
		"noteNumber": 50,
		"velocity": 0,
		"time": 12328,
		"track": 3
	},
	{
		"deltaTime": 16,
		"channel": 9,
		"type": "channel",
		"noteNumber": 42,
		"velocity": 127,
		"subtype": "noteOn",
		"time": 12336,
		"track": 4
	},
	{
		"deltaTime": 8,
		"channel": 9,
		"type": "channel",
		"subtype": "noteOff",
		"noteNumber": 42,
		"velocity": 0,
		"time": 12352,
		"track": 4
	},
	{
		"deltaTime": 0,
		"channel": 0,
		"type": "channel",
		"noteNumber": 76,
		"velocity": 85.33333333333333,
		"subtype": "noteOn",
		"time": 12360,
		"track": 1
	},
	{
		"deltaTime": 0,
		"channel": 1,
		"type": "channel",
		"noteNumber": 66,
		"velocity": 85.33333333333333,
		"subtype": "noteOn",
		"time": 12360,
		"track": 2
	},
	{
		"deltaTime": 0,
		"channel": 2,
		"type": "channel",
		"noteNumber": 50,
		"velocity": 85.33333333333333,
		"subtype": "noteOn",
		"time": 12360,
		"track": 3
	},
	{
		"deltaTime": 16,
		"channel": 9,
		"type": "channel",
		"noteNumber": 42,
		"velocity": 127,
		"subtype": "noteOn",
		"time": 12360,
		"track": 4
	},
	{
		"deltaTime": 0,
		"channel": 0,
		"type": "channel",
		"subtype": "noteOff",
		"noteNumber": 76,
		"velocity": 0,
		"time": 12376,
		"track": 1
	},
	{
		"deltaTime": 0,
		"channel": 1,
		"type": "channel",
		"subtype": "noteOff",
		"noteNumber": 66,
		"velocity": 0,
		"time": 12376,
		"track": 2
	},
	{
		"deltaTime": 16,
		"channel": 2,
		"type": "channel",
		"subtype": "noteOff",
		"noteNumber": 50,
		"velocity": 0,
		"time": 12376,
		"track": 3
	},
	{
		"deltaTime": 16,
		"channel": 9,
		"type": "channel",
		"subtype": "noteOff",
		"noteNumber": 42,
		"velocity": 0,
		"time": 12392,
		"track": 4
	},
	{
		"deltaTime": 0,
		"channel": 0,
		"type": "channel",
		"noteNumber": 72,
		"velocity": 85.33333333333333,
		"subtype": "noteOn",
		"time": 12408,
		"track": 1
	},
	{
		"deltaTime": 0,
		"channel": 1,
		"type": "channel",
		"noteNumber": 66,
		"velocity": 85.33333333333333,
		"subtype": "noteOn",
		"time": 12408,
		"track": 2
	},
	{
		"deltaTime": 0,
		"channel": 2,
		"type": "channel",
		"noteNumber": 50,
		"velocity": 85.33333333333333,
		"subtype": "noteOn",
		"time": 12408,
		"track": 3
	},
	{
		"deltaTime": 16,
		"channel": 9,
		"type": "channel",
		"noteNumber": 42,
		"velocity": 127,
		"subtype": "noteOn",
		"time": 12408,
		"track": 4
	},
	{
		"deltaTime": 0,
		"channel": 0,
		"type": "channel",
		"subtype": "noteOff",
		"noteNumber": 72,
		"velocity": 0,
		"time": 12424,
		"track": 1
	},
	{
		"deltaTime": 0,
		"channel": 1,
		"type": "channel",
		"subtype": "noteOff",
		"noteNumber": 66,
		"velocity": 0,
		"time": 12424,
		"track": 2
	},
	{
		"deltaTime": 0,
		"channel": 2,
		"type": "channel",
		"subtype": "noteOff",
		"noteNumber": 50,
		"velocity": 0,
		"time": 12424,
		"track": 3
	},
	{
		"deltaTime": 8,
		"channel": 9,
		"type": "channel",
		"subtype": "noteOff",
		"noteNumber": 42,
		"velocity": 0,
		"time": 12424,
		"track": 4
	},
	{
		"deltaTime": 0,
		"channel": 0,
		"type": "channel",
		"noteNumber": 76,
		"velocity": 85.33333333333333,
		"subtype": "noteOn",
		"time": 12432,
		"track": 1
	},
	{
		"deltaTime": 0,
		"channel": 1,
		"type": "channel",
		"noteNumber": 66,
		"velocity": 85.33333333333333,
		"subtype": "noteOn",
		"time": 12432,
		"track": 2
	},
	{
		"deltaTime": 0,
		"channel": 2,
		"type": "channel",
		"noteNumber": 50,
		"velocity": 85.33333333333333,
		"subtype": "noteOn",
		"time": 12432,
		"track": 3
	},
	{
		"deltaTime": 16,
		"channel": 9,
		"type": "channel",
		"noteNumber": 42,
		"velocity": 127,
		"subtype": "noteOn",
		"time": 12432,
		"track": 4
	},
	{
		"deltaTime": 0,
		"channel": 0,
		"type": "channel",
		"subtype": "noteOff",
		"noteNumber": 76,
		"velocity": 0,
		"time": 12448,
		"track": 1
	},
	{
		"deltaTime": 0,
		"channel": 1,
		"type": "channel",
		"subtype": "noteOff",
		"noteNumber": 66,
		"velocity": 0,
		"time": 12448,
		"track": 2
	},
	{
		"deltaTime": 16,
		"channel": 2,
		"type": "channel",
		"subtype": "noteOff",
		"noteNumber": 50,
		"velocity": 0,
		"time": 12448,
		"track": 3
	},
	{
		"deltaTime": 16,
		"channel": 9,
		"type": "channel",
		"subtype": "noteOff",
		"noteNumber": 42,
		"velocity": 0,
		"time": 12464,
		"track": 4
	},
	{
		"deltaTime": 0,
		"channel": 0,
		"type": "channel",
		"noteNumber": 79,
		"velocity": 85.33333333333333,
		"subtype": "noteOn",
		"time": 12480,
		"track": 1
	},
	{
		"deltaTime": 0,
		"channel": 1,
		"type": "channel",
		"noteNumber": 71,
		"velocity": 85.33333333333333,
		"subtype": "noteOn",
		"time": 12480,
		"track": 2
	},
	{
		"deltaTime": 0,
		"channel": 2,
		"type": "channel",
		"noteNumber": 67,
		"velocity": 85.33333333333333,
		"subtype": "noteOn",
		"time": 12480,
		"track": 3
	},
	{
		"deltaTime": 16,
		"channel": 9,
		"type": "channel",
		"noteNumber": 42,
		"velocity": 127,
		"subtype": "noteOn",
		"time": 12480,
		"track": 4
	},
	{
		"deltaTime": 0,
		"channel": 0,
		"type": "channel",
		"subtype": "noteOff",
		"noteNumber": 79,
		"velocity": 0,
		"time": 12496,
		"track": 1
	},
	{
		"deltaTime": 0,
		"channel": 1,
		"type": "channel",
		"subtype": "noteOff",
		"noteNumber": 71,
		"velocity": 0,
		"time": 12496,
		"track": 2
	},
	{
		"deltaTime": 16,
		"channel": 2,
		"type": "channel",
		"subtype": "noteOff",
		"noteNumber": 67,
		"velocity": 0,
		"time": 12496,
		"track": 3
	},
	{
		"deltaTime": 40,
		"channel": 9,
		"type": "channel",
		"subtype": "noteOff",
		"noteNumber": 42,
		"velocity": 0,
		"time": 12512,
		"track": 4
	},
	{
		"deltaTime": 24,
		"channel": 9,
		"type": "channel",
		"noteNumber": 42,
		"velocity": 127,
		"subtype": "noteOn",
		"time": 12552,
		"track": 4
	},
	{
		"deltaTime": 0,
		"channel": 1,
		"type": "channel",
		"noteNumber": 67,
		"velocity": 85.33333333333333,
		"subtype": "noteOn",
		"time": 12576,
		"track": 2
	},
	{
		"deltaTime": 8,
		"channel": 2,
		"type": "channel",
		"noteNumber": 55,
		"velocity": 85.33333333333333,
		"subtype": "noteOn",
		"time": 12576,
		"track": 3
	},
	{
		"deltaTime": 8,
		"channel": 9,
		"type": "channel",
		"subtype": "noteOff",
		"noteNumber": 42,
		"velocity": 0,
		"time": 12584,
		"track": 4
	},
	{
		"deltaTime": 0,
		"channel": 1,
		"type": "channel",
		"subtype": "noteOff",
		"noteNumber": 67,
		"velocity": 0,
		"time": 12592,
		"track": 2
	},
	{
		"deltaTime": 8,
		"channel": 2,
		"type": "channel",
		"subtype": "noteOff",
		"noteNumber": 55,
		"velocity": 0,
		"time": 12592,
		"track": 3
	},
	{
		"deltaTime": 16,
		"channel": 9,
		"type": "channel",
		"noteNumber": 42,
		"velocity": 127,
		"subtype": "noteOn",
		"time": 12600,
		"track": 4
	},
	{
		"deltaTime": 8,
		"channel": 9,
		"type": "channel",
		"subtype": "noteOff",
		"noteNumber": 42,
		"velocity": 0,
		"time": 12616,
		"track": 4
	},
	{
		"deltaTime": 16,
		"channel": 9,
		"type": "channel",
		"noteNumber": 42,
		"velocity": 127,
		"subtype": "noteOn",
		"time": 12624,
		"track": 4
	},
	{
		"deltaTime": 8,
		"channel": 9,
		"type": "channel",
		"subtype": "noteOff",
		"noteNumber": 42,
		"velocity": 0,
		"time": 12640,
		"track": 4
	},
	{
		"deltaTime": 16,
		"channel": 9,
		"type": "channel",
		"noteNumber": 42,
		"velocity": 127,
		"subtype": "noteOn",
		"time": 12648,
		"track": 4
	},
	{
		"deltaTime": 8,
		"channel": 9,
		"type": "channel",
		"subtype": "noteOff",
		"noteNumber": 42,
		"velocity": 0,
		"time": 12664,
		"track": 4
	},
	{
		"deltaTime": 0,
		"channel": 0,
		"type": "channel",
		"noteNumber": 76,
		"velocity": 85.33333333333333,
		"subtype": "noteOn",
		"time": 12672,
		"track": 1
	},
	{
		"deltaTime": 0,
		"channel": 1,
		"type": "channel",
		"noteNumber": 72,
		"velocity": 85.33333333333333,
		"subtype": "noteOn",
		"time": 12672,
		"track": 2
	},
	{
		"deltaTime": 0,
		"channel": 2,
		"type": "channel",
		"noteNumber": 48,
		"velocity": 85.33333333333333,
		"subtype": "noteOn",
		"time": 12672,
		"track": 3
	},
	{
		"deltaTime": 16,
		"channel": 9,
		"type": "channel",
		"noteNumber": 42,
		"velocity": 127,
		"subtype": "noteOn",
		"time": 12672,
		"track": 4
	},
	{
		"deltaTime": 0,
		"channel": 0,
		"type": "channel",
		"subtype": "noteOff",
		"noteNumber": 76,
		"velocity": 0,
		"time": 12688,
		"track": 1
	},
	{
		"deltaTime": 0,
		"channel": 1,
		"type": "channel",
		"subtype": "noteOff",
		"noteNumber": 72,
		"velocity": 0,
		"time": 12688,
		"track": 2
	},
	{
		"deltaTime": 0,
		"channel": 2,
		"type": "channel",
		"subtype": "noteOff",
		"noteNumber": 48,
		"velocity": 0,
		"time": 12688,
		"track": 3
	},
	{
		"deltaTime": 8,
		"channel": 9,
		"type": "channel",
		"subtype": "noteOff",
		"noteNumber": 42,
		"velocity": 0,
		"time": 12688,
		"track": 4
	},
	{
		"deltaTime": 0,
		"channel": 0,
		"type": "channel",
		"noteNumber": 72,
		"velocity": 85.33333333333333,
		"subtype": "noteOn",
		"time": 12696,
		"track": 1
	},
	{
		"deltaTime": 16,
		"channel": 1,
		"type": "channel",
		"noteNumber": 69,
		"velocity": 85.33333333333333,
		"subtype": "noteOn",
		"time": 12696,
		"track": 2
	},
	{
		"deltaTime": 0,
		"channel": 0,
		"type": "channel",
		"subtype": "noteOff",
		"noteNumber": 72,
		"velocity": 0,
		"time": 12712,
		"track": 1
	},
	{
		"deltaTime": 32,
		"channel": 1,
		"type": "channel",
		"subtype": "noteOff",
		"noteNumber": 69,
		"velocity": 0,
		"time": 12712,
		"track": 2
	},
	{
		"deltaTime": 0,
		"channel": 0,
		"type": "channel",
		"noteNumber": 67,
		"velocity": 85.33333333333333,
		"subtype": "noteOn",
		"time": 12744,
		"track": 1
	},
	{
		"deltaTime": 0,
		"channel": 1,
		"type": "channel",
		"noteNumber": 64,
		"velocity": 85.33333333333333,
		"subtype": "noteOn",
		"time": 12744,
		"track": 2
	},
	{
		"deltaTime": 0,
		"channel": 2,
		"type": "channel",
		"noteNumber": 54,
		"velocity": 85.33333333333333,
		"subtype": "noteOn",
		"time": 12744,
		"track": 3
	},
	{
		"deltaTime": 16,
		"channel": 9,
		"type": "channel",
		"noteNumber": 42,
		"velocity": 127,
		"subtype": "noteOn",
		"time": 12744,
		"track": 4
	},
	{
		"deltaTime": 0,
		"channel": 0,
		"type": "channel",
		"subtype": "noteOff",
		"noteNumber": 67,
		"velocity": 0,
		"time": 12760,
		"track": 1
	},
	{
		"deltaTime": 0,
		"channel": 1,
		"type": "channel",
		"subtype": "noteOff",
		"noteNumber": 64,
		"velocity": 0,
		"time": 12760,
		"track": 2
	},
	{
		"deltaTime": 0,
		"channel": 2,
		"type": "channel",
		"subtype": "noteOff",
		"noteNumber": 54,
		"velocity": 0,
		"time": 12760,
		"track": 3
	},
	{
		"deltaTime": 8,
		"channel": 9,
		"type": "channel",
		"subtype": "noteOff",
		"noteNumber": 42,
		"velocity": 0,
		"time": 12760,
		"track": 4
	},
	{
		"deltaTime": 0,
		"channel": 2,
		"type": "channel",
		"noteNumber": 55,
		"velocity": 85.33333333333333,
		"subtype": "noteOn",
		"time": 12768,
		"track": 3
	},
	{
		"deltaTime": 16,
		"channel": 9,
		"type": "channel",
		"noteNumber": 42,
		"velocity": 127,
		"subtype": "noteOn",
		"time": 12768,
		"track": 4
	},
	{
		"deltaTime": 16,
		"channel": 2,
		"type": "channel",
		"subtype": "noteOff",
		"noteNumber": 55,
		"velocity": 0,
		"time": 12784,
		"track": 3
	},
	{
		"deltaTime": 16,
		"channel": 9,
		"type": "channel",
		"subtype": "noteOff",
		"noteNumber": 42,
		"velocity": 0,
		"time": 12800,
		"track": 4
	},
	{
		"deltaTime": 0,
		"channel": 0,
		"type": "channel",
		"noteNumber": 68,
		"velocity": 85.33333333333333,
		"subtype": "noteOn",
		"time": 12816,
		"track": 1
	},
	{
		"deltaTime": 0,
		"channel": 1,
		"type": "channel",
		"noteNumber": 64,
		"velocity": 85.33333333333333,
		"subtype": "noteOn",
		"time": 12816,
		"track": 2
	},
	{
		"deltaTime": 0,
		"channel": 2,
		"type": "channel",
		"noteNumber": 60,
		"velocity": 85.33333333333333,
		"subtype": "noteOn",
		"time": 12816,
		"track": 3
	},
	{
		"deltaTime": 16,
		"channel": 9,
		"type": "channel",
		"noteNumber": 42,
		"velocity": 127,
		"subtype": "noteOn",
		"time": 12816,
		"track": 4
	},
	{
		"deltaTime": 0,
		"channel": 0,
		"type": "channel",
		"subtype": "noteOff",
		"noteNumber": 68,
		"velocity": 0,
		"time": 12832,
		"track": 1
	},
	{
		"deltaTime": 0,
		"channel": 1,
		"type": "channel",
		"subtype": "noteOff",
		"noteNumber": 64,
		"velocity": 0,
		"time": 12832,
		"track": 2
	},
	{
		"deltaTime": 0,
		"channel": 2,
		"type": "channel",
		"subtype": "noteOff",
		"noteNumber": 60,
		"velocity": 0,
		"time": 12832,
		"track": 3
	},
	{
		"deltaTime": 32,
		"channel": 9,
		"type": "channel",
		"subtype": "noteOff",
		"noteNumber": 42,
		"velocity": 0,
		"time": 12832,
		"track": 4
	},
	{
		"deltaTime": 0,
		"channel": 0,
		"type": "channel",
		"noteNumber": 69,
		"velocity": 85.33333333333333,
		"subtype": "noteOn",
		"time": 12864,
		"track": 1
	},
	{
		"deltaTime": 0,
		"channel": 1,
		"type": "channel",
		"noteNumber": 65,
		"velocity": 85.33333333333333,
		"subtype": "noteOn",
		"time": 12864,
		"track": 2
	},
	{
		"deltaTime": 0,
		"channel": 2,
		"type": "channel",
		"noteNumber": 53,
		"velocity": 85.33333333333333,
		"subtype": "noteOn",
		"time": 12864,
		"track": 3
	},
	{
		"deltaTime": 16,
		"channel": 9,
		"type": "channel",
		"noteNumber": 42,
		"velocity": 127,
		"subtype": "noteOn",
		"time": 12864,
		"track": 4
	},
	{
		"deltaTime": 0,
		"channel": 0,
		"type": "channel",
		"subtype": "noteOff",
		"noteNumber": 69,
		"velocity": 0,
		"time": 12880,
		"track": 1
	},
	{
		"deltaTime": 0,
		"channel": 1,
		"type": "channel",
		"subtype": "noteOff",
		"noteNumber": 65,
		"velocity": 0,
		"time": 12880,
		"track": 2
	},
	{
		"deltaTime": 0,
		"channel": 2,
		"type": "channel",
		"subtype": "noteOff",
		"noteNumber": 53,
		"velocity": 0,
		"time": 12880,
		"track": 3
	},
	{
		"deltaTime": 8,
		"channel": 9,
		"type": "channel",
		"subtype": "noteOff",
		"noteNumber": 42,
		"velocity": 0,
		"time": 12880,
		"track": 4
	},
	{
		"deltaTime": 0,
		"channel": 0,
		"type": "channel",
		"noteNumber": 77,
		"velocity": 85.33333333333333,
		"subtype": "noteOn",
		"time": 12888,
		"track": 1
	},
	{
		"deltaTime": 16,
		"channel": 1,
		"type": "channel",
		"noteNumber": 72,
		"velocity": 85.33333333333333,
		"subtype": "noteOn",
		"time": 12888,
		"track": 2
	},
	{
		"deltaTime": 0,
		"channel": 0,
		"type": "channel",
		"subtype": "noteOff",
		"noteNumber": 77,
		"velocity": 0,
		"time": 12904,
		"track": 1
	},
	{
		"deltaTime": 8,
		"channel": 1,
		"type": "channel",
		"subtype": "noteOff",
		"noteNumber": 72,
		"velocity": 0,
		"time": 12904,
		"track": 2
	},
	{
		"deltaTime": 16,
		"channel": 2,
		"type": "channel",
		"noteNumber": 53,
		"velocity": 85.33333333333333,
		"subtype": "noteOn",
		"time": 12912,
		"track": 3
	},
	{
		"deltaTime": 8,
		"channel": 2,
		"type": "channel",
		"subtype": "noteOff",
		"noteNumber": 53,
		"velocity": 0,
		"time": 12928,
		"track": 3
	},
	{
		"deltaTime": 0,
		"channel": 0,
		"type": "channel",
		"noteNumber": 77,
		"velocity": 85.33333333333333,
		"subtype": "noteOn",
		"time": 12936,
		"track": 1
	},
	{
		"deltaTime": 0,
		"channel": 1,
		"type": "channel",
		"noteNumber": 72,
		"velocity": 85.33333333333333,
		"subtype": "noteOn",
		"time": 12936,
		"track": 2
	},
	{
		"deltaTime": 16,
		"channel": 9,
		"type": "channel",
		"noteNumber": 42,
		"velocity": 127,
		"subtype": "noteOn",
		"time": 12936,
		"track": 4
	},
	{
		"deltaTime": 0,
		"channel": 0,
		"type": "channel",
		"subtype": "noteOff",
		"noteNumber": 77,
		"velocity": 0,
		"time": 12952,
		"track": 1
	},
	{
		"deltaTime": 0,
		"channel": 1,
		"type": "channel",
		"subtype": "noteOff",
		"noteNumber": 72,
		"velocity": 0,
		"time": 12952,
		"track": 2
	},
	{
		"deltaTime": 8,
		"channel": 9,
		"type": "channel",
		"subtype": "noteOff",
		"noteNumber": 42,
		"velocity": 0,
		"time": 12952,
		"track": 4
	},
	{
		"deltaTime": 0,
		"channel": 0,
		"type": "channel",
		"noteNumber": 69,
		"velocity": 85.33333333333333,
		"subtype": "noteOn",
		"time": 12960,
		"track": 1
	},
	{
		"deltaTime": 0,
		"channel": 1,
		"type": "channel",
		"noteNumber": 65,
		"velocity": 85.33333333333333,
		"subtype": "noteOn",
		"time": 12960,
		"track": 2
	},
	{
		"deltaTime": 0,
		"channel": 2,
		"type": "channel",
		"noteNumber": 60,
		"velocity": 85.33333333333333,
		"subtype": "noteOn",
		"time": 12960,
		"track": 3
	},
	{
		"deltaTime": 16,
		"channel": 9,
		"type": "channel",
		"noteNumber": 42,
		"velocity": 127,
		"subtype": "noteOn",
		"time": 12960,
		"track": 4
	},
	{
		"deltaTime": 0,
		"channel": 0,
		"type": "channel",
		"subtype": "noteOff",
		"noteNumber": 69,
		"velocity": 0,
		"time": 12976,
		"track": 1
	},
	{
		"deltaTime": 0,
		"channel": 1,
		"type": "channel",
		"subtype": "noteOff",
		"noteNumber": 65,
		"velocity": 0,
		"time": 12976,
		"track": 2
	},
	{
		"deltaTime": 8,
		"channel": 2,
		"type": "channel",
		"subtype": "noteOff",
		"noteNumber": 60,
		"velocity": 0,
		"time": 12976,
		"track": 3
	},
	{
		"deltaTime": 8,
		"channel": 2,
		"type": "channel",
		"noteNumber": 60,
		"velocity": 85.33333333333333,
		"subtype": "noteOn",
		"time": 12984,
		"track": 3
	},
	{
		"deltaTime": 8,
		"channel": 9,
		"type": "channel",
		"subtype": "noteOff",
		"noteNumber": 42,
		"velocity": 0,
		"time": 12992,
		"track": 4
	},
	{
		"deltaTime": 8,
		"channel": 2,
		"type": "channel",
		"subtype": "noteOff",
		"noteNumber": 60,
		"velocity": 0,
		"time": 13000,
		"track": 3
	},
	{
		"deltaTime": 0,
		"channel": 2,
		"type": "channel",
		"noteNumber": 53,
		"velocity": 85.33333333333333,
		"subtype": "noteOn",
		"time": 13008,
		"track": 3
	},
	{
		"deltaTime": 16,
		"channel": 9,
		"type": "channel",
		"noteNumber": 42,
		"velocity": 127,
		"subtype": "noteOn",
		"time": 13008,
		"track": 4
	},
	{
		"deltaTime": 0,
		"channel": 2,
		"type": "channel",
		"subtype": "noteOff",
		"noteNumber": 53,
		"velocity": 0,
		"time": 13024,
		"track": 3
	},
	{
		"deltaTime": 32,
		"channel": 9,
		"type": "channel",
		"subtype": "noteOff",
		"noteNumber": 42,
		"velocity": 0,
		"time": 13024,
		"track": 4
	},
	{
		"deltaTime": 0,
		"channel": 0,
		"type": "channel",
		"noteNumber": 71,
		"velocity": 85.33333333333333,
		"subtype": "noteOn",
		"time": 13056,
		"track": 1
	},
	{
		"deltaTime": 0,
		"channel": 1,
		"type": "channel",
		"noteNumber": 67,
		"velocity": 85.33333333333333,
		"subtype": "noteOn",
		"time": 13056,
		"track": 2
	},
	{
		"deltaTime": 0,
		"channel": 2,
		"type": "channel",
		"noteNumber": 50,
		"velocity": 85.33333333333333,
		"subtype": "noteOn",
		"time": 13056,
		"track": 3
	},
	{
		"deltaTime": 16,
		"channel": 9,
		"type": "channel",
		"noteNumber": 42,
		"velocity": 127,
		"subtype": "noteOn",
		"time": 13056,
		"track": 4
	},
	{
		"deltaTime": 0,
		"channel": 0,
		"type": "channel",
		"subtype": "noteOff",
		"noteNumber": 71,
		"velocity": 0,
		"time": 13072,
		"track": 1
	},
	{
		"deltaTime": 0,
		"channel": 1,
		"type": "channel",
		"subtype": "noteOff",
		"noteNumber": 67,
		"velocity": 0,
		"time": 13072,
		"track": 2
	},
	{
		"deltaTime": 0,
		"channel": 2,
		"type": "channel",
		"subtype": "noteOff",
		"noteNumber": 50,
		"velocity": 0,
		"time": 13072,
		"track": 3
	},
	{
		"deltaTime": 16,
		"channel": 9,
		"type": "channel",
		"subtype": "noteOff",
		"noteNumber": 42,
		"velocity": 0,
		"time": 13072,
		"track": 4
	},
	{
		"deltaTime": 0,
		"channel": 0,
		"type": "channel",
		"noteNumber": 81,
		"velocity": 85.33333333333333,
		"subtype": "noteOn",
		"time": 13088,
		"track": 1
	},
	{
		"deltaTime": 16,
		"channel": 1,
		"type": "channel",
		"noteNumber": 77,
		"velocity": 85.33333333333333,
		"subtype": "noteOn",
		"time": 13088,
		"track": 2
	},
	{
		"deltaTime": 0,
		"channel": 0,
		"type": "channel",
		"subtype": "noteOff",
		"noteNumber": 81,
		"velocity": 0,
		"time": 13104,
		"track": 1
	},
	{
		"deltaTime": 16,
		"channel": 1,
		"type": "channel",
		"subtype": "noteOff",
		"noteNumber": 77,
		"velocity": 0,
		"time": 13104,
		"track": 2
	},
	{
		"deltaTime": 0,
		"channel": 0,
		"type": "channel",
		"noteNumber": 81,
		"velocity": 85.33333333333333,
		"subtype": "noteOn",
		"time": 13120,
		"track": 1
	},
	{
		"deltaTime": 8,
		"channel": 1,
		"type": "channel",
		"noteNumber": 77,
		"velocity": 85.33333333333333,
		"subtype": "noteOn",
		"time": 13120,
		"track": 2
	},
	{
		"deltaTime": 0,
		"channel": 2,
		"type": "channel",
		"noteNumber": 53,
		"velocity": 85.33333333333333,
		"subtype": "noteOn",
		"time": 13128,
		"track": 3
	},
	{
		"deltaTime": 8,
		"channel": 9,
		"type": "channel",
		"noteNumber": 42,
		"velocity": 127,
		"subtype": "noteOn",
		"time": 13128,
		"track": 4
	},
	{
		"deltaTime": 0,
		"channel": 0,
		"type": "channel",
		"subtype": "noteOff",
		"noteNumber": 81,
		"velocity": 0,
		"time": 13136,
		"track": 1
	},
	{
		"deltaTime": 8,
		"channel": 1,
		"type": "channel",
		"subtype": "noteOff",
		"noteNumber": 77,
		"velocity": 0,
		"time": 13136,
		"track": 2
	},
	{
		"deltaTime": 0,
		"channel": 2,
		"type": "channel",
		"subtype": "noteOff",
		"noteNumber": 53,
		"velocity": 0,
		"time": 13144,
		"track": 3
	},
	{
		"deltaTime": 8,
		"channel": 9,
		"type": "channel",
		"subtype": "noteOff",
		"noteNumber": 42,
		"velocity": 0,
		"time": 13144,
		"track": 4
	},
	{
		"deltaTime": 0,
		"channel": 0,
		"type": "channel",
		"noteNumber": 81,
		"velocity": 85.33333333333333,
		"subtype": "noteOn",
		"time": 13152,
		"track": 1
	},
	{
		"deltaTime": 0,
		"channel": 1,
		"type": "channel",
		"noteNumber": 77,
		"velocity": 85.33333333333333,
		"subtype": "noteOn",
		"time": 13152,
		"track": 2
	},
	{
		"deltaTime": 0,
		"channel": 2,
		"type": "channel",
		"noteNumber": 55,
		"velocity": 85.33333333333333,
		"subtype": "noteOn",
		"time": 13152,
		"track": 3
	},
	{
		"deltaTime": 16,
		"channel": 9,
		"type": "channel",
		"noteNumber": 42,
		"velocity": 127,
		"subtype": "noteOn",
		"time": 13152,
		"track": 4
	},
	{
		"deltaTime": 0,
		"channel": 0,
		"type": "channel",
		"subtype": "noteOff",
		"noteNumber": 81,
		"velocity": 0,
		"time": 13168,
		"track": 1
	},
	{
		"deltaTime": 0,
		"channel": 1,
		"type": "channel",
		"subtype": "noteOff",
		"noteNumber": 77,
		"velocity": 0,
		"time": 13168,
		"track": 2
	},
	{
		"deltaTime": 16,
		"channel": 2,
		"type": "channel",
		"subtype": "noteOff",
		"noteNumber": 55,
		"velocity": 0,
		"time": 13168,
		"track": 3
	},
	{
		"deltaTime": 0,
		"channel": 0,
		"type": "channel",
		"noteNumber": 79,
		"velocity": 85.33333333333333,
		"subtype": "noteOn",
		"time": 13184,
		"track": 1
	},
	{
		"deltaTime": 0,
		"channel": 1,
		"type": "channel",
		"noteNumber": 76,
		"velocity": 85.33333333333333,
		"subtype": "noteOn",
		"time": 13184,
		"track": 2
	},
	{
		"deltaTime": 16,
		"channel": 9,
		"type": "channel",
		"subtype": "noteOff",
		"noteNumber": 42,
		"velocity": 0,
		"time": 13184,
		"track": 4
	},
	{
		"deltaTime": 0,
		"channel": 0,
		"type": "channel",
		"subtype": "noteOff",
		"noteNumber": 79,
		"velocity": 0,
		"time": 13200,
		"track": 1
	},
	{
		"deltaTime": 0,
		"channel": 1,
		"type": "channel",
		"subtype": "noteOff",
		"noteNumber": 76,
		"velocity": 0,
		"time": 13200,
		"track": 2
	},
	{
		"deltaTime": 0,
		"channel": 2,
		"type": "channel",
		"noteNumber": 59,
		"velocity": 85.33333333333333,
		"subtype": "noteOn",
		"time": 13200,
		"track": 3
	},
	{
		"deltaTime": 16,
		"channel": 9,
		"type": "channel",
		"noteNumber": 42,
		"velocity": 127,
		"subtype": "noteOn",
		"time": 13200,
		"track": 4
	},
	{
		"deltaTime": 0,
		"channel": 0,
		"type": "channel",
		"noteNumber": 77,
		"velocity": 85.33333333333333,
		"subtype": "noteOn",
		"time": 13216,
		"track": 1
	},
	{
		"deltaTime": 0,
		"channel": 1,
		"type": "channel",
		"noteNumber": 74,
		"velocity": 85.33333333333333,
		"subtype": "noteOn",
		"time": 13216,
		"track": 2
	},
	{
		"deltaTime": 0,
		"channel": 2,
		"type": "channel",
		"subtype": "noteOff",
		"noteNumber": 59,
		"velocity": 0,
		"time": 13216,
		"track": 3
	},
	{
		"deltaTime": 16,
		"channel": 9,
		"type": "channel",
		"subtype": "noteOff",
		"noteNumber": 42,
		"velocity": 0,
		"time": 13216,
		"track": 4
	},
	{
		"deltaTime": 0,
		"channel": 0,
		"type": "channel",
		"subtype": "noteOff",
		"noteNumber": 77,
		"velocity": 0,
		"time": 13232,
		"track": 1
	},
	{
		"deltaTime": 16,
		"channel": 1,
		"type": "channel",
		"subtype": "noteOff",
		"noteNumber": 74,
		"velocity": 0,
		"time": 13232,
		"track": 2
	},
	{
		"deltaTime": 0,
		"channel": 0,
		"type": "channel",
		"noteNumber": 76,
		"velocity": 85.33333333333333,
		"subtype": "noteOn",
		"time": 13248,
		"track": 1
	},
	{
		"deltaTime": 0,
		"channel": 1,
		"type": "channel",
		"noteNumber": 72,
		"velocity": 85.33333333333333,
		"subtype": "noteOn",
		"time": 13248,
		"track": 2
	},
	{
		"deltaTime": 0,
		"channel": 2,
		"type": "channel",
		"noteNumber": 55,
		"velocity": 85.33333333333333,
		"subtype": "noteOn",
		"time": 13248,
		"track": 3
	},
	{
		"deltaTime": 16,
		"channel": 9,
		"type": "channel",
		"noteNumber": 42,
		"velocity": 127,
		"subtype": "noteOn",
		"time": 13248,
		"track": 4
	},
	{
		"deltaTime": 0,
		"channel": 0,
		"type": "channel",
		"subtype": "noteOff",
		"noteNumber": 76,
		"velocity": 0,
		"time": 13264,
		"track": 1
	},
	{
		"deltaTime": 0,
		"channel": 1,
		"type": "channel",
		"subtype": "noteOff",
		"noteNumber": 72,
		"velocity": 0,
		"time": 13264,
		"track": 2
	},
	{
		"deltaTime": 0,
		"channel": 2,
		"type": "channel",
		"subtype": "noteOff",
		"noteNumber": 55,
		"velocity": 0,
		"time": 13264,
		"track": 3
	},
	{
		"deltaTime": 8,
		"channel": 9,
		"type": "channel",
		"subtype": "noteOff",
		"noteNumber": 42,
		"velocity": 0,
		"time": 13264,
		"track": 4
	},
	{
		"deltaTime": 0,
		"channel": 0,
		"type": "channel",
		"noteNumber": 72,
		"velocity": 85.33333333333333,
		"subtype": "noteOn",
		"time": 13272,
		"track": 1
	},
	{
		"deltaTime": 16,
		"channel": 1,
		"type": "channel",
		"noteNumber": 69,
		"velocity": 85.33333333333333,
		"subtype": "noteOn",
		"time": 13272,
		"track": 2
	},
	{
		"deltaTime": 0,
		"channel": 0,
		"type": "channel",
		"subtype": "noteOff",
		"noteNumber": 72,
		"velocity": 0,
		"time": 13288,
		"track": 1
	},
	{
		"deltaTime": 8,
		"channel": 1,
		"type": "channel",
		"subtype": "noteOff",
		"noteNumber": 69,
		"velocity": 0,
		"time": 13288,
		"track": 2
	},
	{
		"deltaTime": 16,
		"channel": 2,
		"type": "channel",
		"noteNumber": 55,
		"velocity": 85.33333333333333,
		"subtype": "noteOn",
		"time": 13296,
		"track": 3
	},
	{
		"deltaTime": 8,
		"channel": 2,
		"type": "channel",
		"subtype": "noteOff",
		"noteNumber": 55,
		"velocity": 0,
		"time": 13312,
		"track": 3
	},
	{
		"deltaTime": 0,
		"channel": 0,
		"type": "channel",
		"noteNumber": 69,
		"velocity": 85.33333333333333,
		"subtype": "noteOn",
		"time": 13320,
		"track": 1
	},
	{
		"deltaTime": 0,
		"channel": 1,
		"type": "channel",
		"noteNumber": 65,
		"velocity": 85.33333333333333,
		"subtype": "noteOn",
		"time": 13320,
		"track": 2
	},
	{
		"deltaTime": 16,
		"channel": 9,
		"type": "channel",
		"noteNumber": 42,
		"velocity": 127,
		"subtype": "noteOn",
		"time": 13320,
		"track": 4
	},
	{
		"deltaTime": 0,
		"channel": 0,
		"type": "channel",
		"subtype": "noteOff",
		"noteNumber": 69,
		"velocity": 0,
		"time": 13336,
		"track": 1
	},
	{
		"deltaTime": 0,
		"channel": 1,
		"type": "channel",
		"subtype": "noteOff",
		"noteNumber": 65,
		"velocity": 0,
		"time": 13336,
		"track": 2
	},
	{
		"deltaTime": 8,
		"channel": 9,
		"type": "channel",
		"subtype": "noteOff",
		"noteNumber": 42,
		"velocity": 0,
		"time": 13336,
		"track": 4
	},
	{
		"deltaTime": 0,
		"channel": 0,
		"type": "channel",
		"noteNumber": 67,
		"velocity": 85.33333333333333,
		"subtype": "noteOn",
		"time": 13344,
		"track": 1
	},
	{
		"deltaTime": 0,
		"channel": 1,
		"type": "channel",
		"noteNumber": 64,
		"velocity": 85.33333333333333,
		"subtype": "noteOn",
		"time": 13344,
		"track": 2
	},
	{
		"deltaTime": 0,
		"channel": 2,
		"type": "channel",
		"noteNumber": 60,
		"velocity": 85.33333333333333,
		"subtype": "noteOn",
		"time": 13344,
		"track": 3
	},
	{
		"deltaTime": 16,
		"channel": 9,
		"type": "channel",
		"noteNumber": 42,
		"velocity": 127,
		"subtype": "noteOn",
		"time": 13344,
		"track": 4
	},
	{
		"deltaTime": 0,
		"channel": 0,
		"type": "channel",
		"subtype": "noteOff",
		"noteNumber": 67,
		"velocity": 0,
		"time": 13360,
		"track": 1
	},
	{
		"deltaTime": 0,
		"channel": 1,
		"type": "channel",
		"subtype": "noteOff",
		"noteNumber": 64,
		"velocity": 0,
		"time": 13360,
		"track": 2
	},
	{
		"deltaTime": 8,
		"channel": 2,
		"type": "channel",
		"subtype": "noteOff",
		"noteNumber": 60,
		"velocity": 0,
		"time": 13360,
		"track": 3
	},
	{
		"deltaTime": 8,
		"channel": 2,
		"type": "channel",
		"noteNumber": 60,
		"velocity": 85.33333333333333,
		"subtype": "noteOn",
		"time": 13368,
		"track": 3
	},
	{
		"deltaTime": 8,
		"channel": 9,
		"type": "channel",
		"subtype": "noteOff",
		"noteNumber": 42,
		"velocity": 0,
		"time": 13376,
		"track": 4
	},
	{
		"deltaTime": 8,
		"channel": 2,
		"type": "channel",
		"subtype": "noteOff",
		"noteNumber": 60,
		"velocity": 0,
		"time": 13384,
		"track": 3
	},
	{
		"deltaTime": 0,
		"channel": 2,
		"type": "channel",
		"noteNumber": 55,
		"velocity": 85.33333333333333,
		"subtype": "noteOn",
		"time": 13392,
		"track": 3
	},
	{
		"deltaTime": 16,
		"channel": 9,
		"type": "channel",
		"noteNumber": 42,
		"velocity": 127,
		"subtype": "noteOn",
		"time": 13392,
		"track": 4
	},
	{
		"deltaTime": 0,
		"channel": 2,
		"type": "channel",
		"subtype": "noteOff",
		"noteNumber": 55,
		"velocity": 0,
		"time": 13408,
		"track": 3
	},
	{
		"deltaTime": 32,
		"channel": 9,
		"type": "channel",
		"subtype": "noteOff",
		"noteNumber": 42,
		"velocity": 0,
		"time": 13408,
		"track": 4
	},
	{
		"deltaTime": 0,
		"channel": 0,
		"type": "channel",
		"noteNumber": 76,
		"velocity": 85.33333333333333,
		"subtype": "noteOn",
		"time": 13440,
		"track": 1
	},
	{
		"deltaTime": 0,
		"channel": 1,
		"type": "channel",
		"noteNumber": 72,
		"velocity": 85.33333333333333,
		"subtype": "noteOn",
		"time": 13440,
		"track": 2
	},
	{
		"deltaTime": 0,
		"channel": 2,
		"type": "channel",
		"noteNumber": 48,
		"velocity": 85.33333333333333,
		"subtype": "noteOn",
		"time": 13440,
		"track": 3
	},
	{
		"deltaTime": 16,
		"channel": 9,
		"type": "channel",
		"noteNumber": 42,
		"velocity": 127,
		"subtype": "noteOn",
		"time": 13440,
		"track": 4
	},
	{
		"deltaTime": 0,
		"channel": 0,
		"type": "channel",
		"subtype": "noteOff",
		"noteNumber": 76,
		"velocity": 0,
		"time": 13456,
		"track": 1
	},
	{
		"deltaTime": 0,
		"channel": 1,
		"type": "channel",
		"subtype": "noteOff",
		"noteNumber": 72,
		"velocity": 0,
		"time": 13456,
		"track": 2
	},
	{
		"deltaTime": 0,
		"channel": 2,
		"type": "channel",
		"subtype": "noteOff",
		"noteNumber": 48,
		"velocity": 0,
		"time": 13456,
		"track": 3
	},
	{
		"deltaTime": 8,
		"channel": 9,
		"type": "channel",
		"subtype": "noteOff",
		"noteNumber": 42,
		"velocity": 0,
		"time": 13456,
		"track": 4
	},
	{
		"deltaTime": 0,
		"channel": 0,
		"type": "channel",
		"noteNumber": 72,
		"velocity": 85.33333333333333,
		"subtype": "noteOn",
		"time": 13464,
		"track": 1
	},
	{
		"deltaTime": 16,
		"channel": 1,
		"type": "channel",
		"noteNumber": 69,
		"velocity": 85.33333333333333,
		"subtype": "noteOn",
		"time": 13464,
		"track": 2
	},
	{
		"deltaTime": 0,
		"channel": 0,
		"type": "channel",
		"subtype": "noteOff",
		"noteNumber": 72,
		"velocity": 0,
		"time": 13480,
		"track": 1
	},
	{
		"deltaTime": 32,
		"channel": 1,
		"type": "channel",
		"subtype": "noteOff",
		"noteNumber": 69,
		"velocity": 0,
		"time": 13480,
		"track": 2
	},
	{
		"deltaTime": 0,
		"channel": 0,
		"type": "channel",
		"noteNumber": 67,
		"velocity": 85.33333333333333,
		"subtype": "noteOn",
		"time": 13512,
		"track": 1
	},
	{
		"deltaTime": 0,
		"channel": 1,
		"type": "channel",
		"noteNumber": 64,
		"velocity": 85.33333333333333,
		"subtype": "noteOn",
		"time": 13512,
		"track": 2
	},
	{
		"deltaTime": 0,
		"channel": 2,
		"type": "channel",
		"noteNumber": 54,
		"velocity": 85.33333333333333,
		"subtype": "noteOn",
		"time": 13512,
		"track": 3
	},
	{
		"deltaTime": 16,
		"channel": 9,
		"type": "channel",
		"noteNumber": 42,
		"velocity": 127,
		"subtype": "noteOn",
		"time": 13512,
		"track": 4
	},
	{
		"deltaTime": 0,
		"channel": 0,
		"type": "channel",
		"subtype": "noteOff",
		"noteNumber": 67,
		"velocity": 0,
		"time": 13528,
		"track": 1
	},
	{
		"deltaTime": 0,
		"channel": 1,
		"type": "channel",
		"subtype": "noteOff",
		"noteNumber": 64,
		"velocity": 0,
		"time": 13528,
		"track": 2
	},
	{
		"deltaTime": 0,
		"channel": 2,
		"type": "channel",
		"subtype": "noteOff",
		"noteNumber": 54,
		"velocity": 0,
		"time": 13528,
		"track": 3
	},
	{
		"deltaTime": 8,
		"channel": 9,
		"type": "channel",
		"subtype": "noteOff",
		"noteNumber": 42,
		"velocity": 0,
		"time": 13528,
		"track": 4
	},
	{
		"deltaTime": 0,
		"channel": 2,
		"type": "channel",
		"noteNumber": 55,
		"velocity": 85.33333333333333,
		"subtype": "noteOn",
		"time": 13536,
		"track": 3
	},
	{
		"deltaTime": 16,
		"channel": 9,
		"type": "channel",
		"noteNumber": 42,
		"velocity": 127,
		"subtype": "noteOn",
		"time": 13536,
		"track": 4
	},
	{
		"deltaTime": 16,
		"channel": 2,
		"type": "channel",
		"subtype": "noteOff",
		"noteNumber": 55,
		"velocity": 0,
		"time": 13552,
		"track": 3
	},
	{
		"deltaTime": 16,
		"channel": 9,
		"type": "channel",
		"subtype": "noteOff",
		"noteNumber": 42,
		"velocity": 0,
		"time": 13568,
		"track": 4
	},
	{
		"deltaTime": 0,
		"channel": 0,
		"type": "channel",
		"noteNumber": 68,
		"velocity": 85.33333333333333,
		"subtype": "noteOn",
		"time": 13584,
		"track": 1
	},
	{
		"deltaTime": 0,
		"channel": 1,
		"type": "channel",
		"noteNumber": 64,
		"velocity": 85.33333333333333,
		"subtype": "noteOn",
		"time": 13584,
		"track": 2
	},
	{
		"deltaTime": 0,
		"channel": 2,
		"type": "channel",
		"noteNumber": 60,
		"velocity": 85.33333333333333,
		"subtype": "noteOn",
		"time": 13584,
		"track": 3
	},
	{
		"deltaTime": 16,
		"channel": 9,
		"type": "channel",
		"noteNumber": 42,
		"velocity": 127,
		"subtype": "noteOn",
		"time": 13584,
		"track": 4
	},
	{
		"deltaTime": 0,
		"channel": 0,
		"type": "channel",
		"subtype": "noteOff",
		"noteNumber": 68,
		"velocity": 0,
		"time": 13600,
		"track": 1
	},
	{
		"deltaTime": 0,
		"channel": 1,
		"type": "channel",
		"subtype": "noteOff",
		"noteNumber": 64,
		"velocity": 0,
		"time": 13600,
		"track": 2
	},
	{
		"deltaTime": 0,
		"channel": 2,
		"type": "channel",
		"subtype": "noteOff",
		"noteNumber": 60,
		"velocity": 0,
		"time": 13600,
		"track": 3
	},
	{
		"deltaTime": 32,
		"channel": 9,
		"type": "channel",
		"subtype": "noteOff",
		"noteNumber": 42,
		"velocity": 0,
		"time": 13600,
		"track": 4
	},
	{
		"deltaTime": 0,
		"channel": 0,
		"type": "channel",
		"noteNumber": 69,
		"velocity": 85.33333333333333,
		"subtype": "noteOn",
		"time": 13632,
		"track": 1
	},
	{
		"deltaTime": 0,
		"channel": 1,
		"type": "channel",
		"noteNumber": 65,
		"velocity": 85.33333333333333,
		"subtype": "noteOn",
		"time": 13632,
		"track": 2
	},
	{
		"deltaTime": 0,
		"channel": 2,
		"type": "channel",
		"noteNumber": 53,
		"velocity": 85.33333333333333,
		"subtype": "noteOn",
		"time": 13632,
		"track": 3
	},
	{
		"deltaTime": 16,
		"channel": 9,
		"type": "channel",
		"noteNumber": 42,
		"velocity": 127,
		"subtype": "noteOn",
		"time": 13632,
		"track": 4
	},
	{
		"deltaTime": 0,
		"channel": 0,
		"type": "channel",
		"subtype": "noteOff",
		"noteNumber": 69,
		"velocity": 0,
		"time": 13648,
		"track": 1
	},
	{
		"deltaTime": 0,
		"channel": 1,
		"type": "channel",
		"subtype": "noteOff",
		"noteNumber": 65,
		"velocity": 0,
		"time": 13648,
		"track": 2
	},
	{
		"deltaTime": 0,
		"channel": 2,
		"type": "channel",
		"subtype": "noteOff",
		"noteNumber": 53,
		"velocity": 0,
		"time": 13648,
		"track": 3
	},
	{
		"deltaTime": 8,
		"channel": 9,
		"type": "channel",
		"subtype": "noteOff",
		"noteNumber": 42,
		"velocity": 0,
		"time": 13648,
		"track": 4
	},
	{
		"deltaTime": 0,
		"channel": 0,
		"type": "channel",
		"noteNumber": 77,
		"velocity": 85.33333333333333,
		"subtype": "noteOn",
		"time": 13656,
		"track": 1
	},
	{
		"deltaTime": 16,
		"channel": 1,
		"type": "channel",
		"noteNumber": 72,
		"velocity": 85.33333333333333,
		"subtype": "noteOn",
		"time": 13656,
		"track": 2
	},
	{
		"deltaTime": 0,
		"channel": 0,
		"type": "channel",
		"subtype": "noteOff",
		"noteNumber": 77,
		"velocity": 0,
		"time": 13672,
		"track": 1
	},
	{
		"deltaTime": 8,
		"channel": 1,
		"type": "channel",
		"subtype": "noteOff",
		"noteNumber": 72,
		"velocity": 0,
		"time": 13672,
		"track": 2
	},
	{
		"deltaTime": 16,
		"channel": 2,
		"type": "channel",
		"noteNumber": 53,
		"velocity": 85.33333333333333,
		"subtype": "noteOn",
		"time": 13680,
		"track": 3
	},
	{
		"deltaTime": 8,
		"channel": 2,
		"type": "channel",
		"subtype": "noteOff",
		"noteNumber": 53,
		"velocity": 0,
		"time": 13696,
		"track": 3
	},
	{
		"deltaTime": 0,
		"channel": 0,
		"type": "channel",
		"noteNumber": 77,
		"velocity": 85.33333333333333,
		"subtype": "noteOn",
		"time": 13704,
		"track": 1
	},
	{
		"deltaTime": 0,
		"channel": 1,
		"type": "channel",
		"noteNumber": 72,
		"velocity": 85.33333333333333,
		"subtype": "noteOn",
		"time": 13704,
		"track": 2
	},
	{
		"deltaTime": 16,
		"channel": 9,
		"type": "channel",
		"noteNumber": 42,
		"velocity": 127,
		"subtype": "noteOn",
		"time": 13704,
		"track": 4
	},
	{
		"deltaTime": 0,
		"channel": 0,
		"type": "channel",
		"subtype": "noteOff",
		"noteNumber": 77,
		"velocity": 0,
		"time": 13720,
		"track": 1
	},
	{
		"deltaTime": 0,
		"channel": 1,
		"type": "channel",
		"subtype": "noteOff",
		"noteNumber": 72,
		"velocity": 0,
		"time": 13720,
		"track": 2
	},
	{
		"deltaTime": 8,
		"channel": 9,
		"type": "channel",
		"subtype": "noteOff",
		"noteNumber": 42,
		"velocity": 0,
		"time": 13720,
		"track": 4
	},
	{
		"deltaTime": 0,
		"channel": 0,
		"type": "channel",
		"noteNumber": 69,
		"velocity": 85.33333333333333,
		"subtype": "noteOn",
		"time": 13728,
		"track": 1
	},
	{
		"deltaTime": 0,
		"channel": 1,
		"type": "channel",
		"noteNumber": 65,
		"velocity": 85.33333333333333,
		"subtype": "noteOn",
		"time": 13728,
		"track": 2
	},
	{
		"deltaTime": 0,
		"channel": 2,
		"type": "channel",
		"noteNumber": 60,
		"velocity": 85.33333333333333,
		"subtype": "noteOn",
		"time": 13728,
		"track": 3
	},
	{
		"deltaTime": 16,
		"channel": 9,
		"type": "channel",
		"noteNumber": 42,
		"velocity": 127,
		"subtype": "noteOn",
		"time": 13728,
		"track": 4
	},
	{
		"deltaTime": 0,
		"channel": 0,
		"type": "channel",
		"subtype": "noteOff",
		"noteNumber": 69,
		"velocity": 0,
		"time": 13744,
		"track": 1
	},
	{
		"deltaTime": 0,
		"channel": 1,
		"type": "channel",
		"subtype": "noteOff",
		"noteNumber": 65,
		"velocity": 0,
		"time": 13744,
		"track": 2
	},
	{
		"deltaTime": 8,
		"channel": 2,
		"type": "channel",
		"subtype": "noteOff",
		"noteNumber": 60,
		"velocity": 0,
		"time": 13744,
		"track": 3
	},
	{
		"deltaTime": 8,
		"channel": 2,
		"type": "channel",
		"noteNumber": 60,
		"velocity": 85.33333333333333,
		"subtype": "noteOn",
		"time": 13752,
		"track": 3
	},
	{
		"deltaTime": 8,
		"channel": 9,
		"type": "channel",
		"subtype": "noteOff",
		"noteNumber": 42,
		"velocity": 0,
		"time": 13760,
		"track": 4
	},
	{
		"deltaTime": 8,
		"channel": 2,
		"type": "channel",
		"subtype": "noteOff",
		"noteNumber": 60,
		"velocity": 0,
		"time": 13768,
		"track": 3
	},
	{
		"deltaTime": 0,
		"channel": 2,
		"type": "channel",
		"noteNumber": 53,
		"velocity": 85.33333333333333,
		"subtype": "noteOn",
		"time": 13776,
		"track": 3
	},
	{
		"deltaTime": 16,
		"channel": 9,
		"type": "channel",
		"noteNumber": 42,
		"velocity": 127,
		"subtype": "noteOn",
		"time": 13776,
		"track": 4
	},
	{
		"deltaTime": 0,
		"channel": 2,
		"type": "channel",
		"subtype": "noteOff",
		"noteNumber": 53,
		"velocity": 0,
		"time": 13792,
		"track": 3
	},
	{
		"deltaTime": 32,
		"channel": 9,
		"type": "channel",
		"subtype": "noteOff",
		"noteNumber": 42,
		"velocity": 0,
		"time": 13792,
		"track": 4
	},
	{
		"deltaTime": 0,
		"channel": 0,
		"type": "channel",
		"noteNumber": 71,
		"velocity": 85.33333333333333,
		"subtype": "noteOn",
		"time": 13824,
		"track": 1
	},
	{
		"deltaTime": 0,
		"channel": 1,
		"type": "channel",
		"noteNumber": 67,
		"velocity": 85.33333333333333,
		"subtype": "noteOn",
		"time": 13824,
		"track": 2
	},
	{
		"deltaTime": 0,
		"channel": 2,
		"type": "channel",
		"noteNumber": 55,
		"velocity": 85.33333333333333,
		"subtype": "noteOn",
		"time": 13824,
		"track": 3
	},
	{
		"deltaTime": 16,
		"channel": 9,
		"type": "channel",
		"noteNumber": 42,
		"velocity": 127,
		"subtype": "noteOn",
		"time": 13824,
		"track": 4
	},
	{
		"deltaTime": 0,
		"channel": 0,
		"type": "channel",
		"subtype": "noteOff",
		"noteNumber": 71,
		"velocity": 0,
		"time": 13840,
		"track": 1
	},
	{
		"deltaTime": 0,
		"channel": 1,
		"type": "channel",
		"subtype": "noteOff",
		"noteNumber": 67,
		"velocity": 0,
		"time": 13840,
		"track": 2
	},
	{
		"deltaTime": 0,
		"channel": 2,
		"type": "channel",
		"subtype": "noteOff",
		"noteNumber": 55,
		"velocity": 0,
		"time": 13840,
		"track": 3
	},
	{
		"deltaTime": 8,
		"channel": 9,
		"type": "channel",
		"subtype": "noteOff",
		"noteNumber": 42,
		"velocity": 0,
		"time": 13840,
		"track": 4
	},
	{
		"deltaTime": 0,
		"channel": 0,
		"type": "channel",
		"noteNumber": 77,
		"velocity": 85.33333333333333,
		"subtype": "noteOn",
		"time": 13848,
		"track": 1
	},
	{
		"deltaTime": 0,
		"channel": 1,
		"type": "channel",
		"noteNumber": 74,
		"velocity": 85.33333333333333,
		"subtype": "noteOn",
		"time": 13848,
		"track": 2
	},
	{
		"deltaTime": 16,
		"channel": 2,
		"type": "channel",
		"noteNumber": 55,
		"velocity": 85.33333333333333,
		"subtype": "noteOn",
		"time": 13848,
		"track": 3
	},
	{
		"deltaTime": 0,
		"channel": 0,
		"type": "channel",
		"subtype": "noteOff",
		"noteNumber": 77,
		"velocity": 0,
		"time": 13864,
		"track": 1
	},
	{
		"deltaTime": 0,
		"channel": 1,
		"type": "channel",
		"subtype": "noteOff",
		"noteNumber": 74,
		"velocity": 0,
		"time": 13864,
		"track": 2
	},
	{
		"deltaTime": 32,
		"channel": 2,
		"type": "channel",
		"subtype": "noteOff",
		"noteNumber": 55,
		"velocity": 0,
		"time": 13864,
		"track": 3
	},
	{
		"deltaTime": 0,
		"channel": 0,
		"type": "channel",
		"noteNumber": 77,
		"velocity": 85.33333333333333,
		"subtype": "noteOn",
		"time": 13896,
		"track": 1
	},
	{
		"deltaTime": 0,
		"channel": 1,
		"type": "channel",
		"noteNumber": 74,
		"velocity": 85.33333333333333,
		"subtype": "noteOn",
		"time": 13896,
		"track": 2
	},
	{
		"deltaTime": 0,
		"channel": 2,
		"type": "channel",
		"noteNumber": 55,
		"velocity": 85.33333333333333,
		"subtype": "noteOn",
		"time": 13896,
		"track": 3
	},
	{
		"deltaTime": 16,
		"channel": 9,
		"type": "channel",
		"noteNumber": 42,
		"velocity": 127,
		"subtype": "noteOn",
		"time": 13896,
		"track": 4
	},
	{
		"deltaTime": 0,
		"channel": 0,
		"type": "channel",
		"subtype": "noteOff",
		"noteNumber": 77,
		"velocity": 0,
		"time": 13912,
		"track": 1
	},
	{
		"deltaTime": 0,
		"channel": 1,
		"type": "channel",
		"subtype": "noteOff",
		"noteNumber": 74,
		"velocity": 0,
		"time": 13912,
		"track": 2
	},
	{
		"deltaTime": 0,
		"channel": 2,
		"type": "channel",
		"subtype": "noteOff",
		"noteNumber": 55,
		"velocity": 0,
		"time": 13912,
		"track": 3
	},
	{
		"deltaTime": 8,
		"channel": 9,
		"type": "channel",
		"subtype": "noteOff",
		"noteNumber": 42,
		"velocity": 0,
		"time": 13912,
		"track": 4
	},
	{
		"deltaTime": 0,
		"channel": 0,
		"type": "channel",
		"noteNumber": 77,
		"velocity": 85.33333333333333,
		"subtype": "noteOn",
		"time": 13920,
		"track": 1
	},
	{
		"deltaTime": 0,
		"channel": 1,
		"type": "channel",
		"noteNumber": 74,
		"velocity": 85.33333333333333,
		"subtype": "noteOn",
		"time": 13920,
		"track": 2
	},
	{
		"deltaTime": 0,
		"channel": 2,
		"type": "channel",
		"noteNumber": 55,
		"velocity": 85.33333333333333,
		"subtype": "noteOn",
		"time": 13920,
		"track": 3
	},
	{
		"deltaTime": 16,
		"channel": 9,
		"type": "channel",
		"noteNumber": 42,
		"velocity": 127,
		"subtype": "noteOn",
		"time": 13920,
		"track": 4
	},
	{
		"deltaTime": 0,
		"channel": 0,
		"type": "channel",
		"subtype": "noteOff",
		"noteNumber": 77,
		"velocity": 0,
		"time": 13936,
		"track": 1
	},
	{
		"deltaTime": 0,
		"channel": 1,
		"type": "channel",
		"subtype": "noteOff",
		"noteNumber": 74,
		"velocity": 0,
		"time": 13936,
		"track": 2
	},
	{
		"deltaTime": 16,
		"channel": 2,
		"type": "channel",
		"subtype": "noteOff",
		"noteNumber": 55,
		"velocity": 0,
		"time": 13936,
		"track": 3
	},
	{
		"deltaTime": 0,
		"channel": 0,
		"type": "channel",
		"noteNumber": 76,
		"velocity": 85.33333333333333,
		"subtype": "noteOn",
		"time": 13952,
		"track": 1
	},
	{
		"deltaTime": 0,
		"channel": 1,
		"type": "channel",
		"noteNumber": 72,
		"velocity": 85.33333333333333,
		"subtype": "noteOn",
		"time": 13952,
		"track": 2
	},
	{
		"deltaTime": 0,
		"channel": 2,
		"type": "channel",
		"noteNumber": 57,
		"velocity": 85.33333333333333,
		"subtype": "noteOn",
		"time": 13952,
		"track": 3
	},
	{
		"deltaTime": 16,
		"channel": 9,
		"type": "channel",
		"subtype": "noteOff",
		"noteNumber": 42,
		"velocity": 0,
		"time": 13952,
		"track": 4
	},
	{
		"deltaTime": 0,
		"channel": 0,
		"type": "channel",
		"subtype": "noteOff",
		"noteNumber": 76,
		"velocity": 0,
		"time": 13968,
		"track": 1
	},
	{
		"deltaTime": 0,
		"channel": 1,
		"type": "channel",
		"subtype": "noteOff",
		"noteNumber": 72,
		"velocity": 0,
		"time": 13968,
		"track": 2
	},
	{
		"deltaTime": 0,
		"channel": 2,
		"type": "channel",
		"subtype": "noteOff",
		"noteNumber": 57,
		"velocity": 0,
		"time": 13968,
		"track": 3
	},
	{
		"deltaTime": 16,
		"channel": 9,
		"type": "channel",
		"noteNumber": 42,
		"velocity": 127,
		"subtype": "noteOn",
		"time": 13968,
		"track": 4
	},
	{
		"deltaTime": 0,
		"channel": 0,
		"type": "channel",
		"noteNumber": 74,
		"velocity": 85.33333333333333,
		"subtype": "noteOn",
		"time": 13984,
		"track": 1
	},
	{
		"deltaTime": 0,
		"channel": 1,
		"type": "channel",
		"noteNumber": 71,
		"velocity": 85.33333333333333,
		"subtype": "noteOn",
		"time": 13984,
		"track": 2
	},
	{
		"deltaTime": 0,
		"channel": 2,
		"type": "channel",
		"noteNumber": 59,
		"velocity": 85.33333333333333,
		"subtype": "noteOn",
		"time": 13984,
		"track": 3
	},
	{
		"deltaTime": 16,
		"channel": 9,
		"type": "channel",
		"subtype": "noteOff",
		"noteNumber": 42,
		"velocity": 0,
		"time": 13984,
		"track": 4
	},
	{
		"deltaTime": 0,
		"channel": 0,
		"type": "channel",
		"subtype": "noteOff",
		"noteNumber": 74,
		"velocity": 0,
		"time": 14000,
		"track": 1
	},
	{
		"deltaTime": 0,
		"channel": 1,
		"type": "channel",
		"subtype": "noteOff",
		"noteNumber": 71,
		"velocity": 0,
		"time": 14000,
		"track": 2
	},
	{
		"deltaTime": 16,
		"channel": 2,
		"type": "channel",
		"subtype": "noteOff",
		"noteNumber": 59,
		"velocity": 0,
		"time": 14000,
		"track": 3
	},
	{
		"deltaTime": 0,
		"channel": 0,
		"type": "channel",
		"noteNumber": 72,
		"velocity": 85.33333333333333,
		"subtype": "noteOn",
		"time": 14016,
		"track": 1
	},
	{
		"deltaTime": 0,
		"channel": 1,
		"type": "channel",
		"noteNumber": 67,
		"velocity": 85.33333333333333,
		"subtype": "noteOn",
		"time": 14016,
		"track": 2
	},
	{
		"deltaTime": 0,
		"channel": 2,
		"type": "channel",
		"noteNumber": 60,
		"velocity": 85.33333333333333,
		"subtype": "noteOn",
		"time": 14016,
		"track": 3
	},
	{
		"deltaTime": 16,
		"channel": 9,
		"type": "channel",
		"noteNumber": 42,
		"velocity": 127,
		"subtype": "noteOn",
		"time": 14016,
		"track": 4
	},
	{
		"deltaTime": 0,
		"channel": 0,
		"type": "channel",
		"subtype": "noteOff",
		"noteNumber": 72,
		"velocity": 0,
		"time": 14032,
		"track": 1
	},
	{
		"deltaTime": 0,
		"type": "meta",
		"subtype": "endOfTrack",
		"time": 14032,
		"track": 1
	},
	{
		"deltaTime": 0,
		"channel": 1,
		"type": "channel",
		"subtype": "noteOff",
		"noteNumber": 67,
		"velocity": 0,
		"time": 14032,
		"track": 2
	},
	{
		"deltaTime": 0,
		"channel": 2,
		"type": "channel",
		"subtype": "noteOff",
		"noteNumber": 60,
		"velocity": 0,
		"time": 14032,
		"track": 3
	},
	{
		"deltaTime": 8,
		"channel": 9,
		"type": "channel",
		"subtype": "noteOff",
		"noteNumber": 42,
		"velocity": 0,
		"time": 14032,
		"track": 4
	},
	{
		"deltaTime": 16,
		"channel": 1,
		"type": "channel",
		"noteNumber": 64,
		"velocity": 85.33333333333333,
		"subtype": "noteOn",
		"time": 14040,
		"track": 2
	},
	{
		"deltaTime": 8,
		"channel": 1,
		"type": "channel",
		"subtype": "noteOff",
		"noteNumber": 64,
		"velocity": 0,
		"time": 14056,
		"track": 2
	},
	{
		"deltaTime": 16,
		"channel": 2,
		"type": "channel",
		"noteNumber": 55,
		"velocity": 85.33333333333333,
		"subtype": "noteOn",
		"time": 14064,
		"track": 3
	},
	{
		"deltaTime": 8,
		"channel": 2,
		"type": "channel",
		"subtype": "noteOff",
		"noteNumber": 55,
		"velocity": 0,
		"time": 14080,
		"track": 3
	},
	{
		"deltaTime": 0,
		"channel": 1,
		"type": "channel",
		"noteNumber": 64,
		"velocity": 85.33333333333333,
		"subtype": "noteOn",
		"time": 14088,
		"track": 2
	},
	{
		"deltaTime": 16,
		"channel": 9,
		"type": "channel",
		"noteNumber": 42,
		"velocity": 127,
		"subtype": "noteOn",
		"time": 14088,
		"track": 4
	},
	{
		"deltaTime": 0,
		"channel": 1,
		"type": "channel",
		"subtype": "noteOff",
		"noteNumber": 64,
		"velocity": 0,
		"time": 14104,
		"track": 2
	},
	{
		"deltaTime": 8,
		"channel": 9,
		"type": "channel",
		"subtype": "noteOff",
		"noteNumber": 42,
		"velocity": 0,
		"time": 14104,
		"track": 4
	},
	{
		"deltaTime": 0,
		"channel": 1,
		"type": "channel",
		"noteNumber": 60,
		"velocity": 85.33333333333333,
		"subtype": "noteOn",
		"time": 14112,
		"track": 2
	},
	{
		"deltaTime": 0,
		"channel": 2,
		"type": "channel",
		"noteNumber": 48,
		"velocity": 85.33333333333333,
		"subtype": "noteOn",
		"time": 14112,
		"track": 3
	},
	{
		"deltaTime": 16,
		"channel": 9,
		"type": "channel",
		"noteNumber": 42,
		"velocity": 127,
		"subtype": "noteOn",
		"time": 14112,
		"track": 4
	},
	{
		"deltaTime": 0,
		"channel": 1,
		"type": "channel",
		"subtype": "noteOff",
		"noteNumber": 60,
		"velocity": 0,
		"time": 14128,
		"track": 2
	},
	{
		"deltaTime": 0,
		"type": "meta",
		"subtype": "endOfTrack",
		"time": 14128,
		"track": 2
	},
	{
		"deltaTime": 0,
		"channel": 2,
		"type": "channel",
		"subtype": "noteOff",
		"noteNumber": 48,
		"velocity": 0,
		"time": 14128,
		"track": 3
	},
	{
		"deltaTime": 16,
		"type": "meta",
		"subtype": "endOfTrack",
		"time": 14128,
		"track": 3
	},
	{
		"deltaTime": 16,
		"channel": 9,
		"type": "channel",
		"subtype": "noteOff",
		"noteNumber": 42,
		"velocity": 0,
		"time": 14144,
		"track": 4
	},
	{
		"deltaTime": 16,
		"channel": 9,
		"type": "channel",
		"noteNumber": 42,
		"velocity": 127,
		"subtype": "noteOn",
		"time": 14160,
		"track": 4
	},
	{
		"deltaTime": 0,
		"channel": 9,
		"type": "channel",
		"subtype": "noteOff",
		"noteNumber": 42,
		"velocity": 0,
		"time": 14176,
		"track": 4
	},
	{
		"deltaTime": 0,
		"type": "meta",
		"subtype": "endOfTrack",
		"time": 14176,
		"track": 4,
		"deltatime": 0
	}
]